<svg width="512" height="512" fill="white" xmlns="http://www.w3.org/2000/svg"><path fill="rgb(160,160,161)" d="M 0.0 256.0 L 0.0 0.0 L 256.0 0.0 L 512.0 0.0 L 512.0 256.0 L 512.0 512.0 L 256.0 512.0 L 0.0 512.0 L 0.0 256.0 "/><path fill="rgb(160,160,161)" d="M 278.1423751919066 431.86140991706725 C 282.69601662525434 431.2485853411442 288.7640672691866 429.94129889539533 291.62693217842275 428.95632892651423 C 294.48979708765887 427.97135895763313 297.03519715448476 427.36853048781785 297.2833767713692 427.6167101047025 C 297.9884568682511 428.32179020158503 306.59230318380173 426.2435689309237 317.0 422.8542464022423 C 367.60607934642763 406.3741040762157 405.5569019152376 370.89920369935504 425.4984302264975 321.43428386119126 C 437.94236543282864 290.567128252817 440.57182661251125 246.28990901925334 432.079463697409 210.61695595139454 C 424.4581887661817 178.60308823791777 403.7040722666945 144.85397029761006 377.71575273232764 122.21390140177493 C 356.9391548765036 104.11409289915576 325.16548203951436 87.93546758655079 298.4613436472373 81.85887554316878 C 292.9826046412568 80.61217507440787 288.3803965414893 79.32510387353328 288.23421453664287 78.99871731900302 C 288.08803253179644 78.67233076447276 286.28803253179643 78.5400227566377 284.23421453664287 78.70469952381399 C 281.5005144307034 78.92388978163522 281.02821740858735 78.7782918374143 282.4714629445854 78.1612851130565 C 283.89645782029 77.55208078949896 281.9373613869922 76.99713268253232 275.4037379610826 76.159229199171 C 242.20802533410856 71.9020503828191 200.79401073780448 79.52806769241818 172.0 95.20009503300003 C 155.14835493326856 104.37212197375727 136.19826060676422 118.75234914354604 123.81751660556073 131.7632405708842 C 93.59559889585566 163.52337469599797 76.01263588237552 205.5333136048637 74.33035661740003 250.0 C 73.60565730100764 269.155545636033 74.95427951492391 282.3462321383101 79.55177243308526 301.06994265112337 C 87.03746304609857 331.5561025042195 98.97294161545085 353.60513464584596 119.5 374.86838722172183 C 152.97753720797147 409.5465820188483 192.775465771887 428.64393105252327 241.5 433.4110467565405 C 247.611329958283 434.0089676495381 268.8630262211028 433.1102155556117 278.1423751919066 431.86140991706725 "/><path fill="rgb(8,9,10)" d="M 301.70947881634993 425.5550095988852 C 334.10782821637207 410.47084041867515 354.6427889228002 371.84135863303777 348.62209646745436 337.30501803680613 C 344.08642466545007 311.2871625577979 331.49401338563564 291.75564576276537 310.06167061930614 277.4956941240778 C 293.5121861592611 266.48453913190366 281.41649754088627 262.6964880425987 257.48568917097595 261.0302815229235 C 199.7695508843399 257.0117375432481 162.68635362983537 222.17790041300674 162.70636643961996 172.0 C 162.71192860636395 158.05403978938156 164.51755503019265 149.323133860852 170.38848238128668 134.85398201222154 C 175.69806750808993 121.7682821119102 182.26268896266046 111.68862831112072 191.47565863689067 102.47565863689115 C 209.27331262308223 84.67800465070081 229.35808932945588 77.00000000000014 258.11705030667326 77.00000000000009 C 307.46451533791264 76.99999999999997 359.5168666560934 100.11664371649243 392.094756647414 136.5 C 422.61001770920655 170.57978894861628 436.9633598991222 208.6475601029349 436.96335989912274 255.5 C 436.96335989912313 291.38965533473765 429.13963286753176 320.43684021519465 411.83782072784504 348.78369696211377 C 397.57824846457663 372.14622390182217 376.6605165299578 392.83894978078797 353.4049565064324 406.5880155868973 C 339.59539751177095 414.75245175523196 319.3619215374721 423.0085989039829 304.5 426.54338646500275 C 296.1824949394842 428.52163761863073 295.7026682975311 428.35168744751866 301.70947881634993 425.5550095988852 "/><path fill="rgb(246,247,247)" d="M 241.5 433.4097116821618 C 192.81876530629074 428.6630805894804 152.97539322324536 409.5443611410247 119.5 374.86838722172183 C 98.9729416154502 353.6051346458453 87.03746304609881 331.55610250422046 79.55177243308526 301.06994265112337 C 74.95427951492246 282.3462321383042 73.60565730100741 269.1555456360391 74.33035661740003 250.0 C 76.01263588237555 205.53331360486294 93.59559889585519 163.52337469599848 123.81751660556073 131.7632405708842 C 136.19826060676144 118.75234914354894 155.14835493327232 104.37212197375524 172.0 95.20009503300003 C 187.9674165259322 86.50933671414178 208.30899290607204 80.05116344296025 229.80292521226204 76.84845405760333 C 241.10876328124652 75.16382449903557 246.3805716892744 74.90799794085082 260.0 75.38307195107029 C 269.075 75.6996268419497 278.3 76.38058090278248 280.5 76.89630319736537 C 283.47715162325756 77.59420477303243 282.45430324651505 77.66342267455433 276.5 77.16699004830349 C 272.1 76.80014552173657 262.2 76.57575121311524 254.5 76.66833602914497 C 233.58870950905532 76.91977342954087 216.8136353842376 81.7582838011954 203.5 91.37849630136157 C 179.2516096284819 108.89998171301463 163.60620313475098 137.80397974622616 162.29629292422453 167.5 C 160.25306770901096 213.82047058372183 189.68005422510947 249.26703086494922 238.62162972901487 259.4384202169634 C 242.53852607997305 260.2524577183491 252.21352607997304 261.3810597705259 260.1216297290149 261.9464247773563 C 281.83063599471427 263.49844192588915 295.6401726521006 268.10115986151817 311.51615437126634 279.07621748748977 C 333.9312102132326 294.5717335385049 347.4338407426886 319.0612706497373 348.69114955511793 346.5 C 349.27226416331297 359.181885546429 347.93660274307985 367.04274099582227 343.045778496412 379.7250712481689 C 332.3190789369807 407.5403308995654 308.17457300314123 427.2791998954163 279.5957791069576 431.5973783132695 C 270.1756560253401 433.02073341818846 248.22200394583274 434.0651361621522 241.5 433.4097116821618 "/><path fill="rgb(8,9,10)" d="M 272.3277121642119 195.15943194168213 C 279.8916159218724 191.435734367486 285.2074221347964 185.9475985920003 288.8320888963865 178.12001087028864 C 292.44131325233195 170.32577153417176 292.3934928572298 159.9654411122873 288.71051227241816 151.78032895845155 C 283.54264996646066 140.29519304861722 271.37012884805677 130.93980770048879 259.6967132103704 129.48131070263298 C 249.01157324411486 128.14629059830798 235.82798935121806 134.14172410159193 229.22227119628224 143.34002257714752 C 224.02458119557508 150.57767681678416 222.4951391190927 155.5373940786195 222.54292253641324 165.0 C 222.58922051821943 174.1684433921533 224.3823305522169 179.7015022455408 229.46812305228985 186.36931995212365 C 238.7577688665943 198.54867348406853 257.5954359005839 202.4121076952174 272.3277121642119 195.15943194168213 "/><path fill="rgb(246,247,247)" d="M 243.00644368641613 195.7871532281588 C 235.59166070875793 192.94107762467698 227.92378813876834 185.07001104601713 224.99343817542484 177.29681391113849 C 223.2021277075186 172.54509156705393 222.8797664767208 169.96755848020422 223.20539574353708 163.0 C 223.54706288609384 155.68927569132916 224.07534836840063 153.61489725028068 226.98116164234972 148.17398709360157 C 230.69470907483924 141.2206573239697 235.75936917699008 136.32817552892658 242.86387524117396 132.83122260973596 C 249.38145545302262 129.62316409842248 262.41366800422657 129.56026819511573 269.25076129115905 132.70387454607862 C 275.88775551335345 135.75547795597677 284.4501381074783 144.18146564016925 287.729458491168 150.88821439723546 C 290.06072064532503 155.65602837251913 290.4753887245361 157.77833800886003 290.48669378329333 165.0 C 290.49812390573084 172.3015525645298 290.1051659442875 174.3040331144293 287.6996356500696 179.20261262227797 C 284.1933127002535 186.34282689900263 276.67051664272316 193.2312816615999 269.4141190978584 195.94624791657054 C 261.95086007226405 198.7386109701815 250.51630306235728 198.66972276793447 243.00644368641613 195.7871532281588 "/><path fill="rgb(246,247,247)" d="M 267.705114993816 381.83737239907373 C 275.6299656860907 378.87230577032585 283.97831430880603 370.5276387504532 286.5606800475564 362.99012260683463 C 289.50090125889676 354.4080830786103 288.9900775570004 345.45343391079564 285.11076906724213 337.5734395025116 C 281.4781720874267 330.1945873271644 276.8983851298087 325.7840238241034 269.0456307991034 322.101909238594 C 261.62131585339506 318.6206875935827 249.87897114885018 318.43840966293993 242.78277189533435 321.6942274940877 C 236.09524959376446 324.7625396394749 228.64470904780603 332.09502150206674 225.92361895806295 338.286236136771 C 223.14428147079286 344.6099793273513 222.926506565609 355.1541396497345 225.43384428478674 362.0 C 231.77686668563672 379.31854676882745 250.70102856488916 388.1994164527118 267.705114993816 381.83737239907373 "/><path fill="rgb(8,9,10)" d="M 251.2697004978416 382.9459431926206 C 240.64115817167664 380.8482097527995 231.6290603957334 373.99058306935075 227.0285670423545 364.5 C 223.56429311416943 357.3533796345387 223.44376132042385 343.47811765276396 226.79149098807142 337.2085090119285 C 229.8963375254277 331.3937704841442 235.63866901444663 325.8456256473496 241.5770888220207 322.9229111779793 C 245.7473937377928 320.8704105273066 247.95234379262212 320.50195309793025 256.0 320.51277550841024 C 263.9516288678375 320.52346878224984 266.2000365623654 320.8972475135766 269.7950602761389 322.80608741138053 C 276.40011112981296 326.3131531779324 281.6632304673354 331.6144313917503 284.7202179221039 337.83945602650283 C 287.1034882371275 342.6925725805645 287.49799884940785 344.71245115263395 287.48597075024713 352.0 C 287.4739625004283 359.2755225872763 287.087800685668 361.22028083101395 284.805337043692 365.5 C 279.92505628129413 374.65073990435474 273.3102599109519 379.9250653546315 263.5399012392526 382.45605170515313 C 257.0035054241025 384.14928827359876 257.30556143633765 384.13722859566434 251.2697004978416 382.9459431926206 "/><path fill="rgb(160,160,161)" d="M 339.2016033144135 310.4780601778855 C 338.00501799968157 308.01512708004844 337.2359993402968 306.0 337.49267296022515 306.0 C 338.1701038544568 306.0 342.2107546882247 314.1225786451086 341.7583677851758 314.5749655481576 C 341.5487326409884 314.7846006923449 340.3981886291454 312.94099327572246 339.2016033144135 310.4780601778855 "/><path fill="rgb(160,160,161)" d="M 280.0 140.5 C 277.5709712296371 138.025 275.8085840538857 136.0 276.08358405388566 136.0 C 276.35858405388564 136.0 278.5709712296371 138.025 281.0 140.5 C 283.4290287703629 142.975 285.1914159461143 145.0 284.91641594611434 145.0 C 284.64141594611436 145.0 282.4290287703629 142.975 280.0 140.5 "/><path fill="rgb(160,160,161)" d="M 323.9711116842806 289.25 L 317.5 282.5 L 324.25 288.9711116842806 C 327.9625 292.53022311063484 331.0 295.56772311063486 331.0 295.7211116842806 C 331.0 296.4571289840763 329.98175560609036 295.519687258029 323.9711116842806 289.25 "/><path fill="rgb(160,160,161)" d="M 252.75 76.26275808017542 C 255.6375 76.06075559716966 260.3625 76.06075559716966 263.25 76.26275808017542 C 266.1375 76.46476056318117 263.775 76.63003532200408 258.0 76.63003532200408 C 252.225 76.63003532200408 249.8625 76.46476056318117 252.75 76.26275808017542 "/><path fill="rgb(160,160,161)" d="M 281.0 188.5 C 282.8657834620403 186.575 284.6173335673461 185.0 284.8923335673461 185.0 C 285.1673335673461 185.0 283.8657834620403 186.575 282.0 188.5 C 280.1342165379597 190.425 278.3826664326539 192.0 278.1076664326539 192.0 C 277.8326664326539 192.0 279.1342165379597 190.425 281.0 188.5 "/><path fill="rgb(160,160,161)" d="M 185.46240815616807 231.75 L 180.5 226.5 L 185.75 231.46240815616807 C 188.6375 234.19173264206051 191.0 236.5542326420605 191.0 236.71240815616807 C 191.0 237.4585996715244 190.07356646546535 236.62839378824987 185.46240815616807 231.75 "/><path fill="rgb(160,160,161)" d="M 229.27814482439373 369.75 C 227.7789622006288 367.81155807115505 226.83590286887568 366.0 227.3259730721411 366.0 C 227.57017695563113 366.0 228.50710844403426 367.125 229.40804304637027 368.5 C 231.09387559928277 371.0729056851012 230.99999134879013 371.97634617358625 229.27814482439373 369.75 "/><path fill="rgb(160,160,161)" d="M 349.3362062273101 350.0 C 349.3362062273101 345.875 349.512724193942 344.1875 349.72846837538106 346.25 C 349.9442125568201 348.3125 349.9442125568201 351.6875 349.72846837538106 353.75 C 349.512724193942 355.8125 349.3362062273101 354.125 349.3362062273101 350.0 "/><path fill="rgb(160,160,161)" d="M 255.72769568083237 261.27826796201373 C 257.5029283052902 261.05735612097453 260.6529283052902 261.053726402497 262.72769568083237 261.27020192095256 C 264.80246305637456 261.48667743940814 263.35 261.6674234911674 259.5 261.6718598137511 C 255.65 261.6762961363347 253.95246305637457 261.49917980305287 255.72769568083237 261.27826796201373 "/><path fill="rgb(160,160,161)" d="M 252.72769568083237 198.27826796201373 C 254.50292830529017 198.05735612097453 257.6529283052902 198.053726402497 259.72769568083237 198.27020192095256 C 261.80246305637456 198.4866774394081 260.35 198.66742349116745 256.5 198.6718598137511 C 252.65 198.6762961363347 250.95246305637457 198.4991798030529 252.72769568083237 198.27826796201373 "/><path fill="rgb(160,160,161)" d="M 299.0 271.5 C 297.625 270.71397895730234 296.9764916642028 270.0549248943806 297.55887036489514 270.0354354157294 C 298.14124906558743 270.01594593707824 299.49124906558745 270.6606884826583 300.55887036489514 271.46819662812953 C 303.0278469502222 273.3356366135647 302.2392543071897 273.351725125891 299.0 271.5 "/><path fill="rgb(160,160,161)" d="M 252.76790910343246 319.275268732142 C 254.5652591103203 319.0527073146734 257.2652591103203 319.05729955630983 258.76790910343243 319.28547371355626 C 260.2705590965446 319.51364787080263 258.8 319.69574357600425 255.5 319.69013083622644 C 252.2 319.6845180964486 250.9705590965446 319.49783014961065 252.76790910343246 319.275268732142 "/><path fill="rgb(160,160,161)" d="M 222.30986916377356 164.5 C 222.31548190355136 161.2 222.50216985038935 159.9705590965446 222.72473126785795 161.76790910343246 C 222.94729268532654 163.5652591103203 222.94270044369017 166.2652591103203 222.71452628644374 167.76790910343246 C 222.48635212919731 169.27055909654462 222.30425642399575 167.8 222.30986916377356 164.5 "/><path fill="rgb(160,160,161)" d="M 278.43709120476603 328.75 L 275.5 325.5 L 278.75 328.43709120476603 C 281.7794554876636 331.17487184108813 282.45965158518555 332.0 281.68709120476603 332.0 C 281.5149913673873 332.0 280.0524913673873 330.5375 278.43709120476603 328.75 "/><path fill="rgb(160,160,161)" d="M 225.0 150.35779630177154 C 225.0 149.82125093441257 225.6998247994428 148.50875093441257 226.55516622098406 147.4411296351049 C 228.02154385541706 145.61082426707046 228.04235671970537 145.642731666482 226.9197115388048 148.0 C 225.46190001257742 151.06103211012453 225.0 151.62833929114055 225.0 150.35779630177154 "/><path fill="rgb(160,160,161)" d="M 284.0802884611952 367.0 C 285.5380999874225 363.9389678898756 286.0 363.3716607088595 286.0 364.64220369822846 C 286.0 365.17874906558745 285.3001752005572 366.49124906558745 284.444833779016 367.55887036489514 C 282.978456144583 369.3891757329295 282.95764328029463 369.357268333518 284.0802884611952 367.0 "/><path fill="rgb(160,160,161)" d="M 323.5 410.0 C 324.4954863183233 408.9 325.5349751242242 408.0 325.8099751242242 408.0 C 326.0849751242242 408.0 325.4954863183233 408.9 324.5 410.0 C 323.5045136816767 411.1 322.4650248757758 412.0 322.1900248757758 412.0 C 321.9150248757758 412.0 322.5045136816767 411.1 323.5 410.0 "/><path fill="rgb(160,160,161)" d="M 280.5 372.0 C 281.4954863183233 370.9 282.5349751242242 370.0 282.8099751242242 370.0 C 283.0849751242242 370.0 282.4954863183233 370.9 281.5 372.0 C 280.5045136816767 373.1 279.4650248757758 374.0 279.1900248757758 374.0 C 278.9150248757758 374.0 279.5045136816767 373.1 280.5 372.0 "/><path fill="rgb(160,160,161)" d="M 176.0 121.0 C 176.5887021343368 119.9 177.295367516976 119.0 177.570367516976 119.0 C 177.845367516976 119.0 177.5887021343368 119.9 177.0 121.0 C 176.4112978656632 122.1 175.704632483024 123.0 175.429632483024 123.0 C 175.154632483024 123.0 175.4112978656632 122.1 176.0 121.0 "/><path fill="rgb(160,160,161)" d="M 197.5 96.0 C 198.4954863183233 94.9 199.53497512422416 94.0 199.80997512422417 94.0 C 200.08497512422417 94.0 199.4954863183233 94.9 198.5 96.0 C 197.5045136816767 97.1 196.46502487577584 98.0 196.19002487577583 98.0 C 195.91502487577583 98.0 196.5045136816767 97.1 197.5 96.0 "/><path fill="rgb(160,160,161)" d="M 184.5 109.0 C 185.4954863183233 107.9 186.53497512422416 107.0 186.80997512422417 107.0 C 187.08497512422417 107.0 186.4954863183233 107.9 185.5 109.0 C 184.5045136816767 110.1 183.46502487577584 111.0 183.19002487577583 111.0 C 182.91502487577583 111.0 183.5045136816767 110.1 184.5 109.0 "/><path fill="rgb(160,160,161)" d="M 208.0 88.57036751697599 C 208.0 88.29536751697599 208.9 87.5887021343368 210.0 87.0 C 211.1 86.4112978656632 212.0 86.154632483024 212.0 86.42963248302401 C 212.0 86.70463248302401 211.1 87.4112978656632 210.0 88.0 C 208.9 88.5887021343368 208.0 88.845367516976 208.0 88.57036751697599 "/><path fill="rgb(160,160,161)" d="M 329.5 403.0 C 330.4954863183233 401.9 331.5349751242242 401.0 331.8099751242242 401.0 C 332.0849751242242 401.0 331.4954863183233 401.9 330.5 403.0 C 329.5045136816767 404.1 328.4650248757758 405.0 328.1900248757758 405.0 C 327.9150248757758 405.0 328.5045136816767 404.1 329.5 403.0 "/><path fill="rgb(160,160,161)" d="M 217.0 253.0 C 216.175 252.46684405196876 215.95 252.0306255490341 216.5 252.0306255490341 C 217.05 252.0306255490341 218.175 252.46684405196876 219.0 253.0 C 219.825 253.53315594803124 220.05 253.9693744509659 219.5 253.9693744509659 C 218.95 253.9693744509659 217.825 253.53315594803124 217.0 253.0 "/><path fill="rgb(160,160,161)" d="M 342.03062554903414 382.5 C 342.03062554903414 381.95 342.4668440519688 380.825 343.0 380.0 C 343.5331559480312 379.175 343.96937445096586 378.95 343.96937445096586 379.5 C 343.96937445096586 380.05 343.5331559480312 381.175 343.0 382.0 C 342.4668440519688 382.825 342.03062554903414 383.05 342.03062554903414 382.5 "/><path fill="rgb(160,160,161)" d="M 291.0 268.0 C 290.175 267.4668440519688 289.95 267.03062554903414 290.5 267.03062554903414 C 291.05 267.03062554903414 292.175 267.4668440519688 293.0 268.0 C 293.825 268.5331559480312 294.05 268.96937445096586 293.5 268.96937445096586 C 292.95 268.96937445096586 291.825 268.5331559480312 291.0 268.0 "/><path fill="rgb(160,160,161)" d="M 216.0 84.0 C 216.825 83.46684405196876 217.95 83.03062554903413 218.5 83.03062554903413 C 219.05 83.03062554903413 218.825 83.46684405196876 218.0 84.0 C 217.175 84.53315594803124 216.05 84.96937445096587 215.5 84.96937445096587 C 214.95 84.96937445096587 215.175 84.53315594803124 216.0 84.0 "/><path fill="rgb(160,160,161)" d="M 243.0 132.0 C 243.825 131.46684405196876 244.95 131.0306255490341 245.5 131.0306255490341 C 246.05 131.0306255490341 245.825 131.46684405196876 245.0 132.0 C 244.175 132.53315594803124 243.05 132.9693744509659 242.5 132.9693744509659 C 241.95 132.9693744509659 242.175 132.53315594803124 243.0 132.0 "/><path fill="rgb(160,160,161)" d="M 171.0306255490341 131.5 C 171.0306255490341 130.95 171.46684405196876 129.825 172.0 129.0 C 172.53315594803124 128.175 172.9693744509659 127.95 172.9693744509659 128.5 C 172.9693744509659 129.05 172.53315594803124 130.175 172.0 131.0 C 171.46684405196876 131.825 171.0306255490341 132.05 171.0306255490341 131.5 "/><path fill="rgb(160,160,161)" d="M 253.75 129.2942669930909 C 254.9875 129.05591409850746 257.0125 129.05591409850746 258.25 129.2942669930909 C 259.4875 129.53261988767431 258.475 129.72763589233347 256.0 129.72763589233347 C 253.525 129.72763589233347 252.5125 129.53261988767431 253.75 129.2942669930909 "/><path fill="rgb(160,160,161)" d="M 232.40498756211207 373.75 L 230.5 371.5 L 232.75 373.40498756211207 C 234.8644447635172 375.1952057733447 235.45524077260524 376.0 234.65498756211207 376.0 C 234.46523072127374 376.0 233.45273072127372 374.9875 232.40498756211207 373.75 "/><path fill="rgb(160,160,161)" d="M 193.40498756211207 238.75 L 191.5 236.5 L 193.75 238.40498756211207 C 195.86444476351718 240.19520577334464 196.45524077260524 241.0 195.65498756211207 241.0 C 195.46523072127374 241.0 194.45273072127372 239.9875 193.40498756211207 238.75 "/><path fill="rgb(160,160,161)" d="M 231.40498756211207 188.75 L 229.5 186.5 L 231.75 188.40498756211207 C 233.86444476351718 190.19520577334464 234.45524077260524 191.0 233.65498756211207 191.0 C 233.46523072127374 191.0 232.45273072127372 189.9875 231.40498756211207 188.75 "/><path fill="rgb(160,160,161)" d="M 204.4411296351049 246.44483377901594 C 202.57710525755647 244.95144163527206 202.58937415944027 244.93297827488124 204.75 245.98001753750395 C 205.9875 246.57971002621358 207.0 247.2795348256564 207.0 247.53518375848802 C 207.0 248.3004037504144 206.48139212752687 248.0794218316495 204.4411296351049 246.44483377901594 "/><path fill="rgb(160,160,161)" d="M 291.2521834043085 165.5 C 291.2632827911554 163.3 291.468067649298 162.51774662466335 291.7072608668476 163.76165916591856 C 291.9464540843972 165.00557170717377 291.9373727678861 166.80557170717375 291.68708016348955 167.76165916591856 C 291.43678755909303 168.71774662466336 291.24108401746156 167.7 291.2521834043085 165.5 "/><path fill="rgb(160,160,161)" d="M 171.45888148406235 212.93346884364593 C 171.0963476064842 212.34687670765118 171.01419759025114 211.6524690764155 171.27632589243336 211.3903407742333 C 171.53845419461558 211.12821247205108 172.0193920159038 211.60815149241043 172.34507660640725 212.45687193058737 C 173.0212606446691 214.218979288368 172.44493084285418 214.52893022075617 171.45888148406235 212.93346884364593 "/><path fill="rgb(160,160,161)" d="M 236.87244471544216 377.25 C 235.62857405255176 375.6639443756342 235.66394437563417 375.62857405255176 237.25 376.87244471544216 C 238.2125 377.62728930893536 239.0 378.4147893089354 239.0 378.62244471544216 C 239.0 379.4454789049805 238.17881446834028 378.91574802019267 236.87244471544216 377.25 "/><path fill="rgb(160,160,161)" d="M 275.0 377.62244471544216 C 275.0 377.4147893089354 275.7875 376.62728930893536 276.75 375.87244471544216 C 278.3360556243658 374.62857405255176 278.37142594744824 374.6639443756342 277.12755528455784 376.25 C 275.8211855316597 377.91574802019267 275.0 378.4454789049805 275.0 377.62244471544216 "/><path fill="rgb(160,160,161)" d="M 228.0 333.62244471544216 C 228.0 333.4147893089354 228.7875 332.62728930893536 229.75 331.87244471544216 C 231.33605562436583 330.62857405255176 231.37142594744824 330.6639443756342 230.12755528455784 332.25 C 228.82118553165972 333.91574802019267 228.0 334.4454789049805 228.0 333.62244471544216 "/><path fill="rgb(160,160,161)" d="M 314.87244471544216 281.25 C 313.62857405255176 279.6639443756342 313.6639443756342 279.62857405255176 315.25 280.87244471544216 C 316.2125 281.62728930893536 317.0 282.4147893089354 317.0 282.62244471544216 C 317.0 283.4454789049805 316.1788144683403 282.91574802019267 314.87244471544216 281.25 "/><path fill="rgb(160,160,161)" d="M 201.0 93.62244471544217 C 201.0 93.41478930893537 201.7875 92.62728930893536 202.75 91.87244471544217 C 204.33605562436583 90.62857405255177 204.37142594744824 90.66394437563417 203.12755528455784 92.25 C 201.82118553165972 93.91574802019265 201.0 94.44547890498055 201.0 93.62244471544217 "/><path fill="rgb(160,160,161)" d="M 178.87244471544216 224.25 C 177.62857405255176 222.66394437563417 177.66394437563417 222.62857405255176 179.25 223.87244471544216 C 180.2125 224.62728930893536 181.0 225.41478930893535 181.0 225.62244471544216 C 181.0 226.44547890498055 180.17881446834028 225.91574802019267 178.87244471544216 224.25 "/><path fill="rgb(160,160,161)" d="M 227.87244471544216 184.25 C 226.62857405255176 182.66394437563417 226.66394437563417 182.62857405255176 228.25 183.87244471544216 C 229.2125 184.62728930893536 230.0 185.41478930893535 230.0 185.62244471544216 C 230.0 186.44547890498055 229.17881446834028 185.91574802019267 227.87244471544216 184.25 "/><path fill="rgb(160,160,161)" d="M 231.0 140.62244471544216 C 231.0 140.41478930893535 231.7875 139.62728930893536 232.75 138.87244471544216 C 234.33605562436583 137.62857405255176 234.37142594744824 137.66394437563417 233.12755528455784 139.25 C 231.82118553165972 140.91574802019267 231.0 141.44547890498055 231.0 140.62244471544216 "/><path fill="rgb(160,160,161)" d="M 180.0 114.62244471544217 C 180.0 114.41478930893537 180.7875 113.62728930893536 181.75 112.87244471544217 C 183.33605562436583 111.62857405255177 183.37142594744824 111.66394437563417 182.12755528455784 113.25 C 180.82118553165972 114.91574802019265 180.0 115.44547890498055 180.0 114.62244471544217 "/><path fill="rgb(160,160,161)" d="M 316.0 416.62244471544216 C 316.0 416.4147893089354 316.7875 415.62728930893536 317.75 414.87244471544216 C 319.3360556243658 413.62857405255176 319.37142594744824 413.6639443756342 318.12755528455784 415.25 C 316.8211855316597 416.91574802019267 316.0 417.4454789049805 316.0 416.62244471544216 "/><path fill="rgb(160,160,161)" d="M 331.87244471544216 298.25 C 330.62857405255176 296.6639443756342 330.6639443756342 296.62857405255176 332.25 297.87244471544216 C 333.91574802019267 299.1788144683403 334.4454789049805 300.0 333.62244471544216 300.0 C 333.4147893089354 300.0 332.62728930893536 299.2125 331.87244471544216 298.25 "/><path fill="rgb(160,160,161)" d="M 288.23200270095043 352.0 C 288.23200270095043 350.075 288.43779796668133 349.2875 288.68932551368573 350.25 C 288.94085306069013 351.2125 288.94085306069013 352.7875 288.68932551368573 353.75 C 288.43779796668133 354.7125 288.23200270095043 353.925 288.23200270095043 352.0 "/><path fill="rgb(160,160,161)" d="M 223.23200270095043 350.0 C 223.23200270095043 348.075 223.43779796668133 347.2875 223.68932551368573 348.25 C 223.94085306069016 349.2125 223.94085306069016 350.7875 223.68932551368573 351.75 C 223.43779796668133 352.7125 223.23200270095043 351.925 223.23200270095043 350.0 "/><path fill="rgb(160,160,161)" d="M 162.23200270095043 180.0 C 162.23200270095043 178.075 162.43779796668133 177.2875 162.68932551368573 178.25 C 162.94085306069016 179.2125 162.94085306069016 180.7875 162.68932551368573 181.75 C 162.43779796668133 182.7125 162.23200270095043 181.925 162.23200270095043 180.0 "/><path fill="rgb(160,160,161)" d="M 162.23200270095043 163.0 C 162.23200270095043 161.075 162.43779796668133 160.2875 162.68932551368573 161.25 C 162.94085306069016 162.2125 162.94085306069016 163.7875 162.68932551368573 164.75 C 162.43779796668133 165.7125 162.23200270095043 164.925 162.23200270095043 163.0 "/><path fill="rgb(160,160,161)" d="M 245.26903188937032 260.3070092793149 C 246.241999428524 260.0534658684608 247.591999428524 260.07014016038517 248.26903188937032 260.34406326136906 C 248.94606435021666 260.61798636235295 248.15 260.8254309712335 246.5 260.8050512811037 C 244.85 260.78467159097397 244.29606435021665 260.56055269016895 245.26903188937032 260.3070092793149 "/><path fill="rgb(160,160,161)" d="M 251.26903188937032 383.3070092793149 C 252.241999428524 383.0534658684608 253.591999428524 383.07014016038517 254.26903188937032 383.34406326136906 C 254.94606435021666 383.61798636235295 254.15 383.8254309712335 252.5 383.8050512811037 C 250.85 383.78467159097397 250.29606435021665 383.56055269016895 251.26903188937032 383.3070092793149 "/><path fill="rgb(160,160,161)" d="M 348.1578947368421 338.0 C 348.1578947368421 336.625 348.3848684210526 336.0625 348.6622807017544 336.75 C 348.93969298245617 337.4375 348.93969298245617 338.5625 348.6622807017544 339.25 C 348.3848684210526 339.9375 348.1578947368421 339.375 348.1578947368421 338.0 "/><path fill="rgb(160,160,161)" d="M 269.75 262.3377192982456 C 270.4375 262.06030701754383 271.5625 262.06030701754383 272.25 262.3377192982456 C 272.9375 262.6151315789474 272.375 262.8421052631579 271.0 262.8421052631579 C 269.625 262.8421052631579 269.0625 262.6151315789474 269.75 262.3377192982456 "/><path fill="rgb(160,160,161)" d="M 163.1578947368421 156.0 C 163.1578947368421 154.625 163.38486842105263 154.0625 163.66228070175438 154.75 C 163.93969298245614 155.4375 163.93969298245614 156.5625 163.66228070175438 157.25 C 163.38486842105263 157.9375 163.1578947368421 157.375 163.1578947368421 156.0 "/><path fill="rgb(160,160,161)" d="M 274.75 77.33771929824562 C 275.4375 77.06030701754385 276.5625 77.06030701754385 277.25 77.33771929824562 C 277.9375 77.61513157894737 277.375 77.84210526315789 276.0 77.84210526315789 C 274.625 77.84210526315789 274.0625 77.61513157894737 274.75 77.33771929824562 "/><path fill="rgb(160,160,161)" d="M 239.75 77.33771929824562 C 240.4375 77.06030701754385 241.5625 77.06030701754385 242.25 77.33771929824562 C 242.9375 77.61513157894737 242.375 77.84210526315789 241.0 77.84210526315789 C 239.625 77.84210526315789 239.0625 77.61513157894737 239.75 77.33771929824562 "/><path fill="rgb(160,160,161)" d="M 259.75 383.3377192982456 C 260.4375 383.06030701754383 261.5625 383.06030701754383 262.25 383.3377192982456 C 262.9375 383.6151315789474 262.375 383.8421052631579 261.0 383.8421052631579 C 259.625 383.8421052631579 259.0625 383.6151315789474 259.75 383.3377192982456 "/><path fill="rgb(160,160,161)" d="M 348.1578947368421 362.0 C 348.1578947368421 360.625 348.3848684210526 360.0625 348.6622807017544 360.75 C 348.93969298245617 361.4375 348.93969298245617 362.5625 348.6622807017544 363.25 C 348.3848684210526 363.9375 348.1578947368421 363.375 348.1578947368421 362.0 "/><path fill="rgb(160,160,161)" d="M 276.8125 263.31688596491233 C 277.534375 263.02801535087724 278.396875 263.0635416666667 278.72916666666663 263.39583333333337 C 279.0614583333333 263.728125 278.4708333333333 263.96447368421053 277.41666666666663 263.92105263157896 C 276.2517236807213 263.8730687099611 276.01476730310264 263.6361123323424 276.8125 263.31688596491233 "/><path fill="rgb(160,160,161)" d="M 224.07894736842104 357.41666666666663 C 224.12693129003895 356.2517236807213 224.36388766765762 356.01476730310264 224.68311403508773 356.8125 C 224.97198464912282 357.534375 224.93645833333335 358.396875 224.60416666666669 358.72916666666663 C 224.271875 359.0614583333333 224.03552631578947 358.4708333333333 224.07894736842104 357.41666666666663 "/><path fill="rgb(160,160,161)" d="M 239.8125 259.31688596491233 C 240.534375 259.02801535087724 241.396875 259.0635416666667 241.72916666666669 259.39583333333337 C 242.06145833333335 259.728125 241.47083333333333 259.96447368421053 240.41666666666669 259.92105263157896 C 239.2517236807213 259.8730687099611 239.01476730310262 259.6361123323424 239.8125 259.31688596491233 "/><path fill="rgb(160,160,161)" d="M 234.8125 258.31688596491233 C 235.534375 258.02801535087724 236.396875 258.0635416666667 236.72916666666669 258.39583333333337 C 237.06145833333335 258.728125 236.47083333333333 258.96447368421053 235.41666666666669 258.92105263157896 C 234.2517236807213 258.8730687099611 234.01476730310262 258.6361123323424 234.8125 258.31688596491233 "/><path fill="rgb(160,160,161)" d="M 290.07894736842104 172.41666666666669 C 290.1269312900389 171.2517236807213 290.3638876676576 171.01476730310262 290.68311403508767 171.8125 C 290.97198464912276 172.534375 290.9364583333333 173.396875 290.60416666666663 173.72916666666669 C 290.271875 174.06145833333335 290.03552631578947 173.47083333333333 290.07894736842104 172.41666666666669 "/><path fill="rgb(160,160,161)" d="M 164.07894736842104 151.41666666666669 C 164.12693129003895 150.25172368072128 164.36388766765762 150.01476730310262 164.68311403508773 150.8125 C 164.97198464912282 151.534375 164.93645833333335 152.396875 164.60416666666669 152.72916666666669 C 164.271875 153.06145833333335 164.03552631578947 152.47083333333333 164.07894736842104 151.41666666666669 "/><path fill="rgb(160,160,161)" d="M 262.8125 130.31688596491227 C 263.534375 130.02801535087718 264.396875 130.06354166666665 264.72916666666663 130.39583333333331 C 265.0614583333333 130.728125 264.4708333333333 130.96447368421053 263.41666666666663 130.92105263157896 C 262.2517236807213 130.87306870996105 262.01476730310264 130.63611233234238 262.8125 130.31688596491227 "/><path fill="rgb(160,160,161)" d="M 234.8125 78.31688596491227 C 235.534375 78.0280153508772 236.396875 78.06354166666667 236.72916666666669 78.39583333333334 C 237.06145833333335 78.728125 236.47083333333333 78.96447368421053 235.41666666666669 78.92105263157895 C 234.2517236807213 78.87306870996106 234.01476730310264 78.63611233234239 234.8125 78.31688596491227 "/><path fill="rgb(160,160,161)" d="M 165.07894736842104 196.41666666666669 C 165.12693129003895 195.25172368072128 165.36388766765762 195.01476730310262 165.68311403508773 195.8125 C 165.97198464912282 196.534375 165.93645833333335 197.396875 165.60416666666669 197.72916666666669 C 165.271875 198.06145833333335 165.03552631578947 197.47083333333333 165.07894736842104 196.41666666666669 "/><path fill="rgb(160,160,161)" d="M 164.07894736842104 192.41666666666669 C 164.12693129003895 191.25172368072128 164.36388766765762 191.01476730310262 164.68311403508773 191.8125 C 164.97198464912282 192.534375 164.93645833333335 193.396875 164.60416666666669 193.72916666666669 C 164.271875 194.06145833333335 164.03552631578947 193.47083333333333 164.07894736842104 192.41666666666669 "/><path fill="rgb(160,160,161)" d="M 163.07894736842104 187.41666666666669 C 163.12693129003895 186.25172368072128 163.36388766765762 186.01476730310262 163.68311403508773 186.8125 C 163.97198464912282 187.534375 163.93645833333335 188.396875 163.60416666666669 188.72916666666669 C 163.271875 189.06145833333335 163.03552631578947 188.47083333333333 163.07894736842104 187.41666666666669 "/><path fill="rgb(160,160,161)" d="M 223.07894736842104 155.41666666666669 C 223.12693129003895 154.25172368072128 223.36388766765762 154.01476730310262 223.68311403508773 154.8125 C 223.97198464912282 155.534375 223.93645833333335 156.396875 223.60416666666669 156.72916666666669 C 223.271875 157.06145833333335 223.03552631578947 156.47083333333333 223.07894736842104 155.41666666666669 "/><path fill="rgb(160,160,161)" d="M 347.07894736842104 332.41666666666663 C 347.1269312900389 331.2517236807213 347.3638876676576 331.01476730310264 347.68311403508767 331.8125 C 347.97198464912276 332.534375 347.9364583333333 333.396875 347.60416666666663 333.72916666666663 C 347.271875 334.0614583333333 347.03552631578947 333.4708333333333 347.07894736842104 332.41666666666663 "/><path fill="rgb(160,160,161)" d="M 346.07894736842104 328.41666666666663 C 346.1269312900389 327.2517236807213 346.3638876676576 327.01476730310264 346.68311403508767 327.8125 C 346.97198464912276 328.534375 346.9364583333333 329.396875 346.60416666666663 329.72916666666663 C 346.271875 330.0614583333333 346.03552631578947 329.4708333333333 346.07894736842104 328.41666666666663 "/><path fill="rgb(160,160,161)" d="M 280.8125 264.31688596491233 C 281.534375 264.02801535087724 282.396875 264.0635416666667 282.72916666666663 264.39583333333337 C 283.0614583333333 264.728125 282.4708333333333 264.96447368421053 281.41666666666663 264.92105263157896 C 280.2517236807213 264.8730687099611 280.01476730310264 264.6361123323424 280.8125 264.31688596491233 "/><path fill="rgb(160,160,161)" d="M 230.8125 257.31688596491233 C 231.534375 257.02801535087724 232.396875 257.0635416666667 232.72916666666669 257.39583333333337 C 233.06145833333335 257.728125 232.47083333333333 257.96447368421053 231.41666666666669 257.92105263157896 C 230.2517236807213 257.8730687099611 230.01476730310262 257.6361123323424 230.8125 257.31688596491233 "/><path fill="rgb(160,160,161)" d="M 290.07894736842104 157.41666666666669 C 290.1269312900389 156.2517236807213 290.3638876676576 156.01476730310262 290.68311403508767 156.8125 C 290.97198464912276 157.534375 290.9364583333333 158.396875 290.60416666666663 158.72916666666669 C 290.271875 159.06145833333335 290.03552631578947 158.47083333333333 290.07894736842104 157.41666666666669 "/><path fill="rgb(160,160,161)" d="M 287.07894736842104 344.41666666666663 C 287.1269312900389 343.2517236807213 287.3638876676576 343.01476730310264 287.68311403508767 343.8125 C 287.97198464912276 344.534375 287.9364583333333 345.396875 287.60416666666663 345.72916666666663 C 287.271875 346.0614583333333 287.03552631578947 345.4708333333333 287.07894736842104 344.41666666666663 "/></svg>