<svg width="643" height="384" fill="white" xmlns="http://www.w3.org/2000/svg"><path fill="rgb(0,255,255)" d="M 0.0 192.0 L 0.0 0.0 L 321.5 0.0 L 643.0 0.0 L 643.0 192.0 L 643.0 384.0 L 321.5 384.0 L 0.0 384.0 L 0.0 192.0 "/><path fill="rgb(255,0,128)" d="M 0.0 192.0 L 0.0 0.0 L 321.5 0.0 L 643.0 0.0 L 643.0 192.0 L 643.0 384.0 L 321.5 384.0 L 0.0 384.0 L 0.0 192.0 "/><path fill="rgb(0,0,254)" d="M 0.0 192.0 L 0.0 0.0 L 321.5 0.0 L 643.0 0.0 L 643.0 192.0 L 643.0 384.0 L 321.5 384.0 L 0.0 384.0 L 0.0 192.0 "/><path fill="rgb(255,0,0)" d="M 0.0 192.0 L 0.0 0.0 L 321.5 0.0 L 643.0 0.0 L 643.0 192.0 L 643.0 384.0 L 321.5 384.0 L 0.0 384.0 L 0.0 192.0 "/><path fill="rgb(252,255,255)" d="M 0.0 192.0 L 0.0 0.0 L 321.5 0.0 L 643.0 0.0 L 643.0 192.0 L 643.0 384.0 L 321.5 384.0 L 0.0 384.0 L 0.0 192.0 "/><path fill="rgb(254,254,255)" d="M 136.65770203308415 305.2551672496251 C 135.95193987534347 304.1132200904272 170.6247534710641 252.0 172.09029445111378 252.0 C 172.68365077260975 252.0 170.7104845544071 249.1875 167.7054806328856 245.75 C 156.99622044816707 233.49940637470738 149.36302034080597 218.92054677766419 146.44160437196928 205.13753574692126 C 144.63589798934973 196.61835489235816 144.63589798934976 179.3816451076417 146.44160437196933 170.86246425307854 C 148.46225820327555 161.3291782221625 153.5801160940702 149.6954085519952 159.72097591493485 140.676172802253 C 162.65079891540063 136.37306784349215 164.59118857505268 133.13462536685682 164.03295293638388 133.47963396528564 C 163.2932911567039 133.93677008530707 118.21325306975115 107.11721587519425 115.06666666666713 104.34802661070671 C 114.82833333333406 104.13827864148247 115.05781246871186 103.54218753128617 115.57662030084003 103.0233796991594 C 116.82739987196737 101.77260012803545 185.12737014556802 110.5880552359311 186.07582624717008 112.12268944516055 C 186.54699391386572 112.88505474427406 188.190876390388 112.2790004350409 191.13682982512702 110.25683645915261 C 201.24815913438985 103.31620880481698 221.11539278326578 94.89005803199429 234.29229299279726 91.95361187597769 C 238.09373880397533 91.10646719384185 239.9226556041125 90.24082702617189 239.61345579406648 89.4350652372545 C 238.86129234085854 87.47495869797523 257.6043967142881 33.5 259.0372180565429 33.5 C 260.38643941237086 33.5 277.2713810200649 84.64798434137751 276.5690515405955 86.6075537808997 C 276.3077371451431 87.33664706034263 279.1326393094908 87.91039762861956 284.836046539418 88.28661832988814 C 307.96152198919344 89.8120718421731 335.4775581842695 99.3962211552663 353.9703118299065 112.36687162282453 C 358.1754823434154 115.31634025969653 360.6814546180198 116.51541725500337 361.12855045122893 115.7920010006425 C 362.06090378830726 114.28342161172532 425.21046277194426 105.81622357051717 426.43333333332953 107.03582694970221 C 426.94666666666075 107.54778879402849 427.17166666666077 108.13186591511658 426.93333333332953 108.33377610767575 C 424.621910998614 110.29195678750258 381.4513992542497 136.00000000000003 380.4745253410829 136.0 C 379.7226063329632 135.99999999999997 380.9640139374459 138.6640235588732 383.42861568969465 142.3393894602582 C 388.6182816604952 150.0785389318735 393.67188037991014 161.96203351953767 395.5583956280301 170.8624642530773 C 397.3641020106499 179.38164510763687 397.3641020106504 196.61835489235622 395.5583956280311 205.1375357469203 C 393.6718803799139 214.0379664804548 388.61828166049486 225.92146106812777 383.42861568969266 233.66061053974454 C 380.60511452608995 237.87118934411168 379.66059775332934 240.0 380.61593732503337 240.0 C 381.40702768131626 240.0 388.67956965620857 245.47332560285054 396.77714171368297 252.1629457841123 C 404.87471377115736 258.8525659653741 411.69499999999846 264.4850659653749 411.9333333333299 264.6796124507808 C 412.1716666666614 264.8741589361867 411.85384443228156 265.54615556771665 411.22706170137474 266.1729382986252 C 409.74314495945384 267.6568550405501 356.86028213126406 265.39196572829945 355.87788937237474 263.8024208541148 C 355.4703308542154 263.1429773193284 353.59243091994114 263.869741953662 350.86317017487295 265.7431635408474 C 338.85519760316095 273.98568674967805 317.27465947104474 282.44551418874033 300.5 285.4861248310241 C 295.55 286.38337241481463 289.925 287.5697570498792 288.0 288.1225351311675 C 286.04724887074326 288.6832821558243 277.647897858137 288.9631817889738 269.0 288.75569036207276 C 251.70838644708363 288.3408078520834 236.42044916901324 285.5628473444036 220.49510697011647 279.94189980188173 C 214.16106868233854 277.7062620050128 211.51456412760638 277.1674177521415 210.99525763308884 278.0076733108494 C 210.36130065004963 279.03343725681214 145.26751032045274 304.14180305737847 139.46953682749165 305.5970017712564 C 138.23129549128348 305.9077805635548 136.9659698338001 305.7539550288207 136.65770203308415 305.2551672496251 "/><path fill="rgb(0,255,255)" d="M 305.0 284.6856758745579 C 352.6389258631065 273.312765446193 387.6214346481797 242.58349411190784 395.5583956280308 205.1375357469207 C 397.36410201065024 196.61835489235818 397.3641020106502 179.3816451076416 395.55839562803067 170.86246425307857 C 388.55586014224605 137.82505195941715 359.1624631945564 108.64495860960541 319.64427356215623 95.49923990736949 C 301.42498473846786 89.43859674383162 294.9017968815375 88.5 271.0 88.5 C 247.0982031184616 88.5 240.57501526153095 89.43859674383174 222.35572643784482 95.49923990736977 C 182.87492595989542 108.63252111407728 153.43751458257572 137.85630948721683 146.44160437196956 170.86246425307712 C 144.63589798935016 179.38164510764005 144.63589798935 196.61835489235938 146.44160437196928 205.13753574692106 C 152.15505310741904 232.0931380248278 173.61176128748968 257.63975336411056 203.0 272.4766431808515 C 216.8952611598958 279.4917780727718 230.0236097111841 283.57133788948903 251.0 287.3923708093056 C 252.375 287.6428390830367 262.725 287.7003000959366 274.0 287.5200619490833 C 291.6890894344706 287.23729044582905 295.9397346799053 286.84864626223526 305.0 284.6856758745579 "/><path fill="rgb(0,0,254)" d="M 518.4516272322148 356.58465810009204 C 520.3146917159468 355.8062200551427 522.3252383320433 354.2608037094829 522.9195086013183 353.15039955418143 C 523.6693615977497 351.749286413996 524.0 324.93382034967294 524.0 265.52028690863534 L 524.0 179.90909090909193 L 521.5454545454551 177.45454545454595 L 519.0909090909101 175.0 L 487.47971309136574 175.0 C 466.7480060453123 175.0 455.1736752595628 175.37186806334284 453.8496004458183 176.0804913986819 C 448.97916917893633 178.68706710954913 449.0 178.30082968344922 449.0 266.0000000000006 C 449.0 356.7641374296834 448.78983563909395 353.70284480662696 455.21256717400775 356.49339278097307 C 459.9860974822211 358.56739591494403 513.5213561117381 358.64465690614855 518.4516272322148 356.58465810009204 "/><path fill="rgb(254,254,255)" d="M 455.21256717400775 356.49339278097307 C 448.78983563909395 353.70284480662696 449.0 356.7641374296831 449.0 266.0000000000006 C 449.0 178.3008296834489 448.97916917893633 178.68706710954913 453.8496004458183 176.0804913986819 C 455.1736752595628 175.37186806334284 466.7480060453123 175.0 487.47971309136574 175.0 L 519.0909090909101 175.0 L 521.5454545454551 177.45454545454595 L 524.0 179.90909090909193 L 524.0 265.52028690863534 C 524.0 324.93382034967294 523.6693615977497 351.749286413996 522.9195086013183 353.15039955418143 C 520.5898581544716 357.5033912320837 516.8407367652262 358.00245863501476 486.7821186308965 357.9608581893648 C 464.5418518693315 357.9300781646637 457.7977123664517 357.61658649395184 455.21256717400775 356.49339278097307 "/><path fill="rgb(254,254,255)" d="M 476.2 100.8 C 474.4835232871947 99.0835232871947 474.4835232871948 36.91647671280488 476.2000000000001 35.19999999999988 C 477.93471942877204 33.46528057122822 607.0652805712264 33.465280571227815 608.7999999999995 35.19999999999947 C 610.5164767128056 36.916476712804055 610.5164767128057 99.08352328719555 608.7999999999996 100.80000000000044 C 607.0652805712266 102.53471942877223 477.93471942877176 102.53471942877181 476.2 100.8 "/><path fill="rgb(255,0,128)" d="M 608.7999999999996 100.80000000000044 C 610.5164767128056 99.08352328719558 610.5164767128055 36.91647671280404 608.7999999999995 35.19999999999947 C 607.0652805712264 33.46528057122781 477.93471942877204 33.46528057122821 476.2000000000001 35.19999999999988 C 474.48352328719477 36.916476712804915 474.4835232871947 99.08352328719468 476.2 100.8 C 477.93471942877176 102.53471942877181 607.0652805712266 102.53471942877223 608.7999999999996 100.80000000000044 "/><path fill="rgb(255,0,0)" d="M 166.7289156253756 295.58221955655483 C 209.06832923502492 279.69941465273996 211.0 278.91464027130104 211.0 277.5963321653492 C 211.0 276.92060494104163 208.2119692205591 275.0474963393486 204.80437604568692 273.43386860603135 C 196.77201977792592 269.6302359033013 188.1594962327039 264.10109885390466 179.80334622995764 257.38350665330194 C 176.12018665643433 254.42257799398587 172.63526623095933 252.0 172.05907861779093 252.0 C 170.6811131987044 252.0 135.94474313793035 304.1015755246847 136.6076245557207 305.1741401891802 C 136.88834974388675 305.62836308513107 137.5319883727002 306.0 138.03793261975056 306.0 C 138.5438768668009 306.0 151.4548192193322 301.31199880044966 166.7289156253756 295.58221955655483 "/><path fill="rgb(255,0,0)" d="M 261.83540745384107 88.36696395461351 C 270.87458695566045 87.95803670815506 276.31770764516756 87.30863648200217 276.5684124550195 86.6092192112128 C 277.2711936373837 84.64859748711525 260.3871946053148 33.5 259.03721805654277 33.5 C 257.60829122515065 33.5 238.75099758801386 87.7880886397508 239.66578368911627 89.26824364377043 C 239.97952546940007 89.77588850796057 241.87057304946504 89.92669172162941 243.86811164481617 89.60336189636786 C 245.86565024016727 89.28003207110632 253.95093335422848 88.72365299731686 261.83540745384107 88.36696395461351 "/><path fill="rgb(255,0,0)" d="M 168.77130179871585 128.91403632302826 C 171.34803671351693 126.11675630069382 176.27861263758814 121.53818317701773 179.72813718554073 118.73942938152584 C 183.17766173349332 115.94067558603395 186.0 113.05435924067123 186.0 112.32539305849757 C 186.0 111.5964268763239 185.87122254556562 111.0 185.71382787903474 111.0 C 185.55643321250383 111.0 169.92341234788123 108.99302086462257 150.97378151320672 106.54004636582792 C 127.52885343713267 103.50516873689536 116.19719972281361 102.4067236700916 115.50995363417199 103.10232511473826 C 114.82835074451998 103.79221475187599 114.98767200801625 104.40666112522497 116.0 104.99226250067235 C 116.825 105.46950025224078 127.625 112.17135624029336 140.0 119.88527580745588 C 152.375 127.59919537461842 162.85692407592882 133.9307026863255 163.29316461317512 133.95529205569386 C 163.72940515042146 133.97988142506225 166.1945668839148 131.71131634536272 168.77130179871585 128.91403632302826 "/><path fill="rgb(255,0,0)" d="M 404.13572972973236 122.35044277434599 C 416.4360783783796 114.84318630023628 426.69500000000005 108.53568630023636 426.9333333333334 108.3337761076795 C 427.17166666666674 108.13186591512263 426.94638159761365 107.54638159761382 426.43269984654876 107.03269984654878 C 425.8540774197246 106.45407741972447 414.0849370936253 107.61293904444635 395.49936651321536 110.07858526650887 C 362.00433747272587 114.52218797723803 361.0 114.691427106405 361.0 115.8920124302511 C 361.0 117.1626070283706 379.3148371777511 135.85571614947207 380.63572972973236 135.93329562310632 C 381.2603810810852 135.96998303039786 391.8353810810852 129.8576992484557 404.13572972973236 122.35044277434599 "/><path fill="rgb(255,0,0)" d="M 411.6102509441594 265.5 C 411.9507288548144 264.24995565138653 382.5166217421921 240.0 380.6588652112559 240.0 C 379.9114535828882 240.0 377.0092852472168 242.63361663488314 374.20960224309715 245.8524814108514 C 371.4099192389776 249.07134618681968 366.16743386895905 254.09991931049578 362.5596347541671 257.02708835235387 C 358.9518356393752 259.95425739421194 356.0 262.9456407593288 356.0 263.6746069415025 C 356.0 264.59235032949425 357.61473666731075 265.03506435283526 361.25 265.11400487529124 C 364.1375 265.17670755670144 372.35 265.55797632274385 379.5 265.96126879982995 C 396.90387932858863 266.94292664672975 411.27346068586286 266.736505352849 411.6102509441594 265.5 "/><path fill="rgb(252,255,255)" d="M 279.2991002545308 288.25680564955024 C 274.7886053945228 288.07194863071885 267.13860539452276 288.07100819090033 262.2991002545308 288.2547157832869 C 257.4595951145389 288.43842337567344 261.15 288.5896700274446 270.5 288.5908194538894 C 279.85 288.59196888033426 283.80959511453887 288.44166266838164 279.2991002545308 288.25680564955024 "/></svg>