<svg width="512" height="512" fill="white" xmlns="http://www.w3.org/2000/svg"><path fill="rgb(16,16,17)" d="M 0.0 256.0 L 0.0 0.0 L 256.0 0.0 L 512.0 0.0 L 512.0 256.0 L 512.0 512.0 L 256.0 512.0 L 0.0 512.0 L 0.0 256.0 "/><path fill="rgb(246,247,247)" d="M 0.0 256.0 L 0.0 0.0 L 256.0 0.0 L 512.0 0.0 L 512.0 256.0 L 512.0 512.0 L 256.0 512.0 L 0.0 512.0 L 0.0 256.0 "/><path fill="rgb(1,2,3)" d="M 0.0 256.0 L 0.0 0.0 L 256.0 0.0 L 512.0 0.0 L 512.0 256.0 L 512.0 512.0 L 256.0 512.0 L 0.0 512.0 L 0.0 256.0 "/><path fill="rgb(160,160,161)" d="M 241.5 433.4097116821618 C 192.81876530629074 428.6630805894804 152.97539322324536 409.5443611410247 119.5 374.86838722172183 C 99.03794372780791 353.6724680312303 87.01375844638527 331.4595633532617 79.55177243308526 301.06994265112337 C 74.95427951492246 282.3462321383042 73.60565730100741 269.1555456360391 74.33035661740003 250.0 C 75.74384092199236 212.63821078620356 87.989072074536 177.89574371700394 110.4475894260221 147.52731035840728 C 130.36113803917183 120.60018669627486 165.06871222681534 95.0489326532015 195.18460354935883 85.14504869381364 C 214.10316755942827 78.92350736112446 232.0 75.38733991531275 232.0 77.8708337250082 C 232.0 78.49187517625369 231.47500000000434 78.99999999999997 230.833333333343 78.99999999999994 C 230.19166666668167 78.99999999999991 229.85416666668166 79.17966787612855 230.083333333343 79.39926194695246 C 230.31250000000435 79.61885601777638 233.65 79.18539597145359 237.5 78.43601739956847 C 246.8752998565053 76.61117355087687 268.67354144843165 76.64859385275294 281.0720116984287 78.51081599395175 C 324.70630891056226 85.06458857602524 365.5202128297256 106.41758555640541 392.3712813731612 136.74030989363257 C 422.8112318175757 171.11593351813417 436.96335989912257 208.80653689136855 436.96335989912257 255.5 C 436.96335989912257 305.24977745242273 420.1578931655682 347.22102056432806 387.10383382704697 380.02294978735597 C 366.25937122451796 400.7084147699693 345.62735924846464 413.3555522230839 317.17639436066713 422.88750122820056 C 306.96966163206207 426.30707087237965 304.5266085214079 426.67602170942365 305.29165635470486 424.68233901384895 C 305.60614585057334 423.86279252464334 302.54840740518995 424.6691721886874 297.2030287800343 426.8154530465709 C 292.3380820425912 428.7688304945328 284.7213528020758 430.8469476615571 279.6501627281026 431.6045050295359 C 270.1513456470268 433.02348139640156 248.19443744002766 434.0624483085184 241.5 433.4097116821618 "/><path fill="rgb(246,247,247)" d="M 279.5957791069576 431.5973783132695 C 308.1745730031411 427.27919989541635 332.31907893698076 407.5403308995652 343.045778496412 379.7250712481689 C 347.9366027430812 367.0427409958188 349.27226416331314 359.1818855464324 348.69114955511793 346.5 C 347.4338407426885 319.06127064973714 333.93121021323276 294.57173353850504 311.51615437126634 279.07621748748977 C 295.6401726521005 268.10115986151806 281.83063599471444 263.49844192588915 260.1216297290149 261.9464247773563 C 233.48936448567775 260.04243470724225 216.22647440514277 254.68976616850637 199.0 242.9945677614989 C 175.45375183492476 227.0088217780387 162.0526774472568 201.18022625115492 162.01313719365538 171.70784166791583 C 161.99681386284672 159.54081087138653 164.0242085047752 149.41542996502875 169.06276724822237 136.5 C 175.0831714690476 121.06778752925001 179.25704841807587 114.74295158192412 191.5 102.5 C 203.91020693934297 90.08979306065703 211.26862592531867 85.2642516536319 223.75 81.35093106642054 C 228.28750000000002 79.92827583165025 232.00000000000003 78.3091961946442 232.0 77.7529763175182 C 232.0 76.38887148863473 222.0891619246193 77.56184640911516 212.2478066623945 80.09070267660837 C 184.26751230909952 87.28058058023753 164.5498940817332 97.28644665023164 140.5 116.49971191908219 C 100.72072105649585 148.2790551439512 76.31591694090075 197.5168659199883 74.33035661740003 250.0 C 73.60565730100748 269.15554563603706 74.95427951492294 282.3462321383061 79.55177243308526 301.06994265112337 C 87.01375844638518 331.45956335326133 99.03794372780813 353.6724680312305 119.5 374.86838722172183 C 152.9753932232451 409.54436114102447 192.81876530629106 428.66308058948044 241.5 433.4097116821618 C 248.22200394583274 434.0651361621522 270.1756560253401 433.02073341818846 279.5957791069576 431.5973783132695 "/><path fill="rgb(16,16,17)" d="M 278.0 261.7057928320655 C 278.0 260.9939788897015 280.4764225706922 259.6490285836574 283.50316126820485 258.7170143741897 C 303.70011075497746 252.49783069472556 315.5061215489066 245.55616073676953 327.41313088104175 232.89893558055263 C 335.702719099888 224.08705162115336 344.8162463799846 209.79867373437278 348.0923079278161 200.4776910995883 C 352.9851216079663 186.5567586988817 354.3175620750784 167.16655823462804 351.42806839468324 151.93438597656527 C 346.57559687650684 126.3542358818616 336.8336013180629 108.6071082863867 320.3806861500195 95.3749417748128 C 311.8227000383775 88.49222852452318 310.6638487588419 87.02321748766174 313.75 86.96959131409942 C 317.1897678470353 86.90982055979575 312.7319812998982 85.28751950012996 301.8154292299726 82.62629972708831 C 285.7731959876105 78.71554951632042 272.44885557522304 77.00000000000003 258.11705030667565 77.00000000000001 C 229.42579438042785 76.99999999999999 209.16143671033274 84.70729270739815 191.64575213650392 102.28151940361249 C 182.253457975072 111.70520513480933 175.71766337103665 121.7199872685896 170.38848238128668 134.85398201222262 C 164.46833370056987 149.44444193535395 162.6698400104872 158.0981383607442 162.66844279604067 172.0 C 162.66401196822284 216.08539821661324 192.01914928532935 249.22212512346078 239.68264059383637 258.9353262704154 C 245.2549803695547 260.0708968216869 253.1184797805535 261.03335539567433 257.15708372938934 261.07412310149857 C 261.1956876782252 261.11489080732275 266.525 261.50856587592295 269.0 261.9489565872768 C 275.89448571925715 263.1757313227606 278.0 263.1188441272988 278.0 261.7057928320655 "/><path fill="rgb(1,2,3)" d="M 324.7936680895767 419.3969644812862 C 330.13215064030953 417.41529494599365 339.225 413.3474994568082 345.0 410.357418949763 C 388.17006681868304 388.0055617580082 421.62155567771737 344.71325470318436 431.8173401678082 298.0 C 435.66886455768923 280.3537619890951 436.3712145832324 273.6307615382833 436.3095384532792 255.0 C 436.2631064426386 240.97409210594435 435.7440313980961 233.5978862015496 434.1632061702943 224.5 C 428.39291738556994 191.29112289566604 415.26266365267963 164.07996610152424 392.2857496677946 137.71309867950805 C 375.5040987202857 118.45552710368207 351.87911219448625 102.2192878658449 323.61538123733123 90.51948317543756 C 309.2779096811674 84.58446995246025 308.4705854753122 85.79630882814767 320.38068615001714 95.37494177481148 C 336.8336013180613 108.60710828638427 346.57559687650627 126.35423588185989 351.42806839468324 151.93438597656453 C 354.31756207507846 167.16655823462673 352.9851216079662 186.5567586988832 348.09230792781625 200.47769109958782 C 344.81624637998374 209.7986737343743 335.70271909988804 224.08705162115334 327.41313088104175 232.8989355805524 C 315.50612154890376 245.5561607367719 303.70011075498707 252.4978306947207 283.50316126820763 258.71701437418824 C 280.47642257069344 259.6490285836566 278.0 260.90881527758205 278.0 261.5165403606893 C 278.0 262.1242654437965 280.8125 263.44698314358675 284.25 264.4559130268898 C 302.73341951547036 269.8809237308275 321.4678061475766 282.606047828273 332.6053937533057 297.3007773064138 C 347.22183066203644 316.5854369572726 353.6744343020933 346.3131744778756 348.0322714869322 368.37381969518265 C 345.56672565229314 378.01401153417487 339.38586857339243 391.30974671037865 333.63522674002667 399.3435204715121 C 329.31788673533805 405.3749398943523 319.9518016717209 414.8443803005704 313.0 420.20645824713984 L 309.5 422.90608543721584 L 312.2936680895767 422.9530427186079 C 313.830185538844 422.9788692233736 319.455185538844 421.3786340165788 324.7936680895767 419.3969644812862 "/><path fill="rgb(16,16,17)" d="M 245.2998367763576 197.19783550871648 C 235.37790656218453 193.6551310704033 229.08636740738783 187.85479560116082 224.72932057795146 178.2333354411496 C 221.87636550876204 171.93328988023023 221.66168844799793 158.547233228151 224.30989131204757 152.0800804312948 C 230.3464028564082 137.33836896827333 245.43898891440304 127.69992565413092 259.6967132103704 129.48131070263298 C 271.36869310777195 130.93962831658263 283.5382546390413 140.29181945997107 288.7133650933816 151.78032895845155 C 292.36115102677877 159.87824758531096 292.3949549454607 170.27326429080162 288.79904524518156 178.12776570590177 C 283.0798007416158 190.62024126586198 272.01908412612664 198.05168020909073 258.18532501048855 198.69641425355698 C 252.50651453308575 198.96108001911267 249.14232116814625 198.5698252541688 245.2998367763576 197.19783550871648 "/><path fill="rgb(246,247,247)" d="M 269.4141190978584 195.94624791657054 C 276.6705166427232 193.2312816615999 284.1933127002535 186.3428268990027 287.6996356500696 179.20261262227797 C 290.1051659442875 174.3040331144293 290.49812390573084 172.3015525645298 290.48669378329333 165.0 C 290.46994460600297 154.30063968544835 287.5648801854711 147.71587131504882 279.4935259990337 140.08232072077905 C 271.58534011908364 132.60308791435284 266.46184201919465 130.5185529789241 256.0 130.52379747228792 C 248.6819145330643 130.52746600891817 246.775126975264 130.90823316791992 242.28691518050664 133.2621687850796 C 234.7345311417552 137.22317298814585 230.75786575921637 141.1025760404823 226.95941838363606 148.2147816248592 C 224.0772188227099 153.61140655753337 223.54648151148825 155.70171548706085 223.20539574353708 163.0 C 222.8797664767208 169.96755848020422 223.2021277075186 172.54509156705393 224.99343817542484 177.29681391113849 C 227.92378813876834 185.07001104601713 235.5916607087579 192.94107762467698 243.00644368641613 195.7871532281588 C 250.51630306235717 198.66972276793442 261.95086007226416 198.73861097018147 269.4141190978584 195.94624791657054 "/><path fill="rgb(246,247,247)" d="M 244.9204777547658 381.6571855460652 C 231.00487096116385 375.93248425914396 223.8729677154811 365.45659542730436 223.70890933424636 350.5 C 223.60885136443787 341.37808521308637 226.4620079752827 334.7122952198847 233.14032756599102 328.46550913752753 C 240.36702120490907 321.70578333646495 245.79559139938013 319.5329254091279 255.5 319.51575077382824 C 262.0463656816797 319.50416516900174 264.50766490578883 319.9740812561265 269.0456307991034 322.101909238594 C 281.12128613637867 327.76411956307925 288.1867704138491 338.2438644989419 288.3521157634603 350.7378852154544 C 288.4848006222618 360.76397532643665 285.90800409704343 367.25199590295654 279.0825049940916 374.07749500590836 C 269.4147726552002 383.7452273447998 256.79977690001954 386.5441761109196 244.9204777547658 381.6571855460652 "/><path fill="rgb(1,2,3)" d="M 270.8832746209516 378.9815300607278 C 290.2080950314558 368.6815080522118 293.2503904604788 343.30021651024583 276.9277425720958 328.5536847500804 C 270.5033257584044 322.74961011516365 264.8065225835122 320.56549230772987 256.0 320.53012244366994 C 244.12489709309463 320.4824281612182 233.94932567142897 326.028639889665 228.53493633019212 335.5 C 219.9417252211177 350.53205473206395 226.00789461050013 370.8921938097992 241.409979946028 378.7130495909237 C 248.9320673527373 382.5326077545955 250.84468666320683 382.9805517092195 258.08773012708616 382.619052907653 C 263.21823791042493 382.36299032507236 266.0486442836626 381.55836119391887 270.8832746209516 378.9815300607278 "/><path fill="rgb(16,16,17)" d="M 314.23798019405444 423.9291264280972 C 318.06246349156476 422.79014596355074 320.98588903711783 421.6525557037845 320.7344814063946 421.4011480730612 C 320.4830737756713 421.149740442338 319.060672035499 421.4066335496942 317.57358865045614 421.972021644964 C 316.0865052654133 422.5374097402338 313.6615955251795 422.9878946394855 312.1849003388255 422.97309919885663 L 309.5 422.9461983977133 L 313.0 419.9118690146354 C 316.1491847559163 417.1816793467446 315.9236606704339 417.2486831342655 310.75 420.58034981835715 C 301.8661279020681 426.30127018400015 302.90941427300567 427.30291950592334 314.23798019405444 423.9291264280972 "/><path fill="rgb(16,16,17)" d="M 410.38858057125935 351.25 C 415.101070789336 343.93455010662126 419.34257802540355 336.0 418.54064773081427 336.0 C 418.2656477308143 336.0 417.07228591643303 337.9125 415.88873258774487 340.25 C 414.7051792590567 342.5875 411.7801108516382 347.5375 409.38858057125935 351.25 C 406.99705029088045 354.9625 405.2653436978432 358.0 405.5403436978432 358.0 C 405.81534369784316 358.0 407.99705029088045 354.9625 410.38858057125935 351.25 "/><path fill="rgb(16,16,17)" d="M 346.0 100.51257173542083 C 346.0 99.90590829325215 332.3379988910353 92.9816036181077 331.2749641322896 93.04948972516155 C 330.6729987041439 93.08793163796038 344.6949850637946 100.74166067790185 345.75 100.95051027483845 C 345.8875 100.9777296236773 346.0 100.78065728093938 346.0 100.51257173542083 "/><path fill="rgb(16,16,17)" d="M 385.82638066664094 381.52006073076456 C 389.3058900332934 378.20902732884406 393.9766327958729 373.25 396.2058090279286 370.5 C 398.8372955637491 367.25369409136715 398.09795743307404 367.845658838712 394.0978640496267 372.1877651303578 C 390.70931807950495 375.8660359520545 384.67199971926476 381.9410359520545 380.6816010268707 385.6877651303578 C 376.69120233447654 389.434494308661 374.792906274724 391.38402732884407 376.4631653385316 390.02006073076456 C 378.13342440233924 388.65609413268504 382.34687129998844 384.83109413268505 385.82638066664094 381.52006073076456 "/><path fill="rgb(16,16,17)" d="M 389.93861456986974 134.0 C 385.96564190009826 129.6 382.46587156795454 126.0 382.1613471651059 126.0 C 381.8568227622573 126.0 383.1535071443667 127.6875 385.04286801423785 129.75 C 392.62572886591823 138.02774659462335 396.43469528180407 142.0 396.7893085941479 142.0 C 396.99439955056636 142.0 393.91158723964116 138.4 389.93861456986974 134.0 "/><path fill="rgb(16,16,17)" d="M 362.7653494337012 110.68871174091294 C 359.8833177890177 108.32866126838242 352.98919031526054 104.12680084341753 354.21824682342003 105.47938940926736 C 355.2007653672505 106.56066056262586 364.37888167303856 112.88516644988339 365.0 112.9089380408569 C 365.275 112.91946290743056 364.26940724516555 111.92036107245576 362.7653494337012 110.68871174091294 "/><path fill="rgb(16,16,17)" d="M 324.5 410.0 C 328.3204985190251 406.15 331.221360943682 403.0 330.946360943682 403.0 C 330.67136094368203 403.0 327.3204985190251 406.15 323.5 410.0 C 319.6795014809749 413.85 316.778639056318 417.0 317.053639056318 417.0 C 317.32863905631797 417.0 320.6795014809749 413.85 324.5 410.0 "/><path fill="rgb(16,16,17)" d="M 345.0332437301885 411.48315412704363 C 347.76495967858483 410.09888889691763 350.0 408.74130825408724 350.0 408.46630825408727 C 350.0 408.0183251311016 340.1034306737978 412.6907076166178 339.08333333333337 413.6203005571074 C 337.90351772603833 414.6954413462416 340.61867860801163 413.7201835694144 345.0332437301885 411.48315412704363 "/><path fill="rgb(16,16,17)" d="M 305.0 273.51684587295637 C 305.0 272.91042107699604 295.3459941787667 267.98316431644827 294.2832437301885 268.04717755502014 C 293.8524596785848 268.0731252102812 295.975 269.40189531052215 299.0 271.0 C 305.13869956159664 274.2430692749366 305.0 274.184888371739 305.0 273.51684587295637 "/><path fill="rgb(16,16,17)" d="M 402.8601845503907 149.45484015657377 C 401.06493679494685 146.95500224268935 398.9243088488451 144.36750224268934 398.1032335590535 143.70484015657377 C 397.2821582692619 143.0421780704582 398.5521016806094 145.0875 400.9253300287146 148.25 C 406.03181840722266 155.05476849601322 407.5692958160087 156.01216064161272 402.8601845503907 149.45484015657377 "/><path fill="rgb(16,16,17)" d="M 418.5503869445675 174.0994338491428 C 417.1291436648034 171.29474523211425 415.75377829212385 169.0 415.49401944972414 169.0 C 415.2342606073244 169.0 416.2294167185515 171.46242453160332 417.70547747467316 174.47205451467403 C 419.18153823079484 177.4816844977447 420.5569036034744 179.776429729859 420.7618449695165 179.5714883638168 C 420.96678633555865 179.36654699777463 419.9716302243316 176.90412246617134 418.5503869445675 174.0994338491428 "/><path fill="rgb(16,16,17)" d="M 412.3318614131208 162.98465056629885 C 411.35219550994515 161.32620837776324 409.5045724069013 158.73870837776323 408.22603229524566 157.23465056629885 C 406.94749218359 155.73059275483448 407.5623067817336 157.0875 409.592286957787 160.25 C 413.43891598952655 166.24265177876126 415.431117106306 168.23127227475655 412.3318614131208 162.98465056629885 "/><path fill="rgb(16,16,17)" d="M 363.32688417484184 400.0799570841252 C 363.9720978786788 399.29893348039406 362.5875 399.92123229548355 360.25 401.4628433398796 C 357.9125 403.0044543842757 356.0 404.456414929307 356.0 404.6894223288382 C 356.0 405.4107245165113 362.0861935990746 401.58179844124214 363.32688417484184 400.0799570841252 "/><path fill="rgb(16,16,17)" d="M 423.90962507273366 325.5 C 423.90962507273366 324.95 422.8252937900035 326.525 421.5 329.0 C 420.1747062099965 331.475 419.09037492726634 333.95 419.09037492726634 334.5 C 419.09037492726634 335.05 420.1747062099965 333.475 421.5 331.0 C 422.8252937900035 328.525 423.90962507273366 326.05 423.90962507273366 325.5 "/><path fill="rgb(16,16,17)" d="M 244.91666666666669 380.627176479572 C 243.8957342085281 379.7136701599821 238.0 376.9989667957571 238.0 377.4423825921436 C 238.0 378.0639879423127 243.18458617669253 380.90614827815017 244.41666666666669 380.9599623693448 C 244.92083333333335 380.98198306620515 245.14583333333334 380.8322294158074 244.91666666666669 380.627176479572 "/><path fill="rgb(160,160,161)" d="M 281.0 140.5 C 278.5709712296371 138.025 276.35858405388564 136.0 276.08358405388566 136.0 C 275.8085840538857 136.0 277.5709712296371 138.025 280.0 140.5 C 282.4290287703629 142.975 284.64141594611436 145.0 284.91641594611434 145.0 C 285.1914159461143 145.0 283.4290287703629 142.975 281.0 140.5 "/><path fill="rgb(16,16,17)" d="M 429.9090909090909 202.0909090909091 C 429.2328496693891 199.83381699727752 428.4954704732695 198.17119619339715 428.2704704732695 198.39619619339715 C 428.0454704732695 198.6211961933971 428.4146678512073 200.6519988154593 429.0909090909091 202.9090909090909 C 429.7671503306109 205.1661830027225 430.5045295267305 206.82880380660288 430.7295295267305 206.60380380660285 C 430.9545295267305 206.37880380660286 430.5853321487927 204.34800118454066 429.9090909090909 202.0909090909091 "/><path fill="rgb(16,16,17)" d="M 371.6409077215699 393.7720065172226 C 372.02667184705405 393.1478270505488 370.69028020648983 393.8971894274122 368.671148520316 395.4372562435857 C 366.6520168341422 396.97732305975927 365.0 398.43961013362883 365.0 398.686783074407 C 365.0 399.3814406354558 370.8496881120402 395.052226738007 371.6409077215699 393.7720065172226 "/><path fill="rgb(160,160,161)" d="M 245.58037294611174 131.2470396127784 C 245.12291225793305 130.7895789245997 239.0 133.82523787196104 239.0 134.5095015213183 C 239.0 134.7614791971886 240.56934916267883 134.21927229406322 242.4874425837307 133.30459729215073 C 244.4055360047826 132.38992229023827 245.79735466785405 131.4640213345207 245.58037294611174 131.2470396127784 "/><path fill="rgb(160,160,161)" d="M 331.0 295.7211116842806 C 331.0 295.56772311063486 327.9625 292.53022311063484 324.25 288.9711116842806 L 317.5 282.5 L 323.9711116842806 289.25 C 329.98175560609036 295.51968725802897 331.0 296.4571289840763 331.0 295.7211116842806 "/><path fill="rgb(160,160,161)" d="M 339.548056158054 309.092930362381 C 337.35139035057296 304.8450470986035 336.63882030966744 305.17474445646604 338.69540270784927 309.48744258373074 C 339.61007770976175 311.4055360047826 340.5359786654793 312.79735466785405 340.7529603872216 312.58037294611177 C 340.9699421089639 312.3633912243694 340.42773520583853 310.79404206169056 339.548056158054 309.092930362381 "/><path fill="rgb(16,16,17)" d="M 428.8788181520053 312.0 C 428.8617824503487 311.175 428.2413142819463 312.075 427.5 314.0 C 425.74175705388086 318.56569872415406 425.7677072519558 320.3620595357887 427.5361149579568 316.5 C 428.2916374163401 314.85 428.8958538536619 312.825 428.8788181520053 312.0 "/><path fill="rgb(160,160,161)" d="M 279.5 374.0 C 281.64824254203427 371.8 283.1808955309714 370.0 282.9058955309714 370.0 C 282.63089553097143 370.0 280.64824254203427 371.8 278.5 374.0 C 276.35175745796573 376.2 274.8191044690286 378.0 275.0941044690286 378.0 C 275.36910446902857 378.0 277.35175745796573 376.2 279.5 374.0 "/><path fill="rgb(16,16,17)" d="M 229.2222662551589 367.0645567645439 C 228.2956740404899 365.450062985043 227.35564740837395 364.3110192582927 227.13331818379015 364.5333484828765 C 226.69494912470878 364.97171754195784 229.7700814915078 370.0 230.47654266622368 370.0 C 230.71328285480706 370.0 230.14885846982793 368.67905054404474 229.2222662551589 367.0645567645439 "/><path fill="rgb(160,160,161)" d="M 282.0 188.5 C 283.8657834620403 186.575 285.1673335673461 185.0 284.8923335673461 185.0 C 284.6173335673461 185.0 282.8657834620403 186.575 281.0 188.5 C 279.1342165379597 190.425 277.8326664326539 192.0 278.1076664326539 192.0 C 278.3826664326539 192.0 280.1342165379597 190.425 282.0 188.5 "/><path fill="rgb(16,16,17)" d="M 426.8888888888889 193.11111111111111 C 426.27281791315687 191.3438487535098 425.5937598421034 190.07290682456326 425.37987095321455 190.28679571345214 C 425.16598206432565 190.500684602341 425.4950401353791 192.12162653128757 426.1111111111111 193.88888888888889 C 426.72718208684313 195.6561512464902 427.4062401578966 196.92709317543674 427.62012904678545 196.71320428654786 C 427.83401793567435 196.499315397659 427.5049598646209 194.87837346871243 426.8888888888889 193.11111111111111 "/><path fill="rgb(160,160,161)" d="M 191.0 236.71240815616807 C 191.0 236.5542326420605 188.6375 234.19173264206051 185.75 231.46240815616807 L 180.5 226.5 L 185.46240815616807 231.75 C 190.07356646546535 236.62839378824987 191.0 237.4585996715244 191.0 236.71240815616807 "/><path fill="rgb(16,16,17)" d="M 330.0 293.71240815616807 C 330.0 293.5542326420605 327.6375 291.1917326420605 324.75 288.46240815616807 L 319.5 283.5 L 324.46240815616807 288.75 C 329.0735664654654 293.62839378824987 330.0 294.4585996715244 330.0 293.71240815616807 "/><path fill="rgb(16,16,17)" d="M 423.6182964462946 185.33840785102728 C 422.7722747945533 183.77728353296226 422.06205832751556 182.81632614049337 422.0400376306552 183.20294697887417 C 421.9723345458376 184.39162068793652 424.2988019798741 189.03453135345927 424.7406993779521 188.59263395538122 C 424.9693994172818 188.36393391605154 424.4643180980359 186.89953216909228 423.6182964462946 185.33840785102728 "/><path fill="rgb(16,16,17)" d="M 403.0 362.0 C 404.174903631702 360.35 404.91118842127634 359.0 404.63618842127636 359.0 C 404.3611884212764 359.0 403.174903631702 360.35 402.0 362.0 C 400.825096368298 363.65 400.08881157872366 365.0 400.36381157872364 365.0 C 400.6388115787236 365.0 401.825096368298 363.65 403.0 362.0 "/><path fill="rgb(16,16,17)" d="M 372.5287761956288 118.04656086259428 C 372.20468440941215 117.52216933702114 370.4906267619434 116.12934657236723 368.71975920125385 114.95139916336336 C 365.5137480719667 112.81882155744084 365.51494467408145 112.82277778985781 369.0 115.87793749962573 C 372.69340550898625 119.11574655791247 373.4934312621362 119.60740554762305 372.5287761956288 118.04656086259428 "/><path fill="rgb(160,160,161)" d="M 259.72769568083237 198.27020192095256 C 257.6529283052902 198.053726402497 254.50292830529017 198.05735612097453 252.72769568083237 198.27826796201373 C 250.95246305637457 198.4991798030529 252.65 198.6762961363347 256.5 198.6718598137511 C 260.35 198.66742349116745 261.80246305637456 198.4866774394081 259.72769568083237 198.27020192095256 "/><path fill="rgb(160,160,161)" d="M 262.72769568083237 261.27020192095256 C 260.6529283052902 261.053726402497 257.5029283052902 261.05735612097453 255.72769568083237 261.27826796201373 C 253.95246305637457 261.49917980305287 255.65 261.6762961363347 259.5 261.6718598137511 C 263.35 261.6674234911674 264.80246305637456 261.48667743940814 262.72769568083237 261.27020192095256 "/><path fill="rgb(16,16,17)" d="M 381.0 125.69616678367305 C 381.0 125.52905851469322 379.3125 123.84155851469322 377.25 121.94616678367305 L 373.5 118.5 L 376.94616678367305 122.25 C 380.1537840084678 125.74041858622986 381.0 126.45978746161576 381.0 125.69616678367305 "/><path fill="rgb(16,16,17)" d="M 282.0 332.69616678367305 C 282.0 332.52905851469325 280.3125 330.84155851469325 278.25 328.94616678367305 L 274.5 325.5 L 277.94616678367305 329.25 C 281.1537840084678 332.74041858622985 282.0 333.45978746161575 282.0 332.69616678367305 "/><path fill="rgb(16,16,17)" d="M 233.0 329.5 C 234.29174542938043 328.125 235.12362805341897 327.0 234.84862805341896 327.0 C 234.57362805341896 327.0 233.29174542938043 328.125 232.0 329.5 C 230.70825457061957 330.875 229.87637194658103 332.0 230.15137194658104 332.0 C 230.42637194658104 332.0 231.70825457061957 330.875 233.0 329.5 "/><path fill="rgb(160,160,161)" d="M 349.723395556682 346.75 C 349.5015687803602 344.9625 349.3200741451878 346.425 349.3200741451878 350.0 C 349.3200741451878 353.575 349.5015687803602 355.0375 349.723395556682 353.25 C 349.94522233300387 351.4625 349.94522233300387 348.5375 349.723395556682 346.75 "/><path fill="rgb(16,16,17)" d="M 243.91666666666669 322.3645453178207 C 245.28899149932872 321.16388629635816 242.03412824153085 322.2789105923101 240.4411296351049 323.555166220984 C 238.61082426707046 325.021543855417 238.642731666482 325.04235671970537 241.0 323.9197115388048 C 242.375 323.26487004206496 243.6875 322.56504524262215 243.91666666666669 322.3645453178207 "/><path fill="rgb(16,16,17)" d="M 436.724731267858 239.76790910343246 C 436.50216985038935 237.9705590965446 436.3154819035514 239.2 436.30986916377356 242.5 C 436.30425642399575 245.8 436.48635212919737 247.27055909654462 436.71452628644374 245.76790910343246 C 436.94270044369017 244.2652591103203 436.9472926853266 241.5652591103203 436.724731267858 239.76790910343246 "/><path fill="rgb(160,160,161)" d="M 258.76790910343243 319.28547371355626 C 257.2652591103203 319.05729955630983 254.5652591103203 319.0527073146734 252.76790910343246 319.275268732142 C 250.9705590965446 319.49783014961065 252.2 319.6845180964486 255.5 319.69013083622644 C 258.8 319.69574357600425 260.2705590965446 319.51364787080263 258.76790910343243 319.28547371355626 "/><path fill="rgb(160,160,161)" d="M 222.72473126785795 161.76790910343246 C 222.50216985038935 159.9705590965446 222.31548190355136 161.2 222.30986916377356 164.5 C 222.30425642399575 167.8 222.48635212919731 169.27055909654462 222.71452628644374 167.76790910343246 C 222.94270044369017 166.2652591103203 222.94729268532654 163.5652591103203 222.72473126785795 161.76790910343246 "/><path fill="rgb(160,160,161)" d="M 282.0 331.68709120476603 C 282.0 331.5149913673873 280.5375 330.0524913673873 278.75 328.43709120476603 L 275.5 325.5 L 278.43709120476603 328.75 C 281.17487184108813 331.7794554876636 282.0 332.45965158518555 282.0 331.68709120476603 "/><path fill="rgb(16,16,17)" d="M 237.0 376.68709120476603 C 237.0 376.5149913673873 235.5375 375.0524913673873 233.75 373.43709120476603 L 230.5 370.5 L 233.437091204766 373.75 C 236.1748718410882 376.77945548766365 237.0 377.4596515851856 237.0 376.68709120476603 "/><path fill="rgb(16,16,17)" d="M 436.7162544368769 266.25 C 436.48712979689225 264.7375 436.2996641823594 265.975 436.2996641823594 269.0 C 436.2996641823594 272.025 436.48712979689225 273.2625 436.7162544368769 271.75 C 436.94537907686157 270.2375 436.94537907686157 267.7625 436.7162544368769 266.25 "/><path fill="rgb(160,160,161)" d="M 226.9197115388048 148.0 C 228.04235671970537 145.642731666482 228.02154385541706 145.61082426707046 226.55516622098406 147.4411296351049 C 225.6998247994428 148.50875093441257 225.0 149.82125093441257 225.0 150.35779630177154 C 225.0 151.62833929114055 225.46190001257742 151.06103211012453 226.9197115388048 148.0 "/><path fill="rgb(16,16,17)" d="M 271.55887036489514 379.444833779016 C 273.3891757329295 377.978456144583 273.357268333518 377.95764328029463 271.0 379.0802884611952 C 267.9389678898756 380.5380999874225 267.3716607088595 381.0 268.64220369822846 381.0 C 269.17874906558745 381.0 270.49124906558745 380.3001752005572 271.55887036489514 379.444833779016 "/><path fill="rgb(160,160,161)" d="M 286.0 364.64220369822846 C 286.0 363.3716607088595 285.5380999874225 363.9389678898756 284.0802884611952 367.0 C 282.95764328029463 369.357268333518 282.978456144583 369.3891757329295 284.444833779016 367.55887036489514 C 285.3001752005572 366.49124906558745 286.0 365.17874906558745 286.0 364.64220369822846 "/><path fill="rgb(16,16,17)" d="M 342.1220725038922 313.32500284867524 C 340.9432281959531 311.29778606066776 340.65856008023604 311.9466468954386 341.623538597254 314.46134060117686 C 341.96648482574375 315.3550441468835 342.4577335438399 315.87559978949344 342.71520241524547 315.61813091808784 C 342.97267128665106 315.36066204668225 342.70576282654207 314.32875441544655 342.1220725038922 313.32500284867524 "/><path fill="rgb(160,160,161)" d="M 177.0 121.0 C 177.5887021343368 119.9 177.845367516976 119.0 177.570367516976 119.0 C 177.295367516976 119.0 176.5887021343368 119.9 176.0 121.0 C 175.4112978656632 122.1 175.154632483024 123.0 175.429632483024 123.0 C 175.704632483024 123.0 176.4112978656632 122.1 177.0 121.0 "/><path fill="rgb(160,160,161)" d="M 198.5 96.0 C 199.4954863183233 94.9 200.08497512422417 94.0 199.80997512422417 94.0 C 199.53497512422416 94.0 198.4954863183233 94.9 197.5 96.0 C 196.5045136816767 97.1 195.91502487577583 98.0 196.19002487577583 98.0 C 196.46502487577584 98.0 197.5045136816767 97.1 198.5 96.0 "/><path fill="rgb(160,160,161)" d="M 212.0 86.42963248302401 C 212.0 86.154632483024 211.1 86.4112978656632 210.0 87.0 C 208.9 87.5887021343368 208.0 88.29536751697599 208.0 88.57036751697599 C 208.0 88.845367516976 208.9 88.5887021343368 210.0 88.0 C 211.1 87.4112978656632 212.0 86.70463248302401 212.0 86.42963248302401 "/><path fill="rgb(160,160,161)" d="M 185.5 109.0 C 186.4954863183233 107.9 187.08497512422417 107.0 186.80997512422417 107.0 C 186.53497512422416 107.0 185.4954863183233 107.9 184.5 109.0 C 183.5045136816767 110.1 182.91502487577583 111.0 183.19002487577583 111.0 C 183.46502487577584 111.0 184.5045136816767 110.1 185.5 109.0 "/><path fill="rgb(16,16,17)" d="M 355.0 405.429632483024 C 355.0 405.15463248302405 354.1 405.4112978656632 353.0 406.0 C 351.9 406.5887021343368 351.0 407.295367516976 351.0 407.570367516976 C 351.0 407.84536751697595 351.9 407.5887021343368 353.0 407.0 C 354.1 406.4112978656632 355.0 405.704632483024 355.0 405.429632483024 "/><path fill="rgb(16,16,17)" d="M 338.0 305.0 C 337.4112978656632 303.9 336.704632483024 303.0 336.429632483024 303.0 C 336.15463248302405 303.0 336.4112978656632 303.9 337.0 305.0 C 337.5887021343368 306.1 338.295367516976 307.0 338.570367516976 307.0 C 338.84536751697595 307.0 338.5887021343368 306.1 338.0 305.0 "/><path fill="rgb(16,16,17)" d="M 333.0 417.0 C 333.825 416.4668440519688 334.05 416.03062554903414 333.5 416.03062554903414 C 332.95 416.03062554903414 331.825 416.4668440519688 331.0 417.0 C 330.175 417.5331559480312 329.95 417.96937445096586 330.5 417.96937445096586 C 331.05 417.96937445096586 332.175 417.5331559480312 333.0 417.0 "/><path fill="rgb(16,16,17)" d="M 292.0 267.0 C 291.175 266.4668440519688 290.05 266.03062554903414 289.5 266.03062554903414 C 288.95 266.03062554903414 289.175 266.4668440519688 290.0 267.0 C 290.825 267.5331559480312 291.95 267.96937445096586 292.5 267.96937445096586 C 293.05 267.96937445096586 292.825 267.5331559480312 292.0 267.0 "/><path fill="rgb(16,16,17)" d="M 328.0 419.0 C 328.825 418.4668440519688 329.05 418.03062554903414 328.5 418.03062554903414 C 327.95 418.03062554903414 326.825 418.4668440519688 326.0 419.0 C 325.175 419.5331559480312 324.95 419.96937445096586 325.5 419.96937445096586 C 326.05 419.96937445096586 327.175 419.5331559480312 328.0 419.0 "/><path fill="rgb(160,160,161)" d="M 218.0 84.0 C 218.825 83.46684405196876 219.05 83.03062554903413 218.5 83.03062554903413 C 217.95 83.03062554903413 216.825 83.46684405196876 216.0 84.0 C 215.175 84.53315594803124 214.95 84.96937445096587 215.5 84.96937445096587 C 216.05 84.96937445096587 217.175 84.53315594803124 218.0 84.0 "/><path fill="rgb(160,160,161)" d="M 219.0 253.0 C 218.175 252.46684405196876 217.05 252.0306255490341 216.5 252.0306255490341 C 215.95 252.0306255490341 216.175 252.46684405196876 217.0 253.0 C 217.825 253.53315594803124 218.95 253.9693744509659 219.5 253.9693744509659 C 220.05 253.9693744509659 219.825 253.53315594803124 219.0 253.0 "/><path fill="rgb(160,160,161)" d="M 172.9693744509659 128.5 C 172.9693744509659 127.95 172.53315594803124 128.175 172.0 129.0 C 171.46684405196876 129.825 171.0306255490341 130.95 171.0306255490341 131.5 C 171.0306255490341 132.05 171.46684405196876 131.825 172.0 131.0 C 172.53315594803124 130.175 172.9693744509659 129.05 172.9693744509659 128.5 "/><path fill="rgb(16,16,17)" d="M 322.0 89.0 C 321.175 88.46684405196876 320.05 88.03062554903413 319.5 88.03062554903413 C 318.95 88.03062554903413 319.175 88.46684405196876 320.0 89.0 C 320.825 89.53315594803124 321.95 89.96937445096587 322.5 89.96937445096587 C 323.05 89.96937445096587 322.825 89.53315594803124 322.0 89.0 "/><path fill="rgb(16,16,17)" d="M 329.0 92.0 C 328.175 91.46684405196876 327.05 91.03062554903413 326.5 91.03062554903413 C 325.95 91.03062554903413 326.175 91.46684405196876 327.0 92.0 C 327.825 92.53315594803124 328.95 92.96937445096587 329.5 92.96937445096587 C 330.05 92.96937445096587 329.825 92.53315594803124 329.0 92.0 "/><path fill="rgb(16,16,17)" d="M 425.96937445096586 320.5 C 425.96937445096586 319.95 425.5331559480312 320.175 425.0 321.0 C 424.4668440519688 321.825 424.03062554903414 322.95 424.03062554903414 323.5 C 424.03062554903414 324.05 424.4668440519688 323.825 425.0 323.0 C 425.5331559480312 322.175 425.96937445096586 321.05 425.96937445096586 320.5 "/><path fill="rgb(160,160,161)" d="M 258.25 129.2942669930909 C 257.0125 129.05591409850746 254.9875 129.05591409850746 253.75 129.2942669930909 C 252.5125 129.53261988767431 253.525 129.72763589233347 256.0 129.72763589233347 C 258.475 129.72763589233347 259.4875 129.53261988767431 258.25 129.2942669930909 "/><path fill="rgb(160,160,161)" d="M 234.0 190.65498756211207 C 234.0 190.46523072127374 232.9875 189.45273072127372 231.75 188.40498756211207 L 229.5 186.5 L 231.40498756211207 188.75 C 233.19520577334464 190.86444476351718 234.0 191.45524077260524 234.0 190.65498756211207 "/><path fill="rgb(160,160,161)" d="M 235.0 375.65498756211207 C 235.0 375.46523072127377 233.9875 374.4527307212737 232.75 373.40498756211207 L 230.5 371.5 L 232.40498756211207 373.75 C 234.19520577334464 375.86444476351716 235.0 376.45524077260524 235.0 375.65498756211207 "/><path fill="rgb(160,160,161)" d="M 196.0 240.65498756211207 C 196.0 240.46523072127374 194.9875 239.45273072127372 193.75 238.40498756211207 L 191.5 236.5 L 193.40498756211207 238.75 C 195.19520577334464 240.86444476351718 196.0 241.45524077260524 196.0 240.65498756211207 "/><path fill="rgb(160,160,161)" d="M 207.0 247.53518375848802 C 207.0 247.2795348256564 205.9875 246.57971002621358 204.75 245.98001753750395 C 202.58937415944027 244.93297827488124 202.57710525755647 244.95144163527206 204.4411296351049 246.44483377901594 C 206.48139212752687 248.0794218316495 207.0 248.3004037504144 207.0 247.53518375848802 "/><path fill="rgb(16,16,17)" d="M 353.0 104.53518375848799 C 353.0 104.2795348256564 351.9875 103.57971002621358 350.75 102.98001753750395 C 348.58937415944024 101.93297827488125 348.57710525755647 101.95144163527206 350.44112963510486 103.44483377901597 C 352.48139212752693 105.07942183164955 353.0 105.3004037504144 353.0 104.53518375848799 "/><path fill="rgb(16,16,17)" d="M 333.12755528455784 400.25 C 334.37142594744824 398.6639443756342 334.3360556243658 398.62857405255176 332.75 399.87244471544216 C 331.08425197980733 401.1788144683403 330.5545210950195 402.0 331.37755528455784 402.0 C 331.5852106910646 402.0 332.37271069106464 401.2125 333.12755528455784 400.25 "/><path fill="rgb(160,160,161)" d="M 318.12755528455784 415.25 C 319.37142594744824 413.6639443756342 319.3360556243658 413.62857405255176 317.75 414.87244471544216 C 316.08425197980733 416.1788144683403 315.5545210950195 417.0 316.37755528455784 417.0 C 316.5852106910646 417.0 317.37271069106464 416.2125 318.12755528455784 415.25 "/><path fill="rgb(160,160,161)" d="M 330.12755528455784 403.25 C 331.37142594744824 401.6639443756342 331.3360556243658 401.62857405255176 329.75 402.87244471544216 C 328.08425197980733 404.1788144683403 327.5545210950195 405.0 328.37755528455784 405.0 C 328.5852106910646 405.0 329.37271069106464 404.2125 330.12755528455784 403.25 "/><path fill="rgb(160,160,161)" d="M 233.12755528455784 139.25 C 234.37142594744824 137.66394437563417 234.33605562436583 137.62857405255176 232.75 138.87244471544216 C 231.08425197980733 140.17881446834028 230.55452109501945 141.0 231.37755528455784 141.0 C 231.58521069106465 141.0 232.37271069106464 140.2125 233.12755528455784 139.25 "/><path fill="rgb(16,16,17)" d="M 334.0 298.62244471544216 C 334.0 298.4147893089354 333.2125 297.62728930893536 332.25 296.87244471544216 C 330.6639443756342 295.62857405255176 330.62857405255176 295.6639443756342 331.87244471544216 297.25 C 333.1788144683403 298.91574802019267 334.0 299.4454789049805 334.0 298.62244471544216 "/><path fill="rgb(16,16,17)" d="M 318.0 282.62244471544216 C 318.0 282.4147893089354 317.2125 281.62728930893536 316.25 280.87244471544216 C 314.6639443756342 279.62857405255176 314.62857405255176 279.6639443756342 315.87244471544216 281.25 C 317.1788144683403 282.91574802019267 318.0 283.4454789049805 318.0 282.62244471544216 "/><path fill="rgb(160,160,161)" d="M 182.12755528455784 113.25 C 183.37142594744824 111.66394437563417 183.33605562436583 111.62857405255177 181.75 112.87244471544217 C 180.08425197980733 114.17881446834026 179.55452109501945 115.0 180.37755528455784 115.0 C 180.58521069106465 115.0 181.37271069106464 114.2125 182.12755528455784 113.25 "/><path fill="rgb(160,160,161)" d="M 231.0 370.62244471544216 C 231.0 370.4147893089354 230.2125 369.62728930893536 229.25 368.87244471544216 C 227.66394437563417 367.62857405255176 227.62857405255176 367.6639443756342 228.87244471544216 369.25 C 230.17881446834028 370.91574802019267 231.0 371.4454789049805 231.0 370.62244471544216 "/><path fill="rgb(160,160,161)" d="M 334.0 299.62244471544216 C 334.0 299.4147893089354 333.2125 298.62728930893536 332.25 297.87244471544216 C 330.6639443756342 296.62857405255176 330.62857405255176 296.6639443756342 331.87244471544216 298.25 C 333.1788144683403 299.91574802019267 334.0 300.4454789049805 334.0 299.62244471544216 "/><path fill="rgb(160,160,161)" d="M 317.0 282.62244471544216 C 317.0 282.4147893089354 316.2125 281.62728930893536 315.25 280.87244471544216 C 313.6639443756342 279.62857405255176 313.62857405255176 279.6639443756342 314.87244471544216 281.25 C 316.1788144683403 282.91574802019267 317.0 283.4454789049805 317.0 282.62244471544216 "/><path fill="rgb(160,160,161)" d="M 181.0 225.62244471544216 C 181.0 225.41478930893535 180.2125 224.62728930893536 179.25 223.87244471544216 C 177.66394437563417 222.62857405255176 177.62857405255176 222.66394437563417 178.87244471544216 224.25 C 180.17881446834028 225.91574802019267 181.0 226.44547890498055 181.0 225.62244471544216 "/><path fill="rgb(160,160,161)" d="M 230.0 185.62244471544216 C 230.0 185.41478930893535 229.2125 184.62728930893536 228.25 183.87244471544216 C 226.66394437563417 182.62857405255176 226.62857405255176 182.66394437563417 227.87244471544216 184.25 C 229.17881446834028 185.91574802019267 230.0 186.44547890498055 230.0 185.62244471544216 "/><path fill="rgb(16,16,17)" d="M 282.12755528455784 370.25 C 283.37142594744824 368.6639443756342 283.3360556243658 368.62857405255176 281.75 369.87244471544216 C 280.08425197980733 371.1788144683403 279.5545210950195 372.0 280.37755528455784 372.0 C 280.5852106910646 372.0 281.37271069106464 371.2125 282.12755528455784 370.25 "/><path fill="rgb(16,16,17)" d="M 349.68932551368573 339.25 C 349.43779796668133 338.2875 349.23200270095043 339.075 349.23200270095043 341.0 C 349.23200270095043 342.925 349.43779796668133 343.7125 349.68932551368573 342.75 C 349.94085306069013 341.7875 349.94085306069013 340.2125 349.68932551368573 339.25 "/><path fill="rgb(160,160,161)" d="M 291.68932551368573 163.25 C 291.43779796668133 162.2875 291.23200270095043 163.075 291.23200270095043 165.0 C 291.23200270095043 166.925 291.43779796668133 167.7125 291.68932551368573 166.75 C 291.94085306069013 165.7875 291.94085306069013 164.2125 291.68932551368573 163.25 "/><path fill="rgb(160,160,161)" d="M 223.68932551368573 348.25 C 223.43779796668133 347.2875 223.23200270095043 348.075 223.23200270095043 350.0 C 223.23200270095043 351.925 223.43779796668133 352.7125 223.68932551368573 351.75 C 223.94085306069016 350.7875 223.94085306069016 349.2125 223.68932551368573 348.25 "/><path fill="rgb(16,16,17)" d="M 349.68932551368573 357.25 C 349.43779796668133 356.2875 349.23200270095043 357.075 349.23200270095043 359.0 C 349.23200270095043 360.925 349.43779796668133 361.7125 349.68932551368573 360.75 C 349.94085306069013 359.7875 349.94085306069013 358.2125 349.68932551368573 357.25 "/><path fill="rgb(160,160,161)" d="M 288.68932551368573 350.25 C 288.43779796668133 349.2875 288.23200270095043 350.075 288.23200270095043 352.0 C 288.23200270095043 353.925 288.43779796668133 354.7125 288.68932551368573 353.75 C 288.94085306069013 352.7875 288.94085306069013 351.2125 288.68932551368573 350.25 "/><path fill="rgb(160,160,161)" d="M 254.26903188937032 383.34406326136906 C 253.591999428524 383.07014016038517 252.241999428524 383.0534658684608 251.26903188937032 383.3070092793149 C 250.29606435021665 383.56055269016895 250.85 383.78467159097397 252.5 383.8050512811037 C 254.15 383.8254309712335 254.94606435021666 383.61798636235295 254.26903188937032 383.34406326136906 "/><path fill="rgb(16,16,17)" d="M 434.6929907206851 285.26903188937035 C 434.43944730983105 284.2960643502166 434.21532840902603 284.85 434.1949487188963 286.5 C 434.1745690287665 288.15 434.38201363764705 288.94606435021666 434.65593673863094 288.26903188937035 C 434.92985983961483 287.591999428524 434.9465341315392 286.241999428524 434.6929907206851 285.26903188937035 "/><path fill="rgb(160,160,161)" d="M 162.6929907206851 179.26903188937032 C 162.43944730983102 178.29606435021665 162.21532840902606 178.85 162.19494871889628 180.5 C 162.17456902876648 182.15 162.38201363764708 182.94606435021666 162.65593673863094 182.26903188937032 C 162.9298598396148 181.591999428524 162.94653413153918 180.241999428524 162.6929907206851 179.26903188937032 "/><path fill="rgb(160,160,161)" d="M 162.6929907206851 161.26903188937032 C 162.43944730983102 160.29606435021665 162.21532840902606 160.85 162.19494871889628 162.5 C 162.17456902876648 164.15 162.38201363764708 164.94606435021666 162.65593673863094 164.26903188937032 C 162.9298598396148 163.591999428524 162.94653413153918 162.241999428524 162.6929907206851 161.26903188937032 "/><path fill="rgb(16,16,17)" d="M 434.6929907206851 223.26903188937032 C 434.43944730983105 222.29606435021665 434.21532840902603 222.85 434.1949487188963 224.5 C 434.1745690287665 226.15 434.38201363764705 226.94606435021666 434.65593673863094 226.26903188937032 C 434.92985983961483 225.591999428524 434.9465341315392 224.241999428524 434.6929907206851 223.26903188937032 "/><path fill="rgb(160,160,161)" d="M 348.6622807017544 360.75 C 348.3848684210526 360.0625 348.1578947368421 360.625 348.1578947368421 362.0 C 348.1578947368421 363.375 348.3848684210526 363.9375 348.6622807017544 363.25 C 348.93969298245617 362.5625 348.93969298245617 361.4375 348.6622807017544 360.75 "/><path fill="rgb(16,16,17)" d="M 258.25 383.3377192982456 C 257.5625 383.06030701754383 256.4375 383.06030701754383 255.75 383.3377192982456 C 255.0625 383.6151315789474 255.625 383.8421052631579 257.0 383.8421052631579 C 258.375 383.8421052631579 258.9375 383.6151315789474 258.25 383.3377192982456 "/><path fill="rgb(160,160,161)" d="M 247.25 260.3377192982456 C 246.5625 260.06030701754383 245.4375 260.06030701754383 244.75 260.3377192982456 C 244.0625 260.6151315789474 244.625 260.8421052631579 246.0 260.8421052631579 C 247.375 260.8421052631579 247.9375 260.6151315789474 247.25 260.3377192982456 "/><path fill="rgb(16,16,17)" d="M 224.66228070175438 352.75 C 224.38486842105263 352.0625 224.1578947368421 352.625 224.1578947368421 354.0 C 224.1578947368421 355.375 224.38486842105263 355.9375 224.66228070175438 355.25 C 224.93969298245614 354.5625 224.93969298245614 353.4375 224.66228070175438 352.75 "/><path fill="rgb(16,16,17)" d="M 432.6622807017544 295.75 C 432.3848684210526 295.0625 432.1578947368421 295.625 432.1578947368421 297.0 C 432.1578947368421 298.375 432.3848684210526 298.9375 432.6622807017544 298.25 C 432.93969298245617 297.5625 432.93969298245617 296.4375 432.6622807017544 295.75 "/><path fill="rgb(16,16,17)" d="M 435.6622807017544 278.75 C 435.3848684210526 278.0625 435.1578947368421 278.625 435.1578947368421 280.0 C 435.1578947368421 281.375 435.3848684210526 281.9375 435.6622807017544 281.25 C 435.93969298245617 280.5625 435.93969298245617 279.4375 435.6622807017544 278.75 "/><path fill="rgb(16,16,17)" d="M 435.6622807017544 229.75 C 435.3848684210526 229.0625 435.1578947368421 229.625 435.1578947368421 231.0 C 435.1578947368421 232.375 435.3848684210526 232.9375 435.6622807017544 232.25 C 435.93969298245617 231.5625 435.93969298245617 230.4375 435.6622807017544 229.75 "/><path fill="rgb(160,160,161)" d="M 163.66228070175438 154.75 C 163.38486842105263 154.0625 163.1578947368421 154.625 163.1578947368421 156.0 C 163.1578947368421 157.375 163.38486842105263 157.9375 163.66228070175438 157.25 C 163.93969298245614 156.5625 163.93969298245614 155.4375 163.66228070175438 154.75 "/><path fill="rgb(160,160,161)" d="M 262.25 383.3377192982456 C 261.5625 383.06030701754383 260.4375 383.06030701754383 259.75 383.3377192982456 C 259.0625 383.6151315789474 259.625 383.8421052631579 261.0 383.8421052631579 C 262.375 383.8421052631579 262.9375 383.6151315789474 262.25 383.3377192982456 "/><path fill="rgb(160,160,161)" d="M 272.25 262.3377192982456 C 271.5625 262.06030701754383 270.4375 262.06030701754383 269.75 262.3377192982456 C 269.0625 262.6151315789474 269.625 262.8421052631579 271.0 262.8421052631579 C 272.375 262.8421052631579 272.9375 262.6151315789474 272.25 262.3377192982456 "/><path fill="rgb(16,16,17)" d="M 287.6622807017544 354.75 C 287.3848684210526 354.0625 287.1578947368421 354.625 287.1578947368421 356.0 C 287.1578947368421 357.375 287.3848684210526 357.9375 287.6622807017544 357.25 C 287.93969298245617 356.5625 287.93969298245617 355.4375 287.6622807017544 354.75 "/><path fill="rgb(160,160,161)" d="M 348.6622807017544 336.75 C 348.3848684210526 336.0625 348.1578947368421 336.625 348.1578947368421 338.0 C 348.1578947368421 339.375 348.3848684210526 339.9375 348.6622807017544 339.25 C 348.93969298245617 338.5625 348.93969298245617 337.4375 348.6622807017544 336.75 "/><path fill="rgb(160,160,161)" d="M 346.68311403508767 327.8125 C 346.3638876676576 327.01476730310264 346.1269312900389 327.2517236807213 346.07894736842104 328.41666666666663 C 346.03552631578947 329.4708333333333 346.271875 330.0614583333333 346.60416666666663 329.72916666666663 C 346.9364583333333 329.396875 346.97198464912276 328.534375 346.68311403508767 327.8125 "/><path fill="rgb(160,160,161)" d="M 236.72916666666669 258.39583333333337 C 236.396875 258.0635416666667 235.534375 258.02801535087724 234.8125 258.31688596491233 C 234.01476730310262 258.6361123323424 234.2517236807213 258.8730687099611 235.41666666666669 258.92105263157896 C 236.47083333333333 258.96447368421053 237.06145833333335 258.728125 236.72916666666669 258.39583333333337 "/><path fill="rgb(16,16,17)" d="M 224.68311403508773 344.8125 C 224.36388766765762 344.01476730310264 224.12693129003895 344.2517236807213 224.07894736842104 345.41666666666663 C 224.03552631578947 346.4708333333333 224.271875 347.0614583333333 224.60416666666669 346.72916666666663 C 224.93645833333335 346.396875 224.97198464912282 345.534375 224.68311403508773 344.8125 "/><path fill="rgb(16,16,17)" d="M 430.68311403508767 304.8125 C 430.3638876676576 304.01476730310264 430.1269312900389 304.2517236807213 430.07894736842104 305.41666666666663 C 430.03552631578947 306.4708333333333 430.271875 307.0614583333333 430.60416666666663 306.72916666666663 C 430.9364583333333 306.396875 430.97198464912276 305.534375 430.68311403508767 304.8125 "/><path fill="rgb(16,16,17)" d="M 433.68311403508767 217.8125 C 433.3638876676576 217.01476730310262 433.1269312900389 217.2517236807213 433.07894736842104 218.41666666666669 C 433.03552631578947 219.47083333333333 433.271875 220.06145833333335 433.60416666666663 219.72916666666669 C 433.9364583333333 219.396875 433.97198464912276 218.534375 433.68311403508767 217.8125 "/><path fill="rgb(160,160,161)" d="M 290.68311403508767 156.8125 C 290.3638876676576 156.01476730310262 290.1269312900389 156.2517236807213 290.07894736842104 157.41666666666669 C 290.03552631578947 158.47083333333333 290.271875 159.06145833333335 290.60416666666663 158.72916666666669 C 290.9364583333333 158.396875 290.97198464912276 157.534375 290.68311403508767 156.8125 "/><path fill="rgb(160,160,161)" d="M 287.68311403508767 343.8125 C 287.3638876676576 343.01476730310264 287.1269312900389 343.2517236807213 287.07894736842104 344.41666666666663 C 287.03552631578947 345.4708333333333 287.271875 346.0614583333333 287.60416666666663 345.72916666666663 C 287.9364583333333 345.396875 287.97198464912276 344.534375 287.68311403508767 343.8125 "/><path fill="rgb(160,160,161)" d="M 282.72916666666663 264.39583333333337 C 282.396875 264.0635416666667 281.534375 264.02801535087724 280.8125 264.31688596491233 C 280.01476730310264 264.6361123323424 280.2517236807213 264.8730687099611 281.41666666666663 264.92105263157896 C 282.4708333333333 264.96447368421053 283.0614583333333 264.728125 282.72916666666663 264.39583333333337 "/><path fill="rgb(160,160,161)" d="M 241.72916666666669 259.39583333333337 C 241.396875 259.0635416666667 240.534375 259.02801535087724 239.8125 259.31688596491233 C 239.01476730310262 259.6361123323424 239.2517236807213 259.8730687099611 240.41666666666669 259.92105263157896 C 241.47083333333333 259.96447368421053 242.06145833333335 259.728125 241.72916666666669 259.39583333333337 "/><path fill="rgb(160,160,161)" d="M 232.72916666666669 257.39583333333337 C 232.396875 257.0635416666667 231.534375 257.02801535087724 230.8125 257.31688596491233 C 230.01476730310262 257.6361123323424 230.2517236807213 257.8730687099611 231.41666666666669 257.92105263157896 C 232.47083333333333 257.96447368421053 233.06145833333335 257.728125 232.72916666666669 257.39583333333337 "/><path fill="rgb(160,160,161)" d="M 223.68311403508773 154.8125 C 223.36388766765762 154.01476730310262 223.12693129003895 154.25172368072128 223.07894736842104 155.41666666666669 C 223.03552631578947 156.47083333333333 223.271875 157.06145833333335 223.60416666666669 156.72916666666669 C 223.93645833333335 156.396875 223.97198464912282 155.534375 223.68311403508773 154.8125 "/><path fill="rgb(160,160,161)" d="M 164.68311403508773 150.8125 C 164.36388766765762 150.01476730310262 164.12693129003895 150.25172368072128 164.07894736842104 151.41666666666669 C 164.03552631578947 152.47083333333333 164.271875 153.06145833333335 164.60416666666669 152.72916666666669 C 164.93645833333335 152.396875 164.97198464912282 151.534375 164.68311403508773 150.8125 "/><path fill="rgb(160,160,161)" d="M 264.72916666666663 130.39583333333331 C 264.396875 130.06354166666665 263.534375 130.02801535087718 262.8125 130.31688596491227 C 262.01476730310264 130.63611233234238 262.2517236807213 130.87306870996105 263.41666666666663 130.92105263157896 C 264.4708333333333 130.96447368421053 265.0614583333333 130.728125 264.72916666666663 130.39583333333331 "/><path fill="rgb(16,16,17)" d="M 250.72916666666669 382.39583333333337 C 250.396875 382.0635416666667 249.534375 382.02801535087724 248.8125 382.31688596491233 C 248.01476730310262 382.6361123323424 248.2517236807213 382.8730687099611 249.41666666666669 382.92105263157896 C 250.47083333333333 382.96447368421053 251.06145833333335 382.728125 250.72916666666669 382.39583333333337 "/><path fill="rgb(16,16,17)" d="M 286.68311403508767 359.8125 C 286.3638876676576 359.01476730310264 286.1269312900389 359.2517236807213 286.07894736842104 360.41666666666663 C 286.03552631578947 361.4708333333333 286.271875 362.0614583333333 286.60416666666663 361.72916666666663 C 286.9364583333333 361.396875 286.97198464912276 360.534375 286.68311403508767 359.8125 "/><path fill="rgb(16,16,17)" d="M 287.68311403508767 346.8125 C 287.3638876676576 346.01476730310264 287.1269312900389 346.2517236807213 287.07894736842104 347.41666666666663 C 287.03552631578947 348.4708333333333 287.271875 349.0614583333333 287.60416666666663 348.72916666666663 C 287.9364583333333 348.396875 287.97198464912276 347.534375 287.68311403508767 346.8125 "/><path fill="rgb(16,16,17)" d="M 225.68311403508773 340.8125 C 225.36388766765762 340.01476730310264 225.12693129003895 340.2517236807213 225.07894736842104 341.41666666666663 C 225.03552631578947 342.4708333333333 225.271875 343.0614583333333 225.60416666666669 342.72916666666663 C 225.93645833333335 342.396875 225.97198464912282 341.534375 225.68311403508773 340.8125 "/><path fill="rgb(160,160,161)" d="M 165.68311403508773 195.8125 C 165.36388766765762 195.01476730310262 165.12693129003895 195.25172368072128 165.07894736842104 196.41666666666669 C 165.03552631578947 197.47083333333333 165.271875 198.06145833333335 165.60416666666669 197.72916666666669 C 165.93645833333335 197.396875 165.97198464912282 196.534375 165.68311403508773 195.8125 "/><path fill="rgb(160,160,161)" d="M 164.68311403508773 191.8125 C 164.36388766765762 191.01476730310262 164.12693129003895 191.25172368072128 164.07894736842104 192.41666666666669 C 164.03552631578947 193.47083333333333 164.271875 194.06145833333335 164.60416666666669 193.72916666666669 C 164.93645833333335 193.396875 164.97198464912282 192.534375 164.68311403508773 191.8125 "/><path fill="rgb(160,160,161)" d="M 290.68311403508767 171.8125 C 290.3638876676576 171.01476730310262 290.1269312900389 171.2517236807213 290.07894736842104 172.41666666666669 C 290.03552631578947 173.47083333333333 290.271875 174.06145833333335 290.60416666666663 173.72916666666669 C 290.9364583333333 173.396875 290.97198464912276 172.534375 290.68311403508767 171.8125 "/><path fill="rgb(160,160,161)" d="M 224.68311403508773 356.8125 C 224.36388766765762 356.01476730310264 224.12693129003895 356.2517236807213 224.07894736842104 357.41666666666663 C 224.03552631578947 358.4708333333333 224.271875 359.0614583333333 224.60416666666669 358.72916666666663 C 224.93645833333335 358.396875 224.97198464912282 357.534375 224.68311403508773 356.8125 "/><path fill="rgb(160,160,161)" d="M 278.72916666666663 263.39583333333337 C 278.396875 263.0635416666667 277.534375 263.02801535087724 276.8125 263.31688596491233 C 276.01476730310264 263.6361123323424 276.2517236807213 263.8730687099611 277.41666666666663 263.92105263157896 C 278.4708333333333 263.96447368421053 279.0614583333333 263.728125 278.72916666666663 263.39583333333337 "/><path fill="rgb(160,160,161)" d="M 163.68311403508773 186.8125 C 163.36388766765762 186.01476730310262 163.12693129003895 186.25172368072128 163.07894736842104 187.41666666666669 C 163.03552631578947 188.47083333333333 163.271875 189.06145833333335 163.60416666666669 188.72916666666669 C 163.93645833333335 188.396875 163.97198464912282 187.534375 163.68311403508773 186.8125 "/><path fill="rgb(16,16,17)" d="M 347.68311403508767 368.8125 C 347.3638876676576 368.01476730310264 347.1269312900389 368.2517236807213 347.07894736842104 369.41666666666663 C 347.03552631578947 370.4708333333333 347.271875 371.0614583333333 347.60416666666663 370.72916666666663 C 347.9364583333333 370.396875 347.97198464912276 369.534375 347.68311403508767 368.8125 "/><path fill="rgb(16,16,17)" d="M 348.68311403508767 364.8125 C 348.3638876676576 364.01476730310264 348.1269312900389 364.2517236807213 348.07894736842104 365.41666666666663 C 348.03552631578947 366.4708333333333 348.271875 367.0614583333333 348.60416666666663 366.72916666666663 C 348.9364583333333 366.396875 348.97198464912276 365.534375 348.68311403508767 364.8125 "/><path fill="rgb(16,16,17)" d="M 225.68311403508773 358.8125 C 225.36388766765762 358.01476730310264 225.12693129003895 358.2517236807213 225.07894736842104 359.41666666666663 C 225.03552631578947 360.4708333333333 225.271875 361.0614583333333 225.60416666666669 360.72916666666663 C 225.93645833333335 360.396875 225.97198464912282 359.534375 225.68311403508773 358.8125 "/><path fill="rgb(16,16,17)" d="M 347.68311403508767 329.8125 C 347.3638876676576 329.01476730310264 347.1269312900389 329.2517236807213 347.07894736842104 330.41666666666663 C 347.03552631578947 331.4708333333333 347.271875 332.0614583333333 347.60416666666663 331.72916666666663 C 347.9364583333333 331.396875 347.97198464912276 330.534375 347.68311403508767 329.8125 "/><path fill="rgb(16,16,17)" d="M 431.68311403508767 300.8125 C 431.3638876676576 300.01476730310264 431.1269312900389 300.2517236807213 431.07894736842104 301.41666666666663 C 431.03552631578947 302.4708333333333 431.271875 303.0614583333333 431.60416666666663 302.72916666666663 C 431.9364583333333 302.396875 431.97198464912276 301.534375 431.68311403508767 300.8125 "/><path fill="rgb(16,16,17)" d="M 433.68311403508767 291.8125 C 433.3638876676576 291.01476730310264 433.1269312900389 291.2517236807213 433.07894736842104 292.41666666666663 C 433.03552631578947 293.4708333333333 433.271875 294.0614583333333 433.60416666666663 293.72916666666663 C 433.9364583333333 293.396875 433.97198464912276 292.534375 433.68311403508767 291.8125 "/><path fill="rgb(16,16,17)" d="M 431.68311403508767 208.8125 C 431.3638876676576 208.01476730310262 431.1269312900389 208.2517236807213 431.07894736842104 209.41666666666669 C 431.03552631578947 210.47083333333333 431.271875 211.06145833333335 431.60416666666663 210.72916666666669 C 431.9364583333333 210.396875 431.97198464912276 209.534375 431.68311403508767 208.8125 "/><path fill="rgb(16,16,17)" d="M 432.68311403508767 212.8125 C 432.3638876676576 212.01476730310262 432.1269312900389 212.2517236807213 432.07894736842104 213.41666666666669 C 432.03552631578947 214.47083333333333 432.271875 215.06145833333335 432.60416666666663 214.72916666666669 C 432.9364583333333 214.396875 432.97198464912276 213.534375 432.68311403508767 212.8125 "/></svg>