<svg width="643" height="384" fill="white" xmlns="http://www.w3.org/2000/svg"><path fill="rgb(254,254,254)" d="M 0.0 192.0 L 0.0 0.0 L 321.5 0.0 L 643.0 0.0 L 643.0 192.0 L 643.0 384.0 L 321.5 384.0 L 0.0 384.0 L 0.0 192.0 M 521.4210369550934 355.07568597329055 L 524.0 352.65137194658104 L 524.0 266.1401371946581 L 524.0 179.62890244273518 L 521.8256859732905 177.31445122136756 L 519.651371946581 174.99999999999997 L 487.0 174.99999999999997 L 454.34862805341896 174.99999999999997 L 451.92431402670945 177.58056402670945 L 449.5 180.16112805341896 L 449.5 266.0 L 449.5 351.83887194658104 L 451.87427350292137 354.36617027662646 C 453.1801239295282 355.7561843581514 455.20512392952816 357.0931074086455 456.37427350292137 357.3371103888356 C 457.54342307631464 357.5811133690257 472.076966629792 357.71758293252446 488.6710369550934 357.64037608549967 L 518.8420739101869 357.5 L 521.4210369550934 355.07568597329055 M 175.13306005966308 292.4243744277087 L 213.8209708236222 277.84874885541734 L 223.1604854118111 280.82353160173005 C 241.44116236238756 286.64621562561535 247.55886225955555 287.5 271.0 287.5 C 289.8554299826138 287.5 293.7768355943629 287.2141177329429 302.8805023494652 285.17581546288477 C 319.7347126424364 281.40217391554376 339.9397403086614 273.38790363115544 349.32544725500276 266.7535520557075 C 352.0971389703737 264.794362683649 352.71643946136595 264.7805553196633 381.8765272791303 266.0278225971347 C 398.2256253021489 266.7271241598638 412.16271694177465 267.1124276860751 412.84784203385414 266.88405265538194 C 413.5329671259337 266.6556776246888 406.48284898495996 260.21012238244975 397.18091283169036 252.5605965615175 L 380.26830164392743 238.65236779618613 L 384.05329744912024 232.79624351461902 C 392.76619977829034 219.31568989742001 396.9652727524503 204.74760940878988 396.96527275245086 188.0 C 396.9652727524514 171.19142711490474 392.7686720288398 156.68813515476995 383.9626894589167 143.06356831111538 L 380.08708566351766 137.06725585527582 L 388.7935428317588 131.7053977964748 C 393.5820942742915 128.75637586413427 404.8157804871938 121.87874329669722 413.75728997154187 116.42176986883692 C 422.6987994558899 110.96479644097661 429.37404722119544 106.36177368192645 428.59117389444316 106.192830404281 C 427.8083005676908 106.02388712663554 411.6375886214499 107.97527149739976 392.6562584583522 110.52924011709035 L 358.14474907090187 115.17281942561871 L 352.32237453545093 111.2212610291818 C 334.569307468966 99.17252029600891 308.84849511756397 90.31537464374601 285.5205281859262 88.21756756591616 L 277.5410563718524 87.5 L 268.532745964973 59.25 C 263.57817524118934 43.7125 259.29393755752255 31.00431023807055 259.0122177790468 31.009578306823443 C 258.73049800057106 31.014846375576337 254.0 44.350112537577466 248.5 60.643503111270405 C 240.65757784864897 83.87616623049652 238.06848443027022 90.43545587242966 236.5 91.0446756392533 C 235.4 91.47192995595096 229.9990815991998 93.19260378143298 224.4979591093329 94.86839525143557 C 215.409128425273 97.63710017678507 198.6137375451408 105.23098336198912 191.78962866718825 109.65716928672877 C 189.1663751578012 111.3586380012427 187.8806793954525 111.26270046721989 151.78962866718825 106.67240300430633 C 131.28033290023473 104.0638957310209 113.825 101.95078200459412 113.0 101.97659472335792 C 111.26335707579342 102.03093105717089 113.08198493659556 103.23047812295636 142.14082198391156 121.19756249735865 L 163.78164396782313 134.5780867724095 L 159.05447846858968 141.6200817672422 C 153.43144528006712 149.99663883421502 148.38378332973957 161.6994165104175 146.44160437196942 170.86246425307831 C 144.63589798934962 179.38164510764236 144.63589798934953 196.61835489235725 146.44160437196928 205.13753574692117 C 149.28647404030602 218.55940734548182 156.90493494902563 233.3031884066865 167.0797629572494 245.07795092179293 L 171.89979148816394 250.6559018435859 L 153.44989574408197 278.3198108857062 C 143.30245308483688 293.53496085887235 135.0 306.21238294406555 135.0 306.49185996391327 C 135.0 306.77133698376093 135.32515859153338 307.0 135.72257464785199 307.0 C 136.1199907041706 307.0 153.85470913948558 300.4409684924689 175.13306005966308 292.4243744277087 M 610.0 68.0 L 610.0 34.0 L 542.5 34.0 L 475.0 34.0 L 475.0 68.0 L 475.0 102.0 L 542.5 102.0 L 610.0 102.0 L 610.0 68.0"/><path fill="rgb(0,255,254)" d="M 251.0 287.3923708093056 C 230.02360971118395 283.57133788948903 216.89526115989588 279.49177807277187 203.0 272.4766431808515 C 173.61176128748957 257.6397533641105 152.15505310741906 232.09313802482788 146.44160437196928 205.13753574692106 C 144.63589798934967 196.61835489235773 144.63589798934981 179.38164510764173 146.44160437196956 170.86246425307712 C 153.43751458257574 137.85630948721663 182.8749259598951 108.63252111407739 222.35572643784482 95.49923990736977 C 240.57501526153095 89.43859674383174 247.09820311846158 88.5 271.0 88.5 C 294.9017968815371 88.5 301.42498473846814 89.43859674383172 319.64427356215623 95.49923990736949 C 359.1624631945562 108.64495860960535 388.55586014224605 137.8250519594173 395.55839562803067 170.86246425307857 C 397.36410201065024 179.38164510764193 397.3641020106503 196.61835489235784 395.5583956280308 205.1375357469207 C 388.8066517876424 236.9917327601186 360.65956511598324 265.8242421910272 323.0 279.46283451196956 C 306.33133380550635 285.499472005271 296.20147623704355 287.1651570325092 274.0 287.5200619490833 C 262.725 287.7003000959366 252.375 287.6428390830367 251.0 287.3923708093056"/><path fill="rgb(254,0,127)" d="M 475.0 68.0 L 475.0 34.0 L 542.5 34.0 L 610.0 34.0 L 610.0 68.0 L 610.0 102.0 L 542.5 102.0 L 475.0 102.0 L 475.0 68.0"/><path fill="rgb(0,0,254)" d="M 456.37427350292137 357.3371103888356 C 455.20512392952816 357.0931074086455 453.1801239295282 355.7561843581514 451.87427350292137 354.36617027662646 L 449.5 351.83887194658104 L 449.5 266.0 L 449.5 180.16112805341896 L 451.92431402670945 177.58056402670945 L 454.34862805341896 174.99999999999997 L 487.0 174.99999999999997 L 519.651371946581 174.99999999999997 L 521.8256859732905 177.31445122136756 L 524.0 179.62890244273518 L 524.0 266.1401371946581 L 524.0 352.65137194658104 L 521.4210369550934 355.07568597329055 L 518.8420739101869 357.5 L 488.6710369550934 357.64037608549967 C 472.076966629792 357.71758293252446 457.54342307631464 357.5811133690257 456.37427350292137 357.3371103888356"/><path fill="rgb(255,0,0)" d="M 135.0 306.48635660417045 C 135.0 306.08634695295416 170.3502087253866 252.59417029637254 171.56602343763075 251.15440084262616 C 171.72653628671193 250.96432130607056 174.60731374028182 253.096916359369 177.96775111223053 255.8935009610671 C 187.02118296488123 263.42784405669937 194.86631265760127 268.51473343951807 205.15659764289725 273.52312088644305 C 210.21563097973055 275.9854043988994 214.13750728236374 278.0 213.8718783154155 278.0 C 213.60624934846726 278.0 196.08891033192901 284.52394113428596 174.9444582786639 292.49764696508 C 137.0558405827013 306.78568295116116 135.0 307.5056465760284 135.0 306.48635660417045 M 376.5 265.88478673446673 C 367.7 265.43491113137713 358.85325220522697 264.93929409667635 356.84056045605996 264.78341554624285 L 353.1811209121199 264.5 L 361.2998624109024 257.96907585308884 C 365.7651702352327 254.37706757228776 371.6869180300057 248.67696463587848 374.45930195484243 245.30218043884605 C 377.2316858796791 241.92739624181363 379.7900159537669 239.12881210792364 380.1444798972597 239.08310458575718 C 380.69654258367046 239.01191704203202 408.7748520379193 261.72733646358216 412.9642857142857 265.63440589121257 C 414.2076386734623 266.793957923736 412.7742700671448 266.9775747502322 403.4642857142857 266.8513711882239 C 397.43392857142857 266.76962534174703 385.3 266.33466233755627 376.5 265.88478673446673 M 374.74293627142134 130.9613297085503 C 372.1265512207031 127.71623381220067 367.2656889495209 122.79739539745201 363.94102011323866 120.03057767577549 C 360.6163512769565 117.26375995409897 358.2570299548169 115.00002991324982 358.6980838418174 115.00006647388848 C 359.1391377288178 115.00010303452714 374.72179646429174 112.94871205660958 393.3262143650928 110.44141985629389 C 411.9306322658939 107.93412765597819 427.79875657541766 106.02159774272837 428.5887128307012 106.1913533824054 C 429.3786690859847 106.36110902208243 418.79648047206007 113.3625 405.0727381330908 121.75 C 391.34899579412155 130.1375 379.9808714845978 136.96883841474866 379.81023966748245 136.9307520327748 C 379.6396078503671 136.89266565080092 377.3593213221396 134.2064256048999 374.74293627142134 130.9613297085503 M 137.2313585047274 118.20495594574285 C 123.33360568232747 109.56723017558429 112.62035347217032 102.3594635490845 113.42413137104485 102.18769677574332 C 114.54375469375807 101.94843405681407 181.72947706812843 110.16038094594342 187.7389805527169 111.27101943696326 C 188.4204198567112 111.39695874663346 185.78358890942687 113.975 181.87935622541838 117.0 C 177.97512354140989 120.025 172.42447908872418 125.0875 169.5445907750057 128.25 C 166.66470246128722 131.4125 163.90153340857154 133.97973017558428 163.40421510230422 133.95495594574285 C 162.9068967960369 133.93018171590143 151.12911132712733 126.84268171590142 137.2313585047274 118.20495594574285 M 248.35497221988416 61.004978416102034 C 253.93473749894787 44.51574029900371 258.7287922923977 31.019022743840534 259.00842731643934 31.012272737961634 C 259.28806234048096 31.005522732082735 263.612408467126 43.824999999999996 268.61808537565054 59.5 L 277.7193161184224 88.0 L 266.6096580592112 88.00755415727684 C 256.8783843354237 88.01417106409986 247.39330829218773 88.91530046292546 240.35497221988416 90.50187989160975 C 238.39759806200794 90.94311053777696 239.09746264736813 88.36263094770611 248.35497221988416 61.004978416102034"/></svg>