<svg width="512" height="512" fill="white" xmlns="http://www.w3.org/2000/svg"><path fill="rgb(160,160,161)" d="M 0.0 256.0 L 0.0 0.0 L 256.0 0.0 L 512.0 0.0 L 512.0 256.0 L 512.0 512.0 L 256.0 512.0 L 0.0 512.0 L 0.0 256.0 M 278.1423751919066 431.86140991706725 C 282.69601662525434 431.2485853411442 288.7640672691866 429.94129889539533 291.62693217842275 428.95632892651423 C 294.48979708765887 427.97135895763313 297.0582241322222 427.3915574655553 297.33454783300795 427.6678811663413 C 298.1649057062972 428.4982390396313 314.87303232085526 423.98298249598247 324.3436636918669 420.36885297884714 C 358.6475501469652 407.277995175078 385.1519524093862 387.0617618632619 405.299964935916 358.6194327200154 C 422.0673422458876 334.94944225861127 431.4111196275136 311.09360539406924 435.5474099185009 281.39390779551405 C 437.63503873777626 266.4041608801185 437.10709497640335 236.26681523298578 434.50695189504575 222.0 C 428.16057317682987 187.17783455052478 411.73115908863645 156.01172380093294 386.14008733199364 130.24949389608173 C 363.0766124251818 107.03176590859255 328.7979409129968 88.31014311754312 296.75 81.42824667552748 C 291.9375 80.39482219695921 288.0 79.29106247126931 288.0 78.97544728510547 C 288.0 78.65983209894164 286.3125 78.5371663176107 284.25 78.7028566599256 C 281.50982833243063 78.92298756009588 281.0308904367412 78.77714908221142 282.4714629445854 78.1612851130565 C 283.89645782029 77.55208078949896 281.9373613869922 76.99713268253232 275.4037379610826 76.159229199171 C 242.20802533410856 71.9020503828191 200.79401073780448 79.52806769241818 172.0 95.20009503300003 C 155.14835493327024 104.37212197375635 136.19826060676297 118.75234914354733 123.81751660556073 131.7632405708842 C 93.59559889585566 163.52337469599797 76.01263588237552 205.5333136048637 74.33035661740003 250.0 C 73.60565730100764 269.155545636033 74.95427951492391 282.3462321383101 79.55177243308526 301.06994265112337 C 87.03746304609857 331.5561025042195 98.97294161545085 353.60513464584596 119.5 374.86838722172183 C 152.97753720797147 409.5465820188483 192.775465771887 428.64393105252327 241.5 433.4110467565405 C 247.611329958283 434.0089676495381 268.8630262211028 433.1102155556117 278.1423751919066 431.86140991706725 M 316.0 416.62244471544216 C 316.0 416.4147893089354 316.7875 415.62728930893536 317.75 414.87244471544216 C 319.3360556243658 413.62857405255176 319.37142594744824 413.6639443756342 318.12755528455784 415.25 C 316.8211855316597 416.91574802019267 316.0 417.4454789049805 316.0 416.62244471544216 M 328.0 404.62244471544216 C 328.0 404.4147893089354 328.7875 403.62728930893536 329.75 402.87244471544216 C 331.3360556243658 401.62857405255176 331.37142594744824 401.6639443756342 330.12755528455784 403.25 C 328.8211855316597 404.91574802019267 328.0 405.4454789049805 328.0 404.62244471544216 M 251.26903188937032 383.3070092793149 C 252.241999428524 383.0534658684608 253.591999428524 383.07014016038517 254.26903188937032 383.34406326136906 C 254.94606435021666 383.61798636235295 254.15 383.8254309712335 252.5 383.8050512811037 C 250.85 383.78467159097397 250.29606435021665 383.56055269016895 251.26903188937032 383.3070092793149 M 259.75 383.3377192982456 C 260.4375 383.06030701754383 261.5625 383.06030701754383 262.25 383.3377192982456 C 262.9375 383.6151315789474 262.375 383.8421052631579 261.0 383.8421052631579 C 259.625 383.8421052631579 259.0625 383.6151315789474 259.75 383.3377192982456 M 275.0 377.62244471544216 C 275.0 377.4147893089354 275.7875 376.62728930893536 276.75 375.87244471544216 C 278.3360556243658 374.62857405255176 278.37142594744824 374.6639443756342 277.12755528455784 376.25 C 275.8211855316597 377.91574802019267 275.0 378.4454789049805 275.0 377.62244471544216 M 232.40498756211207 373.75 L 230.5 371.5 L 232.75 373.40498756211207 C 234.8644447635172 375.1952057733447 235.45524077260524 376.0 234.65498756211207 376.0 C 234.46523072127374 376.0 233.45273072127372 374.9875 232.40498756211207 373.75 M 280.5 372.0 C 281.4954863183233 370.9 282.5349751242242 370.0 282.8099751242242 370.0 C 283.0849751242242 370.0 282.4954863183233 370.9 281.5 372.0 C 280.5045136816767 373.1 279.4650248757758 374.0 279.1900248757758 374.0 C 278.9150248757758 374.0 279.5045136816767 373.1 280.5 372.0 M 228.87244471544216 369.25 C 227.62857405255176 367.6639443756342 227.66394437563417 367.62857405255176 229.25 368.87244471544216 C 230.2125 369.62728930893536 231.0 370.4147893089354 231.0 370.62244471544216 C 231.0 371.4454789049805 230.17881446834028 370.91574802019267 228.87244471544216 369.25 M 284.0802884611952 367.0 C 285.5380999874225 363.9389678898756 286.0 363.3716607088595 286.0 364.64220369822846 C 286.0 365.17874906558745 285.3001752005572 366.49124906558745 284.444833779016 367.55887036489514 C 282.978456144583 369.3891757329295 282.95764328029463 369.357268333518 284.0802884611952 367.0 M 348.1578947368421 362.0 C 348.1578947368421 360.625 348.3848684210526 360.0625 348.6622807017544 360.75 C 348.93969298245617 361.4375 348.93969298245617 362.5625 348.6622807017544 363.25 C 348.3848684210526 363.9375 348.1578947368421 363.375 348.1578947368421 362.0 M 224.07894736842104 357.41666666666663 C 224.12693129003895 356.2517236807213 224.36388766765762 356.01476730310264 224.68311403508773 356.8125 C 224.97198464912282 357.534375 224.93645833333335 358.396875 224.60416666666669 358.72916666666663 C 224.271875 359.0614583333333 224.03552631578947 358.4708333333333 224.07894736842104 357.41666666666663 M 349.3200741451878 350.0 C 349.3200741451878 346.425 349.5015687803602 344.9625 349.723395556682 346.75 C 349.94522233300387 348.5375 349.94522233300387 351.4625 349.723395556682 353.25 C 349.5015687803602 355.0375 349.3200741451878 353.575 349.3200741451878 350.0 M 288.23200270095043 352.0 C 288.23200270095043 350.075 288.43779796668133 349.2875 288.68932551368573 350.25 C 288.94085306069013 351.2125 288.94085306069013 352.7875 288.68932551368573 353.75 C 288.43779796668133 354.7125 288.23200270095043 353.925 288.23200270095043 352.0 M 223.23200270095043 350.0 C 223.23200270095043 348.075 223.43779796668133 347.2875 223.68932551368573 348.25 C 223.94085306069016 349.2125 223.94085306069016 350.7875 223.68932551368573 351.75 C 223.43779796668133 352.7125 223.23200270095043 351.925 223.23200270095043 350.0 M 287.07894736842104 344.41666666666663 C 287.1269312900389 343.2517236807213 287.3638876676576 343.01476730310264 287.68311403508767 343.8125 C 287.97198464912276 344.534375 287.9364583333333 345.396875 287.60416666666663 345.72916666666663 C 287.271875 346.0614583333333 287.03552631578947 345.4708333333333 287.07894736842104 344.41666666666663 M 348.1578947368421 338.0 C 348.1578947368421 336.625 348.3848684210526 336.0625 348.6622807017544 336.75 C 348.93969298245617 337.4375 348.93969298245617 338.5625 348.6622807017544 339.25 C 348.3848684210526 339.9375 348.1578947368421 339.375 348.1578947368421 338.0 M 278.43709120476603 328.75 L 275.5 325.5 L 278.75 328.43709120476603 C 281.7794554876636 331.17487184108813 282.45965158518555 332.0 281.68709120476603 332.0 C 281.5149913673873 332.0 280.0524913673873 330.5375 278.43709120476603 328.75 M 346.07894736842104 328.41666666666663 C 346.1269312900389 327.2517236807213 346.3638876676576 327.01476730310264 346.68311403508767 327.8125 C 346.97198464912276 328.534375 346.9364583333333 329.396875 346.60416666666663 329.72916666666663 C 346.271875 330.0614583333333 346.03552631578947 329.4708333333333 346.07894736842104 328.41666666666663 M 252.76790910343246 319.275268732142 C 254.5652591103203 319.0527073146734 257.2652591103203 319.05729955630983 258.76790910343243 319.28547371355626 C 260.2705590965446 319.51364787080263 258.8 319.69574357600425 255.5 319.69013083622644 C 252.2 319.6845180964486 250.9705590965446 319.49783014961065 252.76790910343246 319.275268732142 M 338.69540270784927 309.48744258373074 C 337.7807277059368 307.5693491626788 337.23852080281137 306.0 337.49049847868173 306.0 C 338.17476212803894 306.0 341.21042107540023 312.1229122579331 340.7529603872216 312.58037294611177 C 340.5359786654793 312.79735466785405 339.61007770976175 311.4055360047826 338.69540270784927 309.48744258373074 M 331.87244471544216 298.25 C 330.62857405255176 296.6639443756342 330.6639443756342 296.62857405255176 332.25 297.87244471544216 C 333.91574802019267 299.1788144683403 334.4454789049805 300.0 333.62244471544216 300.0 C 333.4147893089354 300.0 332.62728930893536 299.2125 331.87244471544216 298.25 M 323.9711116842806 289.25 L 317.5 282.5 L 324.25 288.9711116842806 C 327.9625 292.53022311063484 331.0 295.56772311063486 331.0 295.7211116842806 C 331.0 296.4571289840763 329.98175560609036 295.519687258029 323.9711116842806 289.25 M 314.87244471544216 281.25 C 313.62857405255176 279.6639443756342 313.6639443756342 279.62857405255176 315.25 280.87244471544216 C 316.2125 281.62728930893536 317.0 282.4147893089354 317.0 282.62244471544216 C 317.0 283.4454789049805 316.1788144683403 282.91574802019267 314.87244471544216 281.25 M 300.0 272.0 C 299.09870808164396 271.41754042765575 298.9753674337122 271.024513627797 299.69098300562507 271.01531277451704 C 300.3460236587188 271.00689074853267 301.1600813061875 271.45 301.5 272.0 C 302.26730476831557 273.24152519486444 301.9211232464824 273.24152519486444 300.0 272.0 M 280.8125 264.31688596491233 C 281.534375 264.02801535087724 282.396875 264.0635416666667 282.72916666666663 264.39583333333337 C 283.0614583333333 264.728125 282.4708333333333 264.96447368421053 281.41666666666663 264.92105263157896 C 280.2517236807213 264.8730687099611 280.01476730310264 264.6361123323424 280.8125 264.31688596491233 M 276.8125 263.31688596491233 C 277.534375 263.02801535087724 278.396875 263.0635416666667 278.72916666666663 263.39583333333337 C 279.0614583333333 263.728125 278.4708333333333 263.96447368421053 277.41666666666663 263.92105263157896 C 276.2517236807213 263.8730687099611 276.01476730310264 263.6361123323424 276.8125 263.31688596491233 M 269.75 262.3377192982456 C 270.4375 262.06030701754383 271.5625 262.06030701754383 272.25 262.3377192982456 C 272.9375 262.6151315789474 272.375 262.8421052631579 271.0 262.8421052631579 C 269.625 262.8421052631579 269.0625 262.6151315789474 269.75 262.3377192982456 M 255.72769568083237 261.27826796201373 C 257.5029283052902 261.05735612097453 260.6529283052902 261.053726402497 262.72769568083237 261.27020192095256 C 264.80246305637456 261.48667743940814 263.35 261.6674234911674 259.5 261.6718598137511 C 255.65 261.6762961363347 253.95246305637457 261.49917980305287 255.72769568083237 261.27826796201373 M 244.75 260.3377192982456 C 245.4375 260.06030701754383 246.5625 260.06030701754383 247.25 260.3377192982456 C 247.9375 260.6151315789474 247.375 260.8421052631579 246.0 260.8421052631579 C 244.625 260.8421052631579 244.0625 260.6151315789474 244.75 260.3377192982456 M 239.8125 259.31688596491233 C 240.534375 259.02801535087724 241.396875 259.0635416666667 241.72916666666669 259.39583333333337 C 242.06145833333335 259.728125 241.47083333333333 259.96447368421053 240.41666666666669 259.92105263157896 C 239.2517236807213 259.8730687099611 239.01476730310262 259.6361123323424 239.8125 259.31688596491233 M 234.8125 258.31688596491233 C 235.534375 258.02801535087724 236.396875 258.0635416666667 236.72916666666669 258.39583333333337 C 237.06145833333335 258.728125 236.47083333333333 258.96447368421053 235.41666666666669 258.92105263157896 C 234.2517236807213 258.8730687099611 234.01476730310262 258.6361123323424 234.8125 258.31688596491233 M 230.8125 257.31688596491233 C 231.534375 257.02801535087724 232.396875 257.0635416666667 232.72916666666669 257.39583333333337 C 233.06145833333335 257.728125 232.47083333333333 257.96447368421053 231.41666666666669 257.92105263157896 C 230.2517236807213 257.8730687099611 230.01476730310262 257.6361123323424 230.8125 257.31688596491233 M 217.0 253.0 C 216.175 252.46684405196876 215.95 252.0306255490341 216.5 252.0306255490341 C 217.05 252.0306255490341 218.175 252.46684405196876 219.0 253.0 C 219.825 253.53315594803124 220.05 253.9693744509659 219.5 253.9693744509659 C 218.95 253.9693744509659 217.825 253.53315594803124 217.0 253.0 M 204.4411296351049 246.44483377901594 C 202.57710525755647 244.95144163527206 202.58937415944027 244.93297827488124 204.75 245.98001753750395 C 205.9875 246.57971002621358 207.0 247.2795348256564 207.0 247.53518375848802 C 207.0 248.3004037504144 206.48139212752687 248.0794218316495 204.4411296351049 246.44483377901594 M 193.40498756211207 238.75 L 191.5 236.5 L 193.75 238.40498756211207 C 195.86444476351718 240.19520577334464 196.45524077260524 241.0 195.65498756211207 241.0 C 195.46523072127374 241.0 194.45273072127372 239.9875 193.40498756211207 238.75 M 185.46240815616807 231.75 L 180.5 226.5 L 185.75 231.46240815616807 C 188.6375 234.19173264206051 191.0 236.5542326420605 191.0 236.71240815616807 C 191.0 237.4585996715244 190.07356646546535 236.62839378824987 185.46240815616807 231.75 M 178.87244471544216 224.25 C 177.62857405255176 222.66394437563417 177.66394437563417 222.62857405255176 179.25 223.87244471544216 C 180.2125 224.62728930893536 181.0 225.41478930893535 181.0 225.62244471544216 C 181.0 226.44547890498055 180.17881446834028 225.91574802019267 178.87244471544216 224.25 M 171.45888148406235 212.93346884364593 C 171.0963476064842 212.34687670765118 171.01419759025114 211.6524690764155 171.27632589243336 211.3903407742333 C 171.53845419461558 211.12821247205108 172.0193920159038 211.60815149241043 172.34507660640725 212.45687193058737 C 173.0212606446691 214.218979288368 172.44493084285418 214.52893022075617 171.45888148406235 212.93346884364593 M 252.72769568083237 198.27826796201373 C 254.50292830529017 198.05735612097453 257.6529283052902 198.053726402497 259.72769568083237 198.27020192095256 C 261.80246305637456 198.4866774394081 260.35 198.66742349116745 256.5 198.6718598137511 C 252.65 198.6762961363347 250.95246305637457 198.4991798030529 252.72769568083237 198.27826796201373 M 165.07894736842104 196.41666666666669 C 165.12693129003895 195.25172368072128 165.36388766765762 195.01476730310262 165.68311403508773 195.8125 C 165.97198464912282 196.534375 165.93645833333335 197.396875 165.60416666666669 197.72916666666669 C 165.271875 198.06145833333335 165.03552631578947 197.47083333333333 165.07894736842104 196.41666666666669 M 164.07894736842104 192.41666666666669 C 164.12693129003895 191.25172368072128 164.36388766765762 191.01476730310262 164.68311403508773 191.8125 C 164.97198464912282 192.534375 164.93645833333335 193.396875 164.60416666666669 193.72916666666669 C 164.271875 194.06145833333335 164.03552631578947 193.47083333333333 164.07894736842104 192.41666666666669 M 281.0 188.5 C 282.8657834620403 186.575 284.6173335673461 185.0 284.8923335673461 185.0 C 285.1673335673461 185.0 283.8657834620403 186.575 282.0 188.5 C 280.1342165379597 190.425 278.3826664326539 192.0 278.1076664326539 192.0 C 277.8326664326539 192.0 279.1342165379597 190.425 281.0 188.5 M 231.40498756211207 188.75 L 229.5 186.5 L 231.75 188.40498756211207 C 233.86444476351718 190.19520577334464 234.45524077260524 191.0 233.65498756211207 191.0 C 233.46523072127374 191.0 232.45273072127372 189.9875 231.40498756211207 188.75 M 163.07894736842104 187.41666666666669 C 163.12693129003895 186.25172368072128 163.36388766765762 186.01476730310262 163.68311403508773 186.8125 C 163.97198464912282 187.534375 163.93645833333335 188.396875 163.60416666666669 188.72916666666669 C 163.271875 189.06145833333335 163.03552631578947 188.47083333333333 163.07894736842104 187.41666666666669 M 227.87244471544216 184.25 C 226.62857405255176 182.66394437563417 226.66394437563417 182.62857405255176 228.25 183.87244471544216 C 229.2125 184.62728930893536 230.0 185.41478930893535 230.0 185.62244471544216 C 230.0 186.44547890498055 229.17881446834028 185.91574802019267 227.87244471544216 184.25 M 162.19494871889628 180.5 C 162.21532840902606 178.85 162.43944730983102 178.29606435021665 162.6929907206851 179.26903188937032 C 162.94653413153918 180.241999428524 162.9298598396148 181.591999428524 162.65593673863094 182.26903188937032 C 162.38201363764708 182.94606435021666 162.17456902876648 182.15 162.19494871889628 180.5 M 290.07894736842104 172.41666666666669 C 290.1269312900389 171.2517236807213 290.3638876676576 171.01476730310262 290.68311403508767 171.8125 C 290.97198464912276 172.534375 290.9364583333333 173.396875 290.60416666666663 173.72916666666669 C 290.271875 174.06145833333335 290.03552631578947 173.47083333333333 290.07894736842104 172.41666666666669 M 222.30986916377356 164.5 C 222.31548190355136 161.2 222.50216985038935 159.9705590965446 222.72473126785795 161.76790910343246 C 222.94729268532654 163.5652591103203 222.94270044369017 166.2652591103203 222.71452628644374 167.76790910343246 C 222.48635212919731 169.27055909654462 222.30425642399575 167.8 222.30986916377356 164.5 M 291.23200270095043 165.0 C 291.23200270095043 163.075 291.43779796668133 162.2875 291.68932551368573 163.25 C 291.94085306069013 164.2125 291.94085306069013 165.7875 291.68932551368573 166.75 C 291.43779796668133 167.7125 291.23200270095043 166.925 291.23200270095043 165.0 M 162.19494871889628 162.5 C 162.21532840902606 160.85 162.43944730983102 160.29606435021665 162.6929907206851 161.26903188937032 C 162.94653413153918 162.241999428524 162.9298598396148 163.591999428524 162.65593673863094 164.26903188937032 C 162.38201363764708 164.94606435021666 162.17456902876648 164.15 162.19494871889628 162.5 M 290.07894736842104 157.41666666666669 C 290.1269312900389 156.2517236807213 290.3638876676576 156.01476730310262 290.68311403508767 156.8125 C 290.97198464912276 157.534375 290.9364583333333 158.396875 290.60416666666663 158.72916666666669 C 290.271875 159.06145833333335 290.03552631578947 158.47083333333333 290.07894736842104 157.41666666666669 M 163.1578947368421 156.0 C 163.1578947368421 154.625 163.38486842105263 154.0625 163.66228070175438 154.75 C 163.93969298245614 155.4375 163.93969298245614 156.5625 163.66228070175438 157.25 C 163.38486842105263 157.9375 163.1578947368421 157.375 163.1578947368421 156.0 M 223.07894736842104 155.41666666666669 C 223.12693129003895 154.25172368072128 223.36388766765762 154.01476730310262 223.68311403508773 154.8125 C 223.97198464912282 155.534375 223.93645833333335 156.396875 223.60416666666669 156.72916666666669 C 223.271875 157.06145833333335 223.03552631578947 156.47083333333333 223.07894736842104 155.41666666666669 M 164.07894736842104 151.41666666666669 C 164.12693129003895 150.25172368072128 164.36388766765762 150.01476730310262 164.68311403508773 150.8125 C 164.97198464912282 151.534375 164.93645833333335 152.396875 164.60416666666669 152.72916666666669 C 164.271875 153.06145833333335 164.03552631578947 152.47083333333333 164.07894736842104 151.41666666666669 M 225.0 150.35779630177154 C 225.0 149.82125093441257 225.6998247994428 148.50875093441257 226.55516622098406 147.4411296351049 C 228.02154385541706 145.61082426707046 228.04235671970537 145.642731666482 226.9197115388048 148.0 C 225.46190001257742 151.06103211012453 225.0 151.62833929114055 225.0 150.35779630177154 M 280.0 140.5 C 277.5709712296371 138.025 275.8085840538857 136.0 276.08358405388566 136.0 C 276.35858405388564 136.0 278.5709712296371 138.025 281.0 140.5 C 283.4290287703629 142.975 285.1914159461143 145.0 284.91641594611434 145.0 C 284.64141594611436 145.0 282.4290287703629 142.975 280.0 140.5 M 231.0 140.62244471544216 C 231.0 140.41478930893535 231.7875 139.62728930893536 232.75 138.87244471544216 C 234.33605562436583 137.62857405255176 234.37142594744824 137.66394437563417 233.12755528455784 139.25 C 231.82118553165972 140.91574802019267 231.0 141.44547890498055 231.0 140.62244471544216 M 243.0 132.0 C 243.825 131.46684405196876 244.95 131.0306255490341 245.5 131.0306255490341 C 246.05 131.0306255490341 245.825 131.46684405196876 245.0 132.0 C 244.175 132.53315594803124 243.05 132.9693744509659 242.5 132.9693744509659 C 241.95 132.9693744509659 242.175 132.53315594803124 243.0 132.0 M 171.0306255490341 131.5 C 171.0306255490341 130.95 171.46684405196876 129.825 172.0 129.0 C 172.53315594803124 128.175 172.9693744509659 127.95 172.9693744509659 128.5 C 172.9693744509659 129.05 172.53315594803124 130.175 172.0 131.0 C 171.46684405196876 131.825 171.0306255490341 132.05 171.0306255490341 131.5 M 262.8125 130.31688596491227 C 263.534375 130.02801535087718 264.396875 130.06354166666665 264.72916666666663 130.39583333333331 C 265.0614583333333 130.728125 264.4708333333333 130.96447368421053 263.41666666666663 130.92105263157896 C 262.2517236807213 130.87306870996105 262.01476730310264 130.63611233234238 262.8125 130.31688596491227 M 253.75 129.2942669930909 C 254.9875 129.05591409850746 257.0125 129.05591409850746 258.25 129.2942669930909 C 259.4875 129.53261988767431 258.475 129.72763589233347 256.0 129.72763589233347 C 253.525 129.72763589233347 252.5125 129.53261988767431 253.75 129.2942669930909 M 176.0 121.0 C 176.5887021343368 119.9 177.295367516976 119.0 177.570367516976 119.0 C 177.845367516976 119.0 177.5887021343368 119.9 177.0 121.0 C 176.4112978656632 122.1 175.704632483024 123.0 175.429632483024 123.0 C 175.154632483024 123.0 175.4112978656632 122.1 176.0 121.0 M 180.0 114.62244471544217 C 180.0 114.41478930893537 180.7875 113.62728930893536 181.75 112.87244471544217 C 183.33605562436583 111.62857405255177 183.37142594744824 111.66394437563417 182.12755528455784 113.25 C 180.82118553165972 114.91574802019265 180.0 115.44547890498055 180.0 114.62244471544217 M 184.5 109.0 C 185.4954863183233 107.9 186.53497512422416 107.0 186.80997512422417 107.0 C 187.08497512422417 107.0 186.4954863183233 107.9 185.5 109.0 C 184.5045136816767 110.1 183.46502487577584 111.0 183.19002487577583 111.0 C 182.91502487577583 111.0 183.5045136816767 110.1 184.5 109.0 M 197.5 96.0 C 198.4954863183233 94.9 199.53497512422416 94.0 199.80997512422417 94.0 C 200.08497512422417 94.0 199.4954863183233 94.9 198.5 96.0 C 197.5045136816767 97.1 196.46502487577584 98.0 196.19002487577583 98.0 C 195.91502487577583 98.0 196.5045136816767 97.1 197.5 96.0 M 208.0 88.57036751697599 C 208.0 88.29536751697599 208.9 87.5887021343368 210.0 87.0 C 211.1 86.4112978656632 212.0 86.154632483024 212.0 86.42963248302401 C 212.0 86.70463248302401 211.1 87.4112978656632 210.0 88.0 C 208.9 88.5887021343368 208.0 88.845367516976 208.0 88.57036751697599 M 216.0 84.0 C 216.825 83.46684405196876 217.95 83.03062554903413 218.5 83.03062554903413 C 219.05 83.03062554903413 218.825 83.46684405196876 218.0 84.0 C 217.175 84.53315594803124 216.05 84.96937445096587 215.5 84.96937445096587 C 214.95 84.96937445096587 215.175 84.53315594803124 216.0 84.0 M 234.8125 78.31688596491227 C 235.534375 78.0280153508772 236.396875 78.06354166666667 236.72916666666669 78.39583333333334 C 237.06145833333335 78.728125 236.47083333333333 78.96447368421053 235.41666666666669 78.92105263157895 C 234.2517236807213 78.87306870996106 234.01476730310264 78.63611233234239 234.8125 78.31688596491227 M 239.75 77.33771929824562 C 240.4375 77.06030701754385 241.5625 77.06030701754385 242.25 77.33771929824562 C 242.9375 77.61513157894737 242.375 77.84210526315789 241.0 77.84210526315789 C 239.625 77.84210526315789 239.0625 77.61513157894737 239.75 77.33771929824562 M 274.75 77.33771929824562 C 275.4375 77.06030701754385 276.5625 77.06030701754385 277.25 77.33771929824562 C 277.9375 77.61513157894737 277.375 77.84210526315789 276.0 77.84210526315789 C 274.625 77.84210526315789 274.0625 77.61513157894737 274.75 77.33771929824562 M 252.75 76.26275808017542 C 255.6375 76.06075559716966 260.3625 76.06075559716966 263.25 76.26275808017542 C 266.1375 76.46476056318117 263.775 76.63003532200408 258.0 76.63003532200408 C 252.225 76.63003532200408 249.8625 76.46476056318117 252.75 76.26275808017542"/><path fill="rgb(16,16,17)" d="M 297.0 427.616631363961 C 297.0 427.40577861413954 297.9006209598292 426.99774505629586 299.00137991073154 426.70989012430846 C 300.1021388616339 426.422035192321 300.75058121416515 426.59455107853853 300.4423629163566 427.09325876034745 C 299.9041120499947 427.964166956595 297.0 428.40570456367567 297.0 427.616631363961 M 302.0 426.03138479633867 C 302.0 425.498646434325 302.675 425.3217913962079 303.5 425.63837360052304 C 304.325 425.95495580483816 305.0 426.3908326464857 305.0 426.6069888041843 C 305.0 426.823144961883 304.325 427.0 303.5 427.0 C 302.675 427.0 302.0 426.5641231583524 302.0 426.03138479633867 M 307.5 425.0 C 308.6 424.5273137888714 310.175 424.14057052522077 311.0 424.14057052522077 C 311.9454791310802 424.14057052522077 311.76063884144025 424.4582849113074 310.5 425.0 C 309.4 425.4726862111286 307.825 425.85942947477923 307.0 425.85942947477923 C 306.0545208689198 425.85942947477923 306.23936115855975 425.5417150886926 307.5 425.0 M 316.0 422.5 C 320.56569872415406 420.74175705388086 322.3620595357887 420.7677072519558 318.5 422.5361149579568 C 316.85 423.2916374163401 314.825 423.8958538536619 314.0 423.8788181520053 C 313.175 423.8617824503487 314.075 423.2413142819463 316.0 422.5 M 308.0 422.6894223288382 C 308.0 422.456414929307 309.9125 421.0044543842757 312.25 419.4628433398796 C 314.5875 417.92123229548355 315.9720978786788 417.29893348039406 315.32688417484184 418.0799570841252 C 314.0861935990746 419.58179844124214 308.0 423.4107245165113 308.0 422.6894223288382 M 326.0 419.0 C 326.825 418.4668440519688 327.95 418.03062554903414 328.5 418.03062554903414 C 329.05 418.03062554903414 328.825 418.4668440519688 328.0 419.0 C 327.175 419.5331559480312 326.05 419.96937445096586 325.5 419.96937445096586 C 324.95 419.96937445096586 325.175 419.5331559480312 326.0 419.0 M 331.0 417.0 C 331.825 416.4668440519688 332.95 416.03062554903414 333.5 416.03062554903414 C 334.05 416.03062554903414 333.825 416.4668440519688 333.0 417.0 C 332.175 417.5331559480312 331.05 417.96937445096586 330.5 417.96937445096586 C 329.95 417.96937445096586 330.175 417.5331559480312 331.0 417.0 M 317.0 416.68709120476603 C 317.0 416.5149913673873 318.4625 415.0524913673873 320.25 413.43709120476603 L 323.5 410.5 L 320.56290879523397 413.75 C 317.82512815891187 416.7794554876636 317.0 417.45965158518555 317.0 416.68709120476603 M 339.08333333333337 413.6203005571074 C 340.1034306737978 412.6907076166178 350.0 408.0183251311016 350.0 408.46630825408727 C 350.0 409.03014376097855 340.4500312360111 414.0 339.36657706352185 414.0 C 338.98162634525147 414.0 338.8541666666667 413.8291352506983 339.08333333333337 413.6203005571074 M 325.0 408.68709120476603 C 325.0 408.5149913673873 326.4625 407.0524913673873 328.25 405.43709120476603 L 331.5 402.5 L 328.56290879523397 405.75 C 325.82512815891187 408.7794554876636 325.0 409.45965158518555 325.0 408.68709120476603 M 351.0 407.570367516976 C 351.0 407.295367516976 351.9 406.5887021343368 353.0 406.0 C 354.1 405.4112978656632 355.0 405.15463248302405 355.0 405.429632483024 C 355.0 405.704632483024 354.1 406.4112978656632 353.0 407.0 C 351.9 407.5887021343368 351.0 407.84536751697595 351.0 407.570367516976 M 356.0 404.6894223288382 C 356.0 404.456414929307 357.9125 403.0044543842757 360.25 401.4628433398796 C 362.5875 399.92123229548355 363.9720978786788 399.29893348039406 363.32688417484184 400.0799570841252 C 362.0861935990746 401.58179844124214 356.0 405.4107245165113 356.0 404.6894223288382 M 331.0 401.62244471544216 C 331.0 401.4147893089354 331.7875 400.62728930893536 332.75 399.87244471544216 C 334.3360556243658 398.62857405255176 334.37142594744824 398.6639443756342 333.12755528455784 400.25 C 331.8211855316597 401.91574802019267 331.0 402.4454789049805 331.0 401.62244471544216 M 365.0 398.686783074407 C 365.0 398.43961013362883 366.6520168341422 396.97732305975927 368.671148520316 395.4372562435857 C 370.69028020648983 393.8971894274122 372.02667184705405 393.1478270505488 371.6409077215699 393.7720065172226 C 370.8496881120402 395.052226738007 365.0 399.3814406354558 365.0 398.686783074407 M 380.6816010268707 385.6877651303578 C 384.67199971926476 381.9410359520545 390.70931807950495 375.8660359520545 394.0978640496267 372.1877651303578 C 398.09795743307404 367.845658838712 398.8372955637491 367.25369409136715 396.2058090279286 370.5 C 392.16224928170107 375.4882952914275 382.2173144257882 385.3211087385534 376.4631653385316 390.02006073076456 C 374.792906274724 391.38402732884407 376.69120233447654 389.434494308661 380.6816010268707 385.6877651303578 M 340.56429294494603 386.70687193058734 C 340.9398242822051 385.7206514924104 341.4989848257437 385.1656514924104 341.80687193058736 385.47353859725405 C 342.114759035431 385.7814257020977 341.80750612312806 386.58833333333337 341.12408768102534 387.26666666666665 C 340.13647186057136 388.246933938179 340.0216083070948 388.13207038470244 340.56429294494603 386.70687193058734 M 255.75 383.3377192982456 C 256.4375 383.06030701754383 257.5625 383.06030701754383 258.25 383.3377192982456 C 258.9375 383.6151315789474 258.375 383.8421052631579 257.0 383.8421052631579 C 255.625 383.8421052631579 255.0625 383.6151315789474 255.75 383.3377192982456 M 248.8125 382.31688596491233 C 249.534375 382.02801535087724 250.396875 382.0635416666667 250.72916666666669 382.39583333333337 C 251.06145833333335 382.728125 250.47083333333333 382.96447368421053 249.41666666666669 382.92105263157896 C 248.2517236807213 382.8730687099611 248.01476730310262 382.6361123323424 248.8125 382.31688596491233 M 239.4411296351049 378.444833779016 C 237.57710525755647 376.9514416352721 237.58937415944027 376.9329782748813 239.75 377.98001753750395 C 240.9875 378.57971002621355 242.0 379.27953482565636 242.0 379.53518375848796 C 242.0 380.3004037504144 241.48139212752693 380.07942183164954 239.4411296351049 378.444833779016 M 233.437091204766 373.75 L 230.5 370.5 L 233.75 373.43709120476603 C 236.77945548766365 376.1748718410882 237.45965158518558 377.0 236.687091204766 377.0 C 236.5149913673873 377.0 235.05249136738732 375.5375 233.437091204766 373.75 M 280.0 371.62244471544216 C 280.0 371.4147893089354 280.7875 370.62728930893536 281.75 369.87244471544216 C 283.3360556243658 368.62857405255176 283.37142594744824 368.6639443756342 282.12755528455784 370.25 C 280.8211855316597 371.91574802019267 280.0 372.4454789049805 280.0 371.62244471544216 M 347.07894736842104 369.41666666666663 C 347.1269312900389 368.2517236807213 347.3638876676576 368.01476730310264 347.68311403508767 368.8125 C 347.97198464912276 369.534375 347.9364583333333 370.396875 347.60416666666663 370.72916666666663 C 347.271875 371.0614583333333 347.03552631578947 370.4708333333333 347.07894736842104 369.41666666666663 M 228.38759459485493 367.4687917183326 C 227.47541334418548 366.0766271634156 226.91098895920635 364.75567770746034 227.13331818379015 364.5333484828765 C 227.35564740837395 364.3110192582927 228.2956740404899 365.450062985043 229.2222662551589 367.0645567645439 C 231.28593622092765 370.66029420970096 230.67318927200736 370.95705010349843 228.38759459485493 367.4687917183326 M 348.07894736842104 365.41666666666663 C 348.1269312900389 364.2517236807213 348.3638876676576 364.01476730310264 348.68311403508767 364.8125 C 348.97198464912276 365.534375 348.9364583333333 366.396875 348.60416666666663 366.72916666666663 C 348.271875 367.0614583333333 348.03552631578947 366.4708333333333 348.07894736842104 365.41666666666663 M 402.0 362.0 C 403.174903631702 360.35 404.3611884212764 359.0 404.63618842127636 359.0 C 404.91118842127634 359.0 404.174903631702 360.35 403.0 362.0 C 401.825096368298 363.65 400.6388115787236 365.0 400.36381157872364 365.0 C 400.08881157872366 365.0 400.825096368298 363.65 402.0 362.0 M 286.07894736842104 360.41666666666663 C 286.1269312900389 359.2517236807213 286.3638876676576 359.01476730310264 286.68311403508767 359.8125 C 286.97198464912276 360.534375 286.9364583333333 361.396875 286.60416666666663 361.72916666666663 C 286.271875 362.0614583333333 286.03552631578947 361.4708333333333 286.07894736842104 360.41666666666663 M 349.23200270095043 359.0 C 349.23200270095043 357.075 349.43779796668133 356.2875 349.68932551368573 357.25 C 349.94085306069013 358.2125 349.94085306069013 359.7875 349.68932551368573 360.75 C 349.43779796668133 361.7125 349.23200270095043 360.925 349.23200270095043 359.0 M 225.07894736842104 359.41666666666663 C 225.12693129003895 358.2517236807213 225.36388766765762 358.01476730310264 225.68311403508773 358.8125 C 225.97198464912282 359.534375 225.93645833333335 360.396875 225.60416666666669 360.72916666666663 C 225.271875 361.0614583333333 225.03552631578947 360.4708333333333 225.07894736842104 359.41666666666663 M 287.1578947368421 356.0 C 287.1578947368421 354.625 287.3848684210526 354.0625 287.6622807017544 354.75 C 287.93969298245617 355.4375 287.93969298245617 356.5625 287.6622807017544 357.25 C 287.3848684210526 357.9375 287.1578947368421 357.375 287.1578947368421 356.0 M 410.5548165186896 349.25 C 417.6116969943134 337.85606081846174 418.36056814366185 336.7952660098228 416.37892777169577 341.0 C 414.46004584125797 345.07157029609976 406.25351906694067 358.0 405.5879068698065 358.0 C 405.3390666143863 358.0 407.5741759563837 354.0625 410.5548165186896 349.25 M 224.1578947368421 354.0 C 224.1578947368421 352.625 224.38486842105263 352.0625 224.66228070175438 352.75 C 224.93969298245614 353.4375 224.93969298245614 354.5625 224.66228070175438 355.25 C 224.38486842105263 355.9375 224.1578947368421 355.375 224.1578947368421 354.0 M 287.07894736842104 347.41666666666663 C 287.1269312900389 346.2517236807213 287.3638876676576 346.01476730310264 287.68311403508767 346.8125 C 287.97198464912276 347.534375 287.9364583333333 348.396875 287.60416666666663 348.72916666666663 C 287.271875 349.0614583333333 287.03552631578947 348.4708333333333 287.07894736842104 347.41666666666663 M 224.07894736842104 345.41666666666663 C 224.12693129003895 344.2517236807213 224.36388766765762 344.01476730310264 224.68311403508773 344.8125 C 224.97198464912282 345.534375 224.93645833333335 346.396875 224.60416666666669 346.72916666666663 C 224.271875 347.0614583333333 224.03552631578947 346.4708333333333 224.07894736842104 345.41666666666663 M 349.23200270095043 341.0 C 349.23200270095043 339.075 349.43779796668133 338.2875 349.68932551368573 339.25 C 349.94085306069013 340.2125 349.94085306069013 341.7875 349.68932551368573 342.75 C 349.43779796668133 343.7125 349.23200270095043 342.925 349.23200270095043 341.0 M 225.07894736842104 341.41666666666663 C 225.12693129003895 340.2517236807213 225.36388766765762 340.01476730310264 225.68311403508773 340.8125 C 225.97198464912282 341.534375 225.93645833333335 342.396875 225.60416666666669 342.72916666666663 C 225.271875 343.0614583333333 225.03552631578947 342.4708333333333 225.07894736842104 341.41666666666663 M 418.0 336.05901699437493 C 418.0 335.54147634128117 418.44484552125385 334.8431043368719 418.9885456027863 334.5070792067987 C 419.55540568603885 334.1567404084831 419.72305311659034 334.5581370729172 419.381556798602 335.4480622124238 C 418.7167659278301 337.180479451647 418.0 337.497449098925 418.0 336.05901699437493 M 277.94616678367305 329.25 L 274.5 325.5 L 278.25 328.94616678367305 C 280.3125 330.84155851469325 282.0 332.52905851469325 282.0 332.69616678367305 C 282.0 333.45978746161575 281.1537840084678 332.74041858622985 277.94616678367305 329.25 M 420.08383106316626 332.5 C 420.08383106316626 331.95 420.94610708474147 329.925 422.0 328.0 C 423.05389291525853 326.075 423.91616893683374 324.95 423.91616893683374 325.5 C 423.91616893683374 326.05 423.05389291525853 328.075 422.0 330.0 C 420.94610708474147 331.925 420.08383106316626 333.05 420.08383106316626 332.5 M 232.0 329.5 C 233.29174542938043 328.125 234.57362805341896 327.0 234.84862805341896 327.0 C 235.12362805341897 327.0 234.29174542938043 328.125 233.0 329.5 C 231.70825457061957 330.875 230.42637194658104 332.0 230.15137194658104 332.0 C 229.87637194658103 332.0 230.70825457061957 330.875 232.0 329.5 M 347.07894736842104 330.41666666666663 C 347.1269312900389 329.2517236807213 347.3638876676576 329.01476730310264 347.68311403508767 329.8125 C 347.97198464912276 330.534375 347.9364583333333 331.396875 347.60416666666663 331.72916666666663 C 347.271875 332.0614583333333 347.03552631578947 331.4708333333333 347.07894736842104 330.41666666666663 M 240.4411296351049 323.555166220984 C 241.50875093441257 322.6998247994428 242.82125093441257 322.0 243.35779630177154 322.0 C 244.62833929114055 322.0 244.06103211012453 322.4619000125774 241.0 323.9197115388048 C 238.642731666482 325.04235671970537 238.61082426707046 325.021543855417 240.4411296351049 323.555166220984 M 424.03062554903414 323.5 C 424.03062554903414 322.95 424.4668440519688 321.825 425.0 321.0 C 425.5331559480312 320.175 425.96937445096586 319.95 425.96937445096586 320.5 C 425.96937445096586 321.05 425.5331559480312 322.175 425.0 323.0 C 424.4668440519688 323.825 424.03062554903414 324.05 424.03062554903414 323.5 M 426.15729680595155 318.5 C 426.1544692807319 317.95 426.7586857180537 315.925 427.5 314.0 C 428.2413142819463 312.075 428.8617824503487 311.175 428.8788181520053 312.0 C 428.8958538536619 312.825 428.2916374163401 314.85 427.5361149579568 316.5 C 426.7805924995735 318.15 426.1601243311711 319.05 426.15729680595155 318.5 M 341.623538597254 314.46134060117686 C 340.65856008023604 311.9466468954386 340.9432281959531 311.29778606066776 342.1220725038922 313.32500284867524 C 342.70576282654207 314.32875441544655 342.97267128665106 315.36066204668225 342.71520241524547 315.61813091808784 C 342.4577335438399 315.87559978949344 341.96648482574375 315.3550441468835 341.623538597254 314.46134060117686 M 337.0 305.0 C 336.4112978656632 303.9 336.15463248302405 303.0 336.429632483024 303.0 C 336.704632483024 303.0 337.4112978656632 303.9 338.0 305.0 C 338.5887021343368 306.1 338.84536751697595 307.0 338.570367516976 307.0 C 338.295367516976 307.0 337.5887021343368 306.1 337.0 305.0 M 430.07894736842104 305.41666666666663 C 430.1269312900389 304.2517236807213 430.3638876676576 304.01476730310264 430.68311403508767 304.8125 C 430.97198464912276 305.534375 430.9364583333333 306.396875 430.60416666666663 306.72916666666663 C 430.271875 307.0614583333333 430.03552631578947 306.4708333333333 430.07894736842104 305.41666666666663 M 431.07894736842104 301.41666666666663 C 431.1269312900389 300.2517236807213 431.3638876676576 300.01476730310264 431.68311403508767 300.8125 C 431.97198464912276 301.534375 431.9364583333333 302.396875 431.60416666666663 302.72916666666663 C 431.271875 303.0614583333333 431.03552631578947 302.4708333333333 431.07894736842104 301.41666666666663 M 331.87244471544216 297.25 C 330.62857405255176 295.6639443756342 330.6639443756342 295.62857405255176 332.25 296.87244471544216 C 333.91574802019267 298.1788144683403 334.4454789049805 299.0 333.62244471544216 299.0 C 333.4147893089354 299.0 332.62728930893536 298.2125 331.87244471544216 297.25 M 432.1578947368421 297.0 C 432.1578947368421 295.625 432.3848684210526 295.0625 432.6622807017544 295.75 C 432.93969298245617 296.4375 432.93969298245617 297.5625 432.6622807017544 298.25 C 432.3848684210526 298.9375 432.1578947368421 298.375 432.1578947368421 297.0 M 324.46240815616807 288.75 L 319.5 283.5 L 324.75 288.46240815616807 C 329.62839378824987 293.0735664654654 330.4585996715244 294.0 329.71240815616807 294.0 C 329.5542326420605 294.0 327.1917326420605 291.6375 324.46240815616807 288.75 M 433.07894736842104 292.41666666666663 C 433.1269312900389 291.2517236807213 433.3638876676576 291.01476730310264 433.68311403508767 291.8125 C 433.97198464912276 292.534375 433.9364583333333 293.396875 433.60416666666663 293.72916666666663 C 433.271875 294.0614583333333 433.03552631578947 293.4708333333333 433.07894736842104 292.41666666666663 M 434.1949487188963 286.5 C 434.21532840902603 284.85 434.43944730983105 284.2960643502166 434.6929907206851 285.26903188937035 C 434.9465341315392 286.241999428524 434.92985983961483 287.591999428524 434.65593673863094 288.26903188937035 C 434.38201363764705 288.94606435021666 434.1745690287665 288.15 434.1949487188963 286.5 M 315.87244471544216 281.25 C 314.62857405255176 279.6639443756342 314.6639443756342 279.62857405255176 316.25 280.87244471544216 C 317.2125 281.62728930893536 318.0 282.4147893089354 318.0 282.62244471544216 C 318.0 283.4454789049805 317.1788144683403 282.91574802019267 315.87244471544216 281.25 M 435.1578947368421 280.0 C 435.1578947368421 278.625 435.3848684210526 278.0625 435.6622807017544 278.75 C 435.93969298245617 279.4375 435.93969298245617 280.5625 435.6622807017544 281.25 C 435.3848684210526 281.9375 435.1578947368421 281.375 435.1578947368421 280.0 M 302.44112963510486 272.444833779016 C 300.57710525755647 270.9514416352721 300.58937415944024 270.9329782748813 302.75 271.98001753750395 C 303.9875 272.57971002621355 305.0 273.27953482565636 305.0 273.53518375848796 C 305.0 274.30040375041443 304.48139212752693 274.0794218316496 302.44112963510486 272.444833779016 M 436.2996641823594 269.0 C 436.2996641823594 265.975 436.48712979689225 264.7375 436.7162544368769 266.25 C 436.94537907686157 267.7625 436.94537907686157 270.2375 436.7162544368769 271.75 C 436.48712979689225 273.2625 436.2996641823594 272.025 436.2996641823594 269.0 M 296.0 269.5 C 294.625 268.71397895730234 293.95 268.0708708314588 294.5 268.0708708314588 C 295.05 268.0708708314588 296.625 268.71397895730234 298.0 269.5 C 299.375 270.28602104269766 300.05 270.9291291685412 299.5 270.9291291685412 C 298.95 270.9291291685412 297.375 270.28602104269766 296.0 269.5 M 290.0 267.0 C 289.175 266.4668440519688 288.95 266.03062554903414 289.5 266.03062554903414 C 290.05 266.03062554903414 291.175 266.4668440519688 292.0 267.0 C 292.825 267.5331559480312 293.05 267.96937445096586 292.5 267.96937445096586 C 291.95 267.96937445096586 290.825 267.5331559480312 290.0 267.0 M 273.75 262.3377192982456 C 274.4375 262.06030701754383 275.5625 262.06030701754383 276.25 262.3377192982456 C 276.9375 262.6151315789474 276.375 262.8421052631579 275.0 262.8421052631579 C 273.625 262.8421052631579 273.0625 262.6151315789474 273.75 262.3377192982456 M 256.0 260.99311407266066 C 245.65766214364842 260.31577993381734 238.41772533360208 259.27005129706265 236.54522753660865 258.18308779476774 C 236.02010268174342 257.87825883726356 234.22010268174344 257.4796171963992 232.54522753660865 257.29721748173586 C 230.8703523914739 257.1148177670725 229.34906541151878 256.52052200314864 229.16458980337504 255.97656022857177 C 228.9801141952313 255.4325984539949 228.4384968077933 255.22899406882541 227.9609956090684 255.52410603930622 C 226.44189936053345 256.46295915308326 211.7724142127924 250.21957654973852 203.49128148527012 245.10971276437473 C 176.99422659592116 228.75973436735035 162.66531726810524 203.09805872646012 162.66844279604064 172.0 C 162.66984001048704 158.098138360743 164.46833370056893 149.44444193535628 170.3884823812865 134.85398201222267 C 182.88187199512157 104.06348834464498 206.1137983811946 84.41849712296768 236.95057973076052 78.56885970266134 C 247.4188108602201 76.58307020520576 267.9090041905621 76.53376121740995 280.75658246845376 78.46344197333333 C 294.0278010531892 80.45675266245252 306.23450987664967 83.42339118035831 305.28330509753766 84.42425590948524 C 304.85248729389195 84.87756560032959 305.625 84.97170681168502 307.0 84.6334586013862 C 308.375 84.29521039108737 308.905933457604 84.28733011872461 308.179852128009 84.61594688502451 C 307.22620714929434 85.0475565633482 307.5038297558616 85.64618327021718 309.179852128009 86.77220755223343 C 323.7862377518984 96.58540883063854 335.80210695167364 109.55972234606187 342.2683450443199 122.5 C 348.3614998294501 134.69366091664264 353.0007878254739 154.953993961484 352.99863291514396 169.36046783822144 C 352.9947434783684 195.36297407934907 344.2114083358159 216.00648294581546 325.07053148110026 235.0 C 314.1917924282088 245.79498694325542 308.18068910634224 249.67013552933363 293.93418432270266 255.07251667553055 C 284.7896690386592 258.5401852519212 270.44786911058156 262.23205287388197 267.64303574913305 261.84038686265376 C 267.01436608710986 261.75259963711335 261.775 261.3713268816164 256.0 260.99311407266066 M 436.30986916377356 242.5 C 436.3154819035514 239.2 436.50216985038935 237.9705590965446 436.724731267858 239.76790910343246 C 436.9472926853266 241.5652591103203 436.94270044369017 244.2652591103203 436.71452628644374 245.76790910343246 C 436.48635212919737 247.27055909654462 436.30425642399575 245.8 436.30986916377356 242.5 M 435.1578947368421 231.0 C 435.1578947368421 229.625 435.3848684210526 229.0625 435.6622807017544 229.75 C 435.93969298245617 230.4375 435.93969298245617 231.5625 435.6622807017544 232.25 C 435.3848684210526 232.9375 435.1578947368421 232.375 435.1578947368421 231.0 M 434.1949487188963 224.5 C 434.21532840902603 222.85 434.43944730983105 222.29606435021665 434.6929907206851 223.26903188937032 C 434.9465341315392 224.241999428524 434.92985983961483 225.591999428524 434.65593673863094 226.26903188937032 C 434.38201363764705 226.94606435021666 434.1745690287665 226.15 434.1949487188963 224.5 M 433.07894736842104 218.41666666666669 C 433.1269312900389 217.2517236807213 433.3638876676576 217.01476730310262 433.68311403508767 217.8125 C 433.97198464912276 218.534375 433.9364583333333 219.396875 433.60416666666663 219.72916666666669 C 433.271875 220.06145833333335 433.03552631578947 219.47083333333333 433.07894736842104 218.41666666666669 M 432.07894736842104 213.41666666666669 C 432.1269312900389 212.2517236807213 432.3638876676576 212.01476730310262 432.68311403508767 212.8125 C 432.97198464912276 213.534375 432.9364583333333 214.396875 432.60416666666663 214.72916666666669 C 432.271875 215.06145833333335 432.03552631578947 214.47083333333333 432.07894736842104 213.41666666666669 M 431.07894736842104 209.41666666666669 C 431.1269312900389 208.2517236807213 431.3638876676576 208.01476730310262 431.68311403508767 208.8125 C 431.97198464912276 209.534375 431.9364583333333 210.396875 431.60416666666663 210.72916666666669 C 431.271875 211.06145833333335 431.03552631578947 210.47083333333333 431.07894736842104 209.41666666666669 M 429.0909090909091 202.9090909090909 C 428.4146678512073 200.6519988154593 428.0454704732695 198.6211961933971 428.2704704732695 198.39619619339715 C 428.4954704732695 198.17119619339715 429.2328496693891 199.83381699727752 429.9090909090909 202.0909090909091 C 430.5853321487927 204.34800118454066 430.9545295267305 206.37880380660286 430.7295295267305 206.60380380660285 C 430.5045295267305 206.82880380660288 429.7671503306109 205.1661830027225 429.0909090909091 202.9090909090909 M 272.3277121642119 195.15943194168213 C 284.4995805562156 189.16724083813517 291.3982737393257 178.22031410959963 291.3291337018897 165.00775483561313 C 291.2802795246194 155.67179354743794 288.2470916999843 148.31664080719028 281.4485816281884 141.04848364580897 C 269.2472013596234 128.00422123519525 251.581211453777 125.75745807082649 237.49566517343033 135.45854534156217 C 227.32271688182578 142.4649231712411 222.4774654982987 152.03746631799808 222.54292253641324 165.0 C 222.58922051821943 174.1684433921533 224.3823305522169 179.7015022455408 229.46812305228985 186.36931995212365 C 238.7577688665943 198.54867348406853 257.5954359005839 202.4121076952174 272.3277121642119 195.15943194168213 M 426.1111111111111 193.88888888888889 C 425.4950401353791 192.12162653128757 425.16598206432565 190.500684602341 425.37987095321455 190.28679571345214 C 425.5937598421034 190.07290682456326 426.27281791315687 191.3438487535098 426.8888888888889 193.11111111111111 C 427.5049598646209 194.87837346871243 427.83401793567435 196.499315397659 427.62012904678545 196.71320428654786 C 427.4062401578966 196.92709317543674 426.72718208684313 195.6561512464902 426.1111111111111 193.88888888888889 M 423.1624405623127 186.4571730832281 C 421.4869522110834 182.7798767172347 421.80660596727853 181.99537985903964 423.6182964462946 185.33840785102728 C 424.4643180980359 186.89953216909228 424.9693994172818 188.36393391605154 424.7406993779521 188.59263395538122 C 424.51199933862245 188.8213339947109 423.80178287158475 187.86037660224198 423.1624405623127 186.4571730832281 M 417.70547747467316 174.47205451467403 C 416.2294167185515 171.46242453160332 415.2342606073244 169.0 415.49401944972414 169.0 C 416.16712799653504 169.0 421.21109164916976 179.12224168416353 420.7618449695165 179.5714883638168 C 420.5569036034744 179.776429729859 419.18153823079484 177.4816844977447 417.70547747467316 174.47205451467403 M 409.592286957787 160.25 C 407.5623067817336 157.0875 406.94749218359 155.73059275483448 408.22603229524566 157.23465056629885 C 410.7500692113465 160.20389447619067 414.36849597987606 166.0 413.69811607566214 166.0 C 413.4698902368842 166.0 411.62226713384035 163.4125 409.592286957787 160.25 M 400.9253300287146 148.25 C 398.5521016806094 145.0875 397.2821582692619 143.0421780704582 398.1032335590535 143.70484015657377 C 399.78648464927284 145.06333516034394 406.3654409736894 154.0 405.6822810200518 154.0 C 405.43918632292156 154.0 403.2985583768198 151.4125 400.9253300287146 148.25 M 392.44724277096805 137.75 C 383.9437332904454 128.64485046444472 381.6284434376459 126.0 382.1613471651059 126.0 C 382.46587156795454 126.0 385.96564190009826 129.6 389.93861456986974 134.0 C 393.91158723964116 138.4 396.99439955056636 142.0 396.7893085941479 142.0 C 396.58421763772947 142.0 394.63028801729854 140.0875 392.44724277096805 137.75 M 376.94616678367305 122.25 L 373.5 118.5 L 377.25 121.94616678367305 C 379.3125 123.84155851469322 381.0 125.52905851469322 381.0 125.69616678367305 C 381.0 126.45978746161576 380.1537840084678 125.74041858622986 376.94616678367305 122.25 M 369.0 115.87793749962573 C 365.51494467408145 112.82277778985781 365.5137480719667 112.81882155744084 368.71975920125385 114.95139916336336 C 370.4906267619434 116.12934657236723 372.20468440941215 117.52216933702114 372.5287761956288 118.04656086259428 C 373.4934312621362 119.60740554762305 372.69340550898625 119.11574655791247 369.0 115.87793749962573 M 359.71824682342003 109.57981444999368 C 353.81556332302245 105.49390543228797 352.4110833506693 104.06195011788449 356.7653494337012 106.56915057914361 C 360.12388746939735 108.50300761766216 365.89097277869524 112.94303756673517 365.0 112.9089380408569 C 364.725 112.89841317428325 362.34821107053904 111.4003075583948 359.71824682342003 109.57981444999368 M 350.44112963510486 103.44483377901597 C 348.57710525755647 101.95144163527206 348.58937415944024 101.93297827488125 350.75 102.98001753750395 C 351.9875 103.57971002621358 353.0 104.2795348256564 353.0 104.53518375848799 C 353.0 105.30040375041442 352.48139212752693 105.07942183164957 350.44112963510486 103.44483377901597 M 338.0 97.0 C 333.875 94.85443869767771 330.8487338595303 93.07670907400042 331.2749641322896 93.04948972516155 C 332.3379988910353 92.9816036181077 346.0 99.90590829325214 346.0 100.51257173542083 C 346.0 101.18779925008822 346.3294984699822 101.3324726266537 338.0 97.0 M 327.0 92.0 C 326.175 91.46684405196876 325.95 91.03062554903413 326.5 91.03062554903413 C 327.05 91.03062554903413 328.175 91.46684405196876 329.0 92.0 C 329.825 92.53315594803124 330.05 92.96937445096587 329.5 92.96937445096587 C 328.95 92.96937445096587 327.825 92.53315594803124 327.0 92.0 M 320.0 89.0 C 319.175 88.46684405196876 318.95 88.03062554903413 319.5 88.03062554903413 C 320.05 88.03062554903413 321.175 88.46684405196876 322.0 89.0 C 322.825 89.53315594803124 323.05 89.96937445096587 322.5 89.96937445096587 C 321.95 89.96937445096587 320.825 89.53315594803124 320.0 89.0 M 311.5 86.0 C 310.1812597554128 85.43331788211208 310.0109448165596 85.12184525332431 311.0 85.08559803712744 C 311.825 85.05536316867612 313.175 85.46684405196876 314.0 86.0 C 315.82796613446754 87.18132244532248 314.2490852478056 87.18132244532248 311.5 86.0"/><path fill="rgb(246,247,247)" d="M 241.5 433.4097116821618 C 192.81876530629074 428.6630805894804 152.97539322324536 409.5443611410247 119.5 374.86838722172183 C 98.9729416154502 353.6051346458453 87.03746304609881 331.55610250422046 79.55177243308526 301.06994265112337 C 74.95427951492246 282.3462321383042 73.60565730100741 269.1555456360391 74.33035661740003 250.0 C 76.01263588237555 205.53331360486294 93.59559889585519 163.52337469599848 123.81751660556073 131.7632405708842 C 136.19826060676144 118.75234914354894 155.14835493327232 104.37212197375524 172.0 95.20009503300003 C 187.9674165259322 86.50933671414178 208.30899290607204 80.05116344296025 229.80292521226204 76.84845405760333 C 241.10876328124652 75.16382449903557 246.3805716892744 74.90799794085082 260.0 75.38307195107029 C 269.075 75.6996268419497 278.3 76.38058090278248 280.5 76.89630319736537 C 283.47715162325756 77.59420477303243 282.45430324651505 77.66342267455433 276.5 77.16699004830349 C 272.1 76.80014552173657 262.2 76.57575121311524 254.5 76.66833602914497 C 233.58870950905532 76.91977342954087 216.8136353842376 81.7582838011954 203.5 91.37849630136157 C 179.2516096284819 108.89998171301463 163.60620313475098 137.80397974622616 162.29629292422453 167.5 C 160.25306770901096 213.82047058372183 189.68005422510947 249.26703086494922 238.62162972901487 259.4384202169634 C 242.53852607997305 260.2524577183491 252.21352607997304 261.3810597705259 260.1216297290149 261.9464247773563 C 281.83063599471427 263.49844192588915 295.6401726521006 268.10115986151817 311.51615437126634 279.07621748748977 C 333.9312102132326 294.5717335385049 347.4338407426886 319.0612706497373 348.69114955511793 346.5 C 349.27226416331297 359.181885546429 347.93660274307985 367.04274099582227 343.045778496412 379.7250712481689 C 332.3190789369807 407.5403308995654 308.17457300314123 427.2791998954163 279.5957791069576 431.5973783132695 C 270.1756560253401 433.02073341818846 248.22200394583274 434.0651361621522 241.5 433.4097116821618 M 267.705114993816 381.83737239907373 C 275.6299656860907 378.87230577032585 283.97831430880603 370.5276387504532 286.5606800475564 362.99012260683463 C 289.50090125889676 354.4080830786103 288.9900775570004 345.45343391079564 285.11076906724213 337.5734395025116 C 281.4781720874267 330.1945873271644 276.8983851298087 325.7840238241034 269.0456307991034 322.101909238594 C 261.62131585339506 318.6206875935827 249.87897114885018 318.43840966293993 242.78277189533435 321.6942274940877 C 236.09524959376446 324.7625396394749 228.64470904780603 332.09502150206674 225.92361895806295 338.286236136771 C 223.14428147079286 344.6099793273513 222.926506565609 355.1541396497345 225.43384428478674 362.0 C 231.77686668563672 379.31854676882745 250.70102856488916 388.1994164527118 267.705114993816 381.83737239907373 M 243.00644368641613 195.7871532281588 C 235.59166070875793 192.94107762467698 227.92378813876834 185.07001104601713 224.99343817542484 177.29681391113849 C 223.2021277075186 172.54509156705393 222.8797664767208 169.96755848020422 223.20539574353708 163.0 C 223.54706288609384 155.68927569132916 224.07534836840063 153.61489725028068 226.98116164234972 148.17398709360157 C 230.69470907483924 141.2206573239697 235.75936917699008 136.32817552892658 242.86387524117396 132.83122260973596 C 249.38145545302262 129.62316409842248 262.41366800422657 129.56026819511573 269.25076129115905 132.70387454607862 C 275.88775551335345 135.75547795597677 284.4501381074783 144.18146564016925 287.729458491168 150.88821439723546 C 290.06072064532503 155.65602837251913 290.4753887245361 157.77833800886003 290.48669378329333 165.0 C 290.49812390573084 172.3015525645298 290.1051659442875 174.3040331144293 287.6996356500696 179.20261262227797 C 284.1933127002535 186.34282689900263 276.67051664272316 193.2312816615999 269.4141190978584 195.94624791657054 C 261.95086007226405 198.7386109701815 250.51630306235728 198.66972276793447 243.00644368641613 195.7871532281588"/><path fill="rgb(1,2,3)" d="M 308.5 422.7430182059916 C 316.5778858822663 418.4298506053544 332.23552596531397 402.6768815063544 337.5660542234222 393.5 C 346.3119319840226 378.44335270505184 349.9689960479359 365.6217249645981 349.97339360345313 350.0 C 349.9801187804023 326.1097127197604 339.40481174761146 301.4523360389038 322.70340606664024 286.41732077446727 C 309.09484844817257 274.16656323770826 293.34070294359077 265.98370612989214 276.9111449499279 262.63237291722663 L 270.7916185663854 261.38410001646696 L 277.1458092831927 260.2101486347745 C 285.22225364949367 258.7180069214478 302.22493563462376 252.28650881468963 309.72337300018893 247.88723748746867 C 312.8987723877433 246.0242568693609 319.80499370415333 240.225 325.07053148110015 235.0 C 344.2114083358158 216.00648294581592 352.9947434783684 195.36297407934924 352.99863291514396 169.36046783822115 C 353.0007878254739 154.95399396148474 348.36149982945045 134.6936609166444 342.2683450443202 122.5 C 335.5926684463567 109.14059264941143 321.69876125755974 94.39072943683847 308.0 86.12049961492934 C 303.34078428070643 83.30763324957496 304.24032187470686 83.4390512728169 314.67032174726535 87.09500085229834 C 336.50762417040903 94.74946658445542 361.88555350817677 109.28620496088152 378.0 123.37089050312127 C 392.38836117022373 135.9469068530223 408.24007335520724 156.18736115006345 416.8680188792283 173.0 C 430.75720368183335 200.0648264243321 436.20372682720745 223.03704812848244 436.3095384532791 255.0 C 436.3712145832325 273.6307615382852 435.66886455768963 280.35376198909324 431.8173401678082 298.0 C 425.2785961195906 327.95806908827666 409.1707015619136 356.9373226664042 386.51619385251723 379.5 C 371.92316452961586 394.03387626674225 359.7464898908364 402.8872647895442 342.5 411.5031927460912 C 331.225352856019 417.1357329408147 307.3297609074479 426.0521458801311 303.72061423056573 425.9733518364167 C 303.04927640375456 425.95869534644595 305.2 424.5050452127546 308.5 422.7430182059916 M 247.07910045597177 381.4180349236093 C 234.58837815522648 376.87280598806376 227.4240378593931 368.36776380819686 225.0478685175753 355.2639789780162 C 223.75949270455797 348.15901421937104 224.85821910504706 341.9316602793965 228.53493633019212 335.5 C 231.74770979007135 329.8799138788028 235.55626318116543 326.5545114132631 242.5 323.3065363957894 C 257.3080868773853 316.3799639335572 275.24620167524495 322.1218599215719 283.4560637834604 336.41635651753296 C 292.3331374975542 351.87256008290484 285.79403345338187 372.1996801566654 269.45780821418646 379.93060860125803 C 263.0296738004062 382.97264839059227 253.15498968945406 383.62898052693475 247.07910045597177 381.4180349236093"/></svg>