<svg width="1920" height="1080" fill="white" xmlns="http://www.w3.org/2000/svg"><path fill="rgb(254,254,254)" d="M 0.0 540.0 L 0.0 0.0 L 960.0 0.0 L 1920.0 0.0 L 1920.0 540.0 L 1920.0 1080.0 L 960.0 1080.0 L 0.0 1080.0 L 0.0 540.0 M 476.73357555626956 938.4764274332626 C 577.6264258131654 929.3082485321947 661.6325492351073 891.5605883812416 724.0022345406996 827.3677019604207 C 738.7033576745312 812.2368331262319 745.0312784977758 804.9931139596908 754.36646681837 792.6090541405696 C 789.4874917645861 746.0175062353949 812.4516724283523 695.1854853835645 825.5688847603867 635.0 C 832.1068455110574 605.001984321254 834.9727929530516 578.9181277276934 835.6920510032776 542.8659947899771 C 836.4243416272355 506.16061635773724 834.9486885656288 486.1860190767729 829.3301038972777 456.75 L 827.6599522466809 448.00000000000006 L 632.3299761233404 448.0 L 437.0 448.0 L 437.0 525.0 L 437.0 602.0 L 551.5 602.0 C 614.475 602.0 666.0 602.1752894728006 666.0 602.3895321617791 C 666.0 604.109273184555 662.4819693359528 620.8046545697268 661.024830644412 626.0 C 652.5236168116779 656.3105961663582 634.2543899061524 687.3773063833243 611.0 711.0669229365533 C 597.1098312219027 725.2170586116116 587.1000751373371 733.3883490654497 572.5 742.4957289748793 C 538.8747048178516 763.4708496444565 503.0111725621822 774.4723190938926 456.5 778.0797993625039 C 372.35011983271863 784.6065974539437 289.5911440041142 747.184183865706 239.276502085934 679.8544709478647 C 226.75853572175782 663.1032619660787 223.42222357741696 657.8214832466674 215.08591195901943 641.557891187166 C 185.16152483882198 583.177393068617 178.33295630635098 521.7348998389774 194.64367596216832 457.62154481198866 C 197.34177894347533 447.01597755375803 202.92439594978651 430.31412809655234 206.2159767033168 423.0 C 230.88655129495302 368.1802169564734 265.73317977304896 329.052367516915 315.5 300.28945391690735 C 352.9599861847837 278.639319526627 403.7910077743577 266.1983978572305 445.5 268.4718794034478 C 496.8684976489484 271.2718830772358 537.6830532506109 285.04382580901085 575.5 312.3374202316771 C 582.8447624587349 317.6383497067086 595.2634725469521 327.96781323064226 595.8333333333334 329.25000000000006 C 596.3816784903544 330.4837766032972 597.8875040491988 330.10735860705074 599.8337413208907 328.25 C 600.8422990473805 327.2875 612.4351493006328 315.925 625.5956307725626 303.0 C 638.7561122444923 290.075 664.2901141939939 265.1041525712022 682.3378573270104 247.50922793600483 L 715.151935750677 215.51845587200967 L 709.8259678753385 210.72452518951644 C 683.8618447481471 187.35408634781314 652.1511565903704 165.581906446985 622.2624479174633 150.60445779182805 C 574.9682544864185 126.90499450780126 527.7245584393926 113.51080039615435 475.2870036113422 108.93503318283484 C 456.4012329199989 107.2870369974465 399.203988494305 108.21800078862003 383.5 110.42899286079597 C 335.45999417050984 117.1926295047484 296.39802886406335 129.02005504279845 254.32286197444188 149.54205256554053 C 223.57385610189147 164.53975950271524 201.64815573529532 178.5597129041452 172.5 201.8620557067399 C 151.31758650336127 218.79622695131332 116.3314981995759 255.57948255318735 101.40929249645475 276.60455456272217 C 81.98851296485662 303.9680218849656 68.15568330004005 328.0908428467284 54.734430795559405 358.0 C 39.95874005563756 390.9275122601953 28.415675157232993 433.21241046085674 23.59845114375625 472.0582454956427 C 19.96413486196216 501.365176282305 19.244880967585228 529.2232300840396 21.457017274818867 555.0 C 26.418118553612334 612.8088998291231 40.199840429385645 661.5825330369103 66.24357045210633 713.5 C 85.58313021501017 752.0528860188349 109.82527354562971 785.0636823109905 143.39793477994553 818.5619563271086 C 175.8296446590009 850.9218070031518 208.42760830588247 874.623362588065 248.55644823085083 895.0213443668863 C 294.09669380720857 918.1700100448992 338.3225384304107 931.2614391314295 393.5 937.9265335317791 C 413.2663513133847 940.3141859120547 453.57876699781343 940.5805153517163 476.73357555626956 938.4764274332626 M 1623.0 695.4596512356055 C 1645.5461872980086 689.7126150995416 1663.1680524070973 673.5935807536293 1670.5115379325498 652.0 C 1675.79308218676 636.4695748412818 1675.991626002152 632.7851971038709 1675.9959786834297 550.2252286992789 L 1676.0 473.95045739855766 L 1659.75 474.22522869927883 L 1643.5 474.5 L 1643.2022097496388 481.34213969014775 L 1642.9044194992778 488.1842793802955 L 1637.9255391191684 483.52711970985115 C 1624.3738354978295 470.85108759965044 1599.9472890556865 466.60426907036793 1579.6942661116775 473.4029848970287 C 1558.7739545344068 480.42570213841407 1543.0496467873063 494.3584325469468 1533.339877853352 514.4759023979466 C 1527.5894367727972 526.3901225874176 1525.6203889847545 535.5582177011495 1525.7103054135146 550.0 C 1525.7948223600295 563.5745531596936 1527.9660973219948 573.0091053308541 1533.5663098162586 584.1356505707013 C 1542.5043231366633 601.8937641540157 1556.476387114187 614.8466509953461 1574.4623621945948 622.0485845198907 C 1583.954575827254 625.84945109941 1590.1039606487113 627.0 1600.9263909573003 627.0 C 1615.2822085286712 627.0 1629.6571558719918 621.8933462145637 1637.582805892956 613.9779265536811 C 1639.7372626518302 611.8262507488441 1641.8375 610.0509862631961 1642.25 610.0328943633524 C 1642.6625 610.0148024635085 1643.0 614.6304555576637 1643.0 620.2899012392527 C 1643.0 631.2562937248255 1641.3570964954583 639.5636150931639 1637.7664808821773 646.753126303239 C 1626.7975442803154 668.7162939478051 1593.311061638078 673.7588146929916 1573.9570355818132 656.3617930331418 C 1570.2463369752097 653.0263059440688 1562.8200405708767 642.9601217126304 1561.7897806862627 639.869342058788 C 1561.4989022170603 638.996706651181 1554.0401615484388 641.8092167955681 1535.75 649.6883115861556 C 1533.6875 650.5768019891817 1532.0 651.7033323592727 1532.0 652.1917124085799 C 1532.0 653.8762690980806 1536.2836966795182 661.4694686239583 1540.3410573566198 666.9769125532194 C 1552.002043952169 682.8054855951228 1566.8844352373396 692.4454767672007 1586.0 696.5522540137805 C 1594.264078052809 698.3277039224083 1614.0392705006357 697.7437463492342 1623.0 695.4596512356055 M 1080.3735564180724 625.4414663198306 C 1104.8502568976855 621.1600529541597 1122.9832564239082 611.9091166211502 1140.0426617372132 595.0 C 1151.974946493752 583.1728354066523 1159.1644036423838 571.6873039496828 1164.5535309237976 555.8426125561159 C 1169.268801186917 541.9791429709654 1170.4886222225769 533.5801064463571 1170.485244377036 515.0 C 1170.4834945612624 505.375 1170.162721901056 496.7125 1169.7724162432442 495.75 C 1169.108429652999 494.1125984396603 1165.4576001640635 494.0 1113.0313847963384 494.0 L 1057.0 494.0 L 1057.0 510.9999999999998 C 1057.0 520.3499999999997 1057.3375 527.9467105263154 1057.75 527.8815789473682 C 1058.1625 527.816447368421 1076.110221083622 527.8164473684211 1097.6338246302712 527.8815789473684 L 1136.7676492605426 528.0 L 1135.449982772006 534.75 C 1132.9993387553045 547.3038952812734 1129.125262440206 556.524370418225 1123.1602980720802 564.0 C 1106.719555613712 584.604465187567 1080.5045077224286 595.453749109623 1051.5103643689754 593.6528343936366 C 1001.444016861929 590.543060778256 964.2969483032151 546.0002312779607 969.9116349779888 495.80828213889754 C 973.4384078213106 464.28103699940084 991.2235024067635 438.9233139674911 1019.9110418551322 424.5198723270428 C 1035.208744757533 416.8392006757078 1060.5463750163713 414.3938097078239 1078.0 418.9135779684102 C 1091.236993366569 422.3414127328175 1101.8761787222597 427.73068512035695 1112.3504525122016 436.3137772350275 L 1117.200905024403 440.2884566777245 L 1128.8504525122016 428.6071917986987 L 1140.5 416.92592691967286 L 1135.9519711260236 412.71296345983643 C 1128.6252848285503 405.92605367798393 1125.044003191567 403.3658884165891 1115.3289486828512 397.97010015114336 C 1104.5279644925447 391.97118128794665 1090.4823952205145 386.7723482520758 1080.0 384.8934279296236 C 1068.6787342515304 382.86414398800576 1043.3737595914777 383.09625326504073 1033.0339108911853 385.32422326274116 C 1003.8375102976662 391.61529254708796 978.8752816366499 406.62429841504525 960.7816054817108 428.7672703796764 C 938.5026822994689 456.0321317158781 929.0743463894664 490.24391567551925 934.5442370375436 523.972531355696 C 942.7241085586128 574.4115182748177 983.9820093289559 616.2532146792837 1034.5 625.3426594926608 C 1045.5309752169312 627.3274066914345 1069.299023116357 627.3786005727102 1080.3735564180724 625.4414663198306 M 1287.1975293463738 623.2627747832439 C 1313.1620216315127 614.3890575809013 1331.8966679877608 594.0293330881132 1338.509415505601 567.5 C 1341.0581707288939 557.2747833111151 1340.8563158853492 538.9497277333683 1338.0798212342584 528.5 C 1328.2585785708502 491.53637329334674 1295.0923290101591 467.8187538646132 1256.7059899681117 470.30850753424085 C 1244.412449044573 471.1058716327961 1236.4039826588148 473.2450187117324 1225.0 478.777516774972 C 1216.8305620984254 482.74081632745606 1214.1624550859685 484.72484465537485 1205.9501438164089 492.9431608569229 C 1198.1572316498712 500.7417712862295 1195.5378471125164 504.1806067264769 1191.7124985764563 511.63492540641664 C 1185.510291783842 523.7209420177687 1183.0117639722591 534.3194315236603 1183.0217871220602 548.5 C 1183.0484653013452 586.2437986730026 1205.3860404490686 615.0404633199933 1242.444588560546 625.1053823699483 C 1248.2995962772202 626.6955736134887 1251.967021821431 626.954704987323 1264.0 626.6284353433581 C 1276.8624018717999 626.2796761902234 1279.48227984673 625.8995658844717 1287.1975293463738 623.2627747832439 M 1454.5 624.5951972596636 C 1499.1089833109254 612.2654250206305 1522.9228064139827 564.8525929889947 1506.8422314896434 520.3828908593171 C 1498.496752874239 497.30405506502524 1479.3617382992977 479.95716492426664 1454.3616600199252 472.8065117432211 C 1447.9731533847487 470.97923765301766 1443.9703089877069 470.5552412405872 1433.0 470.5438039500573 C 1415.2423368092138 470.52529038282125 1405.5714405767908 473.0379881207889 1391.3797719877966 481.35759517132453 C 1354.380722647631 503.04761349603785 1342.6488808354181 555.1219169878494 1366.5657431171094 591.5 C 1378.541814482721 609.7158726828968 1394.2892309832155 620.5870933817146 1416.0 625.626913239329 C 1423.569686987629 627.384099213105 1446.6472497399272 626.7656708945782 1454.5 624.5951972596636 M 1846.5616629672268 624.938624010613 C 1863.426691290017 620.5592225942455 1876.2757913006874 612.2804192377852 1888.2630543782557 598.0700013914416 C 1890.318374470215 595.6335021567344 1892.0 593.2898261356775 1892.0 592.8618324557597 C 1892.0 592.4338387758418 1886.0963016529013 588.1511658458062 1878.8806703397804 583.3447815001251 C 1866.3055120472595 574.9683773659877 1865.7025132048943 574.6866617528301 1864.3430796701778 576.552950435807 C 1861.4640931100457 580.5053467085213 1855.6589754748009 586.1385496817209 1851.5555691340019 588.9617674311523 C 1837.4308493124263 598.6798300342954 1814.1485141859016 598.2990679150212 1801.296098543722 588.139817981857 C 1796.890062732461 584.6570470952566 1788.090015821207 573.4914836574487 1789.083599239914 572.6445101629326 C 1789.3126196579612 572.4492832497847 1802.325 566.9959813885074 1818.0 560.5260615823164 C 1833.675 554.0561417761254 1849.425 547.5334447840814 1853.0 546.0311793777744 C 1856.575 544.5289139714674 1861.075 542.7048936780973 1863.0 541.9778009480631 C 1864.925 541.2507082180288 1869.65 539.2407628394917 1873.5 537.511255662425 C 1877.35 535.7817484853583 1883.3220615744708 533.3257481692217 1886.7712479432687 532.0534771821215 C 1890.2204343120666 530.7812061950212 1893.2227283658642 529.448634928148 1893.4430125072638 529.0922077001808 C 1894.2274842966099 527.8229056818034 1886.3555372600226 510.38219982900324 1881.8780668553304 503.4694723868555 C 1875.9835817379433 494.36902830896906 1871.9856427540208 489.87532886735715 1865.004350666865 484.50334776140403 C 1853.2709576401267 475.4747088129885 1841.7726880696882 471.1817513880583 1826.9627975175035 470.3002742425596 C 1783.5252681861614 467.71489461213037 1749.0 502.1236633478156 1749.0 548.0000000000001 C 1749.0 586.3081046030287 1773.4595290912919 617.6939121615138 1809.4095006031594 625.5158406998919 C 1819.203311467784 627.6467600158142 1837.2100215455548 627.3669977378062 1846.5616629672268 624.938624010613 M 1733.0 506.97638607272944 L 1733.0 390.9527721454589 L 1715.75 391.22638607272944 L 1698.5 391.5 L 1698.2425732657132 506.0 C 1698.1009885618555 568.975 1698.199365403503 621.0625 1698.4611884693745 621.75 C 1698.8162916915905 622.6824368136204 1703.2640630668293 623.0 1715.9686152036613 623.0 L 1733.0 623.0 L 1733.0 506.97638607272944 M 1249.5 594.5978545942019 C 1242.253190247913 592.2999746791578 1236.6680568764355 588.8290883142427 1231.0389048675188 583.1251897328829 C 1220.536108777888 572.4829324939485 1215.7559643379407 557.6152995685709 1217.8344974541073 542.055660373244 C 1221.8058299203892 512.3267617478555 1247.9626334091427 494.89036119327653 1275.739475710167 503.4555923102274 C 1287.1165843193082 506.96382278595564 1299.807873693949 520.1289609414822 1303.5541444352898 532.3087644117272 C 1304.4323421602196 535.1639439852772 1305.3883365188929 541.1 1305.6785763434523 545.5 C 1307.1466866264457 567.7563711061365 1294.8363955840189 587.3176017759764 1275.198621672343 593.933089199351 C 1268.1288862755055 596.3147107525228 1255.911148876034 596.6307560692755 1249.5 594.5978545942019 M 1419.0614890969846 593.9720598453748 C 1408.2765834591678 590.0936093950409 1399.2597437802806 582.0330609061403 1394.1942566083062 571.7421499880344 C 1390.25238747635 563.7339520180092 1389.054752050615 558.3831273824162 1389.0244459776482 548.644344521148 C 1388.980524448894 534.530268047548 1392.645022771883 524.7377755142306 1401.5835833263059 515.0830633110864 C 1418.6021110767829 496.70102220372155 1446.804808042464 496.39823261778446 1463.8258246105404 514.414818621964 C 1473.367003928513 524.5140672230116 1477.0 534.1181385757181 1477.0 549.2416441851569 C 1477.0 565.835028043921 1470.6831312339878 578.5125331920034 1457.3464513122617 588.6849148776673 C 1448.3374615344073 595.5564063703355 1430.36779097031 598.0380139728217 1419.0614890969846 593.9720598453748 M 1590.6799872243078 594.0893184316083 C 1567.990707242608 586.6189851222183 1555.6501139368927 562.0197990303903 1561.5589319207847 536.040710811584 C 1564.5937389073893 522.6976837210569 1574.4022303722975 510.61154871332116 1587.0 504.69193667577696 C 1592.8118445305602 501.9609877967162 1594.5057656861043 501.6363945545043 1603.0 501.62597822877774 C 1615.5156135159073 501.6106305585544 1621.7808175882496 503.99251347920665 1630.3774466095088 512.0342381573129 C 1640.3942764156923 521.4044909912518 1645.3048251093974 533.2003923479016 1645.3497339739802 548.0 C 1645.4109496889907 568.1734907511952 1636.6549750068634 584.3077378999315 1621.4601894147686 592.0202067938626 C 1615.5320879968194 595.0291533504886 1613.7217440644276 595.4513938759374 1605.633216485636 595.7116541737153 C 1598.7089781902773 595.9344517475728 1595.0923599523935 595.5420703475197 1590.6799872243078 594.0893184316083 M 1783.439673406584 539.8304429148205 C 1786.2042956437817 515.3944126046601 1806.4944836234158 498.43855174066493 1829.693401216282 501.1776825771859 C 1833.099771885237 501.5798778478319 1838.0783267683732 503.01947612975454 1840.75685651214 504.37678987034735 C 1845.9796506292412 507.02337993936754 1853.3710893013165 514.3867320960508 1852.7313920838455 516.3058237484627 C 1852.51746853912 516.9475943826396 1842.252891142867 521.6694059892536 1829.9212200921722 526.798738429827 C 1817.5895490414775 531.9280708704005 1803.8858296517703 537.6569867785195 1799.4685103372676 539.5296626700915 C 1795.051191022765 541.4023385616637 1789.4805018428922 543.6248279767705 1787.0892010486618 544.4685280369957 L 1782.7413814227887 546.0025281464962 L 1783.439673406584 539.8304429148205"/><path fill="rgb(129,130,129)" d="M 404.0 939.0 L 399.5 938.3003874325522 L 404.5 938.237799528105 C 407.25 938.2033761806591 411.75 938.5256632160698 414.5 938.9539929401287 L 419.5 939.7327742565994 L 414.0 939.7161934120236 C 410.975 939.707073947507 406.475 939.3847869120963 404.0 939.0 M 461.0 939.0138273019958 C 466.8060489591621 938.152385451429 476.62285731601224 937.735596265795 475.91666666666674 938.3805150149085 C 475.6875 938.5897982731082 471.0 939.0015169428925 465.5 939.2954453922071 C 458.272230439101 939.6817085011229 457.02472674150556 939.6036374769344 461.0 939.0138273019958 M 392.76165916591856 937.2927391331524 C 394.0055717071738 937.0535459156027 395.8055717071738 937.0626272321139 396.76165916591856 937.3129198365104 C 397.71774662466333 937.5632124409069 396.7 937.7589159825384 394.5 937.7478165956916 C 392.3 937.7367172088447 391.51774662466335 937.531932350702 392.76165916591856 937.2927391331524 M 481.75 937.2942669930909 C 482.9875 937.0559140985074 485.0125 937.0559140985074 486.25 937.2942669930909 C 487.4875 937.5326198876744 486.475 937.7276358923335 484.0 937.7276358923335 C 481.525 937.7276358923335 480.5125 937.5326198876744 481.75 937.2942669930909 M 383.25 936.3106744863142 C 384.2125 936.0591469393098 385.7875 936.0591469393098 386.75 936.3106744863142 C 387.7125 936.5622020333186 386.925 936.7679972990495 385.0 936.7679972990495 C 383.075 936.7679972990495 382.2875 936.5622020333186 383.25 936.3106744863142 M 491.25 936.3106744863142 C 492.2125 936.0591469393098 493.7875 936.0591469393098 494.75 936.3106744863142 C 495.7125 936.5622020333186 494.925 936.7679972990495 493.0 936.7679972990495 C 491.075 936.7679972990495 490.2875 936.5622020333186 491.25 936.3106744863142 M 375.75 935.3377192982457 C 376.4375 935.0603070175439 377.5625 935.0603070175439 378.25 935.3377192982457 C 378.9375 935.6151315789474 378.375 935.8421052631579 377.0 935.8421052631579 C 375.625 935.8421052631579 375.0625 935.6151315789474 375.75 935.3377192982457 M 498.25 935.3106744863142 C 499.2125 935.0591469393098 500.7875 935.0591469393098 501.75 935.3106744863142 C 502.7125 935.5622020333186 501.925 935.7679972990495 500.0 935.7679972990495 C 498.075 935.7679972990495 497.2875 935.5622020333186 498.25 935.3106744863142 M 369.26903188937035 934.3070092793148 C 370.241999428524 934.0534658684608 371.591999428524 934.0701401603852 372.26903188937035 934.344063261369 C 372.94606435021666 934.6179863623529 372.15 934.8254309712336 370.5 934.8050512811037 C 368.85 934.7846715909739 368.2960643502166 934.560552690169 369.26903188937035 934.3070092793148 M 506.26903188937035 934.3070092793148 C 507.241999428524 934.0534658684608 508.591999428524 934.0701401603852 509.26903188937035 934.344063261369 C 509.94606435021666 934.6179863623529 509.15 934.8254309712336 507.5 934.8050512811037 C 505.85 934.7846715909739 505.2960643502166 934.560552690169 506.26903188937035 934.3070092793148 M 363.75 933.3377192982457 C 364.4375 933.0603070175439 365.5625 933.0603070175439 366.25 933.3377192982457 C 366.9375 933.6151315789474 366.375 933.8421052631579 365.0 933.8421052631579 C 363.625 933.8421052631579 363.0625 933.6151315789474 363.75 933.3377192982457 M 512.75 933.3377192982457 C 513.4375 933.0603070175439 514.5625 933.0603070175439 515.25 933.3377192982457 C 515.9375 933.6151315789474 515.375 933.8421052631579 514.0 933.8421052631579 C 512.625 933.8421052631579 512.0625 933.6151315789474 512.75 933.3377192982457 M 351.07875766758934 931.3950142229338 C 347.5470743847635 930.6227231680018 344.3970743847635 929.7277746057678 344.07875766758934 929.4062396401914 C 343.4219929117416 928.7428348556801 348.75919625471744 929.6620132334883 356.3586456504129 931.5210939544032 C 363.3881943684052 933.2407578165976 359.0450660927379 933.1370471983961 351.07875766758934 931.3950142229338 M 519.9837789645089 932.0399697554127 C 525.0860726042608 930.7467450011161 533.2720750523271 929.8257188527443 529.806613869262 930.934779785606 C 528.3252514973561 931.408864199571 524.7252514973561 932.0501498572046 521.806613869262 932.3598590247917 C 517.5139699269924 932.8153699005891 517.1656687653048 932.7542465350854 519.9837789645089 932.0399697554127 M 533.8125 929.3168859649122 C 534.534375 929.0280153508771 535.396875 929.0635416666667 535.7291666666667 929.3958333333333 C 536.0614583333333 929.728125 535.4708333333334 929.9644736842106 534.4166666666667 929.921052631579 C 533.2517236807213 929.8730687099611 533.0147673031026 929.6361123323425 533.8125 929.3168859649122 M 339.8125 928.3168859649122 C 340.534375 928.0280153508771 341.396875 928.0635416666667 341.72916666666663 928.3958333333333 C 342.0614583333333 928.728125 341.4708333333333 928.9644736842106 340.41666666666663 928.921052631579 C 339.2517236807212 928.8730687099611 339.0147673031026 928.6361123323425 339.8125 928.3168859649122 M 537.75 928.3377192982457 C 538.4375 928.0603070175439 539.5625 928.0603070175439 540.25 928.3377192982457 C 540.9375 928.6151315789474 540.375 928.8421052631579 539.0 928.8421052631579 C 537.625 928.8421052631579 537.0625 928.6151315789474 537.75 928.3377192982457 M 331.8125 926.3168859649122 C 332.534375 926.0280153508771 333.396875 926.0635416666667 333.72916666666663 926.3958333333333 C 334.0614583333333 926.728125 333.4708333333333 926.9644736842106 332.41666666666663 926.921052631579 C 331.2517236807212 926.8730687099611 331.0147673031026 926.6361123323425 331.8125 926.3168859649122 M 546.8125 926.3168859649122 C 547.534375 926.0280153508771 548.396875 926.0635416666667 548.7291666666667 926.3958333333333 C 549.0614583333333 926.728125 548.4708333333334 926.9644736842106 547.4166666666667 926.921052631579 C 546.2517236807213 926.8730687099611 546.0147673031026 926.6361123323425 546.8125 926.3168859649122 M 327.8125 925.3168859649122 C 328.534375 925.0280153508771 329.396875 925.0635416666667 329.72916666666663 925.3958333333333 C 330.0614583333333 925.728125 329.4708333333333 925.9644736842106 328.41666666666663 925.921052631579 C 327.2517236807212 925.8730687099611 327.0147673031026 925.6361123323425 327.8125 925.3168859649122 M 550.8125 925.3168859649122 C 551.534375 925.0280153508771 552.396875 925.0635416666667 552.7291666666667 925.3958333333333 C 553.0614583333333 925.728125 552.4708333333334 925.9644736842106 551.4166666666667 925.921052631579 C 550.2517236807213 925.8730687099611 550.0147673031026 925.6361123323425 550.8125 925.3168859649122 M 320.0 923.5 C 318.075 922.7586857180537 317.175 922.1521558510068 318.0 922.1521558510068 C 318.825 922.1521558510068 321.075 922.7586857180537 323.0 923.5 C 324.925 924.2413142819463 325.825 924.8478441489932 325.0 924.8478441489932 C 324.175 924.8478441489932 321.925 924.2413142819463 320.0 923.5 M 555.5 924.0 C 556.6 923.5273137888714 558.175 923.1405705252207 559.0 923.1405705252207 C 559.9454791310802 923.1405705252207 559.7606388414403 923.4582849113073 558.5 924.0 C 557.4 924.4726862111286 555.825 924.8594294747793 555.0 924.8594294747793 C 554.0545208689198 924.8594294747793 554.2393611585597 924.5417150886927 555.5 924.0 M 564.0 921.5 C 565.925 920.7586857180537 568.175 920.1521558510068 569.0 920.1521558510068 C 569.825 920.1521558510068 568.925 920.7586857180537 567.0 921.5 C 565.075 922.2413142819463 562.825 922.8478441489932 562.0 922.8478441489932 C 561.175 922.8478441489932 562.075 922.2413142819463 564.0 921.5 M 308.5 920.0 C 305.75 918.9852541432007 304.175 918.1550075330921 305.0 918.1550075330921 C 305.825 918.1550075330921 308.75 918.9852541432007 311.5 920.0 C 314.25 921.0147458567993 315.825 921.8449924669079 315.0 921.8449924669079 C 314.175 921.8449924669079 311.25 921.0147458567993 308.5 920.0 M 572.5 919.0 C 575.2490852478056 917.8186775546775 576.8279661344676 917.8186775546775 575.0 919.0 C 574.175 919.5331559480312 572.825 919.9446368313239 572.0 919.9144019628726 C 571.0109448165596 919.8781547466757 571.1812597554127 919.5666821178879 572.5 919.0 M 298.5 916.464811875866 C 295.99938293138626 915.2603644259138 295.9161524428219 915.1215470795614 298.0 915.6308786096627 C 300.8335011251873 916.3234395691549 304.01849552710513 917.9468020426405 302.5 917.924487391608 C 301.95 917.9164050114831 300.15 917.2595510293992 298.5 916.464811875866 M 578.5 917.0 C 581.2490852478056 915.8186775546775 582.8279661344676 915.8186775546775 581.0 917.0 C 580.175 917.5331559480312 578.825 917.9446368313239 578.0 917.9144019628726 C 577.0109448165596 917.8781547466757 577.1812597554127 917.5666821178879 578.5 917.0 M 584.5 915.0 C 587.2490852478056 913.8186775546775 588.8279661344676 913.8186775546775 587.0 915.0 C 586.175 915.5331559480312 584.825 915.9446368313239 584.0 915.9144019628726 C 583.0109448165596 915.8781547466757 583.1812597554127 915.5666821178879 584.5 915.0 M 597.8957655681173 909.9084617448257 C 600.3134366305818 908.8358165767672 602.4696058312326 908.1362724978992 602.6872526806745 908.3539193473412 C 603.119562848877 908.7862295155436 595.4136191170641 912.043953644873 594.2297635554721 911.929362843375 C 593.8283935999624 911.8905124072312 595.4780945056528 910.981106912884 597.8957655681173 909.9084617448257 M 275.21429033882055 907.7841628699848 C 271.2071500251718 906.1088205854574 268.0984771682718 904.5681894983949 268.3061284345983 904.3605382320684 C 268.68846641577295 903.9782002508937 282.96968326987366 909.6363499365403 283.8537743942708 910.5204410609374 C 284.88858208339843 911.5552487500652 282.1892872333114 910.7003340836524 275.21429033882055 907.7841628699848 M 605.0 907.0 C 605.825 906.4668440519688 606.95 906.0306255490341 607.5 906.0306255490341 C 608.05 906.0306255490341 607.825 906.4668440519688 607.0 907.0 C 606.175 907.5331559480312 605.05 907.9693744509659 604.5 907.9693744509659 C 603.95 907.9693744509659 604.175 907.5331559480312 605.0 907.0 M 612.0 904.0 C 613.925 902.9461070847415 615.95 902.0838310631663 616.5 902.0838310631663 C 617.05 902.0838310631663 615.925 902.9461070847415 614.0 904.0 C 612.075 905.0538929152585 610.05 905.9161689368337 609.5 905.9161689368337 C 608.95 905.9161689368337 610.075 905.0538929152585 612.0 904.0 M 265.0 903.0 C 264.09870808164396 902.4175404276557 263.9753674337122 902.024513627797 264.69098300562507 902.015312774517 C 265.3460236587188 902.0068907485327 266.1600813061875 902.45 266.5 903.0 C 267.26730476831557 904.2415251948645 266.92112324648235 904.2415251948645 265.0 903.0 M 259.0 900.5 C 257.625 899.7139789573024 256.95 899.0708708314588 257.5 899.0708708314588 C 258.05 899.0708708314588 259.625 899.7139789573024 261.0 900.5 C 262.375 901.2860210426976 263.05 901.9291291685412 262.5 901.9291291685412 C 261.95 901.9291291685412 260.375 901.2860210426976 259.0 900.5 M 618.0833333333333 901.6203005571074 C 619.1034306737979 900.6907076166177 629.0 896.0183251311016 629.0 896.4663082540873 C 629.0 897.0301437609786 619.4500312360112 902.0 618.3665770635218 902.0 C 617.9816263452515 902.0 617.8541666666666 901.8291352506983 618.0833333333333 901.6203005571074 M 253.0 897.5 C 251.625 896.7139789573024 250.9764916642028 896.0549248943806 251.5588703648951 896.0354354157294 C 252.14124906558743 896.0159459370782 253.49124906558743 896.6606884826583 254.5588703648951 897.4681966281296 C 257.0278469502223 899.3356366135647 256.2392543071897 899.351725125891 253.0 897.5 M 243.73677674451488 892.8199084252351 C 240.56700395399807 891.1001710390561 238.1277782738105 889.5388883928562 238.31627523298692 889.3503914336798 C 238.7212691704891 888.9453974961775 250.0 894.9543472078395 250.0 895.5751090575975 C 250.0 896.2119720930885 249.94151505461366 896.186244484166 243.73677674451488 892.8199084252351 M 630.0833333333333 895.627176479572 C 631.1123788270504 894.7064108068164 637.0 892.0007693034863 637.0 892.4486397075368 C 637.0 893.0246207496779 631.45617934216 896.0 630.3829932602175 896.0 C 629.9890136337646 896.0 629.8541666666666 895.8322294158074 630.0833333333333 895.627176479572 M 640.0 890.6529312353182 C 640.0 890.2202520783093 644.8236397785591 887.3103454708519 653.0 882.8105575022935 C 655.9908050405211 881.1645942407495 656.1486220712428 881.1473724137077 654.0847703757545 882.6921816355955 C 650.8772314888841 885.093049712906 640.0 891.2408898204227 640.0 890.6529312353182 M 225.91509907043542 882.913727763606 C 221.28679458169594 880.1162780335891 217.05 877.3520015422789 216.5 876.7708911162499 C 215.95 876.1897806902208 217.525 876.9288942579535 220.0 878.4133657112116 C 222.475 879.8978371644695 226.8625 882.4800699802774 229.75 884.1516608574514 C 234.33060393399214 886.8033996446404 235.85890200660313 888.0 234.66509907043542 888.0 C 234.4809035591749 888.0 230.5434035591749 885.7111774936227 225.91509907043542 882.913727763606 M 659.432569929118 879.109104146551 C 660.1460253881052 877.9547089644507 664.0 875.6264272718379 664.0 876.3498063080281 C 664.0 876.5809019117802 662.8195943827033 877.543411598788 661.3768764060072 878.4887167236009 C 659.9341584293112 879.4340218484136 659.059220514711 879.7131961887412 659.432569929118 879.109104146551 M 210.48213451245437 873.3599122312871 C 205.37937128885503 869.9768665980649 203.5812351920971 868.1916910822448 207.56605455816157 870.4648507584857 C 211.07385928802543 872.4658951049271 215.7535383127613 875.9446420093701 214.98213451245437 875.9777641544113 C 214.69730849430425 875.989993869485 212.67230849430427 874.8119605040793 210.48213451245437 873.3599122312871 M 665.0 875.6501936919719 C 665.0 875.4190980882198 666.1804056172967 874.456588401212 667.6231235939928 873.5112832763991 C 669.0658415706888 872.5659781515864 669.940779485289 872.2868038112588 669.567430070882 872.890895853449 C 668.8539746118948 874.0452910355493 665.0 876.3735727281621 665.0 875.6501936919719 M 671.0 871.7104111895835 C 671.0 871.4479515328834 674.9375 868.3726463494193 679.75 864.8763996707742 C 684.5625 861.3801529921291 692.55 855.2244569885928 697.5 851.1970752184715 C 702.45 847.1696934483501 704.475 845.7591257891978 702.0 848.0624804203553 C 694.7617483376356 854.7987472841901 671.0 872.9250756598103 671.0 871.7104111895835 M 200.5 866.4123897385938 L 197.5 863.834713767068 L 200.75 865.9854510941723 C 202.5375 867.1683566240795 204.0 868.3305460264892 204.0 868.5680942106383 C 204.0 869.316644635933 203.57653266380348 869.0558245129606 200.5 866.4123897385938 M 191.75 860.4654928039965 C 189.1375 858.5487840828874 187.0 856.7319790286514 187.0 856.4281482390275 C 187.0 855.783592202288 195.9350627583834 862.0859123415537 196.64128085779697 863.2285972298753 C 197.43502817069478 864.5129073606228 196.7031732277232 864.0994795304048 191.75 860.4654928039965 M 181.5 852.3904213973179 L 177.5 848.8105963194821 L 181.75 851.989327476985 C 185.40789446547763 854.7252011495193 186.72736340720604 856.0432832504171 185.75 855.9851232375769 C 185.6125 855.9769410182441 183.7 854.3593251901276 181.5 852.3904213973179 M 168.5 842.232691486171 C 164.1 838.5534142536548 153.26640476108184 828.3333998014188 144.4253439135152 819.5215482589799 L 128.3506878270304 803.5 L 143.4253439135152 818.0376437701805 C 151.71640476108183 826.0333478437798 162.6625 836.1025120197187 167.75 840.4135641611558 C 175.81773122092622 847.2500083786523 177.78956466176405 849.1227197387204 176.75 848.9611432271911 C 176.6125 848.9397720021461 172.9 845.9119687186871 168.5 842.232691486171 M 709.0859904635713 841.3817835147527 C 710.4136957086071 839.6667644478666 711.7011363636364 838.442900811503 711.9469696969697 838.6620865450557 C 712.192803030303 838.8812722786083 711.1064987389101 840.2844696969696 709.5329601605409 841.780303030303 L 706.6719809271425 844.5 L 709.0859904635713 841.3817835147527 M 123.5 798.0 C 121.3517574579657 795.8 120.02293096349713 794.0380906452934 120.54705223451428 794.0846458784299 C 121.4642853501387 794.166119392099 128.66131921253313 802.0 127.8189363105018 802.0 C 127.5917638817601 802.0 125.6482425420343 800.2 123.5 798.0 M 112.8900670851033 785.25 C 109.45894469288866 780.9875 105.98529421715673 776.7125 105.17084380569898 775.75 C 104.35639339424124 774.7875 103.93408181284079 774.0 104.2323736248091 774.0 C 104.68821029007091 774.0 109.90503440611525 780.1905349403315 118.32258014903289 790.7201181915318 C 119.32499923100097 791.9740531861893 119.91640530378247 793.0 119.63681586632511 793.0 C 119.35722642886775 793.0 116.32118947731793 789.5125 112.8900670851033 785.25 M 416.25 778.2837455631231 C 417.7625 778.0546209231385 420.2375 778.0546209231385 421.75 778.2837455631231 C 423.2625 778.5128702031077 422.025 778.7003358176406 419.0 778.7003358176406 C 415.975 778.7003358176406 414.7375 778.5128702031077 416.25 778.2837455631231 M 452.76790910343243 778.2752687321421 C 454.5652591103203 778.0527073146735 457.2652591103203 778.0572995563099 458.76790910343243 778.2854737135563 C 460.2705590965446 778.5136478708026 458.8 778.6957435760042 455.5 778.6901308362264 C 452.2 778.6845180964486 450.9705590965446 778.4978301496106 452.76790910343243 778.2752687321421 M 401.5 776.9489710713457 C 399.5272856539096 776.4134453097633 400.5545713078192 776.3256171410991 404.5 776.6924849567097 C 407.8 776.9993372371512 410.6875 777.4190586002538 410.91666666666663 777.625199096938 C 411.660713787285 778.2944859754863 404.5846042097857 777.7863376276844 401.5 776.9489710713457 M 465.75 777.2942669930909 C 466.9875 777.0559140985074 469.0125 777.0559140985074 470.25 777.2942669930909 C 471.4875 777.5326198876744 470.475 777.7276358923335 468.0 777.7276358923335 C 465.525 777.7276358923335 464.5125 777.5326198876744 465.75 777.2942669930909 M 475.26903188937035 776.3070092793148 C 476.241999428524 776.0534658684608 477.591999428524 776.0701401603852 478.26903188937035 776.344063261369 C 478.94606435021666 776.6179863623529 478.15 776.8254309712336 476.5 776.8050512811037 C 474.85 776.7846715909739 474.2960643502166 776.560552690169 475.26903188937035 776.3070092793148 M 393.8125 775.3168859649122 C 394.534375 775.0280153508771 395.396875 775.0635416666667 395.72916666666663 775.3958333333333 C 396.0614583333333 775.728125 395.4708333333333 775.9644736842106 394.41666666666663 775.921052631579 C 393.2517236807212 775.8730687099611 393.0147673031026 775.6361123323425 393.8125 775.3168859649122 M 482.75 775.3377192982457 C 483.4375 775.0603070175439 484.5625 775.0603070175439 485.25 775.3377192982457 C 485.9375 775.6151315789474 485.375 775.8421052631579 484.0 775.8421052631579 C 482.625 775.8421052631579 482.0625 775.6151315789474 482.75 775.3377192982457 M 387.75 774.3377192982457 C 388.4375 774.0603070175439 389.5625 774.0603070175439 390.25 774.3377192982457 C 390.9375 774.6151315789474 390.375 774.8421052631579 389.0 774.8421052631579 C 387.625 774.8421052631579 387.0625 774.6151315789474 387.75 774.3377192982457 M 488.75 774.3377192982457 C 489.4375 774.0603070175439 490.5625 774.0603070175439 491.25 774.3377192982457 C 491.9375 774.6151315789474 491.375 774.8421052631579 490.0 774.8421052631579 C 488.625 774.8421052631579 488.0625 774.6151315789474 488.75 774.3377192982457 M 383.8125 773.3168859649122 C 384.534375 773.0280153508771 385.396875 773.0635416666667 385.72916666666663 773.3958333333333 C 386.0614583333333 773.728125 385.4708333333333 773.9644736842106 384.41666666666663 773.921052631579 C 383.2517236807212 773.8730687099611 383.0147673031026 773.6361123323425 383.8125 773.3168859649122 M 495.0 773.0 C 496.375 772.5596480278857 498.4 772.1993600507012 499.5 772.1993600507012 C 501.0836663738485 772.1993600507012 500.9795829673106 772.3660267173678 499.0 773.0 C 497.625 773.4403519721143 495.6 773.8006399492988 494.5 773.8006399492988 C 492.9163336261515 773.8006399492988 493.0204170326894 773.6339732826322 495.0 773.0 M 99.55154541733144 767.75 C 96.22984727418446 762.9539046217923 96.18453320314183 762.8026030811949 99.0274289806351 766.0 C 102.16253272201936 769.5260423974021 104.44619337290104 773.0 103.62898904118882 773.0 C 103.38623087950589 773.0 101.55138124877006 770.6375 99.55154541733144 767.75 M 378.75 772.3377192982457 C 379.4375 772.0603070175439 380.5625 772.0603070175439 381.25 772.3377192982457 C 381.9375 772.6151315789474 381.375 772.8421052631579 380.0 772.8421052631579 C 378.625 772.8421052631579 378.0625 772.6151315789474 378.75 772.3377192982457 M 374.8125 771.3168859649122 C 375.534375 771.0280153508771 376.396875 771.0635416666667 376.72916666666663 771.3958333333333 C 377.0614583333333 771.728125 376.4708333333333 771.9644736842106 375.41666666666663 771.921052631579 C 374.2517236807212 771.8730687099611 374.0147673031026 771.6361123323425 374.8125 771.3168859649122 M 506.46534238932816 770.4592582498842 C 509.1962807034586 769.7102095073755 511.60097775508933 769.2676444217559 511.8091136151741 769.4757802818408 C 512.3090958528109 769.9757625194775 504.9232514338661 772.0125032165834 503.0 771.90500559282 C 502.175 771.858893296714 503.7344040751977 771.2083069923929 506.46534238932816 770.4592582498842 M 369.0 770.0 C 367.1720338655324 768.8186775546775 368.7509147521944 768.8186775546775 371.5 770.0 C 372.8187402445872 770.5666821178879 372.9890551834404 770.8781547466757 372.0 770.9144019628726 C 371.175 770.9446368313239 369.825 770.5331559480312 369.0 770.0 M 357.5 766.5361149579568 C 353.63794046421134 764.7677072519558 355.43430127584577 764.7417570538809 360.0 766.5 C 361.925 767.2413142819463 362.825 767.8617824503486 362.0 767.8788181520052 C 361.175 767.8958538536618 359.15 767.2916374163401 357.5 766.5361149579568 M 345.5 762.0547237858966 C 343.3 761.013667983664 341.95 760.1588422847507 342.5 760.1551111216446 C 343.86387621430896 760.1458586768955 351.7550946183658 763.8394436127759 350.5 763.899612664252 C 349.95 763.9259795833891 347.7 763.0957795881292 345.5 762.0547237858966 M 533.8957655681173 761.9084617448257 C 536.3134366305818 760.8358165767672 538.4696058312326 760.1362724978992 538.6872526806745 760.3539193473412 C 539.119562848877 760.7862295155436 531.4136191170641 764.043953644873 530.2297635554721 763.929362843375 C 529.8283935999624 763.8905124072312 531.4780945056528 762.981106912884 533.8957655681173 761.9084617448257 M 92.21821883559886 757.75 C 88.56837802341938 752.3599498027598 87.77883834659988 751.0 88.29940300304668 751.0 C 88.52899334853478 751.0 90.3601475348668 753.475 92.36863452822891 756.5 C 94.37712152159104 759.525 95.81245082810364 762.0 95.55825520936801 762.0 C 95.3040595906324 762.0 93.80104322243628 760.0875 92.21821883559886 757.75 M 338.0 759.0 C 337.175 758.4668440519688 336.95 758.0306255490341 337.5 758.0306255490341 C 338.05 758.0306255490341 339.175 758.4668440519688 340.0 759.0 C 340.825 759.5331559480312 341.05 759.9693744509659 340.5 759.9693744509659 C 339.95 759.9693744509659 338.825 759.5331559480312 338.0 759.0 M 542.0 758.5 C 543.375 757.7139789573024 544.95 757.0708708314588 545.5 757.0708708314588 C 546.05 757.0708708314588 545.375 757.7139789573024 544.0 758.5 C 542.625 759.2860210426976 541.05 759.9291291685412 540.5 759.9291291685412 C 539.95 759.9291291685412 540.625 759.2860210426976 542.0 758.5 M 329.75 755.4342718648579 C 327.1375 754.0743389093623 325.0 752.7377108878725 325.0 752.4639873726584 C 325.0 752.0176074024188 334.899727538269 756.6935856278872 335.91666666666663 757.6203005571074 C 337.1547714493226 758.7485590280285 333.90134441611013 757.5952479724486 329.75 755.4342718648579 M 547.0833333333333 756.6172258225151 C 548.1013655683686 755.6820023391101 562.0 749.0270852586134 562.0 749.4748565291583 C 562.0 750.0333652025353 548.44499008353 757.0 547.3582974656229 757.0 C 546.977900526197 757.0 546.8541666666666 756.8277516201318 547.0833333333333 756.6172258225151 M 312.7689936129025 746.2112322686805 C 307.4169400999989 743.0700545209063 301.7919400999989 739.4908077402483 300.2689936129025 738.2573505338853 C 298.7460471258061 737.0238933275223 301.1 738.2041402305613 305.5 740.8801214295277 C 309.9 743.5561026284942 315.975 747.1428674181248 319.0 748.8507098509291 C 322.025 750.5585522837334 324.05 751.9483599016006 323.5 751.9391712239672 C 322.95 751.9299825463338 318.1210471258061 749.3524100164548 312.7689936129025 746.2112322686805 M 84.79349586365001 746.25 C 81.71230200075583 741.5763818610833 79.7929963625387 738.0 80.36604037082546 738.0 C 80.60606470911627 738.0 81.68826834842471 739.5013532391158 82.77093734706646 741.3363405313685 C 83.85360634570822 743.1713278236213 85.52480995758494 745.8713278236212 86.48472315123696 747.3363405313685 C 87.44463634488899 748.8013532391159 88.01306421198963 750.0 87.74789618923839 750.0 C 87.48272816648714 750.0 86.15324801997237 748.3125 84.79349586365001 746.25 M 563.5 748.3372876153039 C 564.9178337801594 746.9310015505067 580.9213945272396 737.0 581.7697555866737 737.0 C 582.1567068004556 737.0 580.229310017274 738.5002322931667 577.4866516240477 740.3338495403705 C 571.442428451708 744.3747435438389 562.1124385997089 749.7135478572206 563.5 748.3372876153039 M 75.68376299628522 731.25 C 71.44080282633588 724.2009654293084 65.788569296569 713.0 66.4744441595058 713.0 C 66.75122314716313 713.0 68.7607309752917 716.4875 70.9400171109026 720.75 C 73.1193032465135 725.0125 76.07483137925007 730.4125 77.50785740587278 732.75 C 78.94088343249548 735.0875 79.89543507960182 737.0 79.62908328833133 737.0 C 79.36273149706084 737.0 77.58733736564008 734.4125 75.68376299628522 731.25 M 289.6491312636982 730.9664769927359 C 285.9921090686642 728.1980393387407 283.0 725.696738153731 283.0 725.4080299149366 C 283.0 725.1193216761424 285.8125 727.0072218159753 289.25 729.60336355901 C 296.52857556984776 735.1004439565993 297.5972379076117 736.0 296.84913126369827 736.0 C 296.5461534587323 736.0 293.3061534587323 733.7349146467311 289.6491312636982 730.9664769927359 M 279.40498756211207 722.75 L 277.5 720.5 L 279.75 722.4049875621121 C 280.9875 723.4527307212737 282.0 724.4652307212737 282.0 724.6549875621121 C 282.0 725.4552407726052 281.1952057733447 724.8644447635172 279.40498756211207 722.75 M 265.4679361084188 710.386181977962 C 259.98557124878846 705.0985820658411 257.975 702.9430319018775 261.0 705.5960705024875 C 268.52924715910115 712.1995030137692 276.6137465927933 719.9727130222926 275.9679361084188 719.9876740543433 C 275.67530096804916 719.9944533244545 270.95030096804913 715.6737818900829 265.4679361084188 710.386181977962 M 65.07894736842105 710.4166666666667 C 65.12693129003894 709.2517236807213 65.36388766765762 709.0147673031026 65.68311403508773 709.8125 C 65.9719846491228 710.534375 65.93645833333333 711.396875 65.60416666666666 711.7291666666667 C 65.271875 712.0614583333333 65.03552631578947 711.4708333333334 65.07894736842105 710.4166666666667 M 253.5 698.7119627535004 C 252.95 698.0453832390751 249.99913950687545 694.575 246.94253223750104 691.0 C 241.05976462309187 684.119530129948 231.5607512194678 671.5160948546695 228.4772627847131 666.5 C 225.3165014477426 661.3582006987559 228.33927124088422 665.0348965754725 237.520835829501 677.5 C 242.38227373507283 684.1 248.594131481535 691.8625 251.32496415497246 694.75 C 254.05579682840997 697.6375 255.88733871449287 699.9828832390751 255.39505723515668 699.9619627535004 C 254.9027757558205 699.9410422679257 254.05 699.3785422679257 253.5 698.7119627535004 M 1586.0 696.5522540137805 C 1563.5191403533634 691.7224786957788 1544.2790760657185 677.1486536073864 1534.1360860121122 657.266750620516 C 1530.8774742537205 650.8793438982561 1528.9512680694104 652.5071273148518 1550.474414933975 643.4596820467964 C 1556.585824772304 640.8906968342311 1561.5999126889287 639.2997380667862 1561.7897806862627 639.869342058788 C 1562.820040570877 642.9601217126311 1570.2463369752088 653.026305944068 1573.9570355818132 656.3617930331418 C 1593.3110616380777 673.7588146929915 1626.7975442803154 668.7162939478047 1637.7664808821773 646.753126303239 C 1641.3570964954583 639.5636150931639 1643.0 631.2562937248255 1643.0 620.2899012392527 C 1643.0 614.6304555576637 1642.6625 610.0148024635085 1642.25 610.0328943633524 C 1641.8375 610.0509862631961 1639.7372626518302 611.8262507488441 1637.582805892956 613.9779265536811 C 1629.6571558719916 621.8933462145638 1615.2822085286712 627.0 1600.9263909573003 627.0 C 1590.1039606487109 627.0 1583.9545758272545 625.8494510994102 1574.4623621945948 622.0485845198907 C 1551.6106702756558 612.8983235311025 1534.2462893245377 593.199149320695 1527.8207957755483 569.1356505707013 C 1525.1726128242278 559.218194946008 1524.93790144861 541.6419965599337 1527.311534852969 531.0 C 1531.9918179098281 510.0163232034346 1547.3001837632137 489.6342165264926 1566.2435200959626 479.1645602170968 C 1590.4398736796695 465.79165158515343 1620.9500046157902 467.6484946701321 1637.9255391191684 483.52711970985115 L 1642.9044194992778 488.1842793802955 L 1643.2022097496388 481.34213969014775 L 1643.5 474.5 L 1659.75 474.22522869927883 L 1676.0 473.95045739855766 L 1675.9959786834297 550.2252286992789 C 1675.991626002152 632.7851971038714 1675.7930821867603 636.4695748412818 1670.5115379325498 652.0 C 1666.924473573584 662.5477928206333 1661.9180465268478 670.3505914834736 1653.3640963940984 678.7252538903138 C 1645.2092534253434 686.7091742761303 1634.7802325111675 692.4568631793343 1623.0 695.4596512356055 C 1614.0392705006357 697.7437463492342 1594.264078052809 698.3277039224083 1586.0 696.5522540137805 M 225.0 661.0 C 224.4112978656632 659.9 224.154632483024 659.0 224.429632483024 659.0 C 224.704632483024 659.0 225.4112978656632 659.9 226.0 661.0 C 226.5887021343368 662.1 226.845367516976 663.0 226.570367516976 663.0 C 226.295367516976 663.0 225.5887021343368 662.1 225.0 661.0 M 222.24101768841172 656.75 C 220.82191306440038 654.9829607409359 215.8731241204373 645.0 216.4162657335007 645.0 C 216.6637423471781 645.0 218.41940478950946 647.925 220.3177378275704 651.5 C 223.733230605 657.9321625523534 224.18853179275223 659.1750036408331 222.24101768841172 656.75 M 213.5732418344793 640.8463619857233 C 212.70795882551568 639.1118610778711 212.0 637.4367332683387 212.0 637.1238557423179 C 212.0 636.2565035444438 214.58244400272628 640.265034590068 215.302451782134 642.25 C 216.34063941089408 645.1121448143286 215.26621800165177 644.2400131594011 213.5732418344793 640.8463619857233 M 209.14426436708385 631.25 C 208.05306263046373 628.699955549181 208.07774695975573 628.6411416880796 209.48374934677577 630.4411296351049 C 210.3176872060491 631.5087509344125 211.0 632.7462509344125 211.0 633.1911296351049 C 211.0 634.7110369209909 210.32166781972418 634.0014904348303 209.14426436708385 631.25 M 1034.5 625.3426594926608 C 983.9820093289563 616.2532146792838 942.7241085586128 574.4115182748174 934.5442370375436 523.972531355696 C 925.2092979183891 466.4111294548202 959.9999880477865 409.53447578189196 1016.5339108911853 389.93384838661257 C 1030.9496070891553 384.935845849222 1040.0297308615402 383.4976718523765 1057.0 383.5245440016524 C 1074.8464323723388 383.5528035413708 1083.7396162161335 384.89978175719324 1096.8289486828512 389.55711087277837 C 1111.872530969532 394.90978366679656 1125.3340429622906 402.877286375873 1135.9519711260236 412.71296345983643 L 1140.5 416.92592691967286 L 1128.8504525122016 428.6071917986987 L 1117.200905024403 440.2884566777245 L 1112.3504525122016 436.3137772350275 C 1101.876178722259 427.7306851203564 1091.23699336657 422.34141273281773 1078.0 418.9135779684102 C 1060.5463750163715 414.393809707824 1035.2087447575325 416.8392006757079 1019.9110418551322 424.5198723270428 C 997.1855573339902 435.92988504842987 980.7639860348565 454.8211119685413 973.5890414449194 477.80828213889754 C 960.3143192911754 520.3379899697126 979.4106823992703 565.910233481335 1018.5 584.9853989557074 C 1029.229216702384 590.2211410093 1039.4447418653651 592.9034017630739 1051.5103643689754 593.6528343936366 C 1080.5045077224288 595.4537491096231 1106.719555613712 584.6044651875671 1123.1602980720802 564.0 C 1129.125262440206 556.524370418225 1132.9993387553045 547.3038952812735 1135.449982772006 534.75 L 1136.7676492605426 528.0 L 1097.6338246302712 527.8815789473684 C 1076.110221083622 527.8164473684211 1058.1625 527.816447368421 1057.75 527.8815789473682 C 1057.3375 527.9467105263154 1057.0 520.3499999999997 1057.0 510.9999999999998 L 1057.0 494.0 L 1113.0313847963384 494.0 C 1165.4576001640635 494.0 1169.108429652999 494.1125984396603 1169.7724162432442 495.75 C 1170.162721901056 496.7125 1170.4834945612624 505.375 1170.485244377036 515.0 C 1170.4886222225769 533.5801064463569 1169.2688011869168 541.9791429709655 1164.5535309237976 555.8426125561159 C 1159.1644036423836 571.6873039496834 1151.9749464937524 583.1728354066519 1140.0426617372132 595.0 C 1122.9832564239075 611.9091166211508 1104.8502568976862 621.1600529541596 1080.3735564180724 625.4414663198306 C 1069.299023116357 627.3786005727102 1045.5309752169312 627.3274066914345 1034.5 625.3426594926608 M 1242.444588560546 625.1053823699483 C 1220.8208817810678 619.2324901659495 1204.4536408016922 607.2718117419965 1193.7214432041173 589.5 C 1186.4499324980854 577.4588576176873 1183.0330012359286 564.3655225913999 1183.0217871220602 548.5 C 1183.0117639722591 534.3194315236603 1185.510291783842 523.7209420177687 1191.7124985764563 511.63492540641664 C 1195.5378471125164 504.1806067264769 1198.1572316498712 500.7417712862295 1205.9501438164089 492.9431608569229 C 1214.1624550859685 484.72484465537485 1216.8305620984254 482.74081632745606 1225.0 478.777516774972 C 1236.403982658815 473.24501871173226 1244.4124490445727 471.1058716327961 1256.7059899681117 470.30850753424085 C 1295.092329010159 467.8187538646132 1328.2585785708502 491.53637329334686 1338.0798212342584 528.5 C 1340.8563158853492 538.9497277333679 1341.0581707288939 557.2747833111155 1338.509415505601 567.5 C 1331.8966679877608 594.0293330881129 1313.1620216315125 614.3890575809014 1287.1975293463738 623.2627747832439 C 1279.48227984673 625.8995658844717 1276.8624018717999 626.2796761902234 1264.0 626.6284353433581 C 1251.967021821431 626.954704987323 1248.2995962772202 626.6955736134887 1242.444588560546 625.1053823699483 M 1416.0 625.626913239329 C 1400.2437061235362 621.9693328606874 1387.1716830787414 614.9003324662838 1376.6626816311418 604.354343713454 C 1370.313764427633 597.9830809674447 1361.8551846404914 585.0203949989487 1359.139337357923 577.5 C 1344.177568186147 536.0696829210316 1363.239207156632 491.7343870457287 1402.95141925504 475.5978699245469 C 1413.0041289310439 471.5130881098465 1418.8546175334395 470.5290564302648 1433.0 470.5438039500573 C 1443.9703089877069 470.5552412405872 1447.9731533847487 470.97923765301766 1454.3616600199252 472.8065117432211 C 1479.361738299298 479.9571649242667 1498.496752874239 497.30405506502507 1506.8422314896434 520.3828908593171 C 1522.9228064139827 564.8525929889951 1499.1089833109259 612.2654250206303 1454.5 624.5951972596636 C 1446.6472497399272 626.7656708945782 1423.569686987629 627.384099213105 1416.0 625.626913239329 M 1809.4095006031594 625.5158406998919 C 1773.459529091292 617.6939121615139 1749.0 586.3081046030286 1749.0 548.0000000000001 C 1749.0 502.12366334781564 1783.5252681861616 467.71489461213037 1826.9627975175035 470.3002742425596 C 1841.7726880696878 471.1817513880582 1853.270957640127 475.47470881298875 1865.004350666865 484.50334776140403 C 1871.9856427540203 489.87532886735664 1875.983581737944 494.36902830896986 1881.8780668553304 503.4694723868555 C 1886.3555372600222 510.38219982900256 1894.2274842966099 527.8229056818035 1893.4430125072638 529.0922077001808 C 1893.2227283658642 529.448634928148 1890.2204343120666 530.7812061950212 1886.7712479432687 532.0534771821215 C 1883.3220615744708 533.3257481692217 1877.35 535.7817484853583 1873.5 537.511255662425 C 1869.65 539.2407628394917 1864.925 541.2507082180288 1863.0 541.9778009480631 C 1861.075 542.7048936780973 1856.575 544.5289139714674 1853.0 546.0311793777744 C 1849.425 547.5334447840814 1833.675 554.0561417761254 1818.0 560.5260615823164 C 1802.325 566.9959813885074 1789.3126196579612 572.4492832497847 1789.083599239914 572.6445101629326 C 1788.0900158212073 573.4914836574487 1796.8900627324613 584.6570470952569 1801.296098543722 588.139817981857 C 1814.1485141859018 598.2990679150213 1837.4308493124263 598.6798300342955 1851.5555691340019 588.9617674311523 C 1855.6589754748027 586.1385496817196 1861.4640931100444 580.5053467085232 1864.3430796701778 576.552950435807 C 1865.7025132048943 574.6866617528301 1866.3055120472595 574.9683773659877 1878.8806703397804 583.3447815001251 C 1886.0963016529013 588.1511658458062 1892.0 592.4338387758418 1892.0 592.8618324557597 C 1892.0 593.7885573515288 1885.802112213178 601.2349997554069 1881.39064040847 605.608430628823 C 1876.675130368961 610.2832779595228 1865.9362597748234 617.6845812320241 1859.8768874146974 620.4358567571834 C 1849.8243417797053 625.0002441437551 1839.6683121237386 627.0071854912649 1827.0616629672268 626.9205001663083 C 1820.702748335252 626.8767752577778 1812.7592752714218 626.2446784978905 1809.4095006031594 625.5158406998919 M 203.125 617.375 C 201.93260012003958 614.2590665466271 201.12575021825376 611.5409164484129 201.33200021825377 611.3346664484129 C 201.53825021825375 611.128416448413 202.68260012003955 613.5090665466271 203.875 616.625 C 205.06739987996042 619.7409334533729 205.87424978174624 622.4590835515871 205.66799978174623 622.6653335515871 C 205.46174978174622 622.871583551587 204.31739987996042 620.4909334533729 203.125 617.375 M 1698.4611884693745 621.75 C 1698.199365403503 621.0625 1698.1009885618555 568.975 1698.2425732657132 506.0 L 1698.5 391.5 L 1715.75 391.22638607272944 L 1733.0 390.9527721454589 L 1733.0 506.97638607272944 L 1733.0 623.0 L 1715.9686152036613 623.0 C 1703.2640630668293 623.0 1698.8162916915905 622.6824368136204 1698.4611884693745 621.75 M 1275.198621672343 593.933089199351 C 1294.8363955840189 587.3176017759764 1307.1466866264457 567.7563711061365 1305.6785763434523 545.5 C 1304.9868920457657 535.0141512215262 1302.8945548419895 528.5156274957704 1297.7287106495266 520.8087644117272 C 1282.300896739654 497.79218763169865 1250.9163126801536 494.5208395487967 1231.246353882374 513.8790268710063 C 1212.8001040486397 532.0329011797826 1212.7027021361168 564.5455101325629 1231.0389048675188 583.1251897328829 C 1239.9221220430593 592.1263625143632 1248.6544600980794 595.8245527982875 1261.2815454244096 595.9331042642505 C 1266.65075288338 595.9792618157097 1270.9651518323974 595.3592420112409 1275.198621672343 593.933089199351 M 1447.3034315758657 593.5568425523384 C 1465.6719319819663 587.0744844968435 1477.0 570.1699865034622 1477.0 549.2416441851569 C 1477.0 534.1181385757183 1473.367003928513 524.5140672230115 1463.8258246105404 514.414818621964 C 1446.804808042464 496.39823261778446 1418.6021110767829 496.7010222037215 1401.5835833263059 515.0830633110864 C 1395.417073843318 521.7436295167661 1392.6532924226929 526.690173165266 1390.5385769753452 534.8511265903562 C 1388.7805536487658 541.6355601681367 1388.5597007712922 554.3759507752084 1390.0852899362485 561.0 C 1392.5816054131656 571.838905374754 1400.5713415856264 583.3791068639571 1409.8138571895647 589.4955142800966 C 1420.2178464625385 596.3805486012221 1434.8197639224434 597.9624065225146 1447.3034315758657 593.5568425523384 M 1621.4601894147686 592.0202067938626 C 1636.6549750068634 584.3077378999315 1645.4109496889907 568.1734907511952 1645.3497339739802 548.0 C 1645.3048251093974 533.2003923479016 1640.3942764156923 521.4044909912518 1630.3774466095088 512.0342381573129 C 1621.7808175882499 503.9925134792069 1615.5156135159068 501.6106305585544 1603.0 501.62597822877774 C 1594.5057656861043 501.6363945545043 1592.8118445305602 501.9609877967162 1587.0 504.69193667577696 C 1574.4022303722975 510.61154871332116 1564.5937389073893 522.6976837210569 1561.5589319207847 536.040710811584 C 1555.6501139368927 562.0197990303903 1567.9907072426083 586.6189851222183 1590.6799872243078 594.0893184316083 C 1595.0923599523935 595.5420703475197 1598.7089781902773 595.9344517475728 1605.633216485636 595.7116541737153 C 1613.7217440644276 595.4513938759374 1615.5320879968194 595.0291533504886 1621.4601894147686 592.0202067938626 M 1799.4685103372676 539.5296626700915 C 1803.8858296517703 537.6569867785195 1817.5895490414775 531.9280708704005 1829.9212200921722 526.798738429827 C 1842.252891142867 521.6694059892536 1852.51746853912 516.9475943826396 1852.7313920838455 516.3058237484627 C 1853.3710893013165 514.3867320960508 1845.9796506292412 507.0233799393676 1840.75685651214 504.37678987034735 C 1838.0783267683732 503.01947612975454 1833.099771885237 501.5798778478319 1829.693401216282 501.1776825771859 C 1806.4944836234158 498.43855174066493 1786.2042956437817 515.3944126046601 1783.439673406584 539.8304429148205 L 1782.7413814227887 546.0025281464962 L 1787.0892010486618 544.4685280369957 C 1789.4805018428922 543.6248279767705 1795.051191022765 541.4023385616637 1799.4685103372676 539.5296626700915 M 210.0 413.05901699437493 C 210.0 412.54147634128117 210.44484552125382 411.8431043368719 210.9885456027863 411.5070792067987 C 211.55540568603882 411.1567404084831 211.72305311659034 411.5581370729172 211.381556798602 412.4480622124238 C 210.71676592783018 414.18047945164693 210.0 414.497449098925 210.0 413.05901699437493 M 216.0 401.05901699437493 C 216.0 400.54147634128117 216.44484552125382 399.8431043368719 216.9885456027863 399.5070792067987 C 217.55540568603882 399.1567404084831 217.72305311659034 399.5581370729172 217.381556798602 400.4480622124238 C 216.71676592783018 402.18047945164693 216.0 402.497449098925 216.0 401.05901699437493 M 222.0 391.0 C 222.5887021343368 389.9 223.295367516976 389.0 223.570367516976 389.0 C 223.845367516976 389.0 223.5887021343368 389.9 223.0 391.0 C 222.4112978656632 392.1 221.704632483024 393.0 221.429632483024 393.0 C 221.154632483024 393.0 221.4112978656632 392.1 222.0 391.0 M 236.0 369.62244471544216 C 236.0 369.4147893089354 236.7875 368.62728930893536 237.75 367.87244471544216 C 239.33605562436583 366.62857405255176 239.37142594744824 366.6639443756342 238.12755528455784 368.25 C 236.82118553165972 369.91574802019267 236.0 370.4454789049805 236.0 369.62244471544216 M 244.0 359.62244471544216 C 244.0 359.4147893089354 244.7875 358.62728930893536 245.75 357.87244471544216 C 247.33605562436583 356.62857405255176 247.37142594744824 356.6639443756342 246.12755528455784 358.25 C 244.82118553165972 359.91574802019267 244.0 360.4454789049805 244.0 359.62244471544216 M 249.0 353.68709120476603 C 249.0 353.5149913673873 250.4625 352.0524913673873 252.25 350.43709120476603 L 255.5 347.5 L 252.562908795234 350.75 C 249.8251281589118 353.77945548766365 249.0 354.4596515851856 249.0 353.68709120476603 M 596.8125 329.31688596491233 C 597.534375 329.02801535087724 598.396875 329.0635416666667 598.7291666666667 329.39583333333337 C 599.0614583333333 329.728125 598.4708333333334 329.96447368421053 597.4166666666667 329.92105263157896 C 596.2517236807213 329.8730687099611 596.0147673031026 329.6361123323424 596.8125 329.31688596491233 M 276.0 327.62244471544216 C 276.0 327.4147893089354 276.7875 326.62728930893536 277.75 325.87244471544216 C 279.3360556243658 324.62857405255176 279.37142594744824 324.6639443756342 278.12755528455784 326.25 C 276.8211855316597 327.91574802019267 276.0 328.4454789049805 276.0 327.62244471544216 M 592.4049875621121 325.75 L 590.5 323.5 L 592.75 325.40498756211207 C 593.9875 326.4527307212737 595.0 327.46523072127377 595.0 327.65498756211207 C 595.0 328.45524077260524 594.1952057733446 327.86444476351716 592.4049875621121 325.75 M 612.0 315.5 C 618.3070567737411 309.175 623.6923759522566 304.0 623.9673759522566 304.0 C 624.2423759522566 304.0 619.3070567737411 309.175 613.0 315.5 C 606.6929432262589 321.825 601.3076240477434 327.0 601.0326240477434 327.0 C 600.7576240477434 327.0 605.6929432262589 321.825 612.0 315.5 M 651.0 277.5 C 652.2917454293805 276.125 653.573628053419 275.0 653.848628053419 275.0 C 654.123628053419 275.0 653.2917454293805 276.125 652.0 277.5 C 650.7082545706195 278.875 649.426371946581 280.0 649.151371946581 280.0 C 648.876371946581 280.0 649.7082545706195 278.875 651.0 277.5 M 492.8125 274.31688596491233 C 493.534375 274.02801535087724 494.396875 274.0635416666667 494.72916666666663 274.39583333333337 C 495.0614583333333 274.728125 494.4708333333333 274.96447368421053 493.41666666666663 274.92105263157896 C 492.2517236807213 274.8730687099611 492.01476730310264 274.6361123323424 492.8125 274.31688596491233 M 658.0 270.5 C 659.8657834620403 268.575 661.6173335673461 267.0 661.8923335673461 267.0 C 662.1673335673461 267.0 660.8657834620403 268.575 659.0 270.5 C 657.1342165379597 272.425 655.3826664326539 274.0 655.1076664326539 274.0 C 654.8326664326539 274.0 656.1342165379597 272.425 658.0 270.5 M 400.75 270.3377192982456 C 401.4375 270.06030701754383 402.5625 270.06030701754383 403.25 270.3377192982456 C 403.9375 270.6151315789474 403.375 270.8421052631579 402.0 270.8421052631579 C 400.625 270.8421052631579 400.0625 270.6151315789474 400.75 270.3377192982456 M 469.8125 270.31688596491233 C 470.534375 270.02801535087724 471.396875 270.0635416666667 471.72916666666663 270.39583333333337 C 472.0614583333333 270.728125 471.4708333333333 270.96447368421053 470.41666666666663 270.92105263157896 C 469.2517236807213 270.8730687099611 469.01476730310264 270.6361123323424 469.8125 270.31688596491233 M 461.8125 269.31688596491233 C 462.534375 269.02801535087724 463.396875 269.0635416666667 463.72916666666663 269.39583333333337 C 464.0614583333333 269.728125 463.4708333333333 269.96447368421053 462.41666666666663 269.92105263157896 C 461.2517236807213 269.8730687099611 461.01476730310264 269.6361123323424 461.8125 269.31688596491233 M 422.26903188937035 268.3070092793149 C 423.241999428524 268.0534658684608 424.591999428524 268.07014016038517 425.26903188937035 268.34406326136906 C 425.94606435021666 268.61798636235295 425.15 268.8254309712335 423.5 268.8050512811037 C 421.85 268.78467159097397 421.2960643502166 268.56055269016895 422.26903188937035 268.3070092793149 M 446.25 268.31067448631427 C 447.2125 268.05914693930987 448.7875 268.05914693930987 449.75 268.31067448631427 C 450.7125 268.56220203331867 449.925 268.76799729904957 448.0 268.76799729904957 C 446.075 268.76799729904957 445.2875 268.56220203331867 446.25 268.31067448631427 M 117.0 256.62244471544216 C 117.0 256.4147893089354 117.7875 255.6272893089354 118.75 254.87244471544219 C 120.33605562436583 253.62857405255176 120.37142594744823 253.66394437563417 119.12755528455783 255.25 C 117.82118553165974 256.91574802019267 117.0 257.4454789049805 117.0 256.62244471544216 M 125.0 247.5 C 126.29174542938043 246.125 127.57362805341896 245.0 127.84862805341896 245.0 C 128.12362805341897 245.0 127.29174542938043 246.125 126.0 247.5 C 124.70825457061957 248.875 123.42637194658104 250.0 123.15137194658104 250.0 C 122.87637194658103 250.0 123.70825457061957 248.875 125.0 247.5 M 695.5 234.0 C 699.3204985190251 230.15 702.6713609436821 227.0 702.9463609436821 227.0 C 703.221360943682 227.0 700.3204985190251 230.15 696.5 234.0 C 692.6795014809749 237.85 689.3286390563179 241.0 689.0536390563179 241.0 C 688.778639056318 241.0 691.6795014809749 237.85 695.5 234.0 M 135.0 236.5 C 136.29174542938043 235.125 137.57362805341896 234.0 137.84862805341896 234.0 C 138.12362805341897 234.0 137.29174542938043 235.125 136.0 236.5 C 134.70825457061957 237.875 133.42637194658104 239.0 133.15137194658104 239.0 C 132.87637194658103 239.0 133.70825457061957 237.875 135.0 236.5 M 141.5 230.0 C 142.4954863183233 228.9 143.53497512422416 228.0 143.80997512422417 228.0 C 144.08497512422417 228.0 143.4954863183233 228.9 142.5 230.0 C 141.5045136816767 231.1 140.46502487577584 232.0 140.19002487577583 232.0 C 139.91502487577583 232.0 140.5045136816767 231.1 141.5 230.0 M 150.0 221.5 C 152.98742381889414 218.475 155.65667967071664 216.0 155.93167967071665 216.0 C 156.20667967071665 216.0 153.98742381889414 218.475 151.0 221.5 C 148.01257618110586 224.525 145.34332032928336 227.0 145.06832032928335 227.0 C 144.79332032928335 227.0 147.01257618110586 224.525 150.0 221.5 M 713.3424796438735 216.32418702279313 C 713.7141767813373 215.95248988532936 713.0016767813373 214.48998988532935 711.7591463105402 213.07418702279313 L 709.5 210.5 L 712.2191796755715 212.89535983528216 C 714.5965258382132 214.98959419710582 715.1133197070529 217.0 713.2743163389584 217.0 C 712.940109019198 217.0 712.9707825064097 216.6958841602569 713.3424796438735 216.32418702279313 M 162.5 210.0 C 163.4954863183233 208.9 164.53497512422416 208.0 164.80997512422417 208.0 C 165.08497512422417 208.0 164.4954863183233 208.9 163.5 210.0 C 162.5045136816767 211.1 161.46502487577584 212.0 161.19002487577583 212.0 C 160.91502487577583 212.0 161.5045136816767 211.1 162.5 210.0 M 690.8724447154422 195.25 C 689.6285740525518 193.66394437563417 689.6639443756342 193.62857405255176 691.25 194.87244471544216 C 692.9157480201927 196.17881446834028 693.4454789049805 197.0 692.6224447154422 197.0 C 692.4147893089354 197.0 691.6272893089354 196.2125 690.8724447154422 195.25 M 364.8125 113.31688596491227 C 365.534375 113.0280153508772 366.396875 113.06354166666667 366.72916666666663 113.39583333333334 C 367.0614583333333 113.728125 366.4708333333333 113.96447368421053 365.41666666666663 113.92105263157895 C 364.2517236807213 113.87306870996106 364.01476730310264 113.63611233234239 364.8125 113.31688596491227 M 376.75 111.33771929824562 C 377.4375 111.06030701754385 378.5625 111.06030701754385 379.25 111.33771929824562 C 379.9375 111.61513157894737 379.375 111.84210526315789 378.0 111.84210526315789 C 376.625 111.84210526315789 376.0625 111.61513157894737 376.75 111.33771929824562 M 488.8125 110.31688596491227 C 489.534375 110.0280153508772 490.396875 110.06354166666667 490.72916666666663 110.39583333333334 C 491.0614583333333 110.728125 490.4708333333333 110.96447368421053 489.41666666666663 110.92105263157895 C 488.2517236807213 110.87306870996106 488.01476730310264 110.63611233234239 488.8125 110.31688596491227 M 393.25 109.31067448631424 C 394.2125 109.05914693930983 395.7875 109.05914693930983 396.75 109.31067448631424 C 397.7125 109.56220203331867 396.925 109.76799729904955 395.0 109.76799729904955 C 393.075 109.76799729904955 392.2875 109.56220203331867 393.25 109.31067448631424 M 479.8125 109.31688596491227 C 480.534375 109.0280153508772 481.396875 109.06354166666667 481.72916666666663 109.39583333333334 C 482.0614583333333 109.728125 481.4708333333333 109.96447368421053 480.41666666666663 109.92105263157895 C 479.2517236807213 109.87306870996106 479.01476730310264 109.63611233234239 479.8125 109.31688596491227 M 404.8125 108.31688596491227 C 405.534375 108.0280153508772 406.396875 108.06354166666667 406.72916666666663 108.39583333333334 C 407.0614583333333 108.728125 406.4708333333333 108.96447368421053 405.41666666666663 108.92105263157895 C 404.2517236807213 108.87306870996106 404.01476730310264 108.63611233234239 404.8125 108.31688596491227 M 466.75 108.33771929824562 C 467.4375 108.06030701754385 468.5625 108.06030701754385 469.25 108.33771929824562 C 469.9375 108.61513157894737 469.375 108.84210526315789 468.0 108.84210526315789 C 466.625 108.84210526315789 466.0625 108.61513157894737 466.75 108.33771929824562"/><path fill="rgb(234,67,54)" d="M 193.89101092524146 437.17566118473894 C 186.67803748245424 431.42332676168655 182.0908794871845 427.8267657221963 176.44867702478143 423.5 C 160.20085850848588 411.0402372238107 144.35643899984072 398.73221739991277 136.0 392.0792768614957 C 130.775 387.91941710378177 123.80725497206342 382.52327242740716 120.51612216014094 380.0878442473298 C 117.22498934821846 377.65241606725255 109.0737645096789 371.3488395833899 102.40228918560857 366.0798965054129 C 86.83321335000623 353.783879452254 67.8810110940405 339.14769603428425 66.16822564337065 338.09748090958783 C 62.9724880381982 336.1379757268454 84.02486870753364 300.6405712188013 105.12075478255005 272.41779816098233 C 126.1380071178552 244.30022391693515 162.0284621889197 208.69527096844985 188.83603150494878 189.36846142594848 C 200.25026811951363 181.1394133342651 222.32240912440267 166.71958512975615 231.1813488075124 161.70407668714427 C 283.6992025943503 131.9709767363744 340.6149139396426 114.4252146849448 402.5 108.89060536708703 C 421.58335119101116 107.1839115569708 472.2044890484139 108.29984811379418 491.5 110.85259906697297 C 553.4826091668898 119.05275323901265 609.7648748621694 139.74727130336956 660.0 172.8086388739597 C 678.0424493298801 184.68296082562736 697.0419134877117 199.36302786609696 708.9306149265577 210.61521602193605 L 714.5 215.88641986880268 L 708.0 222.10774220909622 C 704.425 225.52946949625763 685.975 243.5007720643573 667.0 262.0439701382066 C 614.7099265627876 313.14411185321865 598.8567185618158 328.4683752894989 597.9151844403101 328.82376089214245 C 597.4434220540695 329.00182938282086 593.3320118515376 326.0617768760473 588.7787173235727 322.2903108770902 C 572.7401485337023 309.0056624776891 562.4034704793548 302.17875660717516 545.0 293.3764585999395 C 513.3368544131883 277.36192611733907 483.27352574835555 269.8345622230317 444.91335197402884 268.3164052355148 C 394.74457130940533 266.33090628107124 343.4216985504737 280.7031006644008 301.5 308.47714567997673 C 295.45 312.48540341175544 289.4427988059389 316.6052874331247 288.15066401319746 317.6324435052418 C 259.20440312517155 340.64268036539085 239.23219686683092 362.8091597577126 222.49631078474977 390.5 C 214.86204550939408 403.1314925346832 206.24299792054552 421.1606807339531 201.4616369149249 434.5 C 200.47592373847186 437.25 199.40630913315567 439.8040475331325 199.08471556977787 440.17566118473894 C 198.76312200640004 440.5472748363454 196.42595491635865 439.1972748363454 193.89101092524146 437.17566118473894"/><path fill="rgb(66,134,244)" d="M 704.9971390401361 833.3871659588158 C 700.8737125680613 830.237500772435 693.45 824.4421128652831 688.5 820.5085261651449 C 683.55 816.5749394650067 670.725 806.6642078188262 660.0 798.4846780625217 C 649.275 790.3051483062171 640.275 783.3193058592705 640.0 782.9605837359734 C 639.725 782.6018616126764 634.775 778.7261657858019 629.0 774.3479263429186 C 599.8140338701473 752.2209742929839 582.7154128726304 738.7092782258368 582.3701228956804 737.5 C 582.213079228421 736.95 585.3280564402867 734.025 589.2922944776043 731.0 C 600.5312772268824 722.4238442554347 621.6843358591643 700.6185069332556 629.5672209480788 689.4831502346232 C 644.4829498104745 668.4132044686455 655.1886799414656 646.8084646032303 661.024830644412 626.0 C 662.4819693359543 620.8046545697238 666.0 604.109273184559 666.0 602.389532161779 C 666.0 602.1752894728005 614.475 602.0 551.5 602.0 L 437.0 602.0 L 437.0 525.0 L 437.0 448.0 L 632.3299761233399 448.0 L 827.6599522466797 448.0 L 829.3301038972781 456.75 C 834.9486885656232 486.1860190767155 836.424341627234 506.16061635772957 835.6920510032778 542.8659947899628 C 833.7365040383125 640.8859462175315 807.1179656235066 722.6289215159368 754.3664668183701 792.6090541405696 C 745.0157861488217 805.0136661081423 738.6165482320976 812.3415412217878 724.5023869483396 826.8069149670268 L 712.4942780802722 839.1138299340536 L 704.9971390401361 833.3871659588158"/><path fill="rgb(249,188,6)" d="M 62.52258604643636 706.1990612834963 C 39.600894409535194 659.0747418738185 26.13310168925222 609.4877599378739 21.45701727481887 555.0 C 15.485159374291076 485.41332644408965 30.31724480063434 407.11754948222267 61.58209973000345 343.18726995006193 L 64.66931584518242 336.87453990012386 L 72.58465792259122 342.9603210754947 C 76.93809606516605 346.3075007219486 84.55 352.15500888594255 89.5 355.95478366214786 C 101.82651900752198 365.4170050769352 123.24680524580232 382.0782943644389 130.42516169766174 387.78750291704 C 136.07936672506253 392.2844982831917 160.44443473732645 411.1855983817101 177.5 424.30561279574874 C 181.9 427.69031817095606 186.175 431.01097969856943 187.0 431.68486063488945 C 187.825 432.3587415712095 190.897654056211 434.79659673517415 193.82812012491337 437.10231655481084 C 197.34020717999735 439.86566154545346 198.99442956575623 441.84080883396535 198.68149847527138 442.8972672043479 C 185.16060110607373 488.5439467293563 182.5387931023913 527.0650150546945 190.13276749650436 568.5 C 191.93114648617794 578.3124911272871 193.48839372371287 584.7187295022717 198.11635670156102 601.3430671140613 C 199.45198178776744 606.1408328831808 199.4387688923818 606.2049457761907 196.7037951273851 608.1972354421944 C 195.18535630084162 609.3033411099337 179.6683228772304 621.2693650818383 162.22149863047122 634.7883998242044 C 144.77467438371204 648.3074345665705 124.2 664.2312751712568 116.5 670.1747122790628 C 108.8 676.1181493868688 100.25 682.7760505723707 97.5 684.9700482468446 C 87.5487402034119 692.9093358293176 67.47537084561966 708.2104054856777 65.9169828090314 709.0444294522817 C 64.68241763127415 709.7051486842122 63.9151279440458 709.0619646945457 62.52258604643636 706.1990612834963"/><path fill="rgb(52,167,83)" d="M 413.5 939.0308210851762 C 410.2 938.5740813154351 401.65 937.6862433925594 394.5 937.0578479232299 C 365.04309838357517 934.4689551237549 332.3783389838094 927.2541495214906 300.0 916.1852273393827 C 240.10324641692998 895.7088062140301 183.75949853240223 859.6662507270893 138.49809947211534 812.8740095099927 C 123.36674012436414 797.2308736095875 113.46817483287316 785.4782392596826 98.77937533319678 765.7156963703378 C 88.81145035040448 752.3046926327934 66.0 713.8685043602183 66.0 710.4840376020115 C 66.0 709.8427332698786 73.0875 703.8966078564448 81.75 697.2704255721585 C 90.4125 690.6442432878722 99.73526921303198 683.4851865996558 102.46726491784884 681.3614107094554 C 134.51483368874364 656.4485406873077 156.25736689362816 639.5930888219525 168.07546812897624 630.5 C 175.93852917169278 624.45 185.92950285873357 616.6875 190.2776318779558 613.25 C 194.62576089717803 609.8125 198.54329016451229 607.0 198.98325247203195 607.0 C 199.42321477955164 607.0000000000001 200.08740827236923 608.2375000000001 200.4592380116266 609.75 C 202.11707709318858 616.4936284571278 219.03171665873631 652.8667472898027 222.43196801448178 657.0 C 223.11066045483733 657.825 225.15353718814148 660.975 226.97169408849103 664.0 C 246.71326146113444 696.8454828572634 284.6294674275034 731.6703606188211 322.0 751.2805981746047 C 339.90064280077894 760.6739847163543 362.5884868152314 769.1130691055919 380.5 773.0405519390924 C 404.0709199416789 778.2089808979307 406.4674791493899 778.4366638056932 437.5 778.4557846196425 C 468.9025926039111 778.4751334548077 477.60152823977467 777.6915860097777 499.46728555616994 772.8741467842261 C 508.44322001575335 770.8965789311725 511.55878727881577 770.0176127415946 526.5 765.2476569663543 C 541.775301404826 760.3710439688579 561.4517512197298 750.6954793370774 579.1288975785296 739.3682780737902 C 581.6915876093166 737.7261518411423 581.8552870488998 737.7633765375526 585.6288975785296 740.8463559907552 C 592.2580594758246 746.2622752439061 614.9449189006834 763.8572553724957 627.5 773.3198333139609 C 634.1 778.2941551777257 639.725 782.6450238355674 640.0 782.988430331387 C 640.3701829303927 783.4506965966175 672.5007395412833 808.1983144653258 680.5 814.1823662416964 C 681.05 814.5938078360775 683.2546481150962 816.408592447579 685.399218033547 818.215220933922 C 687.5437879519978 820.0218494202649 694.0354934982057 825.1 699.8252303584534 829.5 C 705.6149672187012 833.9 710.5172590973852 838.0083199813408 710.7192123110849 838.6295999585352 C 711.3803483111969 840.663489647872 680.5834580339733 865.1646873209689 663.5 876.1959660554866 C 609.2555558062694 911.2231591747037 546.3214759223902 931.7693116557533 474.0 938.0622220227282 C 457.52446028761614 939.4958085658019 421.07574074039394 940.0793489886262 413.5 939.0308210851762"/></svg>