<svg width="1024" height="1024" fill="white" xmlns="http://www.w3.org/2000/svg"><path d="M0.0 0.0 Q-2.0460000000000003 1020.954, 0.0 1023.0 Q2.0460000000000003 1025.046, 0.0 1023.0 Q1025.046 1020.954, 1023.0 1023.0 Q1025.046 1020.954, 1023.0 0.0" style="fill:rgb(254, 254, 254)"/><path d="M403.0 235.0 Q402.02 236.996, 402.0 237.0 S401.98 237.004, 393.0 237.0 S390.98 240.006, 383.0 240.0 S380.96 243.016, 363.0 248.0 S360.946 251.032, 336.0 264.0 S300.896 296.114, 284.0 321.0 S278.964 325.052, 266.0 347.0 S265.964 351.082, 248.0 388.0 S236.97 427.158, 233.0 467.0 S230.996 470.13, 231.0 532.0 S240.054 587.214, 258.0 639.0 S282.096 681.144, 306.0 711.0 S344.102 743.074, 357.0 748.0 S364.034 754.016, 374.0 756.0 S376.016 759.006, 382.0 759.0 S384.038 762.01, 401.0 764.0 S403.112 767.006, 457.0 767.0 S459.042 763.99, 478.0 762.0 S480.016 758.994, 486.0 759.0 S488.024 755.99, 498.0 754.0 S505.03 747.984, 513.0 746.0 S523.026 737.984, 526.0 738.0 S527.038 734.968, 545.0 722.0 S561.036 705.958, 563.0 701.0 S572.066 691.908, 596.0 655.0 S596.036 650.918, 614.0 614.0 S625.034 574.836, 631.0 532.0 S630.988 468.79, 625.0 427.0 S613.942 386.848, 596.0 351.0 S594.968 344.938, 580.0 320.0 S576.984 318.978, 572.0 309.0 S568.978 307.974, 561.0 296.0 S525.88 263.91, 501.0 251.0 S498.962 247.984, 482.0 243.0 S479.98 239.994, 472.0 240.0 Q469.976 236.994, 470.0 237.0 Q459.978 236.996, 460.0 237.0 Q459.978 236.996, 459.0 235.0" style="fill:rgb(0, 254, 254)"/><path d="M723.0 467.0 Q717.012 476.962, 717.0 477.0 S716.988 477.038, 717.0 486.0 S714.996 488.886, 715.0 929.0 S717.016 940.044, 723.0 951.0 S728.014 951.006, 730.0 954.0 S820.184 953.994, 822.0 951.0 Q833.012 940.052, 833.0 941.0 Q832.988 476.052, 833.0 477.0 Q832.988 476.052, 827.0 467.0" style="fill:rgb(0, 0, 255)"/><path d="M757.0 91.0 Q756.574 270.64, 757.0 271.0 Q757.426 271.36, 757.0 271.0 Q970.426 270.64, 970.0 271.0 Q970.426 270.64, 970.0 91.0" style="fill:rgb(254, 4, 127)"/><path d="M273.0 670.0 Q215.058 816.738, 215.0 817.0 S214.942 817.262, 244.0 801.0 S248.016 795.99, 252.0 796.0 S253.01 792.994, 257.0 793.0 S261.076 787.952, 295.0 769.0 S299.024 763.984, 307.0 761.0 S321.042 749.974, 328.0 748.0 L339.0 740.0 L305.0 712.0 S304.918 711.924, 298.0 702.0 Q291.988 693.984, 292.0 694.0 Q288.964 692.952, 289.0 693.0 Q288.964 692.952, 274.0 670.0" style="fill:rgb(254, 1, 1)"/><path d="M412.0 83.0 Q380.058 240.69, 380.0 241.0 S379.942 241.31, 383.0 238.0 S401.04 235.99, 403.0 233.0 S441.058 232.904, 432.0 185.0 S429.994 182.962, 429.0 166.0 Q420.984 125.918, 421.0 126.0 Q416.984 114.916, 417.0 115.0 Q416.984 114.916, 413.0 84.0" style="fill:rgb(254, 1, 1)"/><path d="M179.0 273.0 Q258.828 355.846, 259.0 356.0 S259.172 356.154, 265.0 350.0 S266.028 343.944, 279.0 322.0 S282.018 320.976, 288.0 310.0 S300.004 296.974, 290.0 297.0 S287.974 293.994, 277.0 294.0 S274.974 290.994, 264.0 291.0 S262.976 288.996, 252.0 289.0 S249.978 285.994, 241.0 286.0 S238.948 282.99, 215.0 281.0 S213.974 277.994, 202.0 278.0 Q200.978 274.994, 201.0 275.0 Q190.978 274.996, 191.0 275.0 Q190.978 274.996, 190.0 273.0" style="fill:rgb(254, 1, 1)"/><path d="M674.0 283.0 Q673.026 285.994, 673.0 286.0 S672.974 286.006, 661.0 286.0 S658.954 289.01, 638.0 291.0 S635.976 294.006, 626.0 294.0 S623.974 297.006, 613.0 297.0 S611.98 299.004, 603.0 299.0 S600.976 302.006, 591.0 302.0 L571.0 307.0 L578.0 318.0 S578.02 318.024, 581.0 319.0 Q598.046 347.09, 598.0 347.0 Q604.17 363.872, 604.0 364.0 Q604.17 363.872, 683.0 283.0" style="fill:rgb(254, 1, 1)"/><path d="M604.0 638.0 Q604.028 641.94, 604.0 642.0 S603.972 642.06, 590.0 668.0 S562.996 705.074, 588.0 705.0 S590.07 708.006, 623.0 708.0 Q625.07 710.004, 625.0 710.0 Q657.96 709.856, 658.0 710.0 Q657.96 709.856, 605.0 638.0" style="fill:rgb(254, 1, 1)"/></svg>