<svg width="1024" height="1024" fill="white" xmlns="http://www.w3.org/2000/svg"><path d="M0.0 0.0 Q-2.0460000000000003 1020.954, 0.0 1023.0 Q2.0460000000000003 1025.046, 0.0 1023.0 Q1025.046 1020.954, 1023.0 1023.0 Q1025.046 1020.954, 1023.0 0.0" style="fill:rgb(160, 160, 161)"/><path d="M492.0 154.0 Q451.14 161.96, 451.0 162.0 S450.86 162.04, 422.0 174.0 S387.888 199.098, 366.0 223.0 S343.928 260.152, 330.0 299.0 S323.992 340.136, 326.0 367.0 S334.048 401.136, 350.0 435.0 S370.092 461.096, 396.0 483.0 S423.142 499.064, 467.0 515.0 S502.122 521.012, 528.0 521.0 S555.144 525.04, 600.0 541.0 S641.116 569.09, 658.0 586.0 S678.068 615.126, 692.0 649.0 S700.012 691.154, 698.0 726.0 S689.96 754.11, 678.0 781.0 S653.898 814.114, 627.0 838.0 S594.942 855.034, 598.0 855.0 S636.138 844.956, 667.0 833.0 S713.156 808.906, 745.0 786.0 S769.116 764.882, 803.0 727.0 S837.1 672.82, 853.0 637.0 S861.04 611.814, 873.0 544.0 S872.98 475.746, 863.0 417.0 S840.924 356.82, 825.0 327.0 S804.876 297.848, 763.0 251.0 S740.904 231.926, 715.0 214.0 Q608.828 165.948, 609.0 166.0 Q572.862 157.976, 573.0 158.0 Q572.862 157.976, 540.0 154.0" style="fill:rgb(16, 17, 18)"/><path d="M483.0 150.0 Q451.138 153.976, 451.0 154.0 S450.862 154.024, 414.0 162.0 S358.83 182.072, 329.0 198.0 S298.874 218.092, 266.0 244.0 S241.912 268.096, 222.0 292.0 S197.916 328.14, 180.0 362.0 S169.956 387.13, 158.0 427.0 S149.98 469.222, 148.0 538.0 S152.028 572.156, 162.0 616.0 S182.064 669.152, 194.0 692.0 S214.136 722.162, 262.0 773.0 S314.22 811.136, 372.0 841.0 S408.146 853.04, 445.0 861.0 S470.138 865.012, 514.0 867.0 S570.174 860.966, 601.0 850.0 S636.12 827.904, 661.0 802.0 S683.062 764.876, 692.0 740.0 S696.008 720.876, 696.0 678.0 S685.944 638.85, 668.0 603.0 S652.934 583.928, 635.0 567.0 S601.872 544.93, 571.0 532.0 S551.852 526.982, 497.0 523.0 S453.83 513.946, 412.0 496.0 S382.906 475.926, 365.0 459.0 S352.942 443.908, 336.0 413.0 S323.972 370.836, 322.0 331.0 S332.052 282.83, 348.0 246.0 S367.096 217.886, 396.0 189.0 S414.078 175.952, 435.0 165.0 Q499.176 150.992, 499.0 151.0 Q552.072 151.998, 552.0 152.0 Q552.072 151.998, 535.0 150.0" style="fill:rgb(246, 246, 246)"/><path d="M614.0 170.0 Q642.91 190.928, 643.0 191.0 S643.09 191.072, 659.0 206.0 S686.078 246.144, 698.0 278.0 S704.016 305.08, 706.0 318.0 S705.984 358.158, 698.0 397.0 S685.94 423.108, 668.0 451.0 S642.896 478.094, 616.0 498.0 S594.886 508.044, 559.0 520.0 S542.016 522.012, 567.0 526.0 S594.142 536.076, 638.0 564.0 S661.074 587.084, 675.0 606.0 S685.044 625.106, 697.0 659.0 S701.008 680.122, 701.0 720.0 S696.972 739.094, 687.0 767.0 S676.944 786.088, 659.0 811.0 L610.0 850.0 L664.0 832.0 S664.208 831.912, 714.0 806.0 S754.156 775.864, 792.0 738.0 S822.12 695.792, 852.0 634.0 S866.04 580.79, 872.0 529.0 S869.972 465.756, 858.0 407.0 S833.896 346.792, 806.0 303.0 S777.904 268.892, 758.0 249.0 Q664.796 188.896, 665.0 189.0 Q625.9 172.964, 626.0 173.0 Q625.9 172.964, 615.0 171.0" style="fill:rgb(1, 2, 3)"/><path d="M507.0 258.0 Q489.056 261.982, 489.0 262.0 S488.944 262.018, 479.0 267.0 S459.948 283.052, 453.0 293.0 S445.982 310.086, 444.0 336.0 S452.05 363.094, 469.0 383.0 S482.05 391.024, 494.0 395.0 S523.106 396.988, 547.0 389.0 S565.064 374.926, 579.0 352.0 S582.996 327.9, 577.0 302.0 Q554.952 273.96, 555.0 274.0 Q542.922 265.968, 543.0 266.0 Q542.922 265.968, 516.0 258.0" style="fill:rgb(160, 160, 161)"/><path d="M504.0 260.0 Q479.072 268.966, 479.0 269.0 S478.928 269.034, 468.0 277.0 S455.958 291.07, 447.0 312.0 S446.014 339.102, 454.0 363.0 S468.07 380.058, 489.0 392.0 S517.1 395.998, 539.0 391.0 S555.056 381.958, 567.0 370.0 S574.028 358.93, 581.0 335.0 S579.992 316.944, 577.0 307.0 Q544.938 268.958, 545.0 269.0 Q531.946 262.982, 532.0 263.0 Q531.946 262.982, 518.0 260.0" style="fill:rgb(246, 246, 246)"/><path d="M501.0 638.0 Q478.088 645.946, 478.0 646.0 S477.912 646.054, 457.0 665.0 S447.978 684.062, 446.0 696.0 S447.016 712.074, 454.0 733.0 S471.086 753.066, 497.0 766.0 S517.096 767.986, 545.0 759.0 S561.056 745.934, 573.0 726.0 S577.002 706.914, 574.0 683.0 Q561.946 660.93, 562.0 661.0 Q546.916 647.954, 547.0 648.0 Q546.916 647.954, 520.0 638.0" style="fill:rgb(160, 160, 161)"/><path d="M506.0 639.0 Q491.056 641.982, 491.0 642.0 S490.944 642.018, 478.0 648.0 S461.944 661.068, 450.0 682.0 S448.014 709.106, 457.0 735.0 S471.06 751.052, 487.0 761.0 S499.064 765.01, 519.0 766.0 S545.088 756.95, 563.0 741.0 S573.024 720.906, 575.0 694.0 Q554.938 655.946, 555.0 656.0 Q535.92 643.966, 536.0 644.0 Q535.92 643.966, 515.0 639.0" style="fill:rgb(16, 17, 18)"/><path d="M501.0 641.0 Q487.056 644.976, 487.0 645.0 S486.944 645.024, 473.0 653.0 S454.952 674.082, 449.0 694.0 S451.024 716.088, 461.0 738.0 S475.066 752.048, 494.0 762.0 S522.106 763.984, 547.0 754.0 S560.046 741.942, 570.0 725.0 S574.008 707.944, 574.0 697.0 Q559.944 663.936, 560.0 664.0 Q541.922 648.954, 542.0 649.0 Q541.922 648.954, 521.0 641.0" style="fill:rgb(1, 2, 3)"/></svg>