<svg width="1024" height="1024" fill="white" xmlns="http://www.w3.org/2000/svg"><path d="M0.0 0.0 Q-2.0460000000000003 1020.954, 0.0 1023.0 Q2.0460000000000003 1025.046, 0.0 1023.0 Q1025.046 1020.954, 1023.0 1023.0 Q1025.046 1020.954, 1023.0 0.0" style="fill:rgb(240, 244, 252)"/><path d="M483.0 80.0 Q416.216 88.96, 416.0 89.0 S415.784 89.04, 375.0 100.0 S332.83 116.076, 290.0 138.0 S255.876 160.088, 228.0 182.0 S199.898 209.106, 177.0 235.0 S145.89 278.174, 122.0 322.0 S107.944 355.15, 94.0 397.0 S87.976 423.146, 82.0 470.0 S81.008 514.196, 86.0 568.0 S94.044 609.174, 108.0 655.0 S120.054 685.12, 135.0 715.0 S153.098 744.14, 184.0 785.0 S211.12 813.112, 244.0 841.0 S278.17 865.104, 329.0 893.0 S354.136 903.048, 397.0 917.0 S439.186 926.028, 490.0 931.0 S530.172 930.992, 576.0 927.0 S609.176 920.956, 664.0 905.0 S699.148 890.932, 738.0 871.0 S769.138 850.898, 807.0 820.0 S831.092 795.9, 853.0 770.0 S878.086 734.868, 896.0 704.0 S914.06 663.848, 926.0 628.0 S934.03 592.834, 941.0 545.0 S943.0 509.824, 941.0 457.0 S936.968 421.83, 925.0 372.0 S912.944 337.866, 897.0 305.0 S879.87 276.822, 832.0 216.0 S802.872 187.888, 768.0 160.0 S737.856 139.916, 696.0 118.0 Q612.84 89.96, 613.0 90.0 Q581.85 83.98, 582.0 84.0 Q581.85 83.98, 538.0 80.0" style="fill:rgb(246, 183, 116)"/><path d="M500.0 82.0 Q455.164 84.982, 455.0 85.0 S454.836 85.018, 418.0 91.0 S379.846 101.048, 341.0 115.0 S310.874 129.066, 278.0 148.0 L210.0 202.0 L217.0 195.0 S217.03 194.984, 225.0 194.0 S228.002 198.014, 226.0 201.0 L226.0 204.0 L239.0 206.0 S239.038 206.016, 245.0 212.0 S244.006 214.008, 248.0 216.0 S252.006 223.018, 251.0 225.0 S254.01 226.018, 256.0 234.0 S233.9 266.168, 206.0 318.0 S189.94 357.178, 176.0 407.0 S169.986 450.226, 169.0 520.0 L177.0 601.0 L204.0 575.0 S204.096 574.916, 225.0 559.0 S233.054 538.918, 252.0 518.0 S273.082 504.962, 293.0 499.0 S307.06 499.008, 323.0 503.0 S347.084 518.046, 365.0 526.0 S419.198 544.052, 464.0 552.0 S520.234 553.99, 581.0 547.0 S626.17 535.948, 666.0 521.0 S705.076 498.922, 704.0 482.0 S707.022 470.95, 715.0 457.0 L718.0 453.0 L718.0 448.0 S717.988 447.982, 712.0 444.0 S705.986 444.004, 705.0 446.0 S698.982 441.996, 696.0 444.0 S683.948 437.992, 670.0 440.0 S667.97 437.996, 655.0 438.0 S646.972 433.992, 641.0 434.0 S627.958 425.984, 620.0 426.0 L615.0 426.0 L611.0 430.0 S610.978 430.01, 604.0 431.0 S594.984 423.99, 596.0 426.0 S593.982 426.992, 587.0 422.0 S571.962 420.0, 568.0 422.0 S564.972 419.998, 554.0 421.0 S551.954 417.99, 531.0 416.0 S523.972 407.984, 517.0 408.0 S512.984 401.988, 509.0 402.0 S506.98 398.996, 499.0 400.0 S496.992 395.996, 495.0 398.0 S486.974 393.996, 482.0 396.0 S480.988 389.996, 476.0 394.0 S469.992 385.99, 472.0 389.0 S466.986 389.994, 465.0 386.0 S461.988 385.992, 459.0 382.0 L451.0 378.0 L452.0 383.0 S451.998 383.008, 450.0 382.0 S448.99 383.992, 445.0 378.0 S439.984 377.992, 437.0 374.0 S431.982 376.0, 428.0 374.0 S428.996 367.992, 426.0 370.0 L418.0 368.0 L417.0 364.0 S416.984 363.992, 410.0 364.0 L400.0 360.0 L399.0 356.0 S398.976 355.976, 388.0 348.0 S381.942 348.954, 359.0 325.0 S358.984 317.954, 351.0 302.0 S350.992 281.954, 347.0 279.0 S347.008 275.996, 351.0 277.0 S350.992 273.992, 347.0 273.0 S343.982 241.932, 338.0 239.0 S335.968 227.972, 322.0 225.0 S319.998 216.966, 321.0 208.0 L314.0 200.0 L313.0 202.0 S312.994 202.002, 311.0 201.0 S306.02 190.954, 321.0 178.0 S347.126 161.934, 384.0 145.0 S432.174 128.952, 471.0 121.0 S542.216 119.004, 579.0 123.0 S636.122 136.024, 640.0 135.0 S639.004 126.978, 642.0 124.0 S641.002 105.962, 643.0 105.0 Q638.88 100.964, 639.0 101.0 Q582.766 86.962, 583.0 87.0 Q582.766 86.962, 522.0 82.0" style="fill:rgb(251, 151, 17)"/><path d="M96.0 431.0 Q93.014 437.988, 93.0 438.0 S92.986 438.012, 89.0 437.0 S88.992 449.054, 85.0 464.0 S85.012 539.238, 91.0 583.0 S99.064 619.206, 123.0 686.0 S153.148 740.22, 197.0 796.0 S222.114 820.1, 254.0 846.0 S306.166 879.096, 337.0 894.0 S375.196 908.058, 435.0 923.0 S477.244 928.008, 557.0 927.0 S612.184 917.962, 649.0 908.0 S682.198 895.908, 748.0 862.0 L794.0 826.0 L788.0 829.0 S787.946 828.976, 767.0 814.0 S762.986 813.992, 760.0 810.0 S751.98 809.996, 750.0 808.0 S747.98 809.994, 740.0 805.0 S707.858 822.066, 669.0 838.0 S628.874 850.03, 606.0 853.0 S599.968 851.978, 590.0 842.0 S584.978 841.988, 579.0 836.0 S574.964 837.988, 561.0 830.0 S553.97 829.988, 546.0 824.0 S544.986 826.004, 539.0 826.0 S533.984 821.996, 531.0 824.0 S523.984 819.996, 523.0 822.0 S512.946 821.988, 496.0 816.0 S494.992 818.0, 492.0 816.0 S488.972 817.996, 478.0 814.0 S467.978 813.996, 467.0 812.0 S455.976 811.996, 455.0 810.0 S440.954 809.992, 432.0 806.0 S421.962 805.988, 413.0 800.0 S405.972 801.996, 399.0 798.0 S396.98 800.0, 389.0 798.0 S384.994 791.994, 386.0 795.0 S381.974 795.988, 373.0 789.0 S367.98 789.99, 363.0 784.0 S357.976 784.988, 351.0 778.0 S347.988 779.996, 345.0 776.0 S339.988 776.996, 339.0 774.0 S330.974 771.988, 326.0 768.0 S322.992 768.996, 322.0 766.0 S314.978 763.988, 311.0 760.0 S307.98 760.988, 301.0 754.0 S296.984 753.988, 293.0 748.0 S289.99 748.998, 288.0 747.0 S288.994 743.988, 285.0 741.0 S284.964 737.968, 267.0 725.0 S265.984 719.982, 259.0 716.0 S252.988 708.98, 253.0 706.0 S248.966 704.96, 236.0 686.0 S232.99 686.992, 231.0 682.0 S226.992 680.992, 227.0 678.0 S217.96 675.972, 207.0 664.0 S200.966 661.974, 190.0 651.0 S171.952 593.788, 166.0 545.0 S166.0 517.956, 166.0 523.0 S162.994 521.958, 163.0 502.0 S160.988 497.99, 157.0 497.0 S154.988 489.98, 151.0 487.0 S152.992 481.992, 147.0 483.0 S144.988 467.966, 141.0 466.0 S142.998 462.996, 140.0 464.0 S132.982 460.972, 131.0 450.0 S127.99 448.0, 126.0 450.0 S120.986 445.996, 119.0 448.0 S116.988 441.984, 113.0 440.0 S113.994 438.0, 110.0 440.0 Q104.994 433.998, 105.0 434.0 Q101.984 435.994, 102.0 436.0 Q101.984 435.994, 97.0 431.0" style="fill:rgb(186, 63, 24)"/><path d="M497.0 81.0 Q435.04 86.998, 435.0 87.0 S434.96 87.002, 477.0 82.0 S522.184 81.004, 569.0 84.0 S613.13 92.028, 634.0 98.0 L643.0 106.0 L641.0 104.0 S640.996 104.004, 641.0 108.0 S643.004 108.032, 643.0 124.0 S639.996 127.022, 641.0 135.0 S635.888 136.98, 585.0 125.0 S541.772 119.994, 471.0 122.0 S431.826 130.048, 384.0 146.0 S346.858 163.078, 313.0 185.0 S307.006 191.044, 316.0 207.0 S322.01 208.02, 321.0 217.0 S323.016 225.02, 329.0 227.0 S333.014 225.0, 336.0 227.0 S339.018 239.03, 345.0 242.0 S348.014 273.064, 352.0 274.0 L348.0 276.0 L348.0 279.0 S348.008 279.012, 352.0 282.0 S352.016 302.072, 360.0 318.0 S360.044 325.06, 382.0 348.0 S388.036 347.016, 400.0 356.0 S400.004 359.002, 402.0 357.0 S410.03 363.012, 417.0 363.0 S418.01 367.004, 422.0 365.0 L422.0 369.0 L429.0 367.0 S429.016 367.004, 430.0 371.0 S428.006 373.008, 433.0 375.0 S437.014 373.004, 440.0 377.0 S445.018 377.012, 449.0 383.0 S453.026 379.002, 462.0 384.0 S460.006 387.002, 465.0 385.0 S467.012 389.008, 471.0 389.0 S473.01 387.008, 476.0 393.0 S481.012 389.004, 482.0 395.0 S487.026 393.004, 495.0 397.0 S497.008 395.004, 499.0 399.0 S507.02 398.004, 509.0 401.0 S513.016 401.012, 517.0 407.0 S524.028 407.016, 531.0 415.0 S552.046 417.01, 554.0 420.0 S565.028 419.002, 568.0 421.0 S572.038 419.0, 587.0 421.0 S599.01 429.0, 592.0 421.0 S592.014 404.936, 599.0 389.0 L650.0 345.0 L629.0 355.0 S628.952 355.008, 626.0 349.0 S622.952 349.984, 602.0 341.0 S599.982 341.988, 593.0 335.0 S576.932 329.962, 559.0 316.0 S554.974 317.984, 546.0 308.0 S539.986 307.994, 539.0 305.0 S526.968 301.978, 523.0 294.0 S511.968 288.964, 507.0 276.0 S498.98 274.984, 497.0 268.0 S498.994 265.996, 494.0 266.0 L495.0 263.0 L492.0 264.0 S491.984 263.99, 487.0 258.0 S483.984 257.972, 479.0 244.0 S475.98 243.986, 469.0 237.0 S468.992 229.984, 465.0 229.0 S464.992 217.968, 461.0 213.0 S463.0 199.966, 461.0 196.0 S458.0 196.988, 461.0 190.0 S461.004 174.966, 463.0 173.0 S461.0 169.992, 463.0 169.0 L461.0 162.0 L465.0 161.0 S465.008 160.976, 465.0 150.0 S469.012 148.988, 471.0 144.0 S471.008 135.974, 475.0 131.0 S475.054 123.98, 502.0 121.0 S544.154 121.008, 579.0 125.0 S624.188 135.056, 673.0 153.0 S707.156 171.098, 751.0 202.0 S818.19 268.2, 846.0 302.0 S874.096 346.182, 894.0 393.0 S889.948 397.004, 868.0 395.0 S838.896 380.962, 816.0 376.0 S809.948 378.004, 790.0 378.0 L785.0 383.0 L765.0 362.0 S764.99 361.986, 780.0 376.0 S786.012 386.036, 786.0 394.0 S778.97 401.014, 771.0 401.0 S745.912 387.962, 727.0 382.0 S713.926 379.998, 690.0 381.0 S670.92 386.03, 650.0 396.0 L613.0 429.0 L620.0 425.0 S620.03 424.992, 628.0 425.0 S641.038 433.016, 647.0 433.0 S655.042 437.008, 668.0 437.0 S670.014 439.0, 675.0 437.0 S679.018 439.0, 684.0 437.0 S696.03 443.008, 699.0 441.0 S705.014 445.004, 706.0 443.0 S712.026 443.01, 719.0 448.0 S718.012 451.998, 725.0 447.0 S735.05 444.0, 750.0 447.0 S760.056 435.956, 778.0 425.0 S796.068 419.99, 812.0 420.0 S830.07 425.03, 847.0 435.0 L868.0 472.0 L871.0 467.0 S871.026 466.99, 881.0 467.0 S883.044 469.004, 903.0 469.0 S910.012 472.944, 909.0 441.0 S898.938 401.818, 878.0 350.0 S859.97 319.934, 863.0 317.0 S871.038 329.028, 882.0 331.0 S885.01 328.982, 887.0 322.0 S891.012 320.99, 893.0 317.0 L894.0 323.0 L897.0 323.0 S897.006 322.994, 897.0 320.0 S900.012 318.004, 903.0 322.0 S919.06 360.176, 933.0 410.0 S938.004 448.02, 935.0 420.0 S925.954 380.84, 912.0 340.0 S898.92 311.856, 872.0 268.0 S847.906 236.886, 825.0 211.0 S797.888 185.904, 769.0 163.0 Q667.722 107.894, 668.0 108.0 Q596.714 87.946, 597.0 88.0 Q596.714 87.946, 525.0 81.0" style="fill:rgb(251, 165, 59)"/><path d="M502.0 122.0 Q475.052 124.982, 475.0 125.0 S474.948 125.018, 476.0 131.0 S471.992 136.026, 472.0 144.0 S468.988 150.012, 466.0 150.0 S465.992 161.024, 462.0 162.0 S464.0 169.018, 462.0 171.0 S464.0 173.008, 462.0 175.0 L459.0 197.0 L461.0 195.0 S461.01 195.006, 464.0 200.0 S462.004 213.036, 466.0 218.0 S466.008 229.024, 470.0 230.0 S470.02 237.028, 480.0 244.0 S484.014 257.026, 487.0 257.0 S494.026 265.018, 500.0 266.0 S498.0 269.008, 500.0 270.0 S500.014 275.01, 507.0 275.0 S513.032 289.036, 523.0 293.0 S527.032 301.022, 539.0 304.0 S540.014 307.006, 546.0 307.0 S555.026 317.016, 559.0 315.0 S577.068 329.038, 593.0 334.0 S600.018 341.012, 602.0 340.0 S623.048 349.016, 626.0 348.0 S629.06 353.986, 656.0 341.0 S673.058 335.986, 685.0 334.0 S709.088 335.012, 729.0 340.0 S751.08 351.048, 769.0 364.0 S785.034 382.028, 786.0 378.0 S790.048 376.998, 810.0 377.0 S816.058 375.006, 839.0 380.0 S868.108 394.03, 893.0 395.0 S872.904 345.814, 845.0 302.0 S816.812 267.802, 751.0 203.0 S706.806 171.886, 654.0 146.0 Q623.872 135.964, 624.0 136.0 Q589.84 127.972, 590.0 128.0 Q589.84 127.972, 544.0 122.0" style="fill:rgb(246, 183, 116)"/><path d="M896.0 317.0 Q895.008 319.998, 895.0 320.0 S894.992 320.002, 892.0 318.0 S890.992 322.008, 888.0 322.0 S885.988 329.02, 882.0 332.0 S873.966 331.984, 865.0 324.0 S862.992 317.992, 861.0 320.0 S879.074 350.152, 898.0 396.0 S910.028 441.152, 912.0 472.0 S906.982 473.996, 903.0 470.0 S868.934 468.044, 870.0 492.0 S863.974 513.066, 857.0 525.0 S846.962 535.03, 838.0 540.0 S844.008 549.042, 842.0 561.0 S829.91 570.018, 797.0 570.0 S789.96 594.102, 777.0 621.0 S749.892 662.14, 723.0 691.0 S682.852 720.094, 649.0 738.0 S602.804 754.048, 551.0 762.0 S509.852 761.992, 477.0 758.0 S446.888 750.968, 421.0 742.0 S395.892 728.932, 367.0 708.0 S340.894 681.872, 314.0 644.0 S292.928 656.026, 278.0 657.0 S258.956 653.002, 256.0 658.0 S255.008 668.048, 260.0 682.0 S271.062 695.058, 291.0 711.0 S337.218 741.116, 400.0 769.0 S441.172 781.04, 486.0 789.0 S529.22 790.988, 596.0 783.0 S653.154 767.988, 673.0 777.0 S691.078 797.07, 712.0 812.0 S710.052 814.98, 738.0 802.0 S794.19 764.854, 833.0 729.0 S871.134 681.812, 900.0 635.0 S905.014 635.012, 907.0 641.0 L916.0 642.0 L916.0 637.0 S916.006 636.994, 919.0 639.0 S919.002 643.002, 920.0 640.0 S930.036 600.826, 938.0 553.0 S939.994 475.746, 935.0 426.0 S925.95 384.826, 910.0 339.0 Q899.99 318.994, 900.0 319.0 Q896.996 318.996, 897.0 319.0 Q896.996 318.996, 898.0 317.0" style="fill:rgb(251, 151, 17)"/><path d="M222.0 194.0 Q209.066 202.94, 209.0 203.0 S208.934 203.06, 189.0 224.0 S151.87 272.196, 124.0 322.0 S107.936 360.182, 92.0 413.0 S83.982 463.222, 83.0 524.0 S87.0 563.0, 83.0 524.0 S84.01 463.85, 88.0 449.0 S88.006 436.972, 91.0 435.0 S93.006 436.992, 94.0 431.0 S97.01 433.0, 99.0 431.0 S102.012 435.004, 105.0 433.0 S106.024 437.016, 117.0 441.0 S119.008 447.008, 121.0 445.0 S128.022 451.01, 132.0 450.0 S134.014 461.022, 139.0 461.0 S139.004 465.004, 141.0 463.0 S146.014 468.04, 148.0 483.0 S156.02 490.028, 158.0 497.0 S161.012 497.01, 164.0 502.0 L166.0 517.0 L167.0 545.0 S167.014 545.154, 173.0 594.0 S191.056 651.134, 201.0 661.0 S207.034 663.028, 218.0 675.0 S227.03 677.022, 233.0 686.0 S236.034 685.038, 250.0 705.0 S253.02 705.022, 260.0 716.0 S267.016 720.018, 268.0 725.0 S279.036 731.026, 286.0 738.0 S286.008 741.012, 290.0 744.0 S289.006 747.006, 293.0 747.0 S297.016 753.012, 301.0 753.0 S308.02 760.012, 311.0 759.0 S315.022 763.012, 322.0 765.0 S323.008 768.004, 326.0 767.0 S331.026 771.012, 339.0 773.0 S340.012 776.004, 345.0 775.0 S351.016 781.008, 353.0 779.0 S357.01 781.01, 358.0 784.0 S363.02 783.01, 368.0 789.0 S373.028 788.012, 382.0 795.0 S387.014 793.004, 389.0 797.0 S397.02 799.0, 399.0 797.0 S406.028 801.004, 413.0 799.0 S422.038 805.012, 432.0 805.0 S441.07 809.012, 467.0 811.0 S468.022 813.004, 478.0 813.0 S489.03 817.004, 493.0 815.0 S495.006 817.0, 496.0 815.0 S513.054 821.012, 523.0 821.0 S524.016 819.004, 531.0 823.0 S534.016 821.004, 539.0 825.0 S545.014 824.996, 546.0 823.0 S554.03 829.012, 561.0 829.0 S575.036 837.012, 579.0 835.0 S585.022 841.012, 590.0 841.0 S591.004 845.004, 592.0 843.0 S600.028 851.018, 606.0 852.0 S629.126 848.97, 669.0 837.0 S708.142 820.934, 740.0 804.0 S748.022 809.006, 751.0 807.0 S752.018 809.004, 760.0 809.0 S763.014 813.008, 767.0 813.0 S777.042 819.03, 788.0 828.0 L795.0 826.0 L774.0 845.0 L727.0 875.0 L769.0 849.0 S769.166 848.88, 810.0 815.0 S841.13 781.842, 875.0 736.0 S894.066 702.874, 908.0 673.0 S918.018 643.93, 917.0 638.0 L908.0 636.0 L910.0 641.0 S909.998 641.012, 907.0 642.0 S904.986 635.988, 900.0 636.0 S899.99 639.014, 895.0 643.0 S871.906 682.14, 848.0 713.0 S798.804 762.166, 750.0 796.0 S718.922 813.038, 711.0 815.0 S708.96 809.966, 691.0 798.0 S672.924 777.942, 653.0 769.0 S595.81 784.042, 558.0 790.0 S514.826 791.996, 471.0 788.0 S425.822 777.95, 382.0 763.0 S336.84 741.914, 302.0 720.0 S270.914 695.924, 259.0 682.0 S254.99 672.962, 254.0 663.0 S259.048 651.986, 278.0 656.0 S293.072 654.974, 314.0 643.0 L377.0 715.0 L343.0 683.0 S342.9 682.896, 327.0 663.0 S314.962 642.96, 308.0 643.0 S305.982 647.01, 299.0 648.0 L290.0 650.0 L292.0 653.0 S291.99 653.006, 285.0 653.0 S275.982 643.99, 276.0 648.0 S271.99 647.996, 271.0 646.0 L281.0 638.0 L277.0 635.0 L286.0 629.0 L272.0 627.0 S271.936 626.98, 254.0 619.0 S238.95 604.94, 229.0 589.0 S225.01 564.902, 234.0 540.0 L274.0 506.0 L252.0 519.0 S251.92 519.066, 234.0 539.0 S225.94 559.074, 204.0 576.0 S178.944 602.05, 176.0 601.0 S170.984 567.838, 168.0 520.0 S169.014 449.774, 175.0 407.0 S189.06 356.822, 205.0 318.0 S233.1 265.832, 255.0 234.0 S246.976 215.96, 243.0 214.0 S243.992 211.986, 239.0 207.0 S226.972 205.994, 225.0 204.0 Q224.996 200.992, 225.0 201.0 Q226.996 197.986, 227.0 198.0 Q226.996 197.986, 223.0 194.0" style="fill:rgb(211, 97, 25)"/><path d="M736.0 484.0 Q694.186 510.9, 694.0 511.0 S693.814 511.1, 643.0 534.0 S601.814 546.042, 550.0 555.0 S480.804 556.998, 452.0 554.0 L350.0 524.0 L359.0 548.0 S359.018 548.082, 359.0 565.0 S355.976 578.058, 347.0 594.0 S334.946 607.048, 320.0 618.0 S309.976 622.016, 308.0 626.0 S322.064 651.1, 340.0 676.0 S366.1 703.09, 390.0 721.0 S394.03 719.958, 405.0 700.0 S421.102 677.89, 456.0 645.0 S479.108 630.944, 510.0 617.0 S551.158 607.982, 589.0 608.0 S616.124 615.058, 651.0 637.0 S670.054 655.058, 678.0 666.0 S702.092 666.04, 724.0 686.0 S749.096 657.874, 772.0 623.0 S787.054 591.854, 799.0 550.0 S797.966 546.984, 782.0 542.0 Q750.944 516.934, 751.0 517.0 Q741.974 501.934, 742.0 502.0 Q741.974 501.934, 738.0 484.0" style="fill:rgb(10, 5, 4)"/><path d="M596.0 613.0 Q515.234 673.806, 515.0 674.0 S514.766 674.194, 479.0 710.0 S468.912 716.036, 435.0 728.0 S424.976 735.022, 423.0 739.0 S455.158 751.04, 502.0 759.0 S544.148 759.996, 576.0 757.0 S619.156 746.952, 654.0 733.0 S687.132 714.914, 720.0 690.0 S719.986 686.976, 713.0 678.0 S702.97 669.98, 698.0 668.0 Q658.92 647.922, 659.0 648.0 Q636.884 629.93, 637.0 630.0 Q636.884 629.93, 601.0 613.0" style="fill:rgb(234, 10, 65)"/><path d="M348.0 522.0 Q357.988 552.888, 358.0 553.0 S358.012 553.112, 354.0 578.0 S345.956 592.058, 332.0 607.0 S320.95 615.028, 307.0 621.0 S306.042 625.082, 328.0 662.0 S358.126 697.122, 391.0 723.0 S418.062 737.028, 422.0 737.0 S442.11 722.946, 477.0 710.0 S517.236 670.804, 595.0 612.0 S611.072 615.026, 631.0 625.0 S657.092 645.086, 677.0 668.0 S701.068 668.014, 711.0 675.0 S723.054 687.996, 738.0 673.0 S761.074 642.894, 775.0 620.0 L791.0 582.0 L785.0 599.0 S784.946 599.112, 764.0 638.0 S741.92 668.098, 724.0 687.0 S701.908 666.96, 678.0 667.0 S668.946 654.942, 651.0 638.0 S615.876 615.942, 589.0 609.0 S550.842 609.018, 510.0 618.0 S478.892 632.056, 456.0 646.0 S421.9 678.108, 406.0 700.0 S394.968 720.044, 390.0 722.0 S365.898 703.908, 339.0 676.0 S320.936 650.9, 307.0 626.0 S310.044 620.97, 329.0 611.0 S341.052 599.934, 355.0 578.0 S358.006 564.94, 358.0 548.0 Q353.036 523.01, 353.0 523.0 Q366.996 528.998, 367.0 529.0 Q366.996 528.998, 351.0 522.0" style="fill:rgb(120, 20, 24)"/><path d="M651.0 184.0 Q638.038 187.976, 638.0 188.0 S637.962 188.024, 632.0 196.0 S634.03 208.05, 647.0 221.0 S728.31 265.152, 802.0 297.0 S819.07 308.056, 837.0 325.0 S854.018 322.964, 846.0 307.0 S827.926 283.91, 809.0 262.0 S790.89 245.92, 754.0 222.0 Q723.862 205.936, 724.0 206.0 Q684.872 189.956, 685.0 190.0 Q684.872 189.956, 660.0 184.0" style="fill:rgb(240, 244, 252)"/><path d="M796.0 421.0 Q770.084 429.956, 770.0 430.0 S769.916 430.044, 754.0 443.0 S743.978 465.086, 743.0 486.0 S745.006 485.008, 746.0 490.0 S751.022 493.004, 757.0 492.0 S762.028 497.01, 771.0 497.0 S773.014 501.008, 778.0 501.0 S784.028 505.008, 792.0 505.0 S796.024 509.012, 804.0 511.0 S832.074 513.012, 841.0 517.0 S841.012 521.004, 847.0 519.0 S851.028 522.98, 861.0 509.0 S867.012 491.93, 867.0 474.0 S862.976 458.942, 855.0 445.0 Q842.94 432.958, 843.0 433.0 Q824.938 423.976, 825.0 424.0 Q824.938 423.976, 812.0 421.0" style="fill:rgb(239, 33, 109)"/><path d="M683.0 338.0 Q664.076 341.976, 664.0 342.0 S663.924 342.024, 645.0 350.0 S615.914 372.08, 602.0 390.0 S595.986 403.054, 595.0 417.0 S601.032 426.018, 611.0 426.0 S633.084 403.93, 653.0 391.0 S668.074 383.974, 690.0 378.0 S721.102 378.01, 741.0 383.0 S774.082 399.024, 782.0 395.0 S782.998 385.974, 781.0 382.0 Q764.908 364.928, 765.0 365.0 Q734.884 345.946, 735.0 346.0 Q734.884 345.946, 707.0 338.0" style="fill:rgb(10, 5, 4)"/><path d="M332.0 375.0 Q300.132 383.938, 300.0 384.0 S299.868 384.062, 266.0 406.0 S251.96 421.05, 246.0 431.0 S244.0 449.046, 246.0 454.0 S252.02 459.01, 256.0 459.0 S293.124 431.924, 318.0 421.0 S337.094 415.988, 365.0 415.0 S389.098 421.036, 414.0 433.0 S420.02 432.994, 424.0 430.0 S426.002 425.974, 425.0 417.0 Q396.938 388.962, 397.0 389.0 Q380.922 380.972, 381.0 381.0 Q380.922 380.972, 358.0 375.0" style="fill:rgb(10, 5, 4)"/><path d="M295.0 501.0 Q275.076 505.968, 275.0 506.0 S274.924 506.032, 257.0 517.0 S249.992 535.062, 253.0 548.0 S258.02 547.016, 263.0 556.0 S275.05 565.018, 288.0 565.0 S305.058 571.012, 317.0 571.0 S316.04 575.018, 337.0 580.0 S340.012 585.004, 343.0 582.0 S346.018 585.992, 352.0 578.0 S356.004 560.928, 354.0 542.0 S346.978 524.952, 343.0 518.0 Q332.954 509.972, 333.0 510.0 Q319.946 503.982, 320.0 504.0 Q319.946 503.982, 306.0 501.0" style="fill:rgb(239, 33, 109)"/><path d="M256.0 518.0 Q239.048 537.92, 239.0 538.0 S238.952 538.08, 232.0 558.0 S236.018 582.07, 241.0 593.0 S255.062 611.06, 272.0 623.0 S296.062 624.0, 303.0 623.0 S319.062 614.962, 334.0 604.0 L351.0 581.0 L345.0 587.0 S344.984 587.004, 343.0 583.0 S339.988 585.996, 337.0 581.0 S315.96 575.982, 317.0 572.0 S304.942 571.988, 288.0 566.0 S274.948 565.98, 262.0 556.0 S257.982 547.986, 253.0 549.0 Q248.998 540.966, 249.0 541.0 Q250.014 528.956, 250.0 529.0 Q250.014 528.956, 256.0 519.0" style="fill:rgb(234, 10, 65)"/><path d="M742.0 470.0 Q741.98 490.914, 742.0 491.0 S742.02 491.086, 752.0 513.0 S774.098 534.064, 801.0 545.0 S824.096 542.97, 849.0 530.0 L867.0 494.0 L862.0 509.0 S861.966 509.06, 850.0 524.0 S846.982 519.996, 841.0 522.0 S840.982 517.984, 832.0 514.0 S803.928 511.992, 796.0 510.0 S791.976 505.992, 784.0 506.0 S777.978 501.992, 773.0 502.0 S770.978 497.992, 762.0 498.0 S756.978 492.992, 751.0 494.0 Q744.988 489.984, 745.0 490.0 Q744.994 485.992, 745.0 486.0 Q744.994 485.992, 742.0 486.0" style="fill:rgb(234, 10, 65)"/></svg>