<svg width="1024" height="1024" fill="white" xmlns="http://www.w3.org/2000/svg"><path d="M0.0 0.0 Q-2.0460000000000003 1020.954, 0.0 1023.0 Q2.0460000000000003 1025.046, 0.0 1023.0 Q1025.046 1020.954, 1023.0 1023.0 Q1025.046 1020.954, 1023.0 0.0" style="fill:rgb(254, 254, 254)"/><path d="M213.0 103.0 Q184.106 110.96, 184.0 111.0 S183.894 111.04, 160.0 123.0 S131.914 144.072, 117.0 159.0 S97.914 182.122, 74.0 220.0 S44.922 285.2, 35.0 320.0 S105.172 416.078, 121.0 359.0 S135.068 327.876, 155.0 297.0 S180.094 271.924, 202.0 259.0 S214.074 254.988, 239.0 253.0 S255.092 256.038, 285.0 272.0 S305.066 292.078, 318.0 311.0 S380.078 203.718, 357.0 170.0 Q324.864 136.888, 325.0 137.0 Q288.854 113.932, 289.0 114.0 Q288.854 113.932, 252.0 103.0" style="fill:rgb(234, 67, 54)"/><path d="M105.0 576.0 Q35.116 671.728, 35.0 672.0 S34.884 672.272, 47.0 712.0 S63.072 750.15, 83.0 787.0 S100.102 812.124, 134.0 849.0 S153.092 864.06, 180.0 879.0 S205.084 887.022, 222.0 890.0 S243.08 889.994, 262.0 887.0 S288.124 878.942, 324.0 858.0 S356.1 826.89, 374.0 803.0 S377.874 793.796, 311.0 701.0 S308.964 700.032, 293.0 717.0 S281.952 725.03, 269.0 732.0 S249.906 738.014, 222.0 739.0 S205.932 734.974, 188.0 726.0 Q136.918 667.85, 137.0 668.0 Q117.938 624.818, 118.0 625.0 Q117.938 624.818, 106.0 577.0" style="fill:rgb(52, 167, 83)"/><path d="M233.0 425.0 Q232.756 569.708, 233.0 570.0 S233.244 570.292, 355.0 571.0 S350.968 604.15, 339.0 646.0 S322.942 680.104, 310.0 698.0 S379.174 794.128, 397.0 762.0 S413.06 721.824, 427.0 674.0 S436.03 627.814, 442.0 581.0 Q445.006 530.794, 445.0 531.0 Q444.99 477.788, 445.0 478.0 Q444.99 477.788, 440.0 425.0" style="fill:rgb(66, 134, 244)"/><path d="M34.0 319.0 Q21.04 374.788, 21.0 375.0 S20.96 375.212, 14.0 425.0 S10.994 468.202, 11.0 526.0 L34.0 672.0 L105.0 575.0 S105.13 574.716, 99.0 530.0 Q98.012 477.774, 98.0 478.0 Q104.872 416.684, 105.0 417.0 Q104.872 416.684, 34.0 320.0" style="fill:rgb(249, 188, 6)"/><path d="M848.0 446.0 Q838.034 450.976, 838.0 451.0 S837.966 451.024, 831.0 458.0 S816.964 488.118, 813.0 517.0 S816.026 548.114, 826.0 574.0 S840.048 590.04, 850.0 594.0 L876.0 579.0 L875.0 608.0 S874.984 608.092, 868.0 625.0 S857.962 632.014, 849.0 632.0 S841.972 626.968, 835.0 616.0 S831.966 606.0, 818.0 616.0 S817.008 619.036, 822.0 634.0 S830.032 648.044, 838.0 656.0 S846.04 660.01, 858.0 661.0 S870.042 655.972, 879.0 647.0 S885.024 635.936, 891.0 615.0 S893.004 595.67, 893.0 450.0 Q874.98 462.0, 875.0 462.0 Q865.966 449.968, 866.0 450.0 Q865.966 449.968, 858.0 446.0" style="fill:rgb(130, 130, 129)"/><path d="M558.0 363.0 Q550.046 364.978, 550.0 365.0 S549.954 365.022, 535.0 374.0 S522.952 387.068, 511.0 408.0 S499.974 445.178, 498.0 497.0 S507.05 539.146, 523.0 570.0 S542.06 588.046, 553.0 593.0 S568.072 593.986, 589.0 586.0 S601.048 573.934, 613.0 553.0 S621.022 523.858, 624.0 482.0 S621.88 467.972, 564.0 468.0 S564.084 499.064, 606.0 500.0 S604.988 514.066, 600.0 533.0 S584.938 555.06, 569.0 563.0 S558.958 562.992, 548.0 559.0 S531.944 542.912, 520.0 515.0 S515.996 491.872, 518.0 451.0 S529.056 418.896, 546.0 399.0 S557.046 393.99, 569.0 394.0 S577.04 397.026, 589.0 407.0 S595.036 415.978, 607.0 396.0 Q588.948 371.956, 589.0 372.0 Q576.958 364.982, 577.0 365.0 Q576.958 364.982, 568.0 363.0" style="fill:rgb(130, 130, 129)"/><path d="M758.0 446.0 Q750.038 448.974, 750.0 449.0 S749.962 449.026, 739.0 459.0 S728.968 477.084, 723.0 501.0 S722.008 530.112, 727.0 557.0 S738.052 579.07, 753.0 592.0 S768.056 593.992, 781.0 588.0 S793.04 573.934, 801.0 555.0 S805.008 534.898, 805.0 504.0 Q798.962 477.904, 799.0 478.0 Q785.942 455.936, 786.0 456.0 Q785.942 455.936, 770.0 446.0" style="fill:rgb(130, 130, 129)"/><path d="M666.0 446.0 Q651.056 454.94, 651.0 455.0 S650.944 455.06, 638.0 476.0 S630.986 506.116, 631.0 534.0 S637.034 561.094, 648.0 581.0 S662.056 592.026, 676.0 594.0 S692.05 585.962, 701.0 575.0 S710.026 553.914, 714.0 532.0 S712.984 498.884, 706.0 474.0 Q697.966 459.954, 698.0 460.0 Q688.96 450.972, 689.0 451.0 Q688.96 450.972, 678.0 446.0" style="fill:rgb(130, 130, 129)"/><path d="M966.0 446.0 Q956.034 450.976, 956.0 451.0 S955.966 451.024, 949.0 458.0 S938.968 477.092, 933.0 504.0 S933.014 534.12, 940.0 564.0 S949.046 580.056, 963.0 592.0 S978.05 593.996, 988.0 590.0 S997.04 581.942, 1008.0 561.0 S994.952 545.002, 984.0 562.0 S977.97 565.006, 969.0 565.0 S959.968 557.956, 953.0 543.0 S1007.112 502.912, 1009.0 499.0 Q995.966 461.944, 996.0 462.0 Q986.962 450.968, 987.0 451.0 Q986.962 450.968, 977.0 446.0" style="fill:rgb(130, 130, 129)"/><path d="M906.0 371.0 Q905.966 588.564, 906.0 589.0 Q906.034 589.436, 906.0 589.0 Q923.034 588.564, 923.0 589.0 Q923.034 588.564, 923.0 371.0" style="fill:rgb(130, 130, 129)"/><path d="M670.0 475.0 Q660.032 480.968, 660.0 481.0 S659.968 481.032, 654.0 491.0 S649.99 505.07, 649.0 526.0 S653.02 546.062, 659.0 557.0 S668.036 564.014, 677.0 564.0 S685.03 557.962, 692.0 545.0 Q692.982 496.936, 693.0 497.0 Q686.964 483.956, 687.0 484.0 Q686.964 483.956, 675.0 475.0" style="fill:rgb(254, 254, 254)"/><path d="M761.0 475.0 Q755.026 477.978, 755.0 478.0 S754.974 478.022, 748.0 486.0 S740.988 508.104, 742.0 538.0 S749.034 555.052, 759.0 564.0 S768.038 563.984, 778.0 556.0 S785.018 539.944, 787.0 528.0 Q782.978 492.94, 783.0 493.0 Q775.968 480.964, 776.0 481.0 Q775.968 480.964, 767.0 475.0" style="fill:rgb(254, 254, 254)"/><path d="M852.0 475.0 Q842.032 481.964, 842.0 482.0 S841.968 482.036, 836.0 493.0 S831.992 510.072, 832.0 529.0 S836.018 547.054, 841.0 556.0 S851.036 564.016, 859.0 564.0 S867.026 557.97, 872.0 549.0 S876.01 533.934, 877.0 516.0 Q872.982 492.934, 873.0 493.0 Q867.968 482.964, 868.0 483.0 Q867.968 482.964, 857.0 475.0" style="fill:rgb(254, 254, 254)"/></svg>