<svg width="1024" height="1024" fill="white" xmlns="http://www.w3.org/2000/svg"><path d="M0.0 0.0 Q-2.0460000000000003 1020.954, 0.0 1023.0 Q2.0460000000000003 1025.046, 0.0 1023.0 Q1025.046 1020.954, 1023.0 1023.0 Q1025.046 1020.954, 1023.0 0.0" style="fill:rgb(254, 254, 253)"/><path d="M32.0 20.0 Q29.082 1000.036, 31.0 1002.0 Q992.922 1000.038, 991.0 1002.0 Q990.096 19.036, 992.0 21.0 Q990.096 19.036, 39.0 20.0" style="fill:rgb(229, 219, 210)"/><path d="M587.0 113.0 Q548.148 115.978, 548.0 116.0 S547.852 116.022, 513.0 124.0 S481.908 140.062, 467.0 155.0 S451.956 180.088, 445.0 199.0 S426.922 275.28, 406.0 339.0 L444.0 377.0 L454.0 364.0 S454.034 363.976, 461.0 365.0 L471.0 391.0 L470.0 382.0 S470.004 381.978, 473.0 380.0 S498.052 398.042, 499.0 401.0 S509.024 401.01, 511.0 406.0 S498.996 418.004, 509.0 408.0 S512.056 408.04, 537.0 428.0 L564.0 470.0 L585.0 448.0 S585.044 447.944, 586.0 442.0 S582.984 433.974, 578.0 429.0 S560.948 421.988, 552.0 423.0 S531.942 418.982, 523.0 414.0 S510.984 399.964, 515.0 396.0 S532.058 396.006, 544.0 399.0 S554.042 404.04, 565.0 419.0 S579.022 424.982, 576.0 410.0 S567.956 400.962, 554.0 391.0 S544.952 389.982, 530.0 382.0 S518.978 368.96, 519.0 362.0 S526.028 358.996, 533.0 360.0 S549.05 369.04, 558.0 380.0 L573.0 401.0 L574.0 394.0 S573.996 393.962, 571.0 382.0 S553.962 367.94, 552.0 352.0 S555.016 341.97, 560.0 337.0 S565.026 336.006, 573.0 340.0 S585.024 354.056, 585.0 368.0 L580.0 400.0 L593.0 383.0 S593.024 382.928, 592.0 364.0 S598.032 353.962, 608.0 345.0 S618.034 339.988, 625.0 339.0 S630.01 343.028, 630.0 353.0 S621.964 368.048, 612.0 377.0 S599.946 382.05, 585.0 402.0 S582.0 411.04, 585.0 422.0 S590.02 417.95, 595.0 397.0 S602.052 388.968, 621.0 381.0 S632.032 381.008, 637.0 385.0 S636.99 392.032, 632.0 401.0 S618.938 411.024, 601.0 413.0 S594.974 417.03, 588.0 428.0 S588.008 435.026, 592.0 441.0 S647.178 394.862, 681.0 372.0 S684.004 358.944, 683.0 344.0 S668.936 325.946, 651.0 317.0 S641.972 308.96, 637.0 297.0 S637.006 291.982, 640.0 288.0 S649.03 288.006, 655.0 291.0 S668.038 302.044, 674.0 313.0 L686.0 339.0 L691.0 323.0 S691.0 322.944, 686.0 311.0 S686.016 292.932, 694.0 277.0 S715.058 257.958, 723.0 256.0 S728.02 260.038, 733.0 275.0 S731.984 289.056, 725.0 303.0 S713.942 315.044, 696.0 325.0 S693.034 339.002, 713.0 326.0 S720.04 310.944, 733.0 298.0 S757.072 287.984, 769.0 290.0 S768.99 298.034, 764.0 307.0 S750.942 319.038, 735.0 326.0 S716.922 329.032, 696.0 342.0 S690.984 347.028, 688.0 356.0 S689.056 366.988, 716.0 350.0 S773.12 321.906, 776.0 303.0 S773.984 294.966, 768.0 286.0 S768.012 273.95, 774.0 261.0 S786.042 247.972, 795.0 247.0 S801.018 252.026, 804.0 260.0 S802.99 279.056, 799.0 288.0 S781.96 302.06, 779.0 318.0 S782.038 318.986, 798.0 311.0 S813.08 292.942, 838.0 282.0 S858.052 277.996, 864.0 280.0 S865.98 285.036, 854.0 298.0 S833.9 308.03, 804.0 313.0 S783.994 322.026, 801.0 326.0 S814.056 325.99, 829.0 321.0 S849.086 321.012, 872.0 327.0 S879.004 333.006, 874.0 330.0 S880.008 285.786, 878.0 223.0 S868.98 189.908, 868.0 177.0 S859.966 160.948, 851.0 151.0 S836.93 140.96, 816.0 131.0 Q742.83 115.984, 743.0 116.0 Q693.736 112.994, 694.0 113.0 Q693.736 112.994, 611.0 113.0" style="fill:rgb(139, 123, 113)"/><path d="M510.0 124.0 Q496.064 129.964, 496.0 130.0 S495.936 130.036, 478.0 142.0 S460.942 161.082, 449.0 183.0 S438.956 214.174, 427.0 270.0 S403.82 339.076, 337.0 308.0 S297.854 293.954, 264.0 285.0 S223.844 278.99, 186.0 280.0 S156.904 288.04, 138.0 300.0 S117.94 324.1, 108.0 350.0 S104.99 365.142, 103.0 421.0 S113.05 471.182, 128.0 512.0 S145.074 547.138, 165.0 581.0 S187.11 606.1, 220.0 631.0 S276.136 660.066, 288.0 664.0 S304.078 636.89, 327.0 609.0 S352.09 585.926, 372.0 572.0 L398.0 562.0 L394.0 560.0 S393.99 559.984, 393.0 554.0 S400.062 545.962, 424.0 535.0 L461.0 526.0 L437.0 522.0 S436.908 522.002, 415.0 527.0 S404.952 537.034, 391.0 544.0 S376.932 547.002, 357.0 545.0 S353.996 541.988, 355.0 539.0 S363.038 531.976, 374.0 527.0 S385.084 523.994, 416.0 524.0 S427.99 519.988, 411.0 518.0 S390.932 523.01, 377.0 523.0 S350.94 513.97, 347.0 508.0 S354.058 501.982, 376.0 499.0 S391.002 500.982, 377.0 490.0 S379.026 482.984, 390.0 482.0 S403.05 486.026, 415.0 495.0 S423.042 507.042, 436.0 516.0 S465.048 521.994, 460.0 513.0 S441.946 503.962, 433.0 494.0 S433.008 482.972, 437.0 480.0 S445.044 481.02, 459.0 490.0 S464.012 497.03, 465.0 505.0 S463.01 509.034, 470.0 522.0 S489.038 527.002, 489.0 523.0 S481.938 509.906, 458.0 476.0 S457.038 469.034, 477.0 493.0 S497.05 525.048, 502.0 517.0 S501.994 510.976, 499.0 505.0 S488.96 500.974, 479.0 492.0 S477.004 479.964, 481.0 474.0 S488.024 473.002, 493.0 475.0 S507.032 486.044, 509.0 497.0 L507.0 512.0 L514.0 501.0 S514.014 500.96, 514.0 492.0 S517.01 491.006, 519.0 495.0 S526.012 484.954, 525.0 472.0 S527.024 463.962, 537.0 453.0 S544.034 449.994, 554.0 450.0 S556.994 462.046, 551.0 473.0 S543.96 479.024, 531.0 485.0 S524.014 496.012, 538.0 491.0 S544.04 480.968, 558.0 475.0 S570.958 461.908, 537.0 429.0 S511.944 408.96, 509.0 409.0 S500.936 418.034, 477.0 426.0 S456.95 439.05, 452.0 451.0 S452.01 460.034, 457.0 468.0 S455.964 469.984, 439.0 460.0 S407.904 459.01, 391.0 465.0 S379.954 476.036, 368.0 483.0 S354.948 487.008, 342.0 487.0 S336.988 484.988, 336.0 481.0 S350.064 467.964, 368.0 463.0 L398.0 457.0 L383.0 456.0 S382.934 456.006, 365.0 460.0 S337.908 457.978, 319.0 449.0 S314.996 443.982, 317.0 440.0 S349.088 438.0, 361.0 440.0 S383.08 450.028, 401.0 454.0 S400.982 451.986, 392.0 447.0 S375.938 443.978, 361.0 436.0 S351.982 425.97, 352.0 421.0 S356.03 417.996, 367.0 419.0 S380.044 425.028, 389.0 433.0 S396.04 445.04, 409.0 453.0 L441.0 456.0 L421.0 434.0 S420.9 433.906, 391.0 409.0 S371.912 409.014, 347.0 416.0 S329.934 415.99, 314.0 411.0 S305.992 403.974, 310.0 398.0 S316.056 395.992, 338.0 394.0 L387.0 404.0 L374.0 395.0 S373.956 394.978, 365.0 393.0 S350.944 384.95, 337.0 368.0 S337.006 361.984, 340.0 360.0 S354.06 363.026, 370.0 373.0 S379.022 383.042, 381.0 394.0 S392.028 402.998, 395.0 393.0 S386.984 375.952, 387.0 369.0 S391.034 357.954, 404.0 346.0 S409.018 346.006, 413.0 349.0 S418.006 365.054, 416.0 376.0 S411.008 382.014, 420.0 383.0 L440.0 403.0 L438.0 392.0 S438.0 391.96, 440.0 383.0 S449.93 365.912, 405.0 339.0 S422.068 288.754, 439.0 216.0 S451.04 179.898, 459.0 165.0 Q472.064 147.936, 472.0 148.0 Q491.08 132.952, 491.0 133.0 Q491.08 132.952, 512.0 124.0" style="fill:rgb(203, 169, 147)"/><path d="M774.0 326.0 Q713.166 356.91, 713.0 357.0 L691.0 371.0 L716.0 375.0 S716.084 375.008, 733.0 375.0 S755.066 366.964, 766.0 357.0 S784.096 346.974, 814.0 344.0 S818.008 347.014, 818.0 351.0 S805.926 362.038, 781.0 370.0 L742.0 376.0 L760.0 378.0 S760.102 377.99, 793.0 371.0 S820.096 371.01, 841.0 376.0 S852.008 383.028, 845.0 390.0 S835.924 393.012, 807.0 396.0 S785.906 392.972, 760.0 382.0 S741.964 381.002, 742.0 383.0 S756.074 393.028, 779.0 397.0 S797.052 407.048, 805.0 421.0 S801.966 429.016, 788.0 429.0 S769.938 420.958, 757.0 408.0 S751.946 394.944, 730.0 380.0 S684.812 375.058, 636.0 409.0 S597.924 442.07, 598.0 444.0 S617.054 443.996, 625.0 442.0 S639.034 428.952, 642.0 418.0 S648.042 411.97, 663.0 403.0 S679.052 399.002, 689.0 404.0 S687.982 411.03, 680.0 419.0 S667.918 426.032, 639.0 435.0 S631.054 444.018, 666.0 444.0 S693.072 433.96, 702.0 424.0 S717.058 416.98, 731.0 414.0 S750.046 415.008, 754.0 418.0 S753.992 421.016, 750.0 426.0 L729.0 436.0 L759.0 440.0 S759.086 440.018, 772.0 445.0 S779.014 451.02, 779.0 455.0 S774.938 458.018, 748.0 464.0 S726.932 463.992, 714.0 460.0 L674.0 450.0 L696.0 461.0 S696.08 461.024, 714.0 462.0 S732.072 468.042, 750.0 483.0 S753.0 492.026, 750.0 496.0 S732.934 495.99, 717.0 491.0 S695.948 476.944, 691.0 463.0 S675.928 454.972, 655.0 449.0 S630.984 449.026, 647.0 462.0 S670.08 468.034, 687.0 479.0 S698.022 493.048, 698.0 503.0 S694.97 506.012, 683.0 509.0 S659.922 499.942, 644.0 480.0 S643.956 464.936, 622.0 448.0 L568.0 470.0 L575.0 464.0 S575.062 464.042, 599.0 491.0 S616.054 517.092, 626.0 537.0 S633.112 558.082, 682.0 578.0 S714.16 596.026, 762.0 591.0 S790.094 582.964, 809.0 573.0 S821.05 562.95, 834.0 548.0 S841.024 533.926, 846.0 511.0 S848.014 466.834, 853.0 428.0 L872.0 344.0 L864.0 347.0 S863.924 347.004, 834.0 346.0 Q826.936 343.966, 827.0 344.0 Q801.918 328.964, 802.0 329.0 Q801.918 328.964, 786.0 326.0" style="fill:rgb(139, 123, 113)"/><path d="M516.0 585.0 Q515.076 593.976, 515.0 594.0 S514.924 594.024, 478.0 597.0 S475.998 599.018, 477.0 606.0 S487.034 621.074, 494.0 643.0 S493.994 666.068, 491.0 677.0 S478.918 698.098, 450.0 726.0 S429.936 751.1, 418.0 776.0 S414.996 790.068, 416.0 810.0 S425.06 833.082, 446.0 851.0 S464.092 859.03, 492.0 866.0 S515.138 868.0, 561.0 866.0 S596.098 856.966, 610.0 849.0 S622.054 837.924, 637.0 811.0 S640.0 782.918, 637.0 770.0 S626.902 751.876, 588.0 708.0 S577.97 692.944, 573.0 680.0 S573.016 652.876, 581.0 618.0 S588.014 605.96, 588.0 598.0 Q581.86 595.992, 582.0 596.0 Q517.87 593.98, 518.0 594.0 Q517.87 593.98, 517.0 586.0" style="fill:rgb(134, 88, 72)"/><path d="M574.0 465.0 Q567.994 471.982, 568.0 472.0 S568.006 472.018, 577.0 474.0 S577.974 479.034, 564.0 491.0 L544.0 501.0 L567.0 501.0 S567.054 501.006, 571.0 504.0 S570.966 508.026, 554.0 517.0 S533.944 519.024, 526.0 529.0 S518.996 547.01, 524.0 534.0 S578.25 542.062, 649.0 565.0 S716.066 597.028, 682.0 579.0 Q624.948 536.89, 625.0 537.0 Q606.9 503.856, 607.0 504.0 Q606.9 503.856, 575.0 465.0" style="fill:rgb(203, 169, 147)"/><path d="M719.0 258.0 Q697.058 275.94, 697.0 276.0 S696.942 276.06, 690.0 288.0 L693.0 329.0 L695.0 323.0 S695.036 322.972, 711.0 315.0 Q729.024 291.932, 729.0 292.0 Q730.99 273.932, 731.0 274.0 Q730.99 273.932, 724.0 258.0" style="fill:rgb(36, 40, 46)"/><path d="M634.0 454.0 Q644.972 463.94, 645.0 464.0 S645.028 464.06, 648.0 484.0 S660.07 498.046, 683.0 507.0 S691.026 505.99, 696.0 502.0 S696.996 497.976, 694.0 490.0 Q667.936 468.978, 668.0 469.0 Q648.936 464.974, 649.0 465.0 Q648.936 464.974, 636.0 456.0" style="fill:rgb(36, 40, 46)"/><path d="M721.0 438.0 Q693.04 448.976, 693.0 449.0 S692.96 449.024, 701.0 450.0 S718.05 460.024, 726.0 462.0 S751.094 461.99, 773.0 457.0 Q773.982 447.982, 774.0 448.0 Q767.926 444.98, 768.0 445.0 Q767.926 444.98, 737.0 438.0" style="fill:rgb(36, 40, 46)"/><path d="M790.0 373.0 Q750.062 379.986, 750.0 380.0 S749.938 380.014, 759.0 380.0 S782.092 390.028, 805.0 394.0 S832.088 391.982, 849.0 385.0 Q847.986 380.986, 848.0 381.0 Q841.95 377.984, 842.0 378.0 Q841.95 377.984, 823.0 373.0" style="fill:rgb(36, 40, 46)"/><path d="M788.0 249.0 Q773.036 265.948, 773.0 266.0 S772.964 266.052, 770.0 275.0 S771.012 288.04, 776.0 295.0 S779.008 308.014, 780.0 302.0 S795.04 289.958, 800.0 281.0 Q802.0 260.946, 802.0 261.0 Q799.986 253.976, 800.0 254.0 Q799.986 253.976, 795.0 249.0" style="fill:rgb(36, 40, 46)"/><path d="M829.0 323.0 Q812.052 327.99, 812.0 328.0 L803.0 328.0 L829.0 343.0 S829.072 343.034, 839.0 345.0 S865.084 344.986, 881.0 338.0 Q878.98 333.982, 879.0 334.0 Q870.94 328.978, 871.0 329.0 Q870.94 328.978, 849.0 323.0" style="fill:rgb(36, 40, 46)"/><path d="M454.0 366.0 Q447.024 373.962, 447.0 374.0 S446.976 374.038, 442.0 385.0 S442.028 403.072, 456.0 421.0 Q470.0 399.942, 470.0 400.0 Q467.978 377.932, 468.0 378.0 Q467.978 377.932, 459.0 366.0" style="fill:rgb(36, 40, 46)"/><path d="M683.0 457.0 Q694.976 464.97, 695.0 465.0 S695.024 465.03, 695.0 472.0 S700.034 479.03, 712.0 487.0 S737.072 495.016, 748.0 495.0 S751.006 492.988, 751.0 489.0 S745.966 480.964, 734.0 471.0 Q715.926 463.984, 716.0 464.0 Q696.936 462.986, 697.0 463.0 Q696.936 462.986, 684.0 457.0" style="fill:rgb(36, 40, 46)"/></svg>