<?xml version="1.0" encoding="utf-8" ?>
<svg xmlns="http://www.w3.org/2000/svg" xmlns:xlink="http://www.w3.org/1999/xlink" width="512" height="512">
	<path fill="#F2F6FD" transform="scale(0.666667 0.666667)" d="M-0 -0L768 0L768 768L-0 768L0 -0Z"/>
	<defs>
		<linearGradient id="gradient_0" gradientUnits="userSpaceOnUse" x1="292.96857" y1="526.99426" x2="553.96362" y2="106.59406">
			<stop offset="0" stop-color="#C34B10"/>
			<stop offset="1" stop-color="#FFA621"/>
		</linearGradient>
	</defs>
	<path fill="url(#gradient_0)" transform="scale(0.666667 0.666667)" d="M63.3483 344.153C65.3396 319.198 71.5783 294.753 80.2391 271.317C99.5202 219.144 131.016 172.06 173.438 135.816C214.154 101.028 265.271 76.9844 317.709 66.5335C335.76 62.936 354.375 61.0946 372.763 60.4522C388.8 59.8919 404.773 60.8023 420.753 62.0955C467.065 65.8434 513.772 81.6671 553.541 105.587C567.796 114.16 581.264 124.141 594.077 134.723C607.896 146.135 620.836 158.294 632.425 171.991C650.904 193.831 667.622 217.256 679.925 243.174C691.159 266.839 699.044 293.985 703.003 319.863L705.64 344.993C707.163 363.748 707.748 382.964 706.173 401.73C703.904 428.762 699.379 455.945 691.117 481.827C673.194 537.976 638.037 587.496 593.208 625.392C591.242 627.055 589.17 628.908 587.013 630.297L586.792 629.817C584.715 630.995 583.002 633.036 580.969 634.219C580.084 634.734 580.545 634.238 580.035 634.764C579.571 635.242 579.359 635.615 578.683 635.819L578.25 635.908L577.691 636.188L577.498 636.094C577.498 634.941 577.518 635.045 578.344 634.219L579 634.684L579.559 634.312L579 633.75L579.748 632.998L579.75 632.438L580.498 631.781C580.615 630.966 580.531 630.987 580.219 630.281L580.309 629.625C580.238 628.656 579.986 629.305 580.123 628.406L580.309 627.75L579.562 627L579.559 626.438C579.02 625.858 578.564 625.512 577.873 625.127L577.312 625.125C576.684 624.189 575.945 623.911 574.873 623.627C574.364 623.492 574.077 623.429 573.585 623.183L572.998 622.877L571.875 622.316L571.312 621.941C570.679 621.997 570.411 621.989 569.823 621.694L568.125 620.816C567.235 620.464 566.669 620.287 565.875 619.691C565.263 619.232 564.984 619.246 564.375 618.941C563.864 618.686 563.69 618.379 563.084 618.178L559.875 617.066C559.104 616.637 559.228 616.691 558.375 616.691L557.812 616.316C557.106 616.34 556.5 616.419 555.832 616.152C555.264 615.925 554.677 615.653 554.062 615.566C553.212 615.447 553.37 615.432 552.75 614.812C552.321 614.812 551.976 614.716 551.625 614.441L551.25 614.062L550.688 614.066L549.75 612.938L549.375 612.938L549 612.562C548.291 612.562 547.784 612.07 547.089 611.897L546.75 611.816L546.188 611.441L545.344 611.439L544.969 611.252C544.049 611.804 542.616 611.28 541.512 611.38L541.125 611.438L541.674 610.502L541.466 609.949C541.987 609.39 543.035 608.975 543.707 608.6L549.486 605.405L566.705 594.811C579.567 586.372 592.155 577.535 603.804 567.468C618.416 554.842 631.353 540.298 643.07 524.995C653.742 511.055 663.938 495.885 670.999 479.738C676.612 466.9 680.501 452.805 683.302 439.105C687.688 417.652 688.12 395.882 686.988 374.106C686.201 358.979 685.008 343.615 681.87 328.755C680.802 323.698 679.269 318.74 677.814 313.786C676.235 308.405 674.582 300.987 671.494 296.288C669.472 291.235 667.524 285.056 664.643 280.455C663.674 277.377 662.109 274.32 660.775 271.37C656.497 261.911 651.25 253.128 645.629 244.414C644.462 242.604 642.819 239.235 641.09 238.045C636.417 230.202 630.235 222.977 624.421 215.953C616.318 206.164 608.528 196.431 598.748 188.224L598.692 186.937C598.418 184.236 592.588 179.639 590.514 177.565L571.351 158.422L561.997 150.536L548.229 140.663C529.163 127.428 509.062 116.355 487.252 108.249C462.722 99.1334 436.364 93.655 410.333 91.4479C397.05 90.3216 382.929 89.6482 369.662 91.2089C367.284 90.9562 364.796 91.2701 362.414 91.4582L347.075 93.4021C331.697 95.8973 317.203 99.9186 302.449 104.841C275.144 113.951 248.446 126.213 225.938 144.414C198.625 166.499 178.019 194.492 161.75 225.403C148.556 250.47 138.724 276.403 132.706 304.125C130.972 312.111 129.247 320.059 128.436 328.207L128.268 419.4C127.649 420.508 127.692 421.401 127.691 422.625C128.288 423.227 128.064 423.957 128.064 424.781L127.219 424.031L126.562 423.75L126.467 423C126.072 422.471 125.884 421.917 125.625 421.312L125.062 421.125C124.814 420.381 124.996 420.66 124.395 420.059L123.938 419.625L123.934 416.25C123.472 415.783 122.061 413.747 121.934 413.109L121.875 412.688L121.312 412.5C120.998 411.766 120.637 411.035 120.467 410.25C120.297 409.464 120.508 409.912 120.152 409.271C119.862 408.749 119.644 408.318 119.525 407.725C119.396 407.078 119.298 406.588 119.021 405.979L118.219 404.156C118.057 403.568 118.184 403.206 117.902 402.586C117.131 400.889 116.84 399.065 116.25 397.312C115.75 395.829 115.511 394.301 115.125 392.812L114.656 390.844C114.427 390.043 114.265 389.084 114 388.312C113.713 387.479 113.777 386.741 113.531 385.969C113.073 384.531 113.374 385.955 113.156 384.867C112.925 383.713 112.255 382.584 112.154 381.475L112.125 381C111.605 380.386 111.394 379.905 111.188 379.125C111.018 378.485 111.036 378.41 110.625 377.812C110.22 377.223 109.971 376.971 109.904 376.236C109.815 375.257 109.009 374.723 108.809 373.723C108.627 372.814 108.332 373.383 107.906 372.844C107.496 372.324 107.42 371.609 106.939 371.021C106.646 370.663 106.133 370.181 105.938 369.75C105.688 369.202 105.784 369.042 105.393 368.455C104.926 367.755 105.074 368.058 104.76 367.365C104.384 366.539 103.987 365.779 103.482 365.021C102.826 364.037 102.396 362.79 101.771 361.916L101.531 361.594L101.25 360.938C100.41 360.577 99.6994 359.805 99.2812 358.969L99 358.312C97.9338 357.957 96.733 356.667 96.2402 355.646C96.0192 355.189 96.0493 355.053 95.625 354.75C95.0462 354.337 94.4328 354.133 93.8555 353.66L93.375 353.25C92.8876 352.874 92.7005 352.775 92.2793 352.26C92.0298 351.955 91.8126 351.624 91.5 351.375C90.9772 350.959 90.4392 350.713 89.9531 350.227C89.069 349.342 88.2577 348.505 87.2812 347.719L86.25 346.875C85.7033 346.478 85.1878 346.211 84.7031 345.727C84.277 345.3 83.8946 344.812 83.3438 344.531L82.6875 344.25L82.5 343.688L82.1231 343.781C81.4697 343.519 81.7663 343.691 81.1466 343.184C80.14 342.36 79.6122 341.974 78.375 341.812C77.8143 341.739 77.5517 341.576 76.957 341.695L76.5 341.812C75.9166 341.939 75.7856 341.948 75.2812 342.34C74.832 342.689 73.9109 342.911 73.3125 342.75C71.8457 342.355 73.4164 342.52 72.0645 342.416C71.3594 342.362 70.7503 342.253 70.0664 342.082L69.75 342L69.1875 342.375L68.5312 342.094L67.875 342.375L67.0312 341.719C66.4738 341.958 66.1849 342.117 65.7188 342.469L65.625 343.688L64.875 343.688L64.875 346.688L63.4224 347.156C63.4955 346.149 63.4064 345.16 63.3483 344.153Z"/>
	<defs>
		<linearGradient id="gradient_1" gradientUnits="userSpaceOnUse" x1="242.39088" y1="666.30896" x2="336.19415" y2="457.00089">
			<stop offset="0" stop-color="#B8381B"/>
			<stop offset="1" stop-color="#CD5716"/>
		</linearGradient>
	</defs>
	<path fill="url(#gradient_1)" transform="scale(0.666667 0.666667)" d="M63.3483 344.153C63.4064 345.16 63.4955 346.149 63.4224 347.156L64.875 346.688L64.875 343.688L65.625 343.688L65.7188 342.469C66.1849 342.117 66.4738 341.958 67.0312 341.719L67.875 342.375L68.5312 342.094L69.1875 342.375L69.75 342L70.0664 342.082C70.7503 342.253 71.3594 342.362 72.0645 342.416C73.4164 342.52 71.8457 342.355 73.3125 342.75C73.9109 342.911 74.832 342.689 75.2812 342.34C75.7856 341.948 75.9166 341.939 76.5 341.812L76.957 341.695C77.5517 341.576 77.8143 341.739 78.375 341.812C79.6122 341.974 80.14 342.36 81.1466 343.184C81.7663 343.691 81.4697 343.519 82.1231 343.781L82.5 343.688L82.6875 344.25L83.3438 344.531C83.8946 344.812 84.277 345.3 84.7031 345.727C85.1878 346.211 85.7033 346.478 86.25 346.875L87.2812 347.719C88.2577 348.505 89.069 349.342 89.9531 350.227C90.4392 350.713 90.9772 350.959 91.5 351.375C91.8126 351.624 92.0298 351.955 92.2793 352.26C92.7005 352.775 92.8876 352.874 93.375 353.25L93.8555 353.66C94.4328 354.133 95.0462 354.337 95.625 354.75C96.0493 355.053 96.0192 355.189 96.2402 355.646C96.733 356.667 97.9338 357.957 99 358.312L99.2812 358.969C99.6994 359.805 100.41 360.577 101.25 360.938L101.531 361.594L101.771 361.916C102.396 362.79 102.826 364.037 103.482 365.021C103.987 365.779 104.384 366.539 104.76 367.365C105.074 368.058 104.926 367.755 105.393 368.455C105.784 369.042 105.688 369.202 105.938 369.75C106.133 370.181 106.646 370.663 106.939 371.021C107.42 371.609 107.496 372.324 107.906 372.844C108.332 373.383 108.627 372.814 108.809 373.723C109.009 374.723 109.815 375.257 109.904 376.236C109.971 376.971 110.22 377.223 110.625 377.812C111.036 378.41 111.018 378.485 111.188 379.125C111.394 379.905 111.605 380.386 112.125 381L112.154 381.475C112.255 382.584 112.925 383.713 113.156 384.867C113.374 385.955 113.073 384.531 113.531 385.969C113.777 386.741 113.713 387.479 114 388.312C114.265 389.084 114.427 390.043 114.656 390.844L115.125 392.812C115.511 394.301 115.75 395.829 116.25 397.312C116.84 399.065 117.131 400.889 117.902 402.586C118.184 403.206 118.057 403.568 118.219 404.156L119.021 405.979C119.298 406.588 119.396 407.078 119.525 407.725C119.644 408.318 119.862 408.749 120.152 409.271C120.508 409.912 120.297 409.464 120.467 410.25C120.637 411.035 120.998 411.766 121.312 412.5L121.875 412.688L121.934 413.109C122.061 413.747 123.472 415.783 123.934 416.25L123.938 419.625L124.395 420.059C124.996 420.66 124.814 420.381 125.062 421.125L125.625 421.312C125.884 421.917 126.072 422.471 126.467 423L126.562 423.75L127.219 424.031L128.064 424.781C128.064 423.957 128.288 423.227 127.691 422.625C127.692 421.401 127.649 420.508 128.268 419.4L131.462 445.971C131.795 448.197 131.945 451.779 133.067 453.678L141.056 444.375C148.434 436.284 156.488 428.729 165.748 422.868C167.128 421.994 168.086 420.579 169.688 420.184C170.198 421.727 169.629 423.406 170.151 424.958C170.411 428.315 170.479 431.592 171.151 434.911C172.993 444.004 179.097 453.401 186.08 459.379C195.347 467.313 204.908 470.849 217.172 469.818L229.834 467.65C231.541 472.607 234.461 477.41 237.115 481.907C234.137 483.79 231.398 486.031 228.375 487.836C220.107 492.773 210.48 493.148 201.258 491.027L193.943 488.826C191.057 493.716 190.591 499.891 191.994 505.302C193.014 509.233 195.675 513.766 198.313 516.814C202.345 521.474 207.613 525.342 212.47 529.123C224.602 538.567 237.042 547.189 250.411 554.814C260.668 560.664 271.486 565.563 282.358 570.138C319.392 585.721 359.83 595.082 400.181 593.617C414.345 593.102 427.989 590.785 441.938 588.641L441.938 589.125C440.914 589.152 440.284 589.166 439.312 589.5L438.375 589.688L437.947 589.787C437.36 589.904 436.814 589.887 436.224 589.927C435.41 589.982 436.33 589.941 435.188 590.25C434.681 590.387 434.235 590.281 433.71 590.479C432.957 590.762 432.224 590.737 431.434 590.812L428.967 591.288C428.195 591.443 427.419 591.392 426.638 591.427C425.649 591.473 426.532 591.416 425.438 591.75C424.739 591.963 423.97 591.897 423.188 592.125C422.31 592.381 421.438 592.318 420.562 592.125L420 592.5C419.015 592.529 418.499 592.619 417.562 592.875C416.177 593.253 414.538 592.898 413.062 593.25C411.881 593.532 410.972 592.894 409.875 593.625L406.125 593.717C404.957 593.793 403.752 593.332 402.75 594C400.949 594 396.205 593.488 394.875 594.375L392.062 594.375L391.594 595.031L392.156 595.406L392.531 595.127L393 595.5L393.562 594.941L394.125 595.5L394.688 594.941L395.438 595.875C396.107 595.652 395.835 595.796 396.281 595.502L396.75 595.875L397.781 596.531L398.062 595.691L398.812 596.625C399.482 596.402 399.21 596.546 399.656 596.252L400.406 596.906L400.688 596.066L401.021 596.516C401.536 597.156 401.305 596.943 402.094 597.281C402.861 597.172 402.566 597.309 403.031 597.002L403.875 597.75L404.438 597.191L405 597.75L405.562 597.191L405.785 597.447C406.179 597.839 406.552 597.945 407.062 598.125L407.438 597.566L408.188 598.5C408.857 598.277 408.585 598.421 409.031 598.127L409.5 598.5L410.062 597.941L410.625 598.316C411.422 598.316 411.416 598.218 412.125 598.691C412.993 598.691 412.839 598.653 413.625 599.066C414.32 599.431 415.612 599.548 416.412 599.814C416.933 599.988 417.418 600.051 417.938 600.191C418.544 600.355 419.07 600.655 419.625 600.938L420.281 600.844L420.756 601.166C421.594 601.699 423.23 602.022 424.219 602.344L424.875 602.812L425.25 602.812C426.006 602.976 426.693 603.384 427.5 603.562L429.656 604.689L430.125 604.688L430.5 605.062L430.875 605.062C431.794 605.293 432.488 606.015 433.5 606.188L433.875 606.562L434.25 606.562C435.169 606.793 435.863 607.515 436.875 607.688L437.25 608.062L437.625 608.062C438.389 608.261 439.102 608.876 439.688 609.375L440.248 609.377C441.152 609.892 440.651 609.544 441.193 610.011C441.719 610.462 442.567 611.062 443.25 611.062L443.625 611.438L444 611.438L444.375 611.812L444.75 611.812C445.303 612.366 445.243 612.561 446.062 612.566L446.66 612.918C447.512 613.413 447.973 613.476 448.875 613.688L449.998 614.252L450.584 614.439C451.199 614.644 451.356 614.924 451.875 615.191C452.074 615.294 452.399 615.337 452.623 615.377L452.812 616.125L453.562 615.941C454.248 616.657 454.389 616.839 455.248 617.252L456 617.816C456.731 618.349 457.454 618.712 458.248 619.127C458.774 619.402 459.183 619.697 459.645 620.066C460.181 620.496 460.675 620.661 461.248 621.002C462.506 621.75 463.682 622.587 464.998 623.252C465.641 623.577 466.027 623.9 466.524 624.402C467.51 625.4 466.583 624.614 467.623 625.127L467.964 625.386C468.706 625.943 468.02 625.473 468.878 625.901C469.708 626.315 470.167 626.929 470.803 627.573C471.36 628.139 470.985 627.817 471.748 628.127C472.349 628.371 472.896 628.705 473.434 629.062L473.438 629.625L474.188 629.441L475.322 630.881C475.855 631.547 475.502 631.143 476.25 631.691C476.849 632.131 477.355 632.62 477.878 633.143C478.43 633.696 478.143 633.51 478.873 633.752L479.438 634.691C480.538 634.658 480.86 634.487 481.877 634.127L482.812 633.941L483.916 633.564C484.436 633.391 484.92 633.332 485.438 633.191C486.046 633.026 485.976 633.003 486.54 632.722C487.134 632.425 487.464 632.425 488.062 632.25L489.938 631.691C490.539 631.53 490.484 631.499 491.04 631.222C491.634 630.925 491.964 630.925 492.562 630.75C493.075 630.6 493.454 630.391 493.993 630.284C494.759 630.132 494.161 630.294 495 629.816C495.441 629.565 495.906 629.457 496.396 629.358C497.033 629.23 497.416 628.928 498 628.691C498.48 628.497 498.8 628.472 499.302 628.222C499.864 627.941 500.293 627.966 500.812 627.75L501.469 627.377L502.125 627.191C502.669 627.01 502.567 626.995 503.092 626.71C503.793 626.329 503.496 626.442 504.375 626.438L504.75 626.066L506.252 625.502L506.802 625.222C507.318 624.964 507.618 624.927 508.127 624.752L509.625 624.191L510.752 623.627C511.276 623.369 511.707 623.267 512.25 623.066L514.312 621.941C514.975 622 515.028 622.073 515.66 621.775L541.466 609.949L541.674 610.502L541.125 611.438L541.512 611.38C542.616 611.28 544.049 611.804 544.969 611.252L545.344 611.439L546.188 611.441L546.75 611.816L547.089 611.897C547.784 612.07 548.291 612.562 549 612.562L549.375 612.938L549.75 612.938L550.688 614.066L551.25 614.062L551.625 614.441C551.976 614.716 552.321 614.812 552.75 614.812C553.37 615.432 553.212 615.447 554.062 615.566C554.677 615.653 555.264 615.925 555.832 616.152C556.5 616.419 557.106 616.34 557.812 616.316L558.375 616.691C559.228 616.691 559.104 616.637 559.875 617.066L563.084 618.178C563.69 618.379 563.864 618.686 564.375 618.941C564.984 619.246 565.263 619.232 565.875 619.691C566.669 620.287 567.235 620.464 568.125 620.816L569.823 621.694C570.411 621.989 570.679 621.997 571.312 621.941L571.875 622.316L572.998 622.877L573.585 623.183C574.077 623.429 574.364 623.492 574.873 623.627C575.945 623.911 576.684 624.189 577.312 625.125L577.873 625.127C578.564 625.512 579.02 625.858 579.559 626.438L579.562 627L580.309 627.75L580.123 628.406C579.986 629.305 580.238 628.656 580.309 629.625L580.219 630.281C580.531 630.987 580.615 630.966 580.498 631.781L579.75 632.438L579.748 632.998L579 633.75L579.559 634.312L579 634.684L578.344 634.219C577.518 635.045 577.498 634.941 577.498 636.094L577.691 636.188L578.25 635.908L578.683 635.819C579.359 635.615 579.571 635.242 580.035 634.764C580.545 634.238 580.084 634.734 580.969 634.219C583.002 633.036 584.715 630.995 586.792 629.817L587.013 630.297C586.246 631.606 583.156 633.442 581.888 634.374C511.145 686.352 418.946 708.042 332.29 694.612C312.718 691.579 293.879 686.633 275.171 680.207C264.841 676.659 254.588 672.886 244.688 668.251C221.288 657.296 199.384 643.179 179.232 627.059C165.745 616.27 152.897 604.56 141.401 591.649C134.225 583.589 127.825 574.955 121.475 566.241C113.644 555.497 106.397 544.447 100.079 532.735C78.1567 492.096 66.4541 446.225 62.6311 400.403C61.1047 382.107 60.4929 362.357 63.3483 344.153Z"/>
	<defs>
		<linearGradient id="gradient_2" gradientUnits="userSpaceOnUse" x1="320.8465" y1="584.87286" x2="500.23792" y2="143.1192">
			<stop offset="0" stop-color="#F98A00"/>
			<stop offset="1" stop-color="#FFB049"/>
		</linearGradient>
	</defs>
	<path fill="url(#gradient_2)" transform="scale(0.666667 0.666667)" d="M369.662 91.2089C382.929 89.6482 397.05 90.3216 410.333 91.4479C436.364 93.655 462.722 99.1334 487.252 108.249C509.062 116.355 529.163 127.428 548.229 140.663L561.997 150.536L571.351 158.422L590.514 177.565C592.588 179.639 598.418 184.236 598.692 186.937L598.748 188.224C608.528 196.431 616.318 206.164 624.421 215.953C630.235 222.977 636.417 230.202 641.09 238.045C642.819 239.235 644.462 242.604 645.629 244.414C651.25 253.128 656.497 261.911 660.775 271.37C662.109 274.32 663.674 277.377 664.643 280.455C667.524 285.056 669.472 291.235 671.494 296.288C674.582 300.987 676.235 308.405 677.814 313.786C679.269 318.74 680.802 323.698 681.87 328.755C685.008 343.615 686.201 358.979 686.988 374.106C688.12 395.882 687.688 417.652 683.302 439.105C680.501 452.805 676.612 466.9 670.999 479.738C663.938 495.885 653.742 511.055 643.07 524.995C631.353 540.298 618.416 554.842 603.804 567.468C592.155 577.535 579.567 586.372 566.705 594.811L549.486 605.405L543.707 608.6C543.035 608.975 541.987 609.39 541.466 609.949L515.66 621.775C515.028 622.073 514.975 622 514.312 621.941L512.25 623.066C511.707 623.267 511.276 623.369 510.752 623.627L509.625 624.191L508.127 624.752C507.618 624.927 507.318 624.964 506.802 625.222L506.252 625.502L504.75 626.066L504.375 626.438C503.496 626.442 503.793 626.329 503.092 626.71C502.567 626.995 502.669 627.01 502.125 627.191L501.469 627.377L500.812 627.75C500.293 627.966 499.864 627.941 499.302 628.222C498.8 628.472 498.48 628.497 498 628.691C497.416 628.928 497.033 629.23 496.396 629.358C495.906 629.457 495.441 629.565 495 629.816C494.161 630.294 494.759 630.132 493.993 630.284C493.454 630.391 493.075 630.6 492.562 630.75C491.964 630.925 491.634 630.925 491.04 631.222C490.484 631.499 490.539 631.53 489.938 631.691L488.062 632.25C487.464 632.425 487.134 632.425 486.54 632.722C485.976 633.003 486.046 633.026 485.438 633.191C484.92 633.332 484.436 633.391 483.916 633.564L482.812 633.941L481.877 634.127C480.86 634.487 480.538 634.658 479.438 634.691L478.873 633.752C478.143 633.51 478.43 633.696 477.878 633.143C477.355 632.62 476.849 632.131 476.25 631.691C475.502 631.143 475.855 631.547 475.322 630.881L474.188 629.441L473.438 629.625L473.434 629.062C472.896 628.705 472.349 628.371 471.748 628.127C470.985 627.817 471.36 628.139 470.803 627.573C470.167 626.929 469.708 626.315 468.878 625.901C468.02 625.473 468.706 625.943 467.964 625.386L467.623 625.127C466.583 624.614 467.51 625.4 466.524 624.402C466.027 623.9 465.641 623.577 464.998 623.252C463.682 622.587 462.506 621.75 461.248 621.002C460.675 620.661 460.181 620.496 459.645 620.066C459.183 619.697 458.774 619.402 458.248 619.127C457.454 618.712 456.731 618.349 456 617.816L455.248 617.252C454.389 616.839 454.248 616.657 453.562 615.941L452.812 616.125L452.623 615.377C452.399 615.337 452.074 615.294 451.875 615.191C451.356 614.924 451.199 614.644 450.584 614.439L449.998 614.252L448.875 613.688C447.973 613.476 447.512 613.413 446.66 612.918L446.062 612.566C445.243 612.561 445.303 612.366 444.75 611.812L444.375 611.812L444 611.438L443.625 611.438L443.25 611.062C442.567 611.062 441.719 610.462 441.193 610.011C440.651 609.544 441.152 609.892 440.248 609.377L439.688 609.375C439.102 608.876 438.389 608.261 437.625 608.062L437.25 608.062L436.875 607.688C435.863 607.515 435.169 606.793 434.25 606.562L433.875 606.562L433.5 606.188C432.488 606.015 431.794 605.293 430.875 605.062L430.5 605.062L430.125 604.688L429.656 604.689L427.5 603.562C426.693 603.384 426.006 602.976 425.25 602.812L424.875 602.812L424.219 602.344C423.23 602.022 421.594 601.699 420.756 601.166L420.281 600.844L419.625 600.938C419.07 600.655 418.544 600.355 417.938 600.191C417.418 600.051 416.933 599.988 416.412 599.814C415.612 599.548 414.32 599.431 413.625 599.066C412.839 598.653 412.993 598.691 412.125 598.691C411.416 598.218 411.422 598.316 410.625 598.316L410.062 597.941L409.5 598.5L409.031 598.127C408.585 598.421 408.857 598.277 408.188 598.5L407.438 597.566L407.062 598.125C406.552 597.945 406.179 597.839 405.785 597.447L405.562 597.191L405 597.75L404.438 597.191L403.875 597.75L403.031 597.002C402.566 597.309 402.861 597.172 402.094 597.281C401.305 596.943 401.536 597.156 401.021 596.516L400.688 596.066L400.406 596.906L399.656 596.252C399.21 596.546 399.482 596.402 398.812 596.625L398.062 595.691L397.781 596.531L396.75 595.875L396.281 595.502C395.835 595.796 396.107 595.652 395.438 595.875L394.688 594.941L394.125 595.5L393.562 594.941L393 595.5L392.531 595.127L392.156 595.406L391.594 595.031L392.062 594.375L394.875 594.375C396.205 593.488 400.949 594 402.75 594C403.752 593.332 404.957 593.793 406.125 593.717L409.875 593.625C410.972 592.894 411.881 593.532 413.062 593.25C414.538 592.898 416.177 593.253 417.562 592.875C418.499 592.619 419.015 592.529 420 592.5L420.562 592.125C421.438 592.318 422.31 592.381 423.188 592.125C423.97 591.897 424.739 591.963 425.438 591.75C426.532 591.416 425.649 591.473 426.638 591.427C427.419 591.392 428.195 591.443 428.967 591.288L431.434 590.812C432.224 590.737 432.957 590.762 433.71 590.479C434.235 590.281 434.681 590.387 435.188 590.25C436.33 589.941 435.41 589.982 436.224 589.927C436.814 589.887 437.36 589.904 437.947 589.787L438.375 589.688L439.312 589.5C440.284 589.166 440.914 589.152 441.938 589.125L441.938 588.641C427.989 590.785 414.345 593.102 400.181 593.617C359.83 595.082 319.392 585.721 282.358 570.138C271.486 565.563 260.668 560.664 250.411 554.814C237.042 547.189 224.602 538.567 212.47 529.123C207.613 525.342 202.345 521.474 198.313 516.814C195.675 513.766 193.014 509.233 191.994 505.302C190.591 499.891 191.057 493.716 193.943 488.826L201.258 491.027C210.48 493.148 220.107 492.773 228.375 487.836C231.398 486.031 234.137 483.79 237.115 481.907C234.461 477.41 231.541 472.607 229.834 467.65L217.172 469.818C204.908 470.849 195.347 467.313 186.08 459.379C179.097 453.401 172.993 444.004 171.151 434.911C170.479 431.592 170.411 428.315 170.151 424.958C169.629 423.406 170.198 421.727 169.688 420.184C168.086 420.579 167.128 421.994 165.748 422.868C156.488 428.729 148.434 436.284 141.056 444.375L133.067 453.678C131.945 451.779 131.795 448.197 131.462 445.971L128.268 419.4L128.436 328.207C129.247 320.059 130.972 312.111 132.706 304.125C138.724 276.403 148.556 250.47 161.75 225.403C178.019 194.492 198.625 166.499 225.938 144.414C248.446 126.213 275.144 113.951 302.449 104.841C317.203 99.9186 331.697 95.8973 347.075 93.4021L362.414 91.4582C364.796 91.2701 367.284 90.9562 369.662 91.2089Z"/>
	<path fill="#A23F0C" transform="scale(0.666667 0.666667)" d="M600.893 410.215C606.456 410.729 612.11 410.373 617.435 408.621C620.381 407.652 623.147 406.281 626.128 405.418L626.615 405.28C628.352 406.932 630.303 408.54 631.521 410.625L631.803 411.098C633.03 413.241 633.229 415.628 632.463 417.973C631.287 421.568 627.333 424.787 623.977 426.255C616.029 429.731 605.308 427.24 597.04 426.243L600.893 410.215Z"/>
	<path fill="#A23F0C" transform="scale(0.666667 0.666667)" d="M530.597 376.482L530.224 375C528.542 368.395 529.197 361.879 531.36 355.467C533.905 347.923 538.782 340.144 546.192 336.664C551.313 334.26 557.739 334.781 562.921 336.652C558.027 345.595 555.449 353.986 555.322 364.236L554.974 361.312C553.805 361.431 551.937 363.099 550.907 363.77L536.332 373.193C534.578 374.272 532.547 375.86 530.597 376.482Z"/>
	<path fill="#060403" transform="scale(0.666667 0.666667)" d="M254.512 280.287C256.288 280.016 258.453 280.179 260.265 280.184C267.98 280.205 275.501 281.5 282.784 284.034C296.568 288.828 313.299 298.71 319.688 312.47C321.029 315.359 321.416 318.715 320.134 321.698C319.364 323.49 317.765 325.235 315.897 325.88C310.244 327.834 302.682 322.427 297.861 320.058C277.567 310.087 256.96 311.451 236.069 318.607C226.273 322.254 216.342 327.251 208.125 333.761L199.228 341.165C196.999 343.015 194.713 345.201 191.73 345.615C189.678 345.9 187.871 345.155 186.325 343.862C183.223 341.267 182.286 336.925 181.974 333.082C181.371 325.678 186.766 317.82 191.383 312.512C207.291 294.222 230.248 282.028 254.512 280.287Z"/>
	<path fill="#060403" transform="scale(0.666667 0.666667)" d="M474.822 267.553C493.165 255.4 514.531 249.517 536.384 254.022C549.927 256.814 561.514 263.414 572.36 271.764C577.391 275.638 582.64 280.04 586.178 285.375L587.985 288.352C588.576 290.266 589.016 291.962 588.836 293.989C588.672 295.848 587.812 297.585 586.329 298.749C584.738 299.998 582.726 300.675 580.711 300.276C576.242 299.389 571.963 296.178 567.907 294.172C557.234 288.895 546.251 285.504 534.363 284.504C512.436 282.661 488.845 292.939 472.515 307.107C467.886 311.122 464.347 316.541 459.645 320.308C458.077 321.565 455.92 322.219 453.912 321.939C451.663 321.624 449.606 320.017 448.25 318.259C445.749 315.016 445.045 311.204 445.567 307.195C447.711 290.717 462.559 277.277 474.822 267.553Z"/>
	<defs>
		<linearGradient id="gradient_3" gradientUnits="userSpaceOnUse" x1="589.56799" y1="405.96429" x2="617.78699" y2="318.53644">
			<stop offset="0" stop-color="#D40E45"/>
			<stop offset="1" stop-color="#FF2C8C"/>
		</linearGradient>
	</defs>
	<path fill="url(#gradient_3)" transform="scale(0.666667 0.666667)" d="M562.921 336.652C569.603 325.967 581.249 319.428 593.339 316.643C605.956 313.737 619.424 316.709 630.423 323.438C641.049 329.938 648.018 341.152 650.7 353.156C653.565 365.976 650.78 380.154 643.758 391.192C639.635 397.674 633.715 402.408 626.615 405.28L626.128 405.418C623.147 406.281 620.381 407.652 617.435 408.621C612.11 410.373 606.456 410.729 600.893 410.215C590.185 407.254 581.163 403.627 572.755 396.109C563.469 387.807 556.054 376.941 555.322 364.236C555.449 353.986 558.027 345.595 562.921 336.652Z"/>
	<path fill="#F2F6FD" transform="scale(0.666667 0.666667)" d="M600.793 326.701C604.039 326.549 607.005 326.85 609.777 328.737C613.281 331.122 615.254 334.77 616.042 338.873C616.541 341.476 616.881 346.367 615.188 348.528C613.462 350.729 610.64 350.784 608.108 350.996C605.833 350.651 603.734 350.27 601.688 349.133C597.407 346.754 593.217 341.675 592.159 336.923C591.712 334.916 591.943 332.213 593.142 330.485C594.872 327.989 598.008 327.266 600.793 326.701Z"/>
	<defs>
		<linearGradient id="gradient_4" gradientUnits="userSpaceOnUse" x1="205.98605" y1="457.21439" x2="240.04677" y2="378.2771">
			<stop offset="0" stop-color="#D70939"/>
			<stop offset="1" stop-color="#FD2886"/>
		</linearGradient>
	</defs>
	<path fill="url(#gradient_4)" transform="scale(0.666667 0.666667)" d="M191.185 388.931C199.469 380.66 214.758 375.443 226.312 375.545C237.664 375.645 250.589 380.701 258.524 388.924C266.126 399.303 269.959 412.8 267.937 425.522C265.714 439.515 256.514 451.184 245.176 459.267C240.81 462.379 235.236 465.772 230.057 467.248L229.834 467.65L217.172 469.818C204.908 470.849 195.347 467.313 186.08 459.379C179.097 453.401 172.993 444.004 171.151 434.911C170.479 431.592 170.411 428.315 170.151 424.958L170.647 418.954C170.93 417.207 171.806 415.335 172.428 413.661C176.137 403.682 182.695 395.342 191.185 388.931Z"/>
	<path fill="#F2F6FD" transform="scale(0.666667 0.666667)" d="M230.914 387.497C233.124 387.587 235.256 387.886 237.245 388.923C239.269 389.979 240.973 391.559 241.64 393.793C242.723 397.42 241.212 402.034 239.347 405.163C236.678 409.639 233.832 412.682 228.625 413.982C226.734 414.117 223.937 414.336 222.21 413.506L221.812 413.297L220.454 412.521C218.776 411.339 218.08 409.418 217.793 407.457C217.099 402.726 217.808 396.481 220.808 392.612C223.511 389.124 226.739 388.103 230.914 387.497Z"/>
	<defs>
		<linearGradient id="gradient_5" gradientUnits="userSpaceOnUse" x1="178.27345" y1="449.59827" x2="206.42227" y2="431.73944">
			<stop offset="0" stop-color="#AD0D32"/>
			<stop offset="1" stop-color="#D3114B"/>
		</linearGradient>
	</defs>
	<path fill="url(#gradient_5)" transform="scale(0.666667 0.666667)" d="M170.151 424.958L170.647 418.954C170.93 417.207 171.806 415.335 172.428 413.661C176.137 403.682 182.695 395.342 191.185 388.931C190.762 389.908 190.641 390.619 189.759 391.25C188.02 392.492 186.622 394.258 184.986 395.644C184.199 396.311 183.214 397.629 183.144 398.61C183.042 400.042 182.429 401.213 182.059 402.569C181.417 404.915 180.644 408.086 180.813 410.488C180.871 411.326 180.505 412.03 180.186 412.781L180.357 413.503L180.273 414.348C179.936 417.152 180.957 421.566 182.225 424.083C183.45 426.515 184.127 429.423 186.268 431.224C187.357 432.14 187.756 433.499 188.982 434.441C190.606 435.689 192.352 437.514 193.589 439.143C194.596 440.469 195.871 441.221 197.092 442.263C199.415 444.243 202.381 447.583 205.277 448.523C205.757 449.146 205.679 449.22 206.443 449.466C207.209 449.712 206.955 449.578 207.433 450.053C208.409 451.024 209.791 451.385 210.871 452.343C211.804 453.171 212.754 453.578 213.565 454.593C214.53 455.8 216.498 455.872 217.385 456.839C218.347 457.888 217.704 458.234 219.269 459.11L219.752 458.874C220.778 460.071 221.041 461.007 222.517 461.742C224.045 462.503 225.185 463.566 226.219 464.905L226.512 464.981C227.167 465.208 227.711 465.647 228.275 466.038L228.469 467.156C229.257 466.962 229.306 466.949 230.057 467.248L229.834 467.65L217.172 469.818C204.908 470.849 195.347 467.313 186.08 459.379C179.097 453.401 172.993 444.004 171.151 434.911C170.479 431.592 170.411 428.315 170.151 424.958Z"/>
	<path fill="#F8B774" transform="scale(0.666667 0.666667)" d="M369.662 91.2089C382.929 89.6482 397.05 90.3216 410.333 91.4479C436.364 93.655 462.722 99.1334 487.252 108.249C509.062 116.355 529.163 127.428 548.229 140.663L561.997 150.536L571.351 158.422L590.514 177.565C592.588 179.639 598.418 184.236 598.692 186.937L598.748 188.224C608.528 196.431 616.318 206.164 624.421 215.953C630.235 222.977 636.417 230.202 641.09 238.045C642.819 239.235 644.462 242.604 645.629 244.414C651.25 253.128 656.497 261.911 660.775 271.37C662.109 274.32 663.674 277.377 664.643 280.455C667.524 285.056 669.472 291.235 671.494 296.288C669.82 297.439 662.559 296.737 660.291 296.454C650.568 295.237 642.279 291.67 633.995 286.573C632.785 285.829 631.322 285.302 630.224 284.423L628.594 283.123L627.938 282.934C627.492 282.401 627.133 282.007 626.549 281.617L624.844 280.406L624 279.562C622.919 278.827 622.185 277.953 621.146 277.258L620.625 276.934L620.156 276.469L619.688 276.934C619.181 276.262 619.366 276.222 618.469 276.094L618.094 276.373C617.433 275.977 617.244 276.123 616.5 276.184C615.601 275.586 614.214 275.81 613.125 275.809C612.421 275.341 612.417 275.437 611.625 275.434C610.502 274.687 607.092 275.06 605.625 275.059C604.395 274.241 600.502 274.685 598.875 274.684C597.643 275.505 593.755 275.059 592.125 275.059C591.325 275.592 590.808 275.434 589.875 275.434C588.494 276.354 586.508 275.364 584.97 275.945C584.383 276.166 584.838 276.088 584.016 276.156L583.5 276.184C582.698 276.846 582.593 277.191 582.281 278.156C581.536 278.046 581.748 278.176 581.21 277.772L580.877 277.498L580.684 277.688C581.675 278.867 582.707 279.871 583.873 280.877C583.877 281.947 584.797 282.046 585.373 282.844L586.498 284.344C586.735 284.683 586.914 285.062 587.162 285.393C587.465 285.797 587.737 286.158 587.998 286.594L588 287.062L588.529 287.442L587.985 288.352L586.178 285.375C582.64 280.04 577.391 275.638 572.36 271.764C561.514 263.414 549.927 256.814 536.384 254.022C514.531 249.517 493.165 255.4 474.822 267.553L474.509 267.087C475.155 266.399 474.83 266.631 475.603 266.215C476.422 265.774 477.156 265.366 477.821 264.704L478.127 264.377L478.688 264.375L479.252 263.719L479.816 263.438L483 261.75L483.469 261.377L483.938 261.375C484.498 260.542 485.085 260.789 485.812 260.066L486.75 259.875L487.219 259.502C488.016 259.366 487.606 259.481 488.438 259.125L487.969 258.561L487.406 258.561L486.938 258.934L486.281 258.561L485.625 258.934L484.969 258.281L484.125 258.375C483.628 257.976 483.682 257.919 483 257.812C482.663 257.76 482.316 257.794 481.982 257.728L481.502 257.623C480.999 257.521 480.82 257.492 480.399 257.177C479.198 256.277 477.421 255.251 475.994 254.776L475.502 254.623L475.406 253.969L474.938 254.434L474.375 254.059L473.906 253.594L473.438 254.059C472.749 253.6 472.989 253.809 472.418 253.24L472.031 252.844L471.562 253.309L471 252.934L470.531 252.469L469.875 252.559L469.031 251.719C468.521 252.099 468.801 251.941 468.188 252.184L467.156 250.969L466.688 251.434L465.75 250.592L465.188 250.684C464.738 250.014 464.458 249.872 463.781 249.469L463.406 249.748L462 248.625L461.438 249.184C460.884 248.425 460.47 248.062 459.656 247.594L459.188 248.059L458.156 246.844L457.688 247.309C457.011 246.461 456.504 245.882 455.531 245.344L455.062 245.809C454.632 245.16 454.356 244.933 453.656 244.594L453.188 245.059L452.156 243.844L451.312 243.934C450.863 243.264 450.583 243.122 449.906 242.719L449.438 243.184L448.594 242.156C447.846 241.614 447.587 241.558 446.906 240.844L446.438 241.309C445.884 240.55 445.47 240.187 444.656 239.719L444.188 240.184L442.594 238.406C441.788 237.881 441.597 237.819 440.906 237.094L440.438 237.559L439.125 236.062L438.562 236.059C438.19 235.624 437.966 235.469 437.438 235.204C436.823 234.896 436.887 234.985 436.316 234.562C435.611 234.04 435.093 233.58 434.252 233.248C433.339 232.888 432.93 232.202 432.281 231.469L431.438 231.559C430.849 230.922 430.137 230.383 429.375 229.967C428.166 229.307 427.252 228.183 426.002 227.623C424.894 227.127 424.242 226.31 423.194 225.837C421.766 225.191 421.229 224.211 420.002 223.498C417.804 222.221 421.368 224.702 418.822 222.871L418.125 222.375C417.381 221.944 416.804 221.664 416.163 221.079L415.502 220.498C414.956 220.219 414.612 219.949 414.094 219.656C413.217 219.16 413.024 218.994 412.312 218.25L411.656 218.156C411.088 217.209 410.104 216.405 409.312 215.625L408.656 215.531C408.212 214.791 407.518 214.452 406.971 213.802L406.219 212.906C405.162 212.122 404.605 211.894 403.847 210.68C403.283 209.778 402.571 209.059 401.816 208.312L401.066 207.562L392.417 197.252C391.262 195.936 389.639 194.672 388.748 193.189C388.399 192.608 388.034 192.122 387.566 191.625C387.05 191.076 386.859 190.687 386.438 190.125L383.814 186.469L383.814 185.906C383.225 185.408 382.723 185.079 382.431 184.342L382.316 183.937C380.89 182.924 380.448 181.585 379.312 180.375L378.562 179.625C378.13 179.03 378.026 178.57 377.444 178.055L377.062 177.75L377.064 177.281L376.031 176.344L374.592 173.077L374.441 172.688L374.158 172.125C373.767 170.905 373.372 170.147 372.903 168.983L372.75 168.562C371.931 168.557 371.994 168.365 371.441 167.812L371.625 167.062L371.062 167.059L370.783 166.5L370.502 166.031L370.5 165.562L369.752 164.906L369.75 164.438L369.188 164.434C368.48 163.369 368.421 163.436 368.625 162.188L367.877 161.998C367.363 160.969 366.456 159.759 366.647 158.59L366.75 158.062L366.191 157.5C365.669 156.823 365.833 156.768 365.908 156L365.627 155.531L365.441 154.875C364.997 153.91 364.976 153.669 365.158 152.555L365.25 152.062L364.691 151.688L364.783 149.25L364.502 148.781L364.408 148.125C364.061 147.083 363.929 147.263 364.125 146.062L363.566 145.688L363.75 144.562L363.191 144.188C363.191 143.312 363.154 143.619 363.283 142.828L363.375 142.312L362.816 141.938L363 140.812L362.441 140.438L362.441 131.625C363.358 130.582 363.277 130.406 363.191 129L363.656 128.531L363.566 127.5L363.938 127.125L363.941 126.562C364.668 126.319 364.361 126.514 364.875 126L364.316 125.438L364.688 125.066C364.632 124.4 364.651 124.16 364.96 123.54L365.252 123.002L365.816 121.5C366.241 120.735 366.188 120.847 366.191 120C366.699 119.236 366.564 119.013 366.566 118.125C367.313 117.002 366.94 113.592 366.941 112.125C367.409 111.421 367.313 111.417 367.316 110.625L367.687 110.066C367.672 108.937 367.703 108.126 368.064 107.041L368.441 105.938C368.582 105.42 368.641 104.936 368.814 104.416C369.082 103.614 369.2 102.324 369.566 101.625C370.049 100.705 369.673 100.556 369.941 99.75C369.961 99.6908 370.652 98.894 370.688 98.8162C370.986 98.1551 370.644 96.9843 371.064 96.0421L371.252 95.6269C371.517 94.9377 371.712 94.2984 372.072 93.6445L372.281 93.2812L371.816 92.25L372.188 91.6913L373.314 91.5938L369.662 91.2089Z"/>
	<path fill="#FAC78D" transform="scale(0.666667 0.666667)" d="M495.3 172.702L543.216 197.539L571.069 210.205C581.94 215.184 593.313 218.615 603.824 224.533C610.913 228.525 617.631 233.351 622.928 239.583C623.66 240.444 624.608 241.186 625.125 242.192L625.406 241.969C625.024 241.09 624.56 240.76 623.998 240.036C623.557 239.467 623.504 239.155 622.875 238.688C623.881 237.493 626.819 237.109 628.299 236.898C631.287 236.473 634.663 235.561 637.319 234.107L637.875 234.188L638.035 234.549C638.3 235.119 638.585 235.552 638.975 236.042C639.333 236.491 639.547 236.946 639.844 237.429C640.18 237.977 640.231 237.99 640.678 238.506L641.09 238.045C642.819 239.235 644.462 242.604 645.629 244.414C651.25 253.128 656.497 261.911 660.775 271.37C662.109 274.32 663.674 277.377 664.643 280.455L664.376 280.639C664.51 281.354 664.628 282.525 665.066 283.125L665.438 283.5C665.442 284.379 665.329 284.082 665.71 284.783L666.002 285.281L666.191 285.75C666.493 286.301 666.746 286.64 666.941 287.25C667.22 288.123 666.994 287.652 667.314 288.293L667.691 289.125C668.007 290.071 667.721 289.481 668.064 290.168L668.252 290.531L668.441 291C668.921 292.034 669.583 293.318 669.858 294.409L669.941 294.75L670.312 295.309L669.941 295.688L661.5 295.691C660.56 295.065 658.903 295.316 657.75 295.316L657.188 294.941C656.633 294.954 656.129 294.969 655.581 294.858L654.188 294.566L653.812 294.191C652.954 294.191 652.384 294.096 651.572 293.826L648.748 292.877C647.445 292.51 646.245 291.897 644.998 291.377C644.091 290.998 643.261 290.695 642.373 290.252L640.793 289.42L638.998 288.377C637.759 287.783 636.755 287.124 635.625 286.316C634.866 285.774 634.075 285.421 633.311 284.909L632.906 284.627L632.062 284.066C631.507 283.608 631.157 283.187 630.51 282.835C629.8 282.449 630.174 282.71 629.526 282.191L629.062 281.816C628.54 281.45 628.072 281.216 627.567 280.796L627 280.316C626.431 279.874 625.975 279.595 625.481 279.049L625.123 278.627C624.125 278.296 624.041 277.562 623.248 277.127C621.835 276.351 620.845 275.099 619.688 273.941L612.399 266.56C605.179 259.776 599.318 251.469 593.235 243.692C588.752 237.959 583.915 232.315 579.792 226.329C577.056 222.356 574.214 218.489 571.743 214.326C570.982 213.043 569.816 212.292 569.816 210.75L569.062 210C568.172 209.872 568.092 209.61 567.377 209.248C566.456 208.782 565.153 208.061 564.187 207.737C563.683 207.567 563.315 207.416 562.846 207.172L562.125 206.809C560.819 206.35 562.012 206.868 561.054 206.442L558.844 205.498L558.375 205.217C557.694 204.934 557.151 204.774 556.5 204.375C555.94 204.031 555.65 203.842 555 203.717C554.154 203.554 554.54 203.775 553.881 203.337L553.5 203.062L552.938 203.059L552.002 202.498L548.25 200.809C547.724 200.541 547.257 200.264 546.681 200.118L546.375 200.059C545.121 198.817 543.232 198.811 541.875 197.809C541.068 197.213 541.979 197.595 540.984 197.26C540.357 197.049 539.854 196.731 539.252 196.498C538.607 196.248 537.943 195.773 537.329 195.618C536.632 195.443 536.368 194.986 535.5 194.809L535.031 194.344L534.375 194.059L533.252 193.498C532.662 193.275 532.556 193.354 531.961 192.957C531.273 192.499 530.618 192.073 529.806 191.868L529.5 191.809C529.167 191.427 528.986 191.256 528.505 191.062C527.272 190.565 525.86 189.855 524.73 189.152L523.127 188.248C522.544 188.012 522.434 188.106 521.836 187.707C521.291 187.344 520.749 186.972 520.127 186.748C519.614 186.563 519.478 186.668 519.029 186.284L518.719 185.998L518.25 185.717C517.657 185.323 517.048 184.943 516.375 184.688C515.771 184.458 515.377 184.41 514.853 184.017C514.432 183.701 514.595 183.748 514.079 183.618L513.75 183.559C512.971 182.73 511.627 182.141 510.566 181.688C509.725 181.328 509.136 180.866 508.337 180.466L506.627 179.623C506.133 179.381 505.649 179.157 505.185 178.858C503.777 177.952 502.265 177.361 500.804 176.562L498.562 175.309C498.074 175.01 497.788 174.757 497.227 174.63L496.875 174.559C496.12 174.192 495.739 173.378 495.3 172.702Z"/>
	<path fill="#F2F6FD" transform="scale(0.666667 0.666667)" d="M495.3 172.702C488.761 168.599 481.145 164 476.587 157.639C474.549 154.796 473.451 152.107 473.998 148.561C474.445 145.662 476.303 143.115 478.688 141.462C485.2 136.946 495.921 137.922 503.258 139.595C509.844 141.096 516.262 143.448 522.584 145.806C542.963 153.407 562.549 163.864 580.814 175.628L592.764 183.874C594.726 185.287 596.683 186.99 598.748 188.224C608.528 196.431 616.318 206.164 624.421 215.953C630.235 222.977 636.417 230.202 641.09 238.045L640.678 238.506C640.231 237.99 640.18 237.977 639.844 237.429C639.547 236.946 639.333 236.491 638.975 236.042C638.585 235.552 638.3 235.119 638.035 234.549L637.875 234.188L637.319 234.107C634.663 235.561 631.287 236.473 628.299 236.898C626.819 237.109 623.881 237.493 622.875 238.688C623.504 239.155 623.557 239.467 623.998 240.036C624.56 240.76 625.024 241.09 625.406 241.969L625.125 242.192C624.608 241.186 623.66 240.444 622.928 239.583C617.631 233.351 610.913 228.525 603.824 224.533C593.313 218.615 581.94 215.184 571.069 210.205L543.216 197.539L495.3 172.702Z"/>
	<path fill="#060403" transform="scale(0.666667 0.666667)" d="M530.597 376.482C532.547 375.86 534.578 374.272 536.332 373.193L550.907 363.77C551.937 363.099 553.805 361.431 554.974 361.312L555.322 364.236C556.054 376.941 563.469 387.807 572.755 396.109C581.163 403.627 590.185 407.254 600.893 410.215L597.04 426.243C592.56 444.606 584.727 460.888 574.79 476.886C565.611 491.665 554.818 505.678 542.006 517.525C507.845 547.797 464.41 565.675 419.172 570.019C409.69 570.93 400.111 571.571 390.588 570.975C369.328 569.647 349.067 566.871 328.748 560.145C324.118 558.612 319.341 557.135 315.035 554.81L294.081 543.305C289.447 539.673 284.366 536.686 279.765 532.923C262.757 519.015 247.648 501.2 237.115 481.907C234.461 477.41 231.541 472.607 229.834 467.65L230.057 467.248C235.236 465.772 240.81 462.379 245.176 459.267C256.514 451.184 265.714 439.515 267.937 425.522C269.959 412.8 266.126 399.303 258.524 388.924C261.627 391.73 266.779 393.06 270.623 394.65C278.161 397.767 285.62 400.996 293.374 403.561C343.148 420.025 396.384 420.872 447.304 409.318C462.237 405.93 476.828 401.73 491.073 396.083C500.367 392.398 509.386 388.055 518.205 383.355L530.597 376.482Z"/>
	<path fill="#7C0F19" transform="scale(0.666667 0.666667)" d="M294.081 543.305L304.966 525.534C315.082 510.308 326.973 496.276 341.78 485.38C349.262 479.875 357.87 475.206 366.218 471.162C386.788 461.197 406.996 456.158 429.972 456.351C436.592 456.406 443.496 456.56 449.816 458.763C446.014 459.566 441.54 463.888 438.375 466.134L401.009 494.431L376.121 515.051C373.245 517.674 370.483 520.375 367.927 523.312C365.034 526.636 362.204 530.515 358.608 533.103C350.199 539.154 339.347 540.406 330.021 544.38C326.274 545.978 322.905 548.648 319.674 551.099C318.126 552.274 316.392 553.416 315.035 554.81L294.081 543.305Z"/>
	<path fill="#F4063F" transform="scale(0.666667 0.666667)" d="M449.816 458.763C463.173 462.867 475.45 469.231 486.283 478.125C492.585 483.299 498.559 488.841 503.796 495.104C504.88 496.401 507.623 501.101 508.827 501.551C509.159 501.676 511 501.268 511.428 501.215C521.427 499.985 525.834 499.493 533.756 506.733C536.455 509.2 539.362 512.176 541.096 515.438L542.006 517.525C507.845 547.797 464.41 565.675 419.172 570.019C409.69 570.93 400.111 571.571 390.588 570.975C369.328 569.647 349.067 566.871 328.748 560.145C324.118 558.612 319.341 557.135 315.035 554.81C316.392 553.416 318.126 552.274 319.674 551.099C322.905 548.648 326.274 545.978 330.021 544.38C339.347 540.406 350.199 539.154 358.608 533.103C362.204 530.515 365.034 526.636 367.927 523.312C370.483 520.375 373.245 517.674 376.121 515.051L401.009 494.431L438.375 466.134C441.54 463.888 446.014 459.566 449.816 458.763Z"/>
</svg>
