<?xml version="1.0" encoding="utf-8" ?>
<svg xmlns="http://www.w3.org/2000/svg" xmlns:xlink="http://www.w3.org/1999/xlink" width="512" height="512">
	<path fill="#A2A1A1" transform="scale(0.666667 0.666667)" d="M-0 -0L768 0L768 768L-0 768L0 -0Z"/>
	<path fill="#F9F9F9" transform="scale(0.666667 0.666667)" d="M440.427 642.925C439.806 642.969 439.969 642.915 439.478 643.074C429.422 646.319 419.033 647.679 408.562 648.838C396.486 650.174 384.3 650.995 372.147 650.528C352.15 649.76 332.969 645.986 313.5 641.651C283.474 634.963 255.783 621.676 230.177 604.868C198.276 583.929 170.32 558.125 149.796 525.762C139.577 509.648 131.07 491.557 125.093 473.438C122.459 465.45 120.453 457.239 118.498 449.062C112.692 424.773 109.622 399.254 110.778 374.241C111.582 356.842 114.652 339.459 118.485 322.5C130.057 271.298 157.773 222.687 196.147 186.764C202.402 180.909 209.201 175.739 215.985 170.525C224.35 164.095 232.729 157.877 241.655 152.232C275.013 131.136 312.689 118.773 351.791 114.179C367.295 112.358 382.61 111.594 398.204 112.787C405.231 113.324 412.86 113.617 419.727 115.2C420.791 115.446 421.826 115.581 422.912 115.688L423.385 116.812L422.679 117.546C390.492 112.761 355.012 112.99 324.766 126.428C316.868 129.937 309.524 134.531 302.576 139.653C270.28 163.46 250.229 200.921 244.353 240.252C239.367 273.617 249.001 309.522 269.113 336.453C292.775 368.137 332.315 385.325 370.536 390.699C383.467 392.517 396.462 391.948 409.384 393.938C443.214 399.146 477.251 419.061 497.973 446.438C517.667 472.456 527.914 508.856 523.271 541.301C518.555 574.258 499.238 606.538 472.509 626.307C462.696 633.564 451.953 638.955 440.427 642.925Z"/>
	<path fill="#080808" transform="scale(0.666667 0.666667)" d="M378.64 479.382C390.344 478.285 401.859 481.374 411.568 487.977C422.153 495.176 429.284 506.172 431.585 518.768C433.884 531.358 431.242 544.289 423.936 554.83C415.855 566.488 403.986 572.757 390.298 575.295L389.626 575.403C377.984 577.124 364.504 572.395 355.27 565.459C344.357 557.261 337.999 545.758 336.11 532.325C334.466 520.629 336.984 508.275 344.197 498.784C352.719 487.571 364.895 481.352 378.64 479.382Z"/>
	<path fill="#080808" transform="scale(0.666667 0.666667)" d="M440.427 642.925C451.953 638.955 462.696 633.564 472.509 626.307C499.238 606.538 518.555 574.258 523.271 541.301C527.914 508.856 517.667 472.456 497.973 446.438C477.251 419.061 443.214 399.146 409.384 393.938C396.462 391.948 383.467 392.517 370.536 390.699C332.315 385.325 292.775 368.137 269.113 336.453C249.001 309.522 239.367 273.617 244.353 240.252C250.229 200.921 270.28 163.46 302.576 139.653C309.524 134.531 316.868 129.937 324.766 126.428C355.012 112.99 390.492 112.761 422.679 117.546L435.828 119.985L451.381 123.753C456.765 125.062 462.042 126.136 467.339 127.819C475.933 130.551 484.334 134.129 492.625 137.663C516.182 147.705 539.6 161.043 559.544 177.184C581.798 195.197 601.34 217.925 616.748 242.032C655.165 302.135 664.202 377.631 649.058 446.57C634.727 511.808 593.114 570.022 536.875 605.844C511.705 621.876 482.53 634.166 453.376 640.597C449.194 641.519 444.97 642.661 440.721 643.198L440.427 642.925Z"/>
	<path fill="#F9F9F9" transform="scale(0.666667 0.666667)" d="M380.457 194.393L380.478 194.389C392.973 193.736 404.471 197.185 414.507 204.69C426.215 213.446 434.721 226.523 436.725 241.111C438.548 254.383 434.711 267.54 426.56 278.134C417.607 289.771 404.672 296.111 390.302 297.991C378.199 299.116 364.761 296.279 354.75 289.168C344.56 281.93 336.594 270.385 334.539 257.955L333.948 254.062C332.188 239.425 335.691 225.436 344.894 213.812C353.846 202.506 366.224 195.983 380.457 194.393Z"/>
</svg>
