<?xml version="1.0" encoding="utf-8" ?>
<svg xmlns="http://www.w3.org/2000/svg" xmlns:xlink="http://www.w3.org/1999/xlink" width="512" height="512">
	<path fill="#FBC301" transform="scale(0.666667 0.666667)" d="M0.75 768L0.363281 767.824C0.242187 767.633 0.0841115 767.46 0 767.25C-0.436278 766.159 -4.74909e-05 762.99 -6.26381e-05 761.626L-0.000303033 739.733L-0.00152501 616.357L-0.0032427 210.061L0.046875 0.421875L0.75 0L768 0L768 768L0.75 768Z"/>
	<path fill="#FABD0A" transform="scale(0.666667 0.666667)" d="M0.75 768L0.363281 767.824C0.242187 767.633 0.0841115 767.46 0 767.25C-0.436278 766.159 -4.74909e-05 762.99 -6.26381e-05 761.626L-0.000303033 739.733L-0.00152501 616.357L-0.0032427 210.061L0.046875 0.421875L0.75 0C-0.0208891 6.34435 0.492822 13.2628 0.491903 19.667L0.521247 58.5215L0.526263 182.937L0.567967 606.761L0.522129 731.32C0.52086 736.559 -0.0986355 766.061 0.75 768Z"/>
	<path transform="scale(0.666667 0.666667)" d="M371.847 20.7956L377.8 20.703C408.38 20.4489 439.17 22.0863 468.98 29.3407C481.556 32.401 493.898 37.0939 505.875 41.9827C533.24 53.1527 559.754 68.1825 582.35 87.3597C599.582 101.985 614.47 118.939 627.626 137.268C632.515 144.079 637.654 151.051 641.779 158.356C648.817 170.814 653.46 184.271 658.485 197.602L669.988 228.076C674.632 241.168 679.144 254.906 682.231 268.455C683.4 273.586 684.095 278.818 684.834 284.025C685.377 287.852 685.801 294.183 688.105 297.375C690.067 300.093 694.823 303.436 698.175 303.982C701.616 304.543 704.885 304.285 708.27 305.425C714.103 307.391 719.401 311.511 723.72 315.799C730.616 322.646 735.641 330.838 739.64 339.639C742.065 344.974 744.156 350.459 745.099 356.266C745.828 360.751 745.749 365.606 745.777 370.142L745.706 418.019C745.687 429.748 746.463 442.249 744.825 453.852C742.619 469.484 735.297 483.784 726.855 496.884C720.642 506.525 713.706 515.683 705.613 523.838C698.285 531.222 689.86 538.571 679.862 541.993C669.138 545.662 656.66 545.159 645.469 545.198C642.181 558.905 637.887 572.682 632.414 585.679C629.956 591.516 627.364 597.496 623.741 602.715C620.671 607.136 616.643 610.973 612.739 614.651L587.757 636.489L558.331 666.179C547.036 677.972 534.702 687.09 521.263 696.234C510.656 703.452 499.61 710.422 488.062 716.055C479.069 720.443 469.783 723.709 460.235 726.652C449.945 729.823 439.458 732.552 428.759 733.943C417.557 735.399 406.06 735.653 394.781 735.884C375.469 736.412 355.5 736.025 336.39 733.063C328.001 731.762 319.768 729.611 311.62 727.267C303.088 724.813 294.551 722.106 286.395 718.589C273.541 713.047 261.072 705.843 249.259 698.361C237.397 690.849 224.901 682.484 214.518 673.066C202.879 662.509 192.701 650.08 181.84 638.715L166.494 622.688C158.163 614.527 148.784 606.962 142.467 597.027C136.45 587.563 131.831 576.514 128.112 565.953L122.842 550.102C122.63 549.415 121.731 545.777 121.453 545.553C121.344 545.465 121.173 545.555 121.033 545.556C109.9 545.625 97.6587 546.539 87 542.81C77.9884 539.657 70.2384 533.831 63.3188 527.385C57.8651 522.304 53.0188 516.653 48.4099 510.806C37.8263 497.38 29.0245 482.394 24.5562 465.775C22.2927 457.356 21.3607 448.671 21.1004 439.974L20.8457 396.572C20.8146 384.146 20.1623 371.089 21.886 358.77C22.4537 354.712 23.7083 350.724 25.0515 346.863C28.9499 335.66 34.6497 325.616 42.4207 316.645C45.959 312.56 49.7245 308.791 54.7053 306.519C59.8719 304.162 65.4995 305.1 70.835 303.749C73.7615 303.009 76.532 301.121 78.8854 299.274C79.8475 298.519 81.9127 296.807 82.403 295.698C82.8753 294.629 82.9183 292.4 83.1069 291.192L85.3736 275.982C86.2308 270.59 87.3904 265.15 88.86 259.89C96.1907 233.652 105.289 208.037 115.674 182.86C119.111 174.526 122.321 165.799 126.576 157.852C131.204 149.206 136.854 140.974 142.519 132.986C148.879 124.018 155.594 115.013 163.147 107.01C177.645 91.6479 193.735 79.1784 211.5 67.8637C222.71 60.7243 234.066 54.1177 246.145 48.5461C273.811 35.7853 304.637 27.2419 334.841 23.3682C347.142 21.7905 359.46 21.1495 371.847 20.7956Z"/>
	<defs>
		<linearGradient id="gradient_0" gradientUnits="userSpaceOnUse" x1="637.12506" y1="484.58661" x2="621.82428" y2="485.9747">
			<stop offset="0" stop-color="#944D00"/>
			<stop offset="1" stop-color="#AE6700"/>
		</linearGradient>
	</defs>
	<path fill="url(#gradient_0)" transform="scale(0.666667 0.666667)" d="M633.345 424.835C633.432 427.908 633.081 431.017 633.233 434.062C633.339 436.191 633.979 438.268 634.099 440.422L634.223 457.557C633.973 478.456 632.258 499.781 629.572 520.513C629.172 523.599 629.063 529.201 627.444 531.75L627.771 531.95C628.204 532.229 628.059 532.087 628.31 532.483C627.089 532.301 626.46 532.343 625.482 531.562L633.345 424.835Z"/>
	<path fill="#EEEFED" transform="scale(0.666667 0.666667)" d="M707.683 352.109C707.609 344.431 706.927 336.827 705.63 329.258C704.755 324.153 703.504 319.166 702.933 314.005C706.749 315.876 709.598 318.078 712.714 320.952C716.404 328.582 717.686 335.637 717.751 344.108C717.777 347.456 717.781 350.713 717.131 354.009L717.017 354.606C716.53 356.986 715.136 359.795 713.063 361.161C712.104 361.793 710.424 362.674 709.268 362.438C708.612 361.525 708.381 360.565 708.078 359.503L707.683 352.109Z"/>
	<path fill="#B7BFC5" transform="scale(0.666667 0.666667)" d="M637.995 256.039C638.99 254.697 662.963 251.074 666.638 250.498L674.655 288.385L639.782 291.334L639.504 268.039C639.268 264.103 639.042 259.838 637.995 256.039Z"/>
	<path fill="#B7BFC5" transform="scale(0.666667 0.666667)" d="M103.536 246.724L130.356 252.596C129.341 256.261 128.967 260.232 128.494 264C127.336 273.205 126.698 281.939 127.601 291.189L93.9942 287.155C94.279 282.076 95.4845 276.911 96.6144 271.96L103.536 246.724Z"/>
	<path fill="#E48D11" transform="scale(0.666667 0.666667)" d="M132.512 548.336L132.856 548.566C135.219 550.212 137.024 552.563 138.967 554.665C142.488 558.474 146.063 562.309 149.211 566.438L160.571 582.314C167.025 590.725 174.307 599.29 181.769 606.816C191.188 616.316 201.586 623.575 212.601 631.034L241.649 650.353C259.74 662.295 277.529 675.424 296.384 686.108C307.037 692.145 318.56 697.053 329.926 701.547C340.023 705.54 349.547 708.981 360.375 710.585C373.948 712.596 387.767 711.982 401.259 709.744C417.994 706.969 434.313 700.211 449.614 693.085C465.117 685.864 479.871 677.325 494.627 668.728C513.364 657.812 532.166 646.547 549.832 633.943L564.58 622.621C575.77 614.113 588.074 605.22 596.252 593.625C601.216 586.586 605.382 578.997 610.531 572.076C614.911 566.188 620.151 561.189 625.529 556.227C627.84 554.094 629.905 551.513 632.625 549.89L634.091 550.153C629.818 565.16 624.333 581.217 616.469 594.75C608.282 608.837 592.516 617.797 580.733 628.592L544.827 664.743C536.243 672.788 526.996 679.633 517.285 686.232C496.73 700.2 473.616 712.531 449.5 718.985C429.367 724.373 409.381 725.696 388.641 725.724C374.434 725.743 359.858 725.632 345.752 723.915C317.885 720.522 290.982 710.749 266.774 696.691C256.524 690.739 247.2 684.103 237.65 677.134C231.974 672.992 226.142 668.995 220.962 664.228C215.671 659.36 210.976 653.902 206.038 648.686L180.633 622.65L163.003 605.74C158.936 601.729 154.887 597.724 151.648 592.991C147.876 587.479 145.205 581.139 142.529 575.036C138.779 566.486 134.918 557.349 132.512 548.336Z"/>
	<path fill="#2B3F4E" transform="scale(0.666667 0.666667)" d="M103.536 246.724L108.206 232.064L115.216 212.907L126.626 182.25C130.489 173.242 134.848 163.975 139.832 155.533C143.909 148.626 148.656 142.079 153.345 135.579C164.69 119.849 177.363 105.701 192.477 93.4922C207.199 81.5996 223.471 71.945 240.402 63.5729C259.595 54.0827 279.763 46.3438 300.572 41.2334C328.248 34.4367 356.192 32.6058 384.601 32.2002C407.28 31.8765 429.403 32.4192 451.79 36.3935C462.923 38.3699 474.025 41.6912 484.723 45.3216C513.856 55.208 541.825 70.262 566.295 88.8605C573.379 94.2445 580.377 99.7397 586.85 105.857C598.234 116.615 608.598 128.929 617.768 141.605C624.67 151.146 631.17 161.063 636.358 171.653C639.284 177.625 641.66 183.906 644.155 190.069L656.645 221.81L664.283 242.326C665.139 244.937 666.312 247.78 666.638 250.498C662.963 251.074 638.99 254.697 637.995 256.039C636.82 253.181 636.543 249.962 636.113 246.925L634.127 234.26L627.534 204.768C626.022 198.995 624.672 193.029 622.726 187.39C619.897 179.19 616.072 171.532 611.624 164.102C600.969 146.306 588.455 128.823 573.106 114.752C566.544 108.738 559.305 103.689 551.89 98.7992C537.971 89.6185 523.654 81.9632 508.313 75.3949C494.228 69.3643 479.729 63.6797 464.849 59.9581C455.03 57.5024 444.934 55.2084 434.908 53.8125C420.545 51.8129 405.924 51.4067 391.441 51.2662C370.16 51.0598 348.378 52.1993 327.372 55.7092C289.639 62.0137 251.43 76.0545 218.62 95.7602C204.297 104.363 189.746 114.589 179.509 128.032C175.208 133.679 171.643 139.784 167.874 145.782C162.607 154.164 157.165 162.328 152.976 171.333C148.768 180.378 145.95 190.069 143.286 199.656L132.669 241.606L130.356 252.596L103.536 246.724Z"/>
	<path fill="#2B3F4E" transform="scale(0.666667 0.666667)" d="M472.751 185.849C472.318 182.916 472.707 179.684 472.825 176.707C473.131 168.986 473.557 161.187 474.883 153.567C479.932 152.654 485.108 151.535 490.254 151.496C506.897 151.37 524.742 159.375 538.228 168.769C547.808 175.442 555.719 184.167 562.947 193.27L581.259 218.767L594.035 239.329C605.916 258.334 618.573 277.45 628.257 297.674C629.327 299.908 631.108 302.759 631.505 305.197L631.598 306.321C631.019 307.741 631.173 309.367 631.168 310.878L630.914 311.317C630.457 312.123 629.976 312.906 629.793 313.826C629.342 316.103 629.684 319.212 629.67 321.569L629.706 343.162L629.602 375.836C629.561 383.794 629.28 391.801 630.152 399.724L591.412 326.885L591.495 337.281C591.591 340.874 592.16 344.759 591.487 348.298L591.438 348.581C586.598 336.142 583.603 322.887 581.112 309.792C579.871 303.27 578.577 296.717 578.11 290.086L573.298 290.762C555.45 294.092 535.845 291.358 520.387 281.545C494.855 265.339 482.845 235.043 476.395 206.895C475.244 202.768 474.579 198.341 474.008 194.095C473.7 191.807 473.77 187.884 472.751 185.849Z"/>
	<path transform="scale(0.666667 0.666667)" d="M476.395 206.895C477.205 206.528 477.445 206.198 478.33 206.438C481.927 213.96 484.582 221.79 488.681 229.106C491.951 234.943 496.034 240.256 500.134 245.524C512.69 261.655 527.605 277.107 547.38 284.003C555.353 286.783 564.735 289.537 573.213 288.687L573.393 288.154L575.611 287.808C563.613 287.344 553.602 280.095 545.645 271.54C538.079 263.404 531.547 254.538 525.498 245.231C524.485 243.673 522.466 241.199 522.201 239.438L522.548 239.902C524.228 242.101 526.582 244.1 528.56 246.046C537.321 254.665 547.012 261.533 557.474 267.923C566.575 273.481 575.843 278.711 586.454 280.645C589.698 281.236 592.96 280.707 596.217 280.962C593.434 282.339 590.475 283.249 587.646 284.512C585.181 285.612 582.076 287.626 579.467 288.152C578.491 288.349 577.364 288.207 576.377 288.132L577.314 288.469C576.816 289.345 577.201 289.007 576.375 289.316L575.928 289.504C575.123 289.826 575.76 289.598 574.996 289.752C574.292 289.894 573.852 290.33 573.298 290.762C555.45 294.092 535.845 291.358 520.387 281.545C494.855 265.339 482.845 235.043 476.395 206.895Z"/>
	<defs>
		<linearGradient id="gradient_1" gradientUnits="userSpaceOnUse" x1="735.54358" y1="460.45941" x2="590.42419" y2="384.01343">
			<stop offset="0" stop-color="#D27000"/>
			<stop offset="1" stop-color="#FFCD00"/>
		</linearGradient>
	</defs>
	<path fill="url(#gradient_1)" transform="scale(0.666667 0.666667)" d="M631.598 306.321C636.263 304.744 672.801 299.473 677.396 301.597C679.285 302.47 680.866 304.152 682.335 305.585C687.676 310.797 691.606 316.787 693.862 323.938C694.947 327.374 695.614 330.99 696.373 334.511C698.47 344.244 699.907 354.723 699.705 364.719C700.48 364.749 701 364.803 701.74 364.521L702.171 364.322L702.562 364.759C702.654 362.745 702.29 359.755 703.5 358.173C704.388 357.999 705.254 357.777 706.148 358.025C706.901 358.233 706.772 358.149 707.438 357.826C707.71 355.912 707.693 354.035 707.683 352.109L708.078 359.503C708.381 360.565 708.612 361.525 709.268 362.438C710.424 362.674 712.104 361.793 713.063 361.161C715.136 359.795 716.53 356.986 717.017 354.606L717.131 354.009C717.781 350.713 717.777 347.456 717.751 344.108C717.686 335.637 716.404 328.582 712.714 320.952C714.959 322.381 716.679 324.353 718.481 326.282C725.801 334.125 731.045 344.903 733.403 355.363C733.862 357.399 734.273 359.509 734.37 361.597C735.461 365.435 735.286 370.28 735.424 374.257L735.835 402.437L735.792 430.959C735.758 439.198 735.964 447.524 734.568 455.675C733.048 464.558 729.545 472.909 725.172 480.745C721.951 486.519 718.396 492.091 714.533 497.457C712.983 499.611 711.453 501.998 709.662 503.948C700.391 516.682 685.993 530.663 669.836 533.186C656.251 535.307 641.952 532.843 628.31 532.483C628.059 532.087 628.204 532.229 627.771 531.95L627.444 531.75C629.063 529.201 629.172 523.599 629.572 520.513C632.258 499.781 633.973 478.456 634.223 457.557L634.099 440.422C633.979 438.268 633.339 436.191 633.233 434.062C633.081 431.017 633.432 427.908 633.345 424.835L631.168 310.878C631.173 309.367 631.019 307.741 631.598 306.321Z"/>
	<path fill="#2B0500" transform="scale(0.666667 0.666667)" d="M695.19 489.682L695.869 489.641C696.194 490.331 696.551 490.848 697.031 491.439C697.154 490.217 697.441 489.679 697.781 488.531C697.971 487.891 697.779 487.109 697.969 486.469L698.719 483.469C698.885 482.872 699.096 482.506 699.188 481.875L699.562 479.625L699.75 478.688C699.882 478.187 700.034 477.805 700.085 477.281C700.147 476.653 700.088 476.968 700.213 476.344L700.312 475.875L700.5 474.938C700.802 473.954 700.893 473.163 700.969 472.127C701.352 472.805 701.308 473.644 701.374 474.413L694.423 503.773L693.603 505.769C693.198 505.622 693.402 505.746 693.051 505.312L693.676 500.44L695.19 489.682Z"/>
	<defs>
		<linearGradient id="gradient_2" gradientUnits="userSpaceOnUse" x1="695.98169" y1="425.03104" x2="706.35455" y2="425.08887">
			<stop offset="0" stop-color="#351400"/>
			<stop offset="1" stop-color="#7E4100"/>
		</linearGradient>
	</defs>
	<path fill="url(#gradient_2)" transform="scale(0.666667 0.666667)" d="M707.683 352.109L708.078 359.503C707.439 362.549 707.573 365.688 707.545 368.786L707.44 381.586L706.665 428.062C706.388 435.927 706.354 444.661 704.825 452.363L701.374 474.413C701.308 473.644 701.352 472.805 700.969 472.127C700.893 473.163 700.802 473.954 700.5 474.938L700.312 475.875L700.213 476.344C700.088 476.968 700.147 476.653 700.085 477.281C700.034 477.805 699.882 478.187 699.75 478.688L699.562 479.625L699.188 481.875C699.096 482.506 698.885 482.872 698.719 483.469L697.969 486.469C697.779 487.109 697.971 487.891 697.781 488.531C697.441 489.679 697.154 490.217 697.031 491.439C696.551 490.848 696.194 490.331 695.869 489.641L695.19 489.682L699.705 364.719C700.48 364.749 701 364.803 701.74 364.521L702.171 364.322L702.562 364.759C702.654 362.745 702.29 359.755 703.5 358.173C704.388 357.999 705.254 357.777 706.148 358.025C706.901 358.233 706.772 358.149 707.438 357.826C707.71 355.912 707.693 354.035 707.683 352.109Z"/>
	<path fill="#EEEFED" transform="scale(0.666667 0.666667)" d="M657.742 391.802C656.227 391.232 655.213 390.777 654.122 389.559C653.415 386.043 653.796 382.061 653.807 378.457L653.851 358.957L653.384 315.332C653.423 313.641 653.25 311.404 654.107 309.938C656.234 308.569 659.616 307.852 662.119 308.403C663.373 308.679 664.842 309.313 665.511 310.469C666.865 312.809 667.375 316.611 667.678 319.277C669.599 336.19 669.066 353.604 669.126 370.611L669.159 382.378C669.16 384.969 669.284 387.623 668.739 390.168C666.053 392.287 663.325 392.359 660.042 391.983C659.258 391.893 658.533 391.77 657.742 391.802Z"/>
	<path fill="#FBC301" transform="scale(0.666667 0.666667)" d="M712.714 320.952C714.959 322.381 716.679 324.353 718.481 326.282C725.801 334.125 731.045 344.903 733.403 355.363C733.862 357.399 734.273 359.509 734.37 361.597L734.33 363.609C734.299 367.327 733.173 371.353 732.105 374.904L713.162 429.523L708.553 444.572C707.751 447.329 707.051 451.902 705.375 454.195C705.134 453.578 704.981 453.004 704.825 452.363C706.354 444.661 706.388 435.927 706.665 428.062L707.44 381.586L707.545 368.786C707.573 365.688 707.439 362.549 708.078 359.503C708.381 360.565 708.612 361.525 709.268 362.438C710.424 362.674 712.104 361.793 713.063 361.161C715.136 359.795 716.53 356.986 717.017 354.606L717.131 354.009C717.781 350.713 717.777 347.456 717.751 344.108C717.686 335.637 716.404 328.582 712.714 320.952Z"/>
	<path fill="#E48D11" transform="scale(0.666667 0.666667)" d="M657.742 391.802C658.533 391.77 659.258 391.893 660.042 391.983C663.325 392.359 666.053 392.287 668.739 390.168C670.504 394.517 669.777 401.23 669.871 405.898L669.903 439.59L669.823 447.618C669.813 448.891 669.598 450.543 669.831 451.782L667.841 513.302C667.143 517.129 668.264 521.379 666.077 524.871C665.216 526.245 664.376 526.723 662.812 527.056C661.072 527.427 658.475 526.966 657.004 525.955C656.024 525.282 654.441 524.235 654.314 523.037C653.984 519.914 654.526 516.25 654.643 513.091L655.517 490.02L656.498 437.761L656.581 408.345C656.533 403.992 656.049 399.49 656.219 395.16C656.248 394.421 656.223 393.665 656.694 393.087L657.742 391.802Z"/>
	<defs>
		<linearGradient id="gradient_3" gradientUnits="userSpaceOnUse" x1="30.242416" y1="460.71417" x2="175.12984" y2="385.53928">
			<stop offset="0" stop-color="#CE6E00"/>
			<stop offset="1" stop-color="#FFC700"/>
		</linearGradient>
	</defs>
	<path fill="url(#gradient_3)" transform="scale(0.666667 0.666667)" d="M69.7022 362.144C70.0042 352.648 71.1029 343.18 72.5873 333.799C73.7793 326.266 75.2701 314.979 81.1242 309.498C84.4148 306.418 89.2757 301.787 93.8163 300.856C95.3985 300.532 97.2946 300.692 98.901 300.772C105.665 301.111 112.616 302.209 119.304 303.345C124.534 304.234 129.716 305.041 134.779 306.666C133.989 314.071 134.117 321.581 133.954 329.022L133.75 375.823L134.631 429.474L135.963 483.456L139.737 524.016C139.985 527.378 139.43 531.084 136.63 533.329C134.179 535.296 125.809 534.461 122.49 534.507C114.488 534.616 105.756 535.59 97.8476 534.346C86.966 532.633 77.2561 526.616 69.3364 519.149L69.301 519.005C61.7878 513.421 54.8751 504.555 49.7534 496.839C41.8147 484.88 35.0185 469.988 31.9309 456C30.6663 450.27 30.5759 444.092 30.4638 438.247L30.1718 417.888L29.9474 386.398C29.9719 378.632 29.7236 369.958 31.2716 362.333C32.8643 355.353 34.8897 348.129 38.164 341.733C41.673 334.879 50.4393 320.789 57.9617 318.326C58.1332 317.953 58.1869 317.785 58.4862 317.438C59.6685 316.067 62.2309 313.859 64.125 313.863C64.4928 313.864 64.7145 313.979 65.0338 314.105C65.3171 317.247 63.9758 321.613 63.4561 324.813C62.392 331.366 61.3291 338.174 61.4393 344.827C61.5241 347.616 61.1484 350.903 62.0272 353.52C62.7333 355.623 62.0059 358.14 62.746 360.281C63.7594 363.213 62.4211 366.54 62.4038 369.494L62.6615 394.065L63.2144 393.272C64.1247 392.018 66.1119 391.344 67.4997 390.754C67.9563 390.559 68.3429 390.34 68.8162 390.188L68.9598 384.668C69.1031 383.206 68.8145 381.655 68.9579 380.192C69.0659 379.09 68.8402 377.992 68.9081 376.875L68.8445 375.691C68.7896 374.651 68.9656 374.279 69.1912 373.312C69.9991 369.85 68.8655 365.778 69.7022 362.144Z"/>
	<path fill="#5A2B00" transform="scale(0.666667 0.666667)" d="M60.8889 358.57C60.6569 357.167 60.9703 355.427 61.0135 353.985C61.1051 350.926 61.1159 347.875 61.4393 344.827C61.5241 347.616 61.1484 350.903 62.0272 353.52C62.7333 355.623 62.0059 358.14 62.746 360.281C63.7594 363.213 62.4211 366.54 62.4038 369.494L62.6615 394.065L63.2144 393.272C64.1247 392.018 66.1119 391.344 67.4997 390.754C67.9563 390.559 68.3429 390.34 68.8162 390.188L68.9598 384.668C69.1031 383.206 68.8145 381.655 68.9579 380.192C69.0659 379.09 68.8402 377.992 68.9081 376.875L68.8445 375.691C68.7896 374.651 68.9656 374.279 69.1912 373.312C69.9991 369.85 68.8655 365.778 69.7022 362.144L70.5815 468.143L75.2492 514.125L74.9894 514.184L74.6 513.558C67.575 497.281 65.2447 479.016 63.5363 461.494C62.5281 452.453 62.719 443.142 62.6003 434.053L62.0573 394.817L61.8904 370.078C61.8602 366.877 62.3792 361.383 60.8889 358.57Z"/>
	<path fill="#EEEFED" transform="scale(0.666667 0.666667)" d="M100.353 391.723C99.2187 391.323 97.9615 391.242 97.4949 390C96.9745 388.615 97.0578 386.288 96.9882 384.81L96.7405 370.937L96.8113 323.744C97.0398 318.57 97.3873 313.343 98.3512 308.25C99.3759 307.054 100.007 307.014 101.536 306.902C103.48 306.76 106.888 306.958 108.469 308.218C111.494 310.631 111.421 322.261 111.578 326.062L111.801 365.503L111.778 380.166C111.765 382.92 111.942 385.859 111.633 388.589C111.559 389.241 111.365 389.645 111.016 390.188C109.743 391.14 108.589 391.348 107.054 391.66L100.353 391.723Z"/>
	<path fill="#E48D11" transform="scale(0.666667 0.666667)" d="M100.353 391.723L107.054 391.66L107.102 391.974L110.612 393.524C111.192 395.693 111.026 398.265 111.086 400.507L111.361 414.961L112.077 477.188L113.006 509.67L113.589 518.442C113.765 520.518 114.101 522.562 113.688 524.625C112.65 525.956 111.81 526.608 110.237 527.229C108.28 528.001 104.773 528.977 102.817 527.837C102.204 527.48 101.879 526.759 101.676 526.113C101.074 524.199 101.254 521.744 101.208 519.733L100.886 509.351L99.0442 467.568L98.3253 411.756L97.998 398.542C97.9482 396.872 97.505 394.423 98.2407 392.953L100.007 392.438L100.353 391.723Z"/>
	<path fill="#FBC301" transform="scale(0.666667 0.666667)" d="M57.9617 318.326C58.1332 317.953 58.1869 317.785 58.4862 317.438C59.6685 316.067 62.2309 313.859 64.125 313.863C64.4928 313.864 64.7145 313.979 65.0338 314.105C65.3171 317.247 63.9758 321.613 63.4561 324.813C62.392 331.366 61.3291 338.174 61.4393 344.827C61.1159 347.875 61.1051 350.926 61.0135 353.985C60.9703 355.427 60.6569 357.167 60.8889 358.57C62.3792 361.383 61.8602 366.877 61.8904 370.078L62.0573 394.817L62.6003 434.053C62.719 443.142 62.5281 452.453 63.5363 461.494C63.3818 462.12 63.2377 462.695 63 463.296C61.7784 462.096 57.793 443.7 56.6753 440.023L41.9646 395.649L31.2716 362.333C32.8643 355.353 34.8897 348.129 38.164 341.733C41.673 334.879 50.4393 320.789 57.9617 318.326Z"/>
	<path fill="#EEEFED" transform="scale(0.666667 0.666667)" d="M57.9617 318.326C58.1332 317.953 58.1869 317.785 58.4862 317.438C59.6685 316.067 62.2309 313.859 64.125 313.863C64.4928 313.864 64.7145 313.979 65.0338 314.105C65.3171 317.247 63.9758 321.613 63.4561 324.813C62.392 331.366 61.3291 338.174 61.4393 344.827C61.1159 347.875 61.1051 350.926 61.0135 353.985C60.9703 355.427 60.6569 357.167 60.8889 358.57C60.5045 359.601 60.0883 360.447 59.5207 361.391L58.5 361.496C57.4387 360.703 56.6054 359.873 55.9755 358.688C50.6613 348.688 54.8171 328.863 57.9617 318.326Z"/>
	<path fill="#FBC301" transform="scale(0.666667 0.666667)" d="M174.817 540.092C177.703 544.022 181.822 547.059 184.899 550.95C195.235 564.024 204.993 577.464 216.606 589.476C224.495 597.636 233.071 604.683 242.257 611.317C272.566 633.204 308.178 649.259 344.645 657.311C366.803 662.204 388.824 664.437 411.375 660.778C424.727 658.611 438.06 656.151 451.002 652.153C476.018 644.424 499.431 631.7 520.495 616.289C526.614 611.812 532.684 607.331 538.382 602.32C548.522 593.403 558.217 583.147 567.055 572.941C572.293 566.893 576.715 560.224 581.694 553.979C585.925 548.672 591.557 544.377 595.468 538.951C595.561 540.631 595.259 542.075 596.438 543.33C600.717 544.856 606.218 544.6 610.745 544.767L635.299 545.27L634.091 550.153L632.625 549.89C629.905 551.513 627.84 554.094 625.529 556.227C620.151 561.189 614.911 566.188 610.531 572.076C605.382 578.997 601.216 586.586 596.252 593.625C588.074 605.22 575.77 614.113 564.58 622.621L549.832 633.943C532.166 646.547 513.364 657.812 494.627 668.728C479.871 677.325 465.117 685.864 449.614 693.085C434.313 700.211 417.994 706.969 401.259 709.744C387.767 711.982 373.948 712.596 360.375 710.585C349.547 708.981 340.023 705.54 329.926 701.547C318.56 697.053 307.037 692.145 296.384 686.108C277.529 675.424 259.74 662.295 241.649 650.353L212.601 631.034C201.586 623.575 191.188 616.316 181.769 606.816C174.307 599.29 167.025 590.725 160.571 582.314L149.211 566.438C146.063 562.309 142.488 558.474 138.967 554.665C137.024 552.563 135.219 550.212 132.856 548.566L132.512 548.336C132.469 547.593 131.862 546.319 131.614 545.578C138.632 544.641 146.638 545.133 153.739 545.313C159.492 545.459 169.028 546.968 174.058 544.173C174.815 542.893 174.752 541.534 174.817 540.092Z"/>
	<path fill="#E48D11" transform="scale(0.666667 0.666667)" d="M589.256 578.062L589.438 578.484C584.049 587.259 577.49 594.928 569.971 601.959C559.75 611.515 548.517 619.623 537.483 628.169C518.111 643.171 498.317 657.927 475.934 668.193C458.436 676.219 440.086 680.951 421.137 683.966C406.077 686.363 390.786 687.928 375.522 687.422C362.501 686.99 349.309 684.095 336.777 680.63C303.457 671.417 272.199 656.586 243.832 636.794C234.056 629.974 224.503 622.761 216.353 614.03L210.315 605.723L217.556 612.683C222.898 617.483 229.033 621.325 235.1 625.128L260.119 639.511C301.592 660.794 345.212 677.742 392.664 675.03C412.875 673.875 432.145 669.283 451.385 663.239C473.935 656.154 496.439 646.878 516.854 634.895C523.592 630.94 529.994 626.324 536.365 621.81L558.151 605.849C568.955 597.338 580.067 588.34 589.256 578.062Z"/>
	<path fill="#FBC301" transform="scale(0.666667 0.666667)" d="M381.39 61.6722C404.688 61.0786 428.497 62.6282 451.312 67.5006C473.69 72.2794 495.51 80.3808 516.095 90.3141C531.489 97.7426 546.523 106.251 559.846 117.031C574.37 128.783 586.087 144.286 596.438 159.704C600.899 166.349 605.389 173.029 608.68 180.357C613.213 190.451 616.016 201.094 618.587 211.824L624.375 237.95C626.137 247.021 628.015 256.174 628.965 265.372L621.356 265.786C621.13 265.798 619.725 265.923 619.624 265.874C619.457 265.792 611.215 250.796 609.561 247.951C597.093 226.518 584.891 204.984 570.304 184.895C563.507 175.534 556.437 166.443 547.416 159.101C533.105 147.454 511.129 140.859 492.842 140.316C490.072 140.234 487.18 140.023 484.423 140.344L484.084 140.389C482.844 137.691 480.899 135.259 479.131 132.891C471.794 123.065 462.862 115.46 453.124 108.099C445.55 102.373 437.46 96.691 428.426 93.5294C415.685 89.0706 400.822 90.5111 387.725 92.3385C379.183 93.7075 370.603 95.352 362.272 97.7036L337.898 105.736C319.673 111.937 301.63 118.808 284.438 127.513C258.168 140.815 232.39 155.383 209.864 174.48C200.216 182.659 190.774 191.872 183.164 202.016C177.179 209.996 172.918 219.186 167.624 227.625C160.09 239.637 151.358 252.129 146.926 265.686L137.874 264.676L146.437 227.727C150.249 211.586 154.123 194.913 160.707 179.637C165.236 169.129 171.166 159.29 177.445 149.752C182.27 142.423 187.23 135.252 193.25 128.833C201.653 119.871 211.279 113.025 221.625 106.486C254.446 85.7424 293.001 72.2242 331.205 65.8462C347.766 63.0814 364.629 62.1801 381.39 61.6722Z"/>
	<path fill="#2B3F4E" transform="scale(0.666667 0.666667)" d="M173.709 345.617L173.398 312.375L161.86 330.619C157.513 337.228 153.076 343.709 149.466 350.766C145.416 358.685 142.498 366.9 140.1 375.436L139.781 325.606L138.619 312.991C138.396 310.863 137.839 308.223 138.537 306.159C140.177 301.313 142.344 296.634 144.318 291.915L152.6 272.827L170.601 240.288C175.773 231.2 180.538 221.713 187.434 213.782C197.347 202.381 209.819 193.09 222.076 184.368C242.88 169.564 264.353 154.969 286.849 142.84C295.673 138.083 304.806 134.097 314.018 130.163C341.869 118.268 371.29 108.203 401.864 107.515C408.492 107.366 415.328 107.387 421.876 108.546C437.58 111.325 449.711 120.125 461.343 130.548C466.596 135.255 471.635 140.042 475.724 145.825C471.198 147.68 466.649 149.537 462.402 151.982C453.408 157.16 445.51 163.823 437.438 170.286L407.997 192.803L385.912 207.734L358.597 223.688L339.655 234.407L324.311 241.898L300.67 253.688C290.331 258.336 279.509 262.279 268.829 266.064L251.574 272.094C227.696 279.523 202.107 284.788 177.214 287.019L160.333 287.789L183.309 293.278C189.241 294.589 195.498 295.293 201.266 297.227L200.162 297.677C195.126 311.226 188.876 324.041 180.938 336.142C178.824 339.363 176.58 343.02 173.709 345.617Z"/>
	<path fill="#EEEFED" transform="scale(0.666667 0.666667)" d="M472.751 185.849C473.77 187.884 473.7 191.807 474.008 194.095C474.579 198.341 475.244 202.768 476.395 206.895C482.845 235.043 494.855 265.339 520.387 281.545C535.845 291.358 555.45 294.092 573.298 290.762L578.11 290.086C578.577 296.717 579.871 303.27 581.112 309.792C583.603 322.887 586.598 336.142 591.438 348.581C592.879 358.387 593.251 368.614 593.834 378.508L595.69 442.524L595.468 538.951C591.557 544.377 585.925 548.672 581.694 553.979C576.715 560.224 572.293 566.893 567.055 572.941C558.217 583.147 548.522 593.403 538.382 602.32C532.684 607.331 526.614 611.812 520.495 616.289C499.431 631.7 476.018 644.424 451.002 652.153C438.06 656.151 424.727 658.611 411.375 660.778C388.824 664.437 366.803 662.204 344.645 657.311C308.178 649.259 272.566 633.204 242.257 611.317C233.071 604.683 224.495 597.636 216.606 589.476C204.993 577.464 195.235 564.024 184.899 550.95C181.822 547.059 177.703 544.022 174.817 540.092L173.709 345.617C176.58 343.02 178.824 339.363 180.938 336.142C188.876 324.041 195.126 311.226 200.162 297.677L201.266 297.227C206 298.103 211.136 298.066 215.942 298.163C233.502 298.519 250.815 296.924 268.117 293.976C283.534 291.35 298.177 287.263 313.125 282.796C344.543 273.408 374.746 261.25 403.213 244.889C419.435 235.565 434.549 225.293 448.402 212.656C457.235 204.598 465.824 195.619 472.751 185.849Z"/>
	<path transform="scale(0.666667 0.666667)" d="M506.502 449.772C516.233 449.176 525.457 449.496 534.788 452.672C538.494 453.933 541.627 455.221 544.634 457.79C542.587 458.611 539.739 458.472 537.539 458.523L525.729 458.74C512.931 458.956 498.999 459.679 486.424 457.247C493.05 452.952 498.619 450.662 506.502 449.772Z"/>
	<path transform="scale(0.666667 0.666667)" d="M248.632 449.405C259.33 448.285 273.695 450.782 282.689 456.829C279.875 458.764 262.771 458.727 258.185 458.877L223.791 458.515C230.196 451.801 239.809 450.125 248.632 449.405Z"/>
	<path fill="#616F80" transform="scale(0.666667 0.666667)" d="M364.338 491.438C366.829 490.912 369.868 491.928 372.358 492.429C375.487 493.059 378.669 493.588 381.856 493.8C389.761 494.326 397.06 492.532 404.84 491.833C410.991 496.152 416.363 502.275 421.239 507.948C415.713 512.293 409.907 514.809 403.295 517.07C398.795 518.588 393.696 520.209 388.997 520.896C383.115 521.756 377.219 519.652 371.624 518.027C366.301 516.482 361.163 514.77 356.078 512.543C353.687 511.495 351.24 510.509 349.132 508.943L349.452 507.852C351.014 503.49 354.484 499.917 357.683 496.69C359.739 494.617 361.622 492.656 364.338 491.438Z"/>
	<path transform="scale(0.666667 0.666667)" d="M251.824 383.401C255.954 382.638 261.787 383.373 265.938 383.822C278.99 385.233 292.252 392.19 300.392 402.541C304.221 407.411 306.353 413.199 307.78 419.166C308.138 420.663 308.758 422.846 308.564 424.36C293.901 411.975 277.283 404.073 257.818 403.789C245.593 404.141 234.101 407.663 223.512 413.782C216.566 417.797 210.215 422.882 203.922 427.825C206.046 417.894 208.243 408.89 214.909 400.896C224.46 389.443 237.298 384.638 251.824 383.401Z"/>
	<path transform="scale(0.666667 0.666667)" d="M505.623 383.385C519.019 381.938 533.581 385.76 544.583 393.461C556.442 401.762 561.627 413.869 564.109 427.646C560.208 425.288 556.75 422.246 553.056 419.59C543.365 412.624 532.348 406.987 520.588 404.684L514.688 403.992C495.424 402.803 473.813 412.038 459.537 424.687C460.415 416.097 463.268 408.144 468.696 401.364C477.657 390.169 491.836 385.009 505.623 383.385Z"/>
	<path transform="scale(0.666667 0.666667)" d="M236.532 330.09L288 329.888L303.41 329.931C306.386 329.947 309.64 329.722 312.568 330.241C314.681 330.616 316.654 331.839 318.275 333.213C321.722 336.133 323.569 339.848 323.913 344.338C324.163 347.606 323.901 351.227 321.562 353.746C320.377 355.023 318.833 355.848 317.112 356.125C312.999 356.788 307.938 356.032 303.682 356.024L270.223 356.189C262.75 356.196 254.871 355.695 247.448 356.354C241.169 356.911 234.783 358.817 228.84 360.862C218.617 364.379 208.597 368.929 199.033 373.963C199.13 372.621 199.878 370.997 200.307 369.703C202.176 364.068 204.894 358.451 208.234 353.544C211.931 348.112 216.712 343.436 221.616 339.097C226.181 335.059 230.344 331.233 236.532 330.09Z"/>
	<path transform="scale(0.666667 0.666667)" d="M451.214 329.359C455.601 328.97 460.219 329.255 464.625 329.302L486.934 329.459L514.815 329.535C519.639 329.549 524.617 329.31 529.417 329.663C531.308 329.803 533.069 330.451 534.757 331.292C545.754 336.77 556.925 347.456 563.083 358.036C565.839 362.77 567.767 367.932 569.487 373.113L561.891 369.063C551.405 363.978 540.128 358.561 528.547 356.646C521.873 355.542 514.644 356.006 507.892 355.988L470.92 356.156L458.101 356.3C454.581 356.339 450.439 356.81 447.188 355.195C444.366 353.793 442.371 351.169 441.434 348.205C440.18 344.241 441.282 339.165 443.227 335.625C445.136 332.151 447.529 330.502 451.214 329.359Z"/>
	<path fill="#FD4A67" transform="scale(0.666667 0.666667)" d="M263.275 476.389C267.168 476.014 271.366 475.945 275.232 476.59C281.466 477.632 287.501 479.903 291.188 485.367C292.749 487.681 293.391 490.706 292.779 493.451C291.536 499.016 285.929 501.523 281.608 504.291C278.901 506.025 276.249 507.908 273.874 510.08C259.671 523.072 260.514 545.421 243.154 555.909C240.06 557.779 237.111 558.708 233.595 559.443C226.346 560.321 219.083 558.748 213.157 554.329C208.305 550.712 205.244 545.238 204.429 539.25C202.821 527.445 207.234 515.132 214.411 505.845C226.324 490.428 243.72 478.937 263.275 476.389Z"/>
	<path fill="#FD4A67" transform="scale(0.666667 0.666667)" d="M496.317 475.654C509.639 475.014 521.87 478.921 532.884 486.296C545.476 494.728 559.516 510.513 562.45 525.789L563.129 529.875C563.785 537.231 562.209 544.909 557.419 550.693C552.345 556.819 545.576 558.664 537.946 559.318C524.175 558.941 515.614 549.662 509.812 538.035C505.792 529.979 502.927 521.343 496.989 514.385C493.453 510.241 488.662 506.701 483.824 504.231C480.842 502.708 477.568 501.389 474.865 499.395C472.458 497.619 470.983 495.382 470.645 492.375C470.263 488.973 471.114 485.899 473.344 483.276C478.553 477.151 488.853 476.199 496.317 475.654Z"/>
	<path transform="scale(0.666667 0.666667)" d="M293.817 532.932C295.486 532.847 296.949 532.834 298.573 533.326C302.216 534.432 305.643 536.521 309.191 537.93C316.615 540.879 324.463 542.932 332.28 544.519C346.571 547.42 361.014 548.622 375.562 549.165C397.602 549.988 419.901 549.164 441.375 543.747C447.486 542.206 453.365 540.331 459.216 537.995C462.784 536.571 466.669 534.262 470.398 533.488C472.278 533.098 473.887 533.065 475.465 534.263C476.844 535.309 477.532 536.989 477.634 538.688C477.945 543.881 475.774 549.507 474.075 554.314C471.746 560.9 469.219 567.567 465.653 573.596C463.375 577.446 460.561 580.983 457.776 584.473C450.993 592.227 442.82 598.486 433.926 603.632C411.316 616.713 383.37 619.161 358.395 612.432C334.188 605.91 312.061 589.029 299.68 567.188C296.173 561.002 293.332 554.478 291.299 547.663C290.313 544.357 289.349 540.395 290.374 537.017C291.002 534.948 291.942 533.945 293.817 532.932Z"/>
	<path fill="#EEEFED" transform="scale(0.666667 0.666667)" d="M316.673 560.812C317.195 560.598 317.374 560.567 317.928 560.569C321.445 560.582 325.722 562.242 329.251 562.897L354.941 566.601C366.036 567.687 377.114 567.833 388.252 567.804C401.694 567.769 415.173 567.329 428.539 565.803L450.551 562.328C447.34 568.941 441.758 573.891 436.31 578.656C427.201 586.069 417.72 590.933 406.572 594.561C386.709 601.026 365.042 597.485 346.742 588.082C337.221 583.19 329.982 577.03 322.761 569.246C320.415 566.717 317.749 564.155 316.673 560.812Z"/>
</svg>
