<?xml version="1.0" encoding="utf-8" ?>
<svg xmlns="http://www.w3.org/2000/svg" xmlns:xlink="http://www.w3.org/1999/xlink" width="512" height="512">
	<path fill="#171718" transform="scale(0.666667 0.666667)" d="M-0 -0L768 0L768 768L-0 768L0 -0Z"/>
	<path fill="#F9782B" transform="scale(0.666667 0.666667)" d="M378.612 191.038C394.169 190.065 410.252 192.179 425.405 195.572C445.285 200.024 465.222 207.024 482.776 217.491C523.322 241.668 555.108 280.014 566.782 326.14L690.11 381.735L666.991 392.906L581.999 432.471C580.11 433.342 564.999 439.848 564.779 440.188C564.039 441.33 563.728 444.889 563.407 446.308L560.345 457.63C554.626 475.779 543.613 493.582 531.011 507.752C507.96 533.673 478.086 552.939 444.897 563.197C438.936 565.039 432.738 566.282 426.626 567.531C414.506 570.007 402.379 571.812 390.027 572.533C353.557 573.069 316.077 565.018 284.185 546.994C275.078 541.847 266.277 535.363 258.152 528.786C235.948 510.809 217.022 485.589 207.147 458.746C205.137 453.281 203.039 447.105 202.475 441.289L202.432 440.786L77.9627 382.044L105.652 368.59L169.125 340.499L193.811 329.654C196.292 328.56 199.772 327.543 201.942 326.092C202.346 325.822 202.623 324.411 202.771 323.909C205.22 315.571 207.752 307.413 211.255 299.439C218.68 282.536 229.605 266.101 241.857 252.319C267.377 223.612 302.688 203.845 340.106 195.727C352.727 192.989 365.735 191.758 378.612 191.038Z"/>
	<path fill="#171718" transform="scale(0.666667 0.666667)" d="M374.78 245.78C410.24 243.627 448.214 254.769 475.761 277.417C503.302 300.059 519.529 333.361 522.946 368.553C526.421 404.354 517.524 443.375 494.305 471.41C483.325 484.668 468.643 496.709 453.378 504.667C434.735 514.385 413.853 519.454 393.005 521.377L392.25 521.465C384.521 522.207 376.497 521.413 368.812 520.526C339.802 517.179 311.414 506.614 289.001 487.487C276.771 477.05 265.802 463.523 258.584 449.149C250.537 433.124 246.315 415.367 244.929 397.562C242.732 369.361 247.391 340.37 261.584 315.651C266.038 307.893 271.606 300.631 277.423 293.845C301.73 265.486 337.759 248.636 374.78 245.78Z"/>
	<path fill="#F9782B" transform="scale(0.666667 0.666667)" d="M384.17 321.562C385.31 322.332 386.264 325.875 386.809 327.193L393.165 342.022L404.314 366.335L459.448 365.446L412.487 400.812L433.137 452.589C432.54 452.653 431.261 451.616 430.666 451.247L423.69 447.089L387.871 427.028L383.6 424.974C381.437 425.549 379.322 426.909 377.387 428.006L367.501 433.688C356.844 439.744 345.836 445.409 335.618 452.189L352.959 400.397C349.171 398.149 345.622 395.225 342.105 392.569L309.77 366.147C311.315 365.803 313.275 366.011 314.879 366.01L324.728 366.008L363.999 366.055L384.17 321.562Z"/>
</svg>
