<?xml version="1.0" encoding="utf-8" ?>
<svg xmlns="http://www.w3.org/2000/svg" xmlns:xlink="http://www.w3.org/1999/xlink" width="512" height="512">
	<path fill="#F0F0F0" transform="scale(0.666667 0.666667)" d="M-0 -0L768 0L768 768L-0 768L0 -0Z"/>
	<path fill="#FC140D" transform="scale(0.666667 0.666667)" d="M375.259 98.0422C389.124 97.3347 403.114 98.2892 416.891 99.8255C477.037 106.532 535.041 130.469 580.125 171.222C604.998 193.707 624.905 219.775 640.856 249.226C660.338 285.198 672.333 323.954 674.318 364.969C676.379 407.566 668.41 451.833 650.678 490.697C637.78 518.966 619.283 545.727 598.38 568.673C582.286 586.341 563.377 601.555 543.274 614.408C521.858 628.101 498.968 639.487 474.784 647.461C448.911 655.992 421.235 660.635 394.048 661.896C362.531 662.817 332.32 658.769 302.004 650.165C289.121 646.508 276.314 642.203 264.072 636.748C235.334 623.943 208.365 605.851 185.241 584.555C164.487 565.442 145.997 543.241 131.661 518.9C108.589 479.724 95.7558 434.577 93.9572 389.235C91.8169 335.28 106.518 279.162 134.985 233.228C144.58 217.745 155.908 203.521 168.256 190.158C185.504 171.492 205.526 154.853 227.296 141.659C232.481 138.517 237.908 135.851 243.273 133.041C248.318 130.4 253.279 127.635 258.483 125.31C275.689 117.623 294.092 111.8 312.375 107.303C333.299 102.156 353.693 98.8826 375.259 98.0422Z"/>
	<path transform="scale(0.666667 0.666667)" d="M570.188 337.062C569.273 336.983 568.634 336.741 567.91 336.185C566.686 335.243 566.578 333.871 566.453 332.438C567.478 329.928 569.687 328.281 571.966 326.94C579.428 322.551 590.393 320.964 598.734 323.185C605.649 325.027 612.083 329.759 615.618 336.018C619.021 342.044 619.325 348.931 617.509 355.482C613.755 369.025 601.369 379.463 591.76 389.094C577.738 403.148 563.197 416.826 547.816 429.4C533.9 440.775 519.032 451.388 504.188 461.517C493.608 468.735 482.825 475.97 471.64 482.218C454.184 491.971 435.338 500.601 415.875 505.369C395.204 510.433 371.11 510.632 350.595 504.773C328.933 498.587 309.432 489.053 289.929 477.983C250.105 455.378 213.718 426.529 181.13 394.445C174.845 388.257 168.481 382.116 162.66 375.482C159.314 371.669 155.967 367.731 153.52 363.266C150.494 357.744 147.787 349.244 149.746 342.984L149.945 342.375C151.138 338.662 153.154 335.427 155.644 332.448C161.115 325.905 168.012 322.98 176.365 322.274C183.436 322.232 191.75 323.944 197.374 328.484C198.643 329.507 200.298 331.139 200.346 332.895C200.388 334.45 199.336 335.983 198.314 337.057C196.154 339.326 186.777 328.977 176.448 329.458C170.384 329.74 165.011 332.31 160.998 336.822C157.729 340.496 156.279 345.168 156.648 350.067C156.933 353.854 158.764 357.608 160.773 360.781C164.681 366.952 169.831 372.29 174.781 377.625C188.586 392.501 203.78 406.575 219.424 419.491C251.344 445.845 285.887 470.56 324.049 487.019C346.343 496.634 369.775 503.664 394.305 501.28C411.77 499.583 428.312 494.64 444.337 487.591C470.841 475.934 494.73 459.822 517.924 442.705L537.692 428.25C550.95 417.894 563.572 406.455 575.782 394.891C584.823 386.329 594.113 377.421 601.986 367.754C607.179 361.378 612.3 354.242 611.186 345.587C610.541 340.569 607.106 336.543 603.187 333.624C596.17 328.396 586.594 328.025 579.004 332.296C576.157 333.898 573.502 336.589 570.188 337.062Z"/>
	<path fill="#F0F0F0" transform="scale(0.666667 0.666667)" d="M246.998 235.276C252.313 234.765 257.858 234.984 263.062 236.199C270.179 237.862 276.956 240.834 282.791 245.268C295.482 254.912 302.889 268.325 304.915 283.988C306.908 299.394 302.338 315.059 292.908 327.375C283.868 339.182 269.753 346.754 255.124 348.697C241.046 349.5 227.99 345.592 216.955 336.712C205.264 327.305 198.078 313.698 196.553 298.765C194.914 282.704 200.666 266.37 210.778 253.954C220.151 242.447 232.45 236.709 246.998 235.276Z"/>
	<path transform="scale(0.666667 0.666667)" d="M250.348 277.243C257.024 276.17 263.797 278.199 269.23 282.035C274.388 285.676 278.303 291.657 279.331 297.901C280.472 304.834 278.874 311.609 274.741 317.296C270.074 323.717 263.678 327.609 255.837 328.807C248.773 329.007 243.65 327.769 237.838 323.679C232.082 319.628 227.628 313.12 226.505 306.108C225.517 299.935 227.471 293.817 231.13 288.811C235.999 282.152 242.272 278.512 250.348 277.243Z"/>
	<path fill="#F0F0F0" transform="scale(0.666667 0.666667)" d="M513.803 234.904C526.946 234.273 539.769 238.455 550.12 246.589C561.445 255.489 569.017 269.722 570.65 283.963C572.443 299.602 568.133 316.048 558.313 328.434C548.638 340.637 535.051 346.674 519.843 348.396C506.38 349.27 494.196 345.863 483.604 337.283C470.629 326.772 463.187 312.191 461.637 295.654C460.272 281.091 465.115 265.857 474.489 254.687C484.503 242.756 498.484 236.263 513.803 234.904Z"/>
	<path transform="scale(0.666667 0.666667)" d="M512.855 276.486C519.087 276.281 524.925 277.368 530.207 280.86C536.211 284.83 540.273 291.775 541.54 298.807C542.74 305.468 540.427 312.775 536.534 318.181C532.347 323.995 525.65 327.829 518.626 328.954C515.573 329.044 511.234 329.36 508.344 328.405C505.337 327.412 502.54 326.02 499.953 324.19C493.869 319.885 489.704 312.94 488.517 305.584C487.536 299.507 489.265 293.821 492.796 288.901C497.868 281.83 504.323 277.868 512.855 276.486Z"/>
</svg>
