<!DOCTYPE svg PUBLIC "-//W3C//DTD SVG 1.1//EN" "http://www.w3.org/Graphics/SVG/1.1/DTD/svg11.dtd">
<svg xmlns="http://www.w3.org/2000/svg" viewBox="0 0 643 384">
<path fill="#04fcfc" stroke="#04fcfc" d="M248.5 60.644c-7.842 23.232-10.432 29.791-12 30.401-1.1.427-6.501 2.148-12.002 3.823-9.089 2.769-25.884 10.363-32.708 14.789-2.624 1.702-3.909 1.606-40-2.985-20.51-2.608-37.965-4.721-38.79-4.695-1.737.054.082 1.253 29.141 19.221l21.641 13.38-4.728 7.042c-21.596 32.172-18.442 72.828 8.026 103.458l4.82 5.578-18.52 27.769c-10.186 15.273-18.29 27.998-18.01 28.278.28.281 18.046-6.097 39.48-14.172l38.971-14.682 9.339 2.975c18.281 5.822 24.399 6.676 47.84 6.676 18.855 0 22.777-.286 31.881-2.324 16.854-3.774 37.059-11.788 46.444-18.422 2.772-1.96 3.391-1.973 32.552-.726 16.349.699 30.286 1.084 30.971.856.685-.228-6.365-6.674-15.667-14.323l-16.913-13.909 3.785-5.856c17.422-26.955 17.386-62.693-.09-89.732l-3.876-5.997 8.707-5.362a9534.9 9534.9 0 0 1 24.963-15.283c8.942-5.457 15.617-10.06 14.834-10.229-.783-.169-16.953 1.782-35.935 4.336l-34.511 4.644-5.823-3.952c-17.753-12.048-43.474-20.906-66.801-23.003l-7.98-.718-9.008-28.25c-4.955-15.538-9.239-28.246-9.521-28.24-.282.005-5.012 13.34-10.512 29.634M475 68v34h135V34H475v34m-23.076 109.581-2.424 2.58v171.794l2.773 2.772 2.772 2.773h63.794l2.58-2.424 2.581-2.425V179.349l-2.314-2.175c-2.279-2.14-2.822-2.174-34.826-2.174h-32.511l-2.425 2.581" fill-rule="evenodd"/>
<path fill="#fc0484" stroke="#fc0484" d="M248.355 61.005c-9.258 27.358-9.957 29.938-8 29.497 7.038-1.587 16.523-2.488 26.255-2.494L277.719 88l-9.101-28.5c-5.006-15.675-9.33-28.494-9.61-28.488-.279.007-5.073 13.504-10.653 29.993M475 68v34h135V34H475v34m-361.473 35.354c5.265 3.614 49.412 30.646 50.05 30.646.402 0 3.088-2.588 5.968-5.75 2.879-3.162 8.43-8.225 12.334-11.25 3.905-3.025 6.541-5.603 5.86-5.728-3.842-.708-72.207-9.272-74.015-9.272-2.129 0-2.132.025-.197 1.354M392 110.562c-17.325 2.401-32.086 4.382-32.802 4.402-.716.02 1.35 2.243 4.59 4.939 4.51 3.754 14.056 13.952 15.853 16.936.178.296 43.545-25.901 48.832-29.497 3.023-2.057-.874-1.713-36.473 3.22m59.924 67.019-2.424 2.58v171.794l2.773 2.772 2.772 2.773h63.794l2.58-2.424 2.581-2.425V179.349l-2.314-2.175c-2.279-2.14-2.822-2.174-34.826-2.174h-32.511l-2.425 2.581m-77.465 67.721c-2.772 3.375-8.691 9.075-13.154 12.667l-8.114 6.531 10.655.647c30.736 1.867 50.692 2.109 49.154.597-3.294-3.239-32.254-26.739-32.856-26.661-.354.046-2.912 2.844-5.685 6.219m-221.277 33.324c-10.075 15.165-18.089 27.8-17.81 28.079.394.395 31.061-10.879 77.354-28.436.675-.255-2.822-2.435-7.771-4.844-10.061-4.897-17.976-10.032-26.872-17.436-3.298-2.744-6.128-4.977-6.289-4.962-.162.016-8.537 12.435-18.612 27.599" fill-rule="evenodd"/>
<path fill="#fcfcfc" stroke="#fcfcfc" d="M248.355 61.005c-9.258 27.358-9.957 29.938-8 29.497 7.038-1.587 16.523-2.488 26.255-2.494L277.719 88l-9.101-28.5c-5.006-15.675-9.33-28.494-9.61-28.488-.279.007-5.073 13.504-10.653 29.993m-134.828 42.349c5.265 3.614 49.412 30.646 50.05 30.646.402 0 3.088-2.588 5.968-5.75 2.879-3.162 8.43-8.225 12.334-11.25 3.905-3.025 6.541-5.603 5.86-5.728-3.842-.708-72.207-9.272-74.015-9.272-2.129 0-2.132.025-.197 1.354M392 110.562c-17.325 2.401-32.086 4.382-32.802 4.402-.716.02 1.35 2.243 4.59 4.939 4.51 3.754 14.056 13.952 15.853 16.936.178.296 43.545-25.901 48.832-29.497 3.023-2.057-.874-1.713-36.473 3.22m59.924 67.019-2.424 2.58v171.794l2.773 2.772 2.772 2.773h63.794l2.58-2.424 2.581-2.425V179.349l-2.314-2.175c-2.279-2.14-2.822-2.174-34.826-2.174h-32.511l-2.425 2.581m-77.465 67.721c-2.772 3.375-8.691 9.075-13.154 12.667l-8.114 6.531 10.655.647c30.736 1.867 50.692 2.109 49.154.597-3.294-3.239-32.254-26.739-32.856-26.661-.354.046-2.912 2.844-5.685 6.219m-221.277 33.324c-10.075 15.165-18.089 27.8-17.81 28.079.394.395 31.061-10.879 77.354-28.436.675-.255-2.822-2.435-7.771-4.844-10.061-4.897-17.976-10.032-26.872-17.436-3.298-2.744-6.128-4.977-6.289-4.962-.162.016-8.537 12.435-18.612 27.599" fill-rule="evenodd"/>
<path fill="#fcfcfc" stroke="#fcfcfc" d="m451.924 177.581-2.424 2.58v171.794l2.773 2.772 2.772 2.773h63.794l2.58-2.424 2.581-2.425V179.349l-2.314-2.175c-2.279-2.14-2.822-2.174-34.826-2.174h-32.511l-2.425 2.581" fill-rule="evenodd"/>
</svg>