<?xml version="1.0" encoding="UTF-8" standalone="no"?>
<!DOCTYPE svg PUBLIC "-//W3C//DTD SVG 1.1//EN" "http://www.w3.org/Graphics/SVG/1.1/DTD/svg11.dtd">
<svg xmlns="http://www.w3.org/2000/svg" version="1.1" viewBox="0.00 0.00 643.00 384.00">
<g stroke-width="2.00" fill="none" stroke-linecap="butt">
<path stroke="#80ffff" vector-effect="non-scaling-stroke" d="
  M 238.09 90.76
  Q 232.58 92.29 227.27 93.84
  Q 207.02 99.76 189.47 111.07"
/>
<path stroke="#ff8080" vector-effect="non-scaling-stroke" d="
  M 189.47 111.07
  Q 186.82 111.16 182.23 110.57
  Q 152.58 106.79 122.93 102.96
  C 119.57 102.52 116.16 101.59 112.36 102.08
  Q 111.53 102.19 112.24 102.64
  L 163.60 134.46"
/>
<path stroke="#80ffff" vector-effect="non-scaling-stroke" d="
  M 163.60 134.46
  Q 163.25 135.71 162.24 136.99
  Q 144.60 159.45 144.72 187.99
  Q 144.77 198.84 146.18 205.26
  Q 150.16 223.40 162.61 239.91
  Q 165.50 243.74 171.89 250.63"
/>
<path stroke="#ff8080" vector-effect="non-scaling-stroke" d="
  M 171.89 250.63
  Q 153.61 278.18 135.21 305.24
  Q 134.60 306.14 135.36 306.80
  A 1.08 1.05 54.4 0 0 136.44 306.99
  L 214.22 277.71"
/>
<path stroke="#80ffff" vector-effect="non-scaling-stroke" d="
  M 214.22 277.71
  C 237.77 287.00 260.79 289.75 285.55 287.71
  C 309.39 285.74 332.03 277.96 352.22 265.12"
/>
<path stroke="#ff8080" vector-effect="non-scaling-stroke" d="
  M 352.22 265.12
  Q 360.42 264.70 371.43 265.54
  Q 384.26 266.52 413.00 267.08
  Q 413.15 267.09 413.27 267.08
  A 0.59 0.58 63.8 0 0 413.62 266.04
  L 380.18 238.51"
/>
<path stroke="#80ffff" vector-effect="non-scaling-stroke" d="
  M 380.18 238.51
  C 389.96 225.69 395.93 210.89 397.04 194.57
  Q 397.90 181.93 395.83 171.24
  Q 392.41 153.60 379.92 137.18"
/>
<path stroke="#ff8080" vector-effect="non-scaling-stroke" d="
  M 379.92 137.18
  L 429.88 106.65
  A 0.37 0.37 0.0 0 0 429.64 105.96
  L 357.84 115.07"
/>
<path stroke="#80ffff" vector-effect="non-scaling-stroke" d="
  M 357.84 115.07
  Q 331.68 96.06 299.50 90.02
  Q 287.92 87.84 277.79 87.95"
/>
<path stroke="#ff8080" vector-effect="non-scaling-stroke" d="
  M 277.79 87.95
  L 259.69 31.38
  A 0.72 0.72 0.0 0 0 258.33 31.37
  L 238.09 90.76"
/>
<path stroke="#808080" vector-effect="non-scaling-stroke" d="
  M 277.79 87.95
  Q 270.08 87.98 262.04 88.06
  Q 255.71 88.12 250.01 88.92
  Q 244.08 89.76 238.09 90.76"
/>
<path stroke="#808080" vector-effect="non-scaling-stroke" d="
  M 357.84 115.07
  Q 370.42 124.17 379.92 137.18"
/>
<path stroke="#808080" vector-effect="non-scaling-stroke" d="
  M 380.18 238.51
  C 371.82 249.81 364.03 256.26 352.22 265.12"
/>
<path stroke="#808080" vector-effect="non-scaling-stroke" d="
  M 214.22 277.71
  Q 190.81 268.39 171.89 250.63"
/>
<path stroke="#808080" vector-effect="non-scaling-stroke" d="
  M 163.60 134.46
  Q 164.63 133.75 165.00 133.27
  C 171.88 124.51 180.63 117.78 189.47 111.07"
/>
<path stroke="#ff80c0" vector-effect="non-scaling-stroke" d="
  M 610.00 34.76
  A 0.76 0.76 0.0 0 0 609.24 34.00
  L 475.76 34.00
  A 0.76 0.76 0.0 0 0 475.00 34.76
  L 475.00 101.24
  A 0.76 0.76 0.0 0 0 475.76 102.00
  L 609.24 102.00
  A 0.76 0.76 0.0 0 0 610.00 101.24
  L 610.00 34.76"
/>
<path stroke="#8080ff" vector-effect="non-scaling-stroke" d="
  M 511.10 358.01
  C 516.38 357.98 522.86 356.89 523.95 351.03
  Q 523.98 350.86 523.99 344.46
  Q 524.02 263.74 523.99 183.02
  C 523.99 177.15 520.81 175.02 515.07 175.01
  Q 486.35 175.00 457.61 175.00
  C 448.09 175.00 449.01 186.44 449.01 192.69
  Q 448.97 266.96 449.03 341.23
  Q 449.04 349.22 450.12 351.85
  Q 452.59 357.82 460.50 357.95
  Q 473.21 358.16 511.10 358.01"
/>
</g>
<path fill="#ffffff" d="
  M 0.00 0.00
  L 643.00 0.00
  L 643.00 384.00
  L 0.00 384.00
  L 0.00 0.00
  Z
  M 238.09 90.76
  Q 232.58 92.29 227.27 93.84
  Q 207.02 99.76 189.47 111.07
  Q 186.82 111.16 182.23 110.57
  Q 152.58 106.79 122.93 102.96
  C 119.57 102.52 116.16 101.59 112.36 102.08
  Q 111.53 102.19 112.24 102.64
  L 163.60 134.46
  Q 163.25 135.71 162.24 136.99
  Q 144.60 159.45 144.72 187.99
  Q 144.77 198.84 146.18 205.26
  Q 150.16 223.40 162.61 239.91
  Q 165.50 243.74 171.89 250.63
  Q 153.61 278.18 135.21 305.24
  Q 134.60 306.14 135.36 306.80
  A 1.08 1.05 54.4 0 0 136.44 306.99
  L 214.22 277.71
  C 237.77 287.00 260.79 289.75 285.55 287.71
  C 309.39 285.74 332.03 277.96 352.22 265.12
  Q 360.42 264.70 371.43 265.54
  Q 384.26 266.52 413.00 267.08
  Q 413.15 267.09 413.27 267.08
  A 0.59 0.58 63.8 0 0 413.62 266.04
  L 380.18 238.51
  C 389.96 225.69 395.93 210.89 397.04 194.57
  Q 397.90 181.93 395.83 171.24
  Q 392.41 153.60 379.92 137.18
  L 429.88 106.65
  A 0.37 0.37 0.0 0 0 429.64 105.96
  L 357.84 115.07
  Q 331.68 96.06 299.50 90.02
  Q 287.92 87.84 277.79 87.95
  L 259.69 31.38
  A 0.72 0.72 0.0 0 0 258.33 31.37
  L 238.09 90.76
  Z
  M 610.00 34.76
  A 0.76 0.76 0.0 0 0 609.24 34.00
  L 475.76 34.00
  A 0.76 0.76 0.0 0 0 475.00 34.76
  L 475.00 101.24
  A 0.76 0.76 0.0 0 0 475.76 102.00
  L 609.24 102.00
  A 0.76 0.76 0.0 0 0 610.00 101.24
  L 610.00 34.76
  Z
  M 511.10 358.01
  C 516.38 357.98 522.86 356.89 523.95 351.03
  Q 523.98 350.86 523.99 344.46
  Q 524.02 263.74 523.99 183.02
  C 523.99 177.15 520.81 175.02 515.07 175.01
  Q 486.35 175.00 457.61 175.00
  C 448.09 175.00 449.01 186.44 449.01 192.69
  Q 448.97 266.96 449.03 341.23
  Q 449.04 349.22 450.12 351.85
  Q 452.59 357.82 460.50 357.95
  Q 473.21 358.16 511.10 358.01
  Z"
/>
<path fill="#ff0000" d="
  M 277.79 87.95
  Q 270.08 87.98 262.04 88.06
  Q 255.71 88.12 250.01 88.92
  Q 244.08 89.76 238.09 90.76
  L 258.33 31.37
  A 0.72 0.72 0.0 0 1 259.69 31.38
  L 277.79 87.95
  Z"
/>
<rect fill="#ff0080" x="475.00" y="34.00" width="135.00" height="68.00" rx="0.76"/>
<path fill="#00ffff" d="
  M 277.79 87.95
  Q 287.92 87.84 299.50 90.02
  Q 331.68 96.06 357.84 115.07
  Q 370.42 124.17 379.92 137.18
  Q 392.41 153.60 395.83 171.24
  Q 397.90 181.93 397.04 194.57
  C 395.93 210.89 389.96 225.69 380.18 238.51
  C 371.82 249.81 364.03 256.26 352.22 265.12
  C 332.03 277.96 309.39 285.74 285.55 287.71
  C 260.79 289.75 237.77 287.00 214.22 277.71
  Q 190.81 268.39 171.89 250.63
  Q 165.50 243.74 162.61 239.91
  Q 150.16 223.40 146.18 205.26
  Q 144.77 198.84 144.72 187.99
  Q 144.60 159.45 162.24 136.99
  Q 163.25 135.71 163.60 134.46
  Q 164.63 133.75 165.00 133.27
  C 171.88 124.51 180.63 117.78 189.47 111.07
  Q 207.02 99.76 227.27 93.84
  Q 232.58 92.29 238.09 90.76
  Q 244.08 89.76 250.01 88.92
  Q 255.71 88.12 262.04 88.06
  Q 270.08 87.98 277.79 87.95
  Z"
/>
<path fill="#ff0000" d="
  M 189.47 111.07
  C 180.63 117.78 171.88 124.51 165.00 133.27
  Q 164.63 133.75 163.60 134.46
  L 112.24 102.64
  Q 111.53 102.19 112.36 102.08
  C 116.16 101.59 119.57 102.52 122.93 102.96
  Q 152.58 106.79 182.23 110.57
  Q 186.82 111.16 189.47 111.07
  Z"
/>
<path fill="#ff0000" d="
  M 379.92 137.18
  Q 370.42 124.17 357.84 115.07
  L 429.64 105.96
  A 0.37 0.37 0.0 0 1 429.88 106.65
  L 379.92 137.18
  Z"
/>
<path fill="#0000ff" d="
  M 523.95 351.03
  C 522.86 356.89 516.38 357.98 511.10 358.01
  Q 473.21 358.16 460.50 357.95
  Q 452.59 357.82 450.12 351.85
  Q 449.04 349.22 449.03 341.23
  Q 448.97 266.96 449.01 192.69
  C 449.01 186.44 448.09 175.00 457.61 175.00
  Q 486.35 175.00 515.07 175.01
  C 520.81 175.02 523.99 177.15 523.99 183.02
  Q 524.02 263.74 523.99 344.46
  Q 523.98 350.86 523.95 351.03
  Z"
/>
<path fill="#ff0000" d="
  M 380.18 238.51
  L 413.62 266.04
  A 0.59 0.58 63.8 0 1 413.27 267.08
  Q 413.15 267.09 413.00 267.08
  Q 384.26 266.52 371.43 265.54
  Q 360.42 264.70 352.22 265.12
  C 364.03 256.26 371.82 249.81 380.18 238.51
  Z"
/>
<path fill="#ff0000" d="
  M 171.89 250.63
  Q 190.81 268.39 214.22 277.71
  L 136.44 306.99
  A 1.08 1.05 54.4 0 1 135.36 306.80
  Q 134.60 306.14 135.21 305.24
  Q 153.61 278.18 171.89 250.63
  Z"
/>
</svg>
