<svg id="svg" version="1.1" xmlns="http://www.w3.org/2000/svg" style="display: block;" viewBox="0 0 643 384"><path d="M0 0 C212.19 0 424.38 0 643 0 C643 126.72 643 253.44 643 384 C430.81 384 218.62 384 0 384 C0 257.28 0 130.56 0 0 Z " transform="translate(0,0)" style="fill: #FEFFFF;"/><path d="M0 0 C2.27046715 0.01611299 4.53915551 0.00001561 6.80957031 -0.01904297 C20.535232 -0.03946971 33.86668777 1.93979582 47.02050781 5.95361328 C47.83922363 6.20336914 48.65793945 6.453125 49.50146484 6.71044922 C65.03181177 11.68982435 79.65880074 19.0159456 92.27050781 29.39111328 C92.7890332 29.81473145 93.30755859 30.23834961 93.84179688 30.67480469 C111.14123671 45.05854782 125.42250912 65.60712373 128.27050781 88.39111328 C129.91126229 117.11711283 122.83139674 138.59230993 104.02050781 160.45361328 C86.08652235 179.83091606 62.516046 191.02552052 37.27050781 197.39111328 C36.58569336 197.5704541 35.90087891 197.74979492 35.1953125 197.93457031 C-1.26089986 207.0622197 -42.8153767 199.28342311 -74.84277344 180.54833984 C-79.7620317 177.53109293 -84.28799447 174.07414974 -88.72949219 170.39111328 C-89.58929688 169.68341797 -90.44910156 168.97572266 -91.33496094 168.24658203 C-108.47518025 153.49802123 -122.12809776 132.61181116 -123.95068359 109.59814453 C-125.05369779 81.99932123 -117.5013452 61.27292894 -99.47949219 40.32861328 C-84.15103135 23.76652631 -64.16734655 12.63862591 -42.72949219 6.07861328 C-41.9843335 5.84835449 -41.2391748 5.6180957 -40.47143555 5.38085938 C-27.11101346 1.5223457 -13.86387483 -0.11637777 0 0 Z " transform="translate(268.7294921875,87.60888671875)" style="fill: #00FFFF;"/><path d="M0 0 C1.30823227 -0.01268417 2.61646454 -0.02536835 3.96434021 -0.03843689 C5.39427854 -0.03638538 6.82421579 -0.0333973 8.25415039 -0.02954102 C9.72001895 -0.03410174 11.18588536 -0.03940699 12.65174866 -0.04542542 C15.72430099 -0.05436212 18.79659349 -0.05192751 21.86914062 -0.04199219 C25.80484005 -0.0305054 29.73964187 -0.05070546 33.67522335 -0.07990932 C36.70274037 -0.09826523 39.73004208 -0.09798011 42.75760078 -0.0922718 C44.20846376 -0.09211849 45.65934123 -0.09817118 47.11015129 -0.11056328 C49.13979037 -0.12545575 51.16957697 -0.11217523 53.19921875 -0.09765625 C54.3537706 -0.09749008 55.50832245 -0.09732391 56.69786072 -0.09715271 C60.42703026 0.53292116 61.37935393 1.42165062 63.66430664 4.40405273 C64.1676712 7.60249329 64.1676712 7.60249329 64.17224121 11.46386719 C64.17848117 12.17500073 64.18472114 12.88613428 64.19115019 13.61881733 C64.20710669 16.00199337 64.19446641 18.38415034 64.18188477 20.76733398 C64.18730474 22.47570391 64.19442669 24.18406916 64.203125 25.89242554 C64.22137626 30.53292146 64.21428343 35.17306208 64.20160866 39.8135643 C64.19149031 44.66706051 64.20087109 49.52052605 64.20715332 54.37402344 C64.21443313 62.52503936 64.20483329 70.67591037 64.18579102 78.8269043 C64.16402163 88.2541722 64.17107277 97.6810941 64.19309664 107.10835361 C64.21124115 115.1984812 64.21381361 123.28850454 64.20334196 131.3786459 C64.19710181 136.21225596 64.19628572 141.04570333 64.20948792 145.87930298 C64.221032 150.42334843 64.21304721 154.96694723 64.18991089 159.51094437 C64.18461606 161.17986941 64.1861508 162.84883197 64.19496155 164.51774216 C64.20587071 166.79375045 64.19221163 169.0683219 64.17224121 171.34423828 C64.17073311 172.61849167 64.16922501 173.89274506 64.1676712 175.20561218 C63.57684092 178.95982071 62.63516681 180.11880587 59.66430664 182.40405273 C56.49793095 183.64284081 53.33985636 183.5365352 49.96533203 183.54931641 C48.820569 183.55569626 47.67580597 183.56207611 46.49635315 183.56864929 C45.26400436 183.56976212 44.03165558 183.57087494 42.76196289 183.57202148 C41.49211044 183.57534988 40.222258 183.57867828 38.91392517 183.58210754 C36.22822565 183.58717052 33.54262734 183.58994861 30.85693359 183.58935547 C27.42270308 183.58925384 23.98867926 183.6029121 20.55449772 183.62012768 C17.26949389 183.63394608 13.98449184 183.63333699 10.69946289 183.63452148 C9.46913834 183.641707 8.23881378 183.64889252 6.97120667 183.65629578 C5.82329147 183.65321915 4.67537628 183.65014252 3.49267578 183.64697266 C2.48547989 183.64839767 1.478284 183.64982269 0.44056702 183.65129089 C-3.27318922 183.32056462 -6.14827566 182.33702378 -9.08569336 180.02905273 C-11.88631545 176.38824402 -11.46330173 172.07662862 -11.46940613 167.65467834 C-11.47167168 166.97691878 -11.47393724 166.29915922 -11.47627145 165.60086149 C-11.48259916 163.33089552 -11.48178288 161.06098944 -11.48095703 158.79101562 C-11.48394926 157.16309024 -11.48735194 155.53516556 -11.49113464 153.90724182 C-11.49997163 149.48579258 -11.50231261 145.06436269 -11.50295043 140.64290547 C-11.5038999 136.95246153 -11.50757857 133.26202209 -11.51112252 129.57157987 C-11.51926568 120.86575145 -11.52170686 112.15993336 -11.52099609 103.45410156 C-11.52039509 94.47115174 -11.53095172 85.48826192 -11.54673976 76.50532728 C-11.55981034 68.79397679 -11.5651802 61.08264592 -11.56454068 53.37128443 C-11.56428559 48.76515655 -11.56714337 44.15908202 -11.57771873 39.55296516 C-11.58739178 35.22162893 -11.58748436 30.89039713 -11.5802021 26.55905724 C-11.57915532 24.96955844 -11.58152467 23.38005316 -11.58756256 21.79056549 C-11.59527229 19.62039076 -11.59064466 17.45057763 -11.58293152 15.28041077 C-11.58347629 14.06607392 -11.58402105 12.85173708 -11.58458233 11.60060215 C-11.28048667 7.69501807 -10.32003381 4.83548625 -8.10667419 1.61680603 C-5.43420776 -0.21327728 -3.21332183 0.01504783 0 0 Z " transform="translate(460.335693359375,174.595947265625)" style="fill: #0000FF;"/><path d="M0 0 C44.55 0 89.1 0 135 0 C135 22.44 135 44.88 135 68 C90.45 68 45.9 68 0 68 C0 45.56 0 23.12 0 0 Z " transform="translate(475,34)" style="fill: #FF0080;"/><path d="M0 0 C3.92378553 1.84841228 7.04279586 4.38682364 10.375 7.125 C20.35852159 15.13654915 31.21155792 20.99592663 43 26 C40.40747798 28.59252202 37.95890227 29.2944682 34.51831055 30.58203125 C33.85305359 30.83270355 33.18779663 31.08337585 32.50238037 31.34164429 C30.2990577 32.17042067 28.09292885 32.99144428 25.88671875 33.8125 C24.35437393 34.38728538 22.82221591 34.962569 21.29023743 35.53833008 C17.25138427 37.0547964 13.21014053 38.56478758 9.16833496 40.07336426 C5.06724929 41.6051923 0.96822485 43.1425134 -3.13085938 44.6796875 C-7.74139221 46.40864076 -12.35208782 48.13713164 -16.9646759 49.8605957 C-17.66876083 50.12385651 -18.37284576 50.38711731 -19.0982666 50.65835571 C-20.99625877 51.36792199 -22.89446087 52.07692666 -24.79267883 52.78588867 C-26.78969187 53.54184544 -28.77566935 54.32855149 -30.74186707 55.16137695 C-33 56 -33 56 -36 56 C-34.72539482 52.55870521 -33.25245555 49.64375563 -31.19018555 46.61206055 C-30.62587326 45.7773674 -30.06156097 44.94267426 -29.48014832 44.08268738 C-28.87181656 43.19301773 -28.2634848 42.30334808 -27.63671875 41.38671875 C-27.00772171 40.45833694 -26.37872467 39.52995514 -25.73066711 38.57344055 C-23.72072014 35.60841669 -21.70442037 32.64778368 -19.6875 29.6875 C-17.68243364 26.73717085 -15.67873087 23.78592684 -13.6764679 20.83369446 C-12.43176083 18.99923321 -11.18526602 17.16598324 -9.93669128 15.33415222 C-6.5075648 10.28909574 -3.19817745 5.19473623 0 0 Z " transform="translate(171,251)" style="fill: #FF0000;"/><path d="M0 0 C0.66 0 1.32 0 2 0 C4.34861458 7.28367348 6.69567402 14.56784647 9.04072571 21.85266781 C10.12956955 25.23495403 11.21895694 28.6170632 12.30957031 31.9987793 C13.56214807 35.88278635 14.81239051 39.76754155 16.0625 43.65234375 C16.45622803 44.87211411 16.84995605 46.09188446 17.25561523 47.34861755 C17.61598877 48.46970413 17.9763623 49.59079071 18.34765625 50.74584961 C18.66742432 51.73846298 18.98719238 52.73107635 19.31665039 53.75376892 C20 56 20 56 20 57 C19.32122803 57.01981934 18.64245605 57.03963867 17.94311523 57.06005859 C14.77428075 57.15714857 11.60594829 57.26605622 8.4375 57.375 C7.37080078 57.4059375 6.30410156 57.436875 5.20507812 57.46875 C-3.3038401 57.77354707 -11.58506492 58.75513086 -20 60 C-13.33333333 40 -6.66666667 20 0 0 Z " transform="translate(258,31)" style="fill: #FF0000;"/><path d="M0 0 C8.04861899 -0.32926169 15.91905961 0.90123711 23.875 1.96875 C25.41050396 2.17098215 26.94606819 2.37275716 28.48168945 2.57409668 C32.50010331 3.10219921 36.51767423 3.63646199 40.53509521 4.17205811 C44.64399489 4.71872439 48.75366978 5.25949672 52.86328125 5.80078125 C60.90961986 6.86145505 68.95507665 7.92864495 77 9 C73.70384672 12.33782443 70.38403065 15.36124957 66.6875 18.25 C62.09857497 21.91866954 58.4146931 25.78341917 54.8515625 30.4453125 C53 32 53 32 50.8046875 32.0703125 C46.67981917 30.4961984 43.18158557 28.1650807 39.5 25.75 C37.80665084 24.6591291 36.11261405 23.56932503 34.41796875 22.48046875 C33.53544434 21.91118652 32.65291992 21.3419043 31.74365234 20.75537109 C27.13250087 17.80518609 22.4722768 14.93503335 17.8125 12.0625 C15.31518693 10.52086783 12.81809051 8.97891155 10.32275391 7.43408203 C8.75530618 6.46633051 7.18457538 5.50387919 5.61083984 4.54638672 C4.87687988 4.09666504 4.14291992 3.64694336 3.38671875 3.18359375 C2.73276123 2.7858374 2.07880371 2.38808105 1.4050293 1.97827148 C0.94136963 1.65544189 0.47770996 1.3326123 0 1 C0 0.67 0 0.34 0 0 Z " transform="translate(112,102)" style="fill: #FF0000;"/><path d="M0 0 C-4.76444867 4.12851591 -10.11233813 7.20767105 -15.5 10.4375 C-17.55651764 11.67751007 -19.61249435 12.91841763 -21.66796875 14.16015625 C-22.71388184 14.79195801 -23.75979492 15.42375977 -24.83740234 16.07470703 C-27.94282719 17.96519494 -31.03101278 19.88061712 -34.11328125 21.80859375 C-35.551875 22.70783569 -35.551875 22.70783569 -37.01953125 23.62524414 C-38.85631171 24.77596141 -40.69101341 25.93000465 -42.5234375 27.08764648 C-43.34714844 27.60270752 -44.17085938 28.11776855 -45.01953125 28.6484375 C-45.74245361 29.10395996 -46.46537598 29.55948242 -47.21020508 30.02880859 C-49 31 -49 31 -51 31 C-52.20027784 29.58613889 -53.33428348 28.11583314 -54.4375 26.625 C-59.06489639 20.66457382 -64.3418134 15.95329467 -70 11 C-70.66 10.34 -71.32 9.68 -72 9 C-30.48837246 3.01584498 -30.48837246 3.01584498 -16.3125 1.125 C-15.43843506 1.00535889 -14.56437012 0.88571777 -13.66381836 0.76245117 C-9.06384046 0.16100464 -4.6393971 -0.1117927 0 0 Z " transform="translate(430,106)" style="fill: #FF0000;"/><path d="M0 0 C4.83173653 1.51104869 7.92562457 4.25910253 11.625 7.5625 C12.8649211 8.64953842 14.10581833 9.73546438 15.34765625 10.8203125 C15.96141113 11.35817383 16.57516602 11.89603516 17.20751953 12.45019531 C20.59633118 15.38021116 24.09921455 18.16716849 27.59765625 20.96484375 C30.2126191 23.18012122 32.60757112 25.54786701 35 28 C14.62412696 28.41630615 -5.66592299 27.15545005 -26 26 C-22.72347368 22.68208958 -19.42832167 19.67879452 -15.75 16.8125 C-10.0067516 12.17432108 -3.35886035 6.71772071 0 0 Z " transform="translate(379,239)" style="fill: #FF0000;"/></svg>