<?xml version="1.0" encoding="UTF-8" standalone="no"?>
<!DOCTYPE svg PUBLIC "-//W3C//DTD SVG 1.1//EN" "http://www.w3.org/Graphics/SVG/1.1/DTD/svg11.dtd">
<svg xmlns="http://www.w3.org/2000/svg" version="1.1" viewBox="0.00 0.00 1434.00 1461.00">
<g stroke-width="2.00" fill="none" stroke-linecap="butt">
<path stroke="#808080" vector-effect="non-scaling-stroke" d="
  M 1393.16 729.76
  A 673.11 673.11 0.0 0 0 720.05 56.65
  A 673.11 673.11 0.0 0 0 46.94 729.76
  A 673.11 673.11 0.0 0 0 720.05 1402.87
  A 673.11 673.11 0.0 0 0 1393.16 729.76"
/>
<path stroke="#ff8980" vector-effect="non-scaling-stroke" d="
  M 976.62 159.63
  Q 923.12 135.50 867.69 122.13
  C 866.72 121.89 865.59 121.30 864.43 121.12
  Q 862.14 120.77 862.10 120.77
  C 731.59 90.51 594.54 102.61 471.88 155.76
  C 325.95 219.00 211.57 333.78 147.19 478.85
  A 0.92 0.92 0.0 0 0 147.69 480.07
  Q 179.80 492.86 213.49 501.55
  C 286.47 520.39 361.90 527.58 437.00 524.15
  Q 494.69 521.50 553.85 513.36
  C 689.47 494.68 820.53 463.19 959.73 450.82
  Q 1046.46 443.12 1133.23 450.19
  C 1187.54 454.62 1241.27 464.36 1293.15 481.18
  Q 1293.26 481.21 1293.34 481.21
  Q 1293.47 481.19 1293.54 481.16
  A 0.28 0.28 0.0 0 0 1293.69 480.79
  C 1231.05 337.66 1119.16 223.90 976.62 159.63"
/>
<path stroke="#808080" vector-effect="non-scaling-stroke" d="
  M 935.92 681.25
  C 938.68 727.00 980.16 745.52 1018.38 754.93
  C 1038.46 759.88 1058.68 762.77 1078.74 768.97
  C 1084.19 770.66 1092.36 774.33 1094.28 779.99
  C 1098.81 793.31 1079.64 798.28 1071.00 799.51
  C 1051.87 802.22 1031.58 800.84 1013.71 793.04
  Q 997.78 786.09 989.16 771.59
  Q 988.93 771.19 988.49 771.35
  L 917.84 798.12
  A 0.59 0.59 0.0 0 0 917.47 798.81
  C 919.99 809.46 926.76 819.69 934.42 827.34
  C 960.50 853.38 1001.12 862.24 1036.50 863.93
  C 1064.45 865.26 1088.93 864.42 1114.26 857.52
  C 1153.89 846.71 1186.60 818.67 1182.50 773.98
  C 1178.13 726.35 1132.31 708.51 1092.27 699.87
  C 1074.65 696.07 1056.51 693.26 1039.30 687.88
  C 1034.35 686.34 1028.08 683.83 1024.85 679.64
  C 1021.50 675.29 1022.82 669.22 1026.94 665.91
  C 1037.36 657.55 1057.98 657.27 1070.29 659.40
  C 1085.82 662.10 1097.27 669.32 1102.86 684.11
  A 1.08 1.08 0.0 0 0 1104.25 684.74
  L 1176.00 657.52
  Q 1176.54 657.31 1176.39 656.76
  C 1161.32 597.99 1092.81 591.97 1044.01 593.29
  C 990.53 594.74 932.04 616.93 935.92 681.25"
/>
<path stroke="#808080" vector-effect="non-scaling-stroke" d="
  M 1296.28 595.65
  A 0.44 0.44 0.0 0 0 1295.68 595.24
  L 1207.81 628.55
  A 0.44 0.44 0.0 0 0 1207.53 628.96
  L 1207.53 855.55
  A 0.44 0.44 0.0 0 0 1207.97 855.99
  L 1295.84 855.99
  A 0.44 0.44 0.0 0 0 1296.28 855.55
  L 1296.28 595.65"
/>
<path stroke="#808080" vector-effect="non-scaling-stroke" d="
  M 230.94 807.38
  Q 273.56 791.09 316.21 774.88
  C 337.13 766.93 359.00 755.05 372.59 737.30
  C 388.40 716.65 391.50 688.52 386.36 663.35
  C 376.09 613.11 327.34 599.40 283.08 599.36
  Q 212.48 599.30 141.91 599.36
  A 0.37 0.37 0.0 0 0 141.54 599.73
  L 141.54 855.52
  Q 141.54 855.99 142.02 855.99
  L 230.00 855.99
  A 0.49 0.49 0.0 0 0 230.49 855.50
  L 230.49 808.03
  Q 230.49 807.55 230.94 807.38"
/>
<path stroke="#808080" vector-effect="non-scaling-stroke" d="
  M 501.74 695.00
  A 0.40 0.40 0.0 0 1 501.34 694.60
  L 501.34 665.21
  A 0.40 0.40 0.0 0 1 501.74 664.81
  L 636.85 664.81
  A 0.40 0.40 0.0 0 0 637.25 664.41
  L 637.25 599.74
  A 0.40 0.40 0.0 0 0 636.85 599.34
  L 412.89 599.34
  A 0.40 0.40 0.0 0 0 412.49 599.74
  L 412.49 855.59
  A 0.40 0.40 0.0 0 0 412.89 855.99
  L 636.85 855.99
  A 0.40 0.40 0.0 0 0 637.25 855.59
  L 637.25 790.90
  A 0.40 0.40 0.0 0 0 636.85 790.50
  L 501.74 790.50
  A 0.40 0.40 0.0 0 1 501.34 790.10
  L 501.34 758.90
  A 0.40 0.40 0.0 0 1 501.74 758.50
  L 609.23 758.50
  A 0.40 0.40 0.0 0 0 609.63 758.10
  L 609.59 695.40
  A 0.40 0.40 0.0 0 0 609.19 695.00
  L 501.74 695.00"
/>
<path stroke="#808080" vector-effect="non-scaling-stroke" d="
  M 762.73 807.94
  A 0.62 0.61 -10.5 0 1 763.13 807.37
  Q 807.57 790.61 851.46 773.69
  Q 871.41 766.00 888.02 753.80
  C 914.09 734.65 923.43 705.81 920.43 674.18
  C 914.85 615.35 863.68 599.33 813.25 599.33
  Q 743.67 599.32 674.20 599.36
  A 0.39 0.38 -0.0 0 0 673.81 599.74
  L 673.81 855.78
  A 0.22 0.21 0.0 0 0 674.03 855.99
  L 761.99 855.99
  Q 762.73 855.99 762.73 855.26
  L 762.73 807.94"
/>
<path stroke="#8686c6" vector-effect="non-scaling-stroke" d="
  M 1290.99 984.93
  Q 1292.12 982.41 1292.94 980.26
  Q 1293.25 979.45 1292.45 979.13
  C 1278.17 973.43 1263.76 968.26 1248.90 963.89
  C 1164.15 938.96 1076.93 930.55 988.75 935.84
  C 914.07 940.32 840.07 951.72 766.49 964.87
  C 676.47 980.96 586.59 997.99 495.49 1006.88
  C 379.70 1018.18 258.45 1014.26 146.94 977.99
  Q 146.03 977.70 146.41 978.58
  Q 198.75 1098.35 293.70 1187.16
  C 442.64 1326.45 652.87 1384.29 852.29 1340.98
  C 1046.53 1298.80 1209.60 1166.73 1290.99 984.93"
/>
<path stroke="#808080" vector-effect="non-scaling-stroke" d="
  M 297.25 691.75
  C 298.08 674.81 284.61 664.91 268.75 664.84
  Q 249.79 664.76 230.90 664.82
  A 0.42 0.41 -90.0 0 0 230.49 665.24
  L 230.49 739.23
  A 0.19 0.19 0.0 0 0 230.75 739.41
  Q 245.57 733.80 260.44 728.17
  C 276.65 722.04 296.27 711.51 297.25 691.75"
/>
<path stroke="#808080" vector-effect="non-scaling-stroke" d="
  M 829.50 692.25
  C 830.59 675.40 817.48 664.94 801.50 664.85
  Q 782.27 664.75 763.14 664.84
  A 0.41 0.41 0.0 0 0 762.73 665.25
  L 762.73 738.97
  Q 762.73 739.51 763.24 739.32
  Q 777.33 734.04 791.47 728.71
  C 807.85 722.53 828.22 712.28 829.50 692.25"
/>
</g>
<path fill="#000000" d="
  M 1419.97 729.76
  A 699.92 699.92 0.0 0 1 720.05 1429.68
  A 699.92 699.92 0.0 0 1 20.13 729.76
  A 699.92 699.92 0.0 0 1 720.05 29.84
  A 699.92 699.92 0.0 0 1 1419.97 729.76
  Z
  M 1393.16 729.76
  A 673.11 673.11 0.0 0 0 720.05 56.65
  A 673.11 673.11 0.0 0 0 46.94 729.76
  A 673.11 673.11 0.0 0 0 720.05 1402.87
  A 673.11 673.11 0.0 0 0 1393.16 729.76
  Z"
/>
<path fill="#ffffff" d="
  M 1393.16 729.76
  A 673.11 673.11 0.0 0 1 720.05 1402.87
  A 673.11 673.11 0.0 0 1 46.94 729.76
  A 673.11 673.11 0.0 0 1 720.05 56.65
  A 673.11 673.11 0.0 0 1 1393.16 729.76
  Z
  M 976.62 159.63
  Q 923.12 135.50 867.69 122.13
  C 866.72 121.89 865.59 121.30 864.43 121.12
  Q 862.14 120.77 862.10 120.77
  C 731.59 90.51 594.54 102.61 471.88 155.76
  C 325.95 219.00 211.57 333.78 147.19 478.85
  A 0.92 0.92 0.0 0 0 147.69 480.07
  Q 179.80 492.86 213.49 501.55
  C 286.47 520.39 361.90 527.58 437.00 524.15
  Q 494.69 521.50 553.85 513.36
  C 689.47 494.68 820.53 463.19 959.73 450.82
  Q 1046.46 443.12 1133.23 450.19
  C 1187.54 454.62 1241.27 464.36 1293.15 481.18
  Q 1293.26 481.21 1293.34 481.21
  Q 1293.47 481.19 1293.54 481.16
  A 0.28 0.28 0.0 0 0 1293.69 480.79
  C 1231.05 337.66 1119.16 223.90 976.62 159.63
  Z
  M 935.92 681.25
  C 938.68 727.00 980.16 745.52 1018.38 754.93
  C 1038.46 759.88 1058.68 762.77 1078.74 768.97
  C 1084.19 770.66 1092.36 774.33 1094.28 779.99
  C 1098.81 793.31 1079.64 798.28 1071.00 799.51
  C 1051.87 802.22 1031.58 800.84 1013.71 793.04
  Q 997.78 786.09 989.16 771.59
  Q 988.93 771.19 988.49 771.35
  L 917.84 798.12
  A 0.59 0.59 0.0 0 0 917.47 798.81
  C 919.99 809.46 926.76 819.69 934.42 827.34
  C 960.50 853.38 1001.12 862.24 1036.50 863.93
  C 1064.45 865.26 1088.93 864.42 1114.26 857.52
  C 1153.89 846.71 1186.60 818.67 1182.50 773.98
  C 1178.13 726.35 1132.31 708.51 1092.27 699.87
  C 1074.65 696.07 1056.51 693.26 1039.30 687.88
  C 1034.35 686.34 1028.08 683.83 1024.85 679.64
  C 1021.50 675.29 1022.82 669.22 1026.94 665.91
  C 1037.36 657.55 1057.98 657.27 1070.29 659.40
  C 1085.82 662.10 1097.27 669.32 1102.86 684.11
  A 1.08 1.08 0.0 0 0 1104.25 684.74
  L 1176.00 657.52
  Q 1176.54 657.31 1176.39 656.76
  C 1161.32 597.99 1092.81 591.97 1044.01 593.29
  C 990.53 594.74 932.04 616.93 935.92 681.25
  Z
  M 1296.28 595.65
  A 0.44 0.44 0.0 0 0 1295.68 595.24
  L 1207.81 628.55
  A 0.44 0.44 0.0 0 0 1207.53 628.96
  L 1207.53 855.55
  A 0.44 0.44 0.0 0 0 1207.97 855.99
  L 1295.84 855.99
  A 0.44 0.44 0.0 0 0 1296.28 855.55
  L 1296.28 595.65
  Z
  M 230.94 807.38
  Q 273.56 791.09 316.21 774.88
  C 337.13 766.93 359.00 755.05 372.59 737.30
  C 388.40 716.65 391.50 688.52 386.36 663.35
  C 376.09 613.11 327.34 599.40 283.08 599.36
  Q 212.48 599.30 141.91 599.36
  A 0.37 0.37 0.0 0 0 141.54 599.73
  L 141.54 855.52
  Q 141.54 855.99 142.02 855.99
  L 230.00 855.99
  A 0.49 0.49 0.0 0 0 230.49 855.50
  L 230.49 808.03
  Q 230.49 807.55 230.94 807.38
  Z
  M 501.74 695.00
  A 0.40 0.40 0.0 0 1 501.34 694.60
  L 501.34 665.21
  A 0.40 0.40 0.0 0 1 501.74 664.81
  L 636.85 664.81
  A 0.40 0.40 0.0 0 0 637.25 664.41
  L 637.25 599.74
  A 0.40 0.40 0.0 0 0 636.85 599.34
  L 412.89 599.34
  A 0.40 0.40 0.0 0 0 412.49 599.74
  L 412.49 855.59
  A 0.40 0.40 0.0 0 0 412.89 855.99
  L 636.85 855.99
  A 0.40 0.40 0.0 0 0 637.25 855.59
  L 637.25 790.90
  A 0.40 0.40 0.0 0 0 636.85 790.50
  L 501.74 790.50
  A 0.40 0.40 0.0 0 1 501.34 790.10
  L 501.34 758.90
  A 0.40 0.40 0.0 0 1 501.74 758.50
  L 609.23 758.50
  A 0.40 0.40 0.0 0 0 609.63 758.10
  L 609.59 695.40
  A 0.40 0.40 0.0 0 0 609.19 695.00
  L 501.74 695.00
  Z
  M 762.73 807.94
  A 0.62 0.61 -10.5 0 1 763.13 807.37
  Q 807.57 790.61 851.46 773.69
  Q 871.41 766.00 888.02 753.80
  C 914.09 734.65 923.43 705.81 920.43 674.18
  C 914.85 615.35 863.68 599.33 813.25 599.33
  Q 743.67 599.32 674.20 599.36
  A 0.39 0.38 -0.0 0 0 673.81 599.74
  L 673.81 855.78
  A 0.22 0.21 0.0 0 0 674.03 855.99
  L 761.99 855.99
  Q 762.73 855.99 762.73 855.26
  L 762.73 807.94
  Z
  M 1290.99 984.93
  Q 1292.12 982.41 1292.94 980.26
  Q 1293.25 979.45 1292.45 979.13
  C 1278.17 973.43 1263.76 968.26 1248.90 963.89
  C 1164.15 938.96 1076.93 930.55 988.75 935.84
  C 914.07 940.32 840.07 951.72 766.49 964.87
  C 676.47 980.96 586.59 997.99 495.49 1006.88
  C 379.70 1018.18 258.45 1014.26 146.94 977.99
  Q 146.03 977.70 146.41 978.58
  Q 198.75 1098.35 293.70 1187.16
  C 442.64 1326.45 652.87 1384.29 852.29 1340.98
  C 1046.53 1298.80 1209.60 1166.73 1290.99 984.93
  Z"
/>
<path fill="#fe1300" d="
  M 976.62 159.63
  C 1119.16 223.90 1231.05 337.66 1293.69 480.79
  A 0.28 0.28 0.0 0 1 1293.54 481.16
  Q 1293.47 481.19 1293.34 481.21
  Q 1293.26 481.21 1293.15 481.18
  C 1241.27 464.36 1187.54 454.62 1133.23 450.19
  Q 1046.46 443.12 959.73 450.82
  C 820.53 463.19 689.47 494.68 553.85 513.36
  Q 494.69 521.50 437.00 524.15
  C 361.90 527.58 286.47 520.39 213.49 501.55
  Q 179.80 492.86 147.69 480.07
  A 0.92 0.92 0.0 0 1 147.19 478.85
  C 211.57 333.78 325.95 219.00 471.88 155.76
  C 594.54 102.61 731.59 90.51 862.10 120.77
  Q 862.14 120.77 864.43 121.12
  C 865.59 121.30 866.72 121.89 867.69 122.13
  Q 923.12 135.50 976.62 159.63
  Z"
/>
<path fill="#000000" d="
  M 1018.38 754.93
  C 980.16 745.52 938.68 727.00 935.92 681.25
  C 932.04 616.93 990.53 594.74 1044.01 593.29
  C 1092.81 591.97 1161.32 597.99 1176.39 656.76
  Q 1176.54 657.31 1176.00 657.52
  L 1104.25 684.74
  A 1.08 1.08 0.0 0 1 1102.86 684.11
  C 1097.27 669.32 1085.82 662.10 1070.29 659.40
  C 1057.98 657.27 1037.36 657.55 1026.94 665.91
  C 1022.82 669.22 1021.50 675.29 1024.85 679.64
  C 1028.08 683.83 1034.35 686.34 1039.30 687.88
  C 1056.51 693.26 1074.65 696.07 1092.27 699.87
  C 1132.31 708.51 1178.13 726.35 1182.50 773.98
  C 1186.60 818.67 1153.89 846.71 1114.26 857.52
  C 1088.93 864.42 1064.45 865.26 1036.50 863.93
  C 1001.12 862.24 960.50 853.38 934.42 827.34
  C 926.76 819.69 919.99 809.46 917.47 798.81
  A 0.59 0.59 0.0 0 1 917.84 798.12
  L 988.49 771.35
  Q 988.93 771.19 989.16 771.59
  Q 997.78 786.09 1013.71 793.04
  C 1031.58 800.84 1051.87 802.22 1071.00 799.51
  C 1079.64 798.28 1098.81 793.31 1094.28 779.99
  C 1092.36 774.33 1084.19 770.66 1078.74 768.97
  C 1058.68 762.77 1038.46 759.88 1018.38 754.93
  Z"
/>
<path fill="#000000" d="
  M 1296.28 595.65
  L 1296.28 855.55
  A 0.44 0.44 0.0 0 1 1295.84 855.99
  L 1207.97 855.99
  A 0.44 0.44 0.0 0 1 1207.53 855.55
  L 1207.53 628.96
  A 0.44 0.44 0.0 0 1 1207.81 628.55
  L 1295.68 595.24
  A 0.44 0.44 0.0 0 1 1296.28 595.65
  Z"
/>
<path fill="#000000" d="
  M 230.49 808.03
  L 230.49 855.50
  A 0.49 0.49 0.0 0 1 230.00 855.99
  L 142.02 855.99
  Q 141.54 855.99 141.54 855.52
  L 141.54 599.73
  A 0.37 0.37 0.0 0 1 141.91 599.36
  Q 212.48 599.30 283.08 599.36
  C 327.34 599.40 376.09 613.11 386.36 663.35
  C 391.50 688.52 388.40 716.65 372.59 737.30
  C 359.00 755.05 337.13 766.93 316.21 774.88
  Q 273.56 791.09 230.94 807.38
  Q 230.49 807.55 230.49 808.03
  Z
  M 297.25 691.75
  C 298.08 674.81 284.61 664.91 268.75 664.84
  Q 249.79 664.76 230.90 664.82
  A 0.42 0.41 -90.0 0 0 230.49 665.24
  L 230.49 739.23
  A 0.19 0.19 0.0 0 0 230.75 739.41
  Q 245.57 733.80 260.44 728.17
  C 276.65 722.04 296.27 711.51 297.25 691.75
  Z"
/>
<path fill="#000000" d="
  M 501.74 695.00
  L 609.19 695.00
  A 0.40 0.40 0.0 0 1 609.59 695.40
  L 609.63 758.10
  A 0.40 0.40 0.0 0 1 609.23 758.50
  L 501.74 758.50
  A 0.40 0.40 0.0 0 0 501.34 758.90
  L 501.34 790.10
  A 0.40 0.40 0.0 0 0 501.74 790.50
  L 636.85 790.50
  A 0.40 0.40 0.0 0 1 637.25 790.90
  L 637.25 855.59
  A 0.40 0.40 0.0 0 1 636.85 855.99
  L 412.89 855.99
  A 0.40 0.40 0.0 0 1 412.49 855.59
  L 412.49 599.74
  A 0.40 0.40 0.0 0 1 412.89 599.34
  L 636.85 599.34
  A 0.40 0.40 0.0 0 1 637.25 599.74
  L 637.25 664.41
  A 0.40 0.40 0.0 0 1 636.85 664.81
  L 501.74 664.81
  A 0.40 0.40 0.0 0 0 501.34 665.21
  L 501.34 694.60
  A 0.40 0.40 0.0 0 0 501.74 695.00
  Z"
/>
<path fill="#000000" d="
  M 762.73 807.94
  L 762.73 855.26
  Q 762.73 855.99 761.99 855.99
  L 674.03 855.99
  A 0.22 0.21 0.0 0 1 673.81 855.78
  L 673.81 599.74
  A 0.39 0.38 0.0 0 1 674.20 599.36
  Q 743.67 599.32 813.25 599.33
  C 863.68 599.33 914.85 615.35 920.43 674.18
  C 923.43 705.81 914.09 734.65 888.02 753.80
  Q 871.41 766.00 851.46 773.69
  Q 807.57 790.61 763.13 807.37
  A 0.62 0.61 -10.5 0 0 762.73 807.94
  Z
  M 829.50 692.25
  C 830.59 675.40 817.48 664.94 801.50 664.85
  Q 782.27 664.75 763.14 664.84
  A 0.41 0.41 0.0 0 0 762.73 665.25
  L 762.73 738.97
  Q 762.73 739.51 763.24 739.32
  Q 777.33 734.04 791.47 728.71
  C 807.85 722.53 828.22 712.28 829.50 692.25
  Z"
/>
<path fill="#ffffff" d="
  M 268.75 664.84
  C 284.61 664.91 298.08 674.81 297.25 691.75
  C 296.27 711.51 276.65 722.04 260.44 728.17
  Q 245.57 733.80 230.75 739.41
  A 0.19 0.19 0.0 0 1 230.49 739.23
  L 230.49 665.24
  A 0.42 0.41 90.0 0 1 230.90 664.82
  Q 249.79 664.76 268.75 664.84
  Z"
/>
<path fill="#ffffff" d="
  M 801.50 664.85
  C 817.48 664.94 830.59 675.40 829.50 692.25
  C 828.22 712.28 807.85 722.53 791.47 728.71
  Q 777.33 734.04 763.24 739.32
  Q 762.73 739.51 762.73 738.97
  L 762.73 665.25
  A 0.41 0.41 0.0 0 1 763.14 664.84
  Q 782.27 664.75 801.50 664.85
  Z"
/>
<path fill="#0d0c8c" d="
  M 1290.99 984.93
  C 1209.60 1166.73 1046.53 1298.80 852.29 1340.98
  C 652.87 1384.29 442.64 1326.45 293.70 1187.16
  Q 198.75 1098.35 146.41 978.58
  Q 146.03 977.70 146.94 977.99
  C 258.45 1014.26 379.70 1018.18 495.49 1006.88
  C 586.59 997.99 676.47 980.96 766.49 964.87
  C 840.07 951.72 914.07 940.32 988.75 935.84
  C 1076.93 930.55 1164.15 938.96 1248.90 963.89
  C 1263.76 968.26 1278.17 973.43 1292.45 979.13
  Q 1293.25 979.45 1292.94 980.26
  Q 1292.12 982.41 1290.99 984.93
  Z"
/>
</svg>
