<svg id="svg" version="1.1" xmlns="http://www.w3.org/2000/svg" style="display: block;" viewBox="0 0 3840 2160"><path d="M0 0 C1267.2 0 2534.4 0 3840 0 C3840 712.8 3840 1425.6 3840 2160 C2572.8 2160 1305.6 2160 0 2160 C0 1447.2 0 734.4 0 0 Z " transform="translate(0,0)" style="fill: #000000;"/><path d="M0 0 C0.85662609 -0.0048856 1.71325218 -0.00977119 2.59583664 -0.01480484 C9.08992831 -0.05133319 15.58393809 -0.06790428 22.078125 -0.07421875 C23.51491734 -0.07572371 23.51491734 -0.07572371 24.98073578 -0.07725906 C82.84086514 -0.11437205 140.52902788 3.88164555 197.31835938 15.62011719 C200.53077935 16.27990364 203.74893108 16.9047217 206.96875 17.52734375 C274.90048249 30.8669083 341.39309937 52.42737154 404.328125 81.23828125 C405.48119141 81.76212402 406.63425781 82.2859668 407.82226562 82.82568359 C434.25325591 94.84465951 459.92445818 107.92330652 484.88232422 122.79296875 C488.00422429 124.63781288 491.16201861 126.40794326 494.328125 128.17578125 C524.36642197 145.31976694 552.81960891 165.31364659 580.328125 186.23828125 C581.84212891 187.38490234 581.84212891 187.38490234 583.38671875 188.5546875 C596.14661151 198.26188958 608.52758642 208.44461666 620.71289062 218.86132812 C622.37647043 220.27949471 624.04708376 221.68903442 625.71875 223.09765625 C633.78482348 229.91930173 641.54270928 237.02113508 649.22094727 244.2746582 C650.76439981 245.71296069 652.32158879 247.13656061 653.88647461 248.55151367 C662.00577826 255.89800867 669.79050212 263.54697368 677.52075195 271.30053711 C679.65137134 273.43655482 681.78733723 275.56712243 683.92382812 277.69726562 C685.3050085 279.07910632 686.68587889 280.46125692 688.06640625 281.84375 C688.69259354 282.46791306 689.31878082 283.09207611 689.96394348 283.7351532 C693.71110405 287.50195392 697.27319526 291.38283104 700.73860168 295.41064453 C703.31071643 298.36806661 706.0139613 301.2002348 708.703125 304.05078125 C713.42559932 309.09259768 717.8946465 314.26192692 722.21484375 319.65625 C724.36431526 322.28249893 726.60272588 324.79461578 728.890625 327.30078125 C733.2648557 332.1131905 737.31890164 337.12028 741.328125 342.23828125 C742.11445313 343.22957031 742.90078125 344.22085937 743.7109375 345.2421875 C746.60315498 348.89217919 749.46973301 352.56175695 752.328125 356.23828125 C752.9375293 357.02170898 753.54693359 357.80513672 754.17480469 358.61230469 C762.60523466 369.48146254 770.70612574 380.49083544 778.38671875 391.90234375 C780.55484189 395.12055303 782.78258557 398.28250425 785.0715332 401.41552734 C808.4016886 433.36510429 827.72902661 468.78510469 845.66113281 503.97167969 C847.21481173 507.01623504 848.78212567 510.05339214 850.3515625 513.08984375 C863.12290751 537.99524535 874.14163411 563.78202969 884.07373047 589.93945312 C885.29206144 593.14344069 886.5299779 596.33933152 887.76953125 599.53515625 C902.76678779 638.64547164 914.56602002 679.28908636 923.328125 720.23828125 C923.59834473 721.49108887 923.86856445 722.74389648 924.14697266 724.03466797 C931.97734382 760.55952971 937.85889892 797.58703069 941.11523438 834.80664062 C941.25877514 836.44616587 941.40465973 838.08548739 941.55273438 839.72460938 C943.90720628 865.86528459 944.61470709 891.95368934 944.63819885 918.18567657 C944.6405708 920.43684275 944.64587398 922.68798784 944.65148926 924.93914795 C944.70856405 956.12055809 943.10961992 987.15608609 939.56707764 1018.14508057 C939.31438568 1020.35863631 939.06571747 1022.57262734 938.81689453 1024.78662109 C935.01593909 1058.34579328 929.68457506 1091.58035932 921.96728516 1124.47265625 C921.37738467 1127.02513629 920.81854284 1129.58134493 920.27734375 1132.14453125 C918.07068145 1142.58438858 915.29082483 1152.79203976 912.26904297 1163.02392578 C911.41298995 1165.94836638 910.57398543 1168.87722512 909.74125671 1171.80838013 C894.36678919 1225.87270617 874.05849493 1277.76797882 849.328125 1328.23828125 C848.80605469 1329.30965332 848.28398437 1330.38102539 847.74609375 1331.48486328 C840.14158017 1347.06162695 832.06037672 1362.26558127 823.328125 1377.23828125 C822.40193359 1378.83325439 822.40193359 1378.83325439 821.45703125 1380.46044922 C807.72731708 1404.0558056 793.22776894 1427.04367624 777.328125 1449.23828125 C776.50683105 1450.39166992 776.50683105 1450.39166992 775.66894531 1451.56835938 C764.2141728 1467.65262749 752.2375904 1483.25934254 739.72070312 1498.52978516 C737.87900434 1500.78928868 736.07198424 1503.07547503 734.265625 1505.36328125 C726.48398979 1515.10667323 718.23140272 1524.43560792 709.765625 1533.5859375 C707.81068622 1535.71318659 705.89930455 1537.86100377 704.015625 1540.05078125 C693.99983822 1551.57169414 683.27384322 1562.45720037 672.46679688 1573.22998047 C670.42980079 1575.26154325 668.39830549 1577.29849961 666.3671875 1579.3359375 C665.04459183 1580.65787332 663.72168651 1581.97949942 662.3984375 1583.30078125 C661.80555939 1583.89568359 661.21268127 1584.49058594 660.60183716 1585.10351562 C656.91552143 1588.76961768 653.10706787 1592.24506421 649.16716003 1595.63735962 C646.20686871 1598.21436023 643.37008737 1600.92042334 640.515625 1603.61328125 C635.47380857 1608.33575557 630.30447933 1612.80480275 624.91015625 1617.125 C622.28390732 1619.27447151 619.77179047 1621.51288213 617.265625 1623.80078125 C612.45321575 1628.17501195 607.44612625 1632.22905789 602.328125 1636.23828125 C601.33683594 1637.02460937 600.34554687 1637.8109375 599.32421875 1638.62109375 C553.55178108 1674.88928772 504.86951486 1706.7616633 453.328125 1734.23828125 C452.32007812 1734.7792041 451.31203125 1735.32012695 450.2734375 1735.87744141 C431.65450342 1745.8391458 412.67207264 1754.78677161 393.328125 1763.23828125 C392.26368164 1763.70394501 392.26368164 1763.70394501 391.17773438 1764.17901611 C305.45691406 1801.59671865 214.35874258 1824.95950521 99.328125 1837.23828125 C98.17988251 1837.32982483 97.03164001 1837.42136841 95.84860229 1837.51568604 C73.17199252 1839.26163323 50.5679027 1839.60191947 27.83179092 1839.55633926 C24.97260736 1839.55069635 22.11342973 1839.5478776 19.25424194 1839.54525757 C-7.00493573 1839.51027188 -33.15597535 1839.29904651 -59.29144287 1836.49151611 C-61.81262566 1836.22330793 -64.33500269 1835.96970595 -66.85791016 1835.71826172 C-133.07178106 1829.06021202 -198.31281215 1815.57643987 -261.58813477 1794.91809082 C-263.56078107 1794.27452508 -265.53504291 1793.63618387 -267.50976562 1792.99902344 C-307.76586603 1779.91742193 -346.69424964 1762.83547813 -384.671875 1744.23828125 C-386.18177002 1743.50375732 -386.18177002 1743.50375732 -387.72216797 1742.75439453 C-401.62090931 1735.98252586 -415.19700688 1728.78297134 -428.57275391 1721.02929688 C-431.84062214 1719.14076045 -435.12118822 1717.27549947 -438.40234375 1715.41015625 C-457.40738098 1704.54510893 -475.59927583 1692.580973 -493.671875 1680.23828125 C-494.70204239 1679.535858 -494.70204239 1679.535858 -495.75302124 1678.81924438 C-503.71061261 1673.38967327 -511.62877869 1667.92647492 -519.359375 1662.17578125 C-520.15770752 1661.58418213 -520.95604004 1660.99258301 -521.77856445 1660.38305664 C-533.36824765 1651.77394447 -544.68155774 1642.87172576 -555.8515625 1633.7265625 C-557.44449365 1632.42418746 -559.0421702 1631.12762093 -560.640625 1629.83203125 C-571.33226419 1621.15293591 -581.7488901 1612.18889644 -591.85546875 1602.8359375 C-594.54129497 1600.35871915 -597.2569495 1597.91951574 -599.984375 1595.48828125 C-603.39617886 1592.43017317 -606.66309477 1589.28081308 -609.86865234 1586.0090332 C-611.60578692 1584.30317928 -613.39959221 1582.72520197 -615.25390625 1581.1484375 C-620.30400661 1576.75482699 -625.01361162 1572.04288945 -629.734375 1567.30078125 C-630.59353516 1566.44548828 -631.45269531 1565.59019531 -632.33789062 1564.70898438 C-636.79840121 1560.24165865 -641.09901914 1555.70427671 -645.21264648 1550.91577148 C-646.94384401 1548.92563292 -648.77468234 1547.07005347 -650.671875 1545.23828125 C-653.88622231 1542.06712095 -656.88938463 1538.78245372 -659.83203125 1535.359375 C-661.86696319 1533.01337067 -663.95478467 1530.72091675 -666.046875 1528.42578125 C-669.92538227 1524.12868298 -673.60053468 1519.70069371 -677.23828125 1515.19921875 C-679.42348062 1512.54050106 -681.65601281 1509.93761686 -683.91650391 1507.34350586 C-690.63742922 1499.61869273 -696.8717406 1491.58388958 -703.03076172 1483.40722656 C-704.65077889 1481.26616251 -706.28518682 1479.13704547 -707.92578125 1477.01171875 C-736.30873296 1440.23260649 -761.47708949 1401.04242414 -783.671875 1360.23828125 C-784.51105469 1358.70324951 -784.51105469 1358.70324951 -785.3671875 1357.13720703 C-794.31629659 1340.74082072 -802.84376174 1324.20581608 -810.671875 1307.23828125 C-811.39189697 1305.68052979 -811.39189697 1305.68052979 -812.12646484 1304.09130859 C-826.03576364 1273.81758284 -837.99040087 1242.78415176 -848.671875 1211.23828125 C-849.23165039 1209.58989258 -849.23165039 1209.58989258 -849.80273438 1207.90820312 C-873.90250656 1136.3323319 -888.86169789 1060.61500051 -893.671875 985.23828125 C-893.71570313 984.56355774 -893.75953125 983.88883423 -893.8046875 983.19366455 C-898.28649903 913.66917407 -895.37749423 844.08481561 -884.671875 775.23828125 C-884.48012695 774.00078125 -884.28837891 772.76328125 -884.09082031 771.48828125 C-870.68694211 686.58936248 -844.74199103 603.76142753 -807.671875 526.23828125 C-806.82228426 524.44074691 -805.97271047 522.64320446 -805.12382507 520.84533691 C-798.24224938 506.28920656 -791.06259048 491.94506056 -783.16943359 477.90527344 C-781.63406003 475.17093682 -780.1151854 472.42786802 -778.59765625 469.68359375 C-761.78374499 439.42898071 -742.99174436 410.2581726 -722.671875 382.23828125 C-722.1154834 381.47080566 -721.5590918 380.70333008 -720.98583984 379.91259766 C-711.30276186 366.5933597 -701.30683563 353.57656385 -690.8359375 340.8671875 C-689.40674276 339.13099967 -687.98470224 337.38889485 -686.5703125 335.640625 C-677.45621261 324.38885441 -667.92898154 313.51088774 -658.09765625 302.8828125 C-656.0184091 300.6160648 -653.99001121 298.31988993 -651.984375 295.98828125 C-649.09731534 292.65334837 -646.03201131 289.5515163 -642.859375 286.48828125 C-641.01399649 284.59017764 -639.29673556 282.6558819 -637.57421875 280.6484375 C-633.03204587 275.42124734 -628.13948303 270.55997198 -623.234375 265.67578125 C-622.33138672 264.76892578 -621.42839844 263.86207031 -620.49804688 262.92773438 C-615.90643647 258.34277366 -611.25626802 253.90545397 -606.33178711 249.67993164 C-604.34652585 247.95571224 -602.49788432 246.12950519 -600.671875 244.23828125 C-597.5007147 241.02393394 -594.21604747 238.02077162 -590.79296875 235.078125 C-588.44696442 233.04319306 -586.1545105 230.95537158 -583.859375 228.86328125 C-579.54277787 224.96781555 -575.0978637 221.26969907 -570.578125 217.61328125 C-568.01830426 215.52138473 -565.49477859 213.39648106 -562.98168945 211.24926758 C-556.25204656 205.49995491 -549.37035618 199.97672828 -542.37304688 194.55712891 C-540.75551894 193.30312691 -539.14323583 192.04236827 -537.53125 190.78125 C-529.14464628 184.25950665 -520.56325179 178.02307428 -511.91992188 171.84667969 C-509.82796176 170.34995583 -507.74173515 168.84556816 -505.65625 167.33984375 C-485.66268425 152.98194894 -464.83861755 139.78869133 -443.671875 127.23828125 C-442.1573877 126.33795166 -442.1573877 126.33795166 -440.61230469 125.41943359 C-424.72636071 116.01204571 -408.55114743 107.30698538 -392.08642578 98.97119141 C-388.95025608 97.37956174 -385.82367294 95.77071759 -382.69921875 94.15625 C-361.03323917 83.04179996 -338.63272428 73.4087846 -316.109375 64.17578125 C-315.09576904 63.7593335 -314.08216309 63.34288574 -313.0378418 62.91381836 C-305.04858511 59.68411885 -296.94707129 56.81819835 -288.81100464 53.98599243 C-286.77581083 53.27461097 -284.74386847 52.55481347 -282.71313477 51.83081055 C-204.84165003 24.07577773 -123.34781662 7.64641495 0 0 Z " transform="translate(1897.671875,160.76171875)" style="fill: #FEFEFE;"/><path d="M0 0 C0.77706299 0.12105606 1.55412598 0.24211212 2.35473633 0.36683655 C8.07153748 1.27672656 13.71056395 2.44024983 19.359375 3.70703125 C23.0005858 4.47965837 26.64703614 5.09019136 30.3203125 5.69140625 C41.70287687 7.61169544 52.90674316 10.40268294 64.12818909 13.08590698 C68.24921908 14.07095819 72.37461353 15.0346067 76.50390625 15.984375 C89.3711362 18.96535782 101.98675844 22.44047326 114.57763672 26.42578125 C117.51077026 27.34445581 120.44959685 28.24188492 123.39213562 29.12991333 C142.18994691 34.80509366 160.55666186 41.22618797 178.8203125 48.44140625 C178.24712575 53.20812169 176.80555971 57.15224136 174.75 61.4453125 C174.43715561 62.1126944 174.12431122 62.78007629 173.80198669 63.46768188 C172.77492895 65.65055915 171.7359767 67.82748621 170.6953125 70.00390625 C170.33883636 70.75483551 169.98236023 71.50576477 169.61508179 72.27944946 C158.59644839 95.48538245 146.80105635 118.26563885 133.8203125 140.44140625 C133.04349121 141.77171875 133.04349121 141.77171875 132.25097656 143.12890625 C124.76946809 155.86181368 116.75644364 168.21720186 108.5703125 180.50390625 C108.11044952 181.19474304 107.65058655 181.88557983 107.17678833 182.59735107 C99.11790072 194.68361201 90.81802458 206.59107353 82.0703125 218.19140625 C81.57990479 218.84278564 81.08949707 219.49416504 80.58422852 220.1652832 C71.76964347 231.83558923 62.86109671 243.40519861 53.328125 254.5 C50.96138249 257.27594565 48.66649219 260.09703818 46.3828125 262.94140625 C42.51641083 267.69631675 38.43502382 272.2080227 34.24438477 276.67578125 C31.57393714 279.52425872 28.9604379 282.408703 26.3984375 285.35546875 C16.67361851 296.521346 6.2714069 307.0849147 -4.1796875 317.56640625 C-5.05125488 318.44256592 -5.92282227 319.31872559 -6.82080078 320.22143555 C-11.17680604 324.56699975 -15.59615642 328.7608477 -20.26318359 332.77001953 C-23.60249303 335.68223767 -26.78290518 338.76262238 -29.9921875 341.81640625 C-35.28923344 346.81934171 -40.6590415 351.61275503 -46.36328125 356.15234375 C-49.10911905 358.38405103 -51.76538248 360.69111788 -54.41894531 363.03051758 C-61.64567373 369.39554003 -69.10860391 375.33418179 -76.80078125 381.125 C-79.75940819 383.35306909 -82.68566269 385.61548049 -85.58984375 387.9140625 C-95.23146745 395.54326337 -105.08252244 402.69194045 -115.30712891 409.51855469 C-117.96259319 411.29608628 -120.60963635 413.08534792 -123.25469971 414.87828064 C-147.31000696 431.17252386 -171.76047001 446.45902295 -197.48095703 460.01855469 C-200.0089497 461.35138816 -202.53069227 462.69526674 -205.05078125 464.04296875 C-209.74243092 466.54423092 -214.45658006 469.00015534 -219.1796875 471.44140625 C-220.48365479 472.11888916 -220.48365479 472.11888916 -221.81396484 472.81005859 C-259.97454595 492.55716079 -300.04136337 508.20460708 -340.89405823 521.39472961 C-344.44894804 522.54354326 -347.99437373 523.71345581 -351.52807617 524.92602539 C-362.65029563 528.73230014 -373.86255501 531.93655201 -385.2421875 534.87890625 C-386.15209442 535.11540894 -387.06200134 535.35191162 -387.9994812 535.59558105 C-432.41026903 547.10857697 -477.53201891 554.88021213 -523.1796875 559.44140625 C-524.40712677 559.56675751 -524.40712677 559.56675751 -525.65936279 559.69464111 C-573.19942331 564.5163728 -622.57311665 564.5660953 -670.1796875 560.44140625 C-671.51149731 560.33245085 -672.84336759 560.22423251 -674.17529297 560.11669922 C-713.86442312 556.88579189 -753.66035105 551.68121658 -792.35839844 542.13085938 C-794.9945449 541.48665051 -797.63514665 540.87134139 -800.28125 540.26953125 C-878.18844198 522.46743479 -954.39153371 492.78812398 -1023.63476562 452.89746094 C-1026.57236446 451.21673958 -1029.53238075 449.5800069 -1032.49707031 447.94775391 C-1081.63349509 420.77250534 -1128.40432664 386.20874135 -1169.9296875 348.4765625 C-1171.92958125 346.66763082 -1173.95238182 344.89248824 -1175.9921875 343.12890625 C-1187.94700056 332.66785826 -1199.22260073 321.55630228 -1210.43847656 310.31298828 C-1213.06722159 307.67884643 -1215.70131928 305.05014121 -1218.3359375 302.421875 C-1220.03157099 300.72558122 -1221.72689453 299.02897755 -1223.421875 297.33203125 C-1224.58612503 296.17081757 -1224.58612503 296.17081757 -1225.77389526 294.98614502 C-1229.90942197 290.83296224 -1233.88724362 286.59859852 -1237.70684814 282.15235901 C-1239.76684994 279.75931747 -1241.91223389 277.44809425 -1244.0546875 275.12890625 C-1248.1452931 270.64343073 -1252.02786593 266.03560081 -1255.83984375 261.3125 C-1257.91695882 258.76378619 -1260.0293089 256.2541672 -1262.1652832 253.75512695 C-1294.61312986 215.77672129 -1322.39532518 173.73213687 -1347.1796875 130.44140625 C-1347.84798584 129.27689941 -1347.84798584 129.27689941 -1348.52978516 128.08886719 C-1360.10837564 107.83207035 -1370.64339653 86.99503696 -1380.5546875 65.87890625 C-1381.04792007 64.83110992 -1381.04792007 64.83110992 -1381.55111694 63.762146 C-1382.48156765 61.78111837 -1383.40615414 59.79748622 -1384.328125 57.8125 C-1384.85583496 56.6773999 -1385.38354492 55.5422998 -1385.92724609 54.37280273 C-1386.92712045 52.03255101 -1387.68080223 49.92485559 -1388.1796875 47.44140625 C-1382.74240635 48.57462717 -1377.48550824 49.90714643 -1372.19702148 51.59741211 C-1332.17465895 64.38104948 -1290.67388682 73.10186558 -1249.1796875 79.44140625 C-1247.89288086 79.64330566 -1246.60607422 79.84520508 -1245.28027344 80.05322266 C-1192.73639671 88.28335012 -1138.91534123 93.37454111 -1085.703125 93.71484375 C-1084.85262951 93.72112289 -1084.00213402 93.72740204 -1083.12586594 93.73387146 C-1076.60216363 93.7803093 -1070.07853701 93.80386927 -1063.5546875 93.81640625 C-1062.58437088 93.81841286 -1061.61405426 93.82041946 -1060.61433411 93.82248688 C-997.88752531 93.92232153 -935.49774425 89.40215611 -873.1796875 82.44140625 C-872.20668701 82.33354797 -871.23368652 82.2256897 -870.23120117 82.11456299 C-833.25811872 78.00564222 -796.35972076 72.83886032 -759.6953125 66.546875 C-753.47140996 65.47994644 -747.23589229 64.50954606 -740.9921875 63.56640625 C-729.95789444 61.89216464 -718.93844888 60.13125533 -707.92196655 58.34393311 C-706.04026404 58.03875102 -704.15845182 57.73424445 -702.27651978 57.43048096 C-692.11986842 55.78994263 -681.98980966 54.06888908 -671.88378906 52.14038086 C-665.97354579 51.02510097 -660.04594719 50.01523928 -654.1171875 49.00390625 C-651.58462136 48.56909229 -649.05206945 48.13419545 -646.51953125 47.69921875 C-642.9989107 47.09573613 -639.478243 46.49253032 -635.95751953 45.88964844 C-625.26253493 44.05563041 -614.58930893 42.15324357 -603.93774414 40.08178711 C-594.4176501 38.25475161 -584.8572173 36.66582656 -575.2996521 35.04946899 C-565.80670303 33.44158416 -556.35357379 31.73466407 -546.92651367 29.77172852 C-540.54284219 28.46269978 -534.13068538 27.45915458 -527.67602539 26.56762695 C-522.06201632 25.77930253 -516.50764052 24.76237903 -510.93916321 23.70062256 C-501.19187223 21.85677895 -491.40293324 20.25352139 -481.6171875 18.62890625 C-480.56690369 18.45432892 -479.51661987 18.27975159 -478.43450928 18.09988403 C-428.56950974 9.8222847 -378.58105043 2.39573106 -328.31640625 -3.00439453 C-324.14399855 -3.45274536 -319.97317357 -3.91410642 -315.80271912 -4.38023376 C-292.29982431 -7.00204152 -268.78014132 -9.04819668 -245.1796875 -10.55859375 C-243.95810944 -10.63850555 -243.95810944 -10.63850555 -242.71185303 -10.72003174 C-161.76701238 -15.98803391 -80.13793193 -12.53785628 0 0 Z " transform="translate(2526.1796875,1372.55859375)" style="fill: #0D0C8C;"/><path d="M0 0 C2.2929153 0.00810886 4.58582066 0.01303716 6.87874603 0.01734924 C41.37628805 0.09192696 75.30567608 1.71861571 109.5460434 6.00013733 C111.55997136 6.25013238 113.57484811 6.49244697 115.58974457 6.73451233 C158.53358629 11.90266462 202.02799226 20.38644358 243.34951019 33.24281311 C245.76455278 33.99175009 248.18098188 34.73480045 250.59951019 35.4723053 C284.67662329 45.87425705 318.10646731 57.64324845 350.62294769 72.25794983 C351.67740082 72.72877991 352.73185394 73.19960999 353.81826019 73.68470764 C379.36381035 85.13156196 404.60534854 97.45254082 428.7738266 111.59632874 C431.72734128 113.31883267 434.6958913 115.01331505 437.66591644 116.70716858 C451.68401689 124.77972765 465.22757078 133.47433617 478.68544769 142.44544983 C479.49562347 142.98463043 480.30579926 143.52381104 481.14052582 144.07933044 C497.38497159 154.91109159 513.24396204 166.22638021 528.62294769 178.25794983 C529.77378236 179.15014398 530.92483001 180.04206346 532.07607269 180.93373108 C538.48302843 185.91289138 544.77161622 191.00262988 550.93935394 196.27552795 C554.29002245 199.13994091 557.68565712 201.93467376 561.12294769 204.69544983 C565.87785819 208.5618515 570.38956414 212.6432385 574.85732269 216.83387756 C577.71908288 219.51677774 580.61718009 222.14308632 583.57607269 224.71888733 C594.71118483 234.41759516 605.23511122 244.77038245 615.68544769 255.19544983 C616.17804077 255.68545471 616.67063385 256.17545959 617.17815399 256.68031311 C622.29820563 261.77910554 627.31628369 266.92067436 632.02016449 272.41004944 C634.74792669 275.55497435 637.63474451 278.5493627 640.49794769 281.57044983 C645.31553001 286.69297452 649.91061874 291.90705514 654.29872894 297.40638733 C656.54518513 300.16254367 658.86378207 302.83296052 661.21450043 305.49964905 C668.19390255 313.42532371 674.65340902 321.65863172 680.99355316 330.10072327 C682.61735211 332.25054159 684.25905244 334.3852681 685.90810394 336.51576233 C705.58593654 361.95067271 723.6073884 388.83026007 739.98720551 416.50111389 C741.630124 419.27004459 743.29355885 422.02588813 744.95888519 424.78138733 C762.23874412 453.62089315 777.84840261 484.15705315 790.62294769 515.25794983 C785.31790024 514.23416874 780.34741611 512.85849873 775.24794769 511.07044983 C763.60222882 507.03486554 751.56454409 504.26456879 739.62294769 501.25794983 C738.05645576 500.85984933 736.49003694 500.4614609 734.92372894 500.06263733 C731.161475 499.10844907 727.39340205 498.17925568 723.62294769 497.25794983 C721.78023285 496.8035553 721.78023285 496.8035553 719.90029144 496.33998108 C715.48506507 495.26530233 711.05649547 494.25404439 706.62294769 493.25794983 C705.7017514 493.04944397 704.78055511 492.84093811 703.83144379 492.62611389 C668.83455852 484.8010761 633.21596603 479.23320695 597.53993988 475.65492249 C593.69282024 475.26503115 589.84939761 474.84862928 586.00576019 474.42591858 C568.02323562 472.48589031 550.02859867 471.22986115 531.96453094 470.37223816 C530.37387976 470.29460143 528.78344278 470.2124723 527.19322968 470.12632751 C506.46767278 469.01073597 485.72972136 469.07048828 464.98061371 469.07264709 C460.88681845 469.07272803 456.79313588 469.06582233 452.69936371 469.05213928 C428.23718663 468.97174518 403.91416183 469.32573731 379.50511932 470.99491882 C375.88214969 471.24038797 372.2586667 471.46680588 368.63393402 471.6844635 C318.69868158 474.71223217 269.05222752 480.12656215 219.49794769 486.88294983 C218.82370003 486.97467342 218.14945236 487.06639702 217.45477295 487.16090012 C198.62642297 489.72536812 179.86633738 492.61057004 161.11647797 495.68733215 C156.08866253 496.50855313 151.05737553 497.30712292 146.02529144 498.10169983 C144.27504205 498.37868488 142.52479783 498.65570262 140.77455902 498.93275452 C139.92229736 499.0675824 139.07003571 499.20241028 138.19194794 499.34132385 C124.43249512 501.51975628 110.67679992 503.71787309 96.93544769 506.00794983 C95.25793427 506.28735413 95.25793427 506.28735413 93.54653168 506.57240295 C87.04182482 507.66377375 80.54499693 508.79618372 74.05059052 509.94717407 C66.94576064 511.20485241 59.83716999 512.44063618 52.72841644 513.67591858 C15.81566797 520.0937462 15.81566797 520.0937462 -21.06455231 526.69544983 C-21.92142639 526.85048981 -22.77830048 527.00552979 -23.66114044 527.16526794 C-32.77426931 528.81624767 -41.86631349 530.54391479 -50.94345856 532.38294983 C-57.48500276 533.70676747 -64.01006576 534.93062041 -70.62705231 535.82044983 C-76.18821683 536.5819167 -81.69584967 537.49304225 -87.20908356 538.55091858 C-99.7028581 540.93796636 -112.26333644 542.9497049 -124.81455231 545.00794983 C-125.48048023 545.11729733 -126.14640816 545.22664482 -126.83251572 545.33930588 C-153.29609091 549.68290742 -179.80214851 553.65325762 -206.37705231 557.25794983 C-207.25429962 557.37698669 -208.13154694 557.49602356 -209.0353775 557.6186676 C-219.87524405 559.08633896 -230.7192127 560.52099024 -241.57089996 561.89857483 C-244.86193075 562.32004667 -248.1516084 562.75154729 -251.44150543 563.18177795 C-269.44379746 565.51184076 -287.45299301 567.4382334 -305.53672028 569.01332092 C-308.32966796 569.25678963 -311.12189772 569.5067643 -313.9136734 569.76332092 C-351.92437386 573.25406626 -389.89111885 574.64972813 -428.05686569 574.57580566 C-430.99687834 574.57034332 -433.93688289 574.56799179 -436.87689972 574.56593323 C-465.63859055 574.53458382 -494.28398374 574.13185682 -522.94437408 571.4825592 C-525.35446465 571.26003535 -527.76525952 571.04724347 -530.17636871 570.83607483 C-565.51699209 567.69131956 -600.97574337 562.61194429 -635.64756012 555.06898499 C-638.27309084 554.49802315 -640.89930531 553.93437737 -643.52841949 553.38050842 C-739.0094217 533.24818958 -739.0094217 533.24818958 -777.37705231 513.25794983 C-774.83328151 504.57636843 -770.85931212 496.65665658 -766.87705231 488.57044983 C-766.14972597 487.08564012 -765.42267786 485.60069409 -764.69589996 484.11561584 C-763.25361558 481.17140919 -761.80749489 478.22913149 -760.35849762 475.28822327 C-758.68095524 471.88140813 -757.02200251 468.46592893 -755.36923981 465.04701233 C-749.65325344 453.30654783 -743.31135492 442.02810789 -736.64658356 430.80091858 C-734.34611356 426.92482015 -732.11857418 423.02217309 -729.96079254 419.06532288 C-724.31951156 408.73623585 -717.81355956 398.97404916 -711.31015778 389.17298889 C-709.45143767 386.37011972 -707.6027034 383.56090621 -705.75595856 380.75013733 C-686.88431658 352.11685 -666.02839917 324.92880342 -643.7496109 298.86878967 C-642.34386663 297.21900299 -640.94778122 295.56140238 -639.55283356 293.90248108 C-630.67676224 283.38938047 -621.39902922 273.22085259 -611.63486481 263.52357483 C-609.33837071 261.24056497 -607.14508801 258.92975526 -605.06455231 256.44544983 C-599.03382698 249.4681981 -592.44458662 243.08987432 -585.43955231 237.10169983 C-582.98780542 234.9099867 -580.68819658 232.59727879 -578.37705231 230.25794983 C-574.86528681 226.70876826 -571.2869633 223.33826526 -567.49423981 220.09388733 C-564.97105776 217.90588813 -562.52150711 215.6450187 -560.06455231 213.38294983 C-555.58042303 209.29357196 -550.97437993 205.41175962 -546.25205231 201.60169983 C-543.68361018 199.50786114 -541.15691935 197.37638004 -538.63999176 195.22157288 C-532.35452022 189.84486678 -525.92120501 184.69986406 -519.31601715 179.71986389 C-517.91898273 178.66654708 -516.52368486 177.61092563 -515.12949371 176.55384827 C-484.37710804 153.23985485 -452.44031149 131.43177427 -418.74033356 112.58363342 C-416.59166073 111.37833451 -414.45138491 110.15986092 -412.31455231 108.93373108 C-352.65212867 74.78989343 -287.81115262 47.95272979 -221.43515778 30.08265686 C-218.57891979 29.31238926 -215.72973617 28.5201206 -212.88095856 27.72279358 C-196.69925329 23.27150115 -180.26211384 19.94865428 -163.82765961 16.58447266 C-159.78687418 15.75712829 -155.75074086 14.91434315 -151.72080231 14.03529358 C-129.17591223 9.17816649 -106.0997514 6.53938918 -83.18955231 4.07044983 C-82.12151367 3.95250061 -82.12151367 3.95250061 -81.0318985 3.83216858 C-54.06277426 0.88289657 -27.10871623 -0.10129776 0 0 Z " transform="translate(1916.377052307129,225.74205017089844)" style="fill: #FE1300;"/><path d="M0 0 C51.2325 -0.0928125 51.2325 -0.0928125 103.5 -0.1875 C119.6174707 -0.22846802 119.6174707 -0.22846802 136.06054688 -0.27026367 C149.28222656 -0.28381348 149.28222656 -0.28381348 155.49133301 -0.28633118 C159.7853266 -0.28910203 164.0792065 -0.30024702 168.37316895 -0.31672668 C214.60116167 -0.48636232 214.60116167 -0.48636232 234 3 C235.52528546 3.24844406 237.05095353 3.49455258 238.57702637 3.7381134 C269.58521002 8.85372833 299.2349053 22.30920623 318.53344727 47.86694336 C337.73042049 74.69525712 342.00968872 110.68757754 336.875 142.6875 C333.43273994 161.23286163 325.49660945 178.83717596 313 193 C312.31292969 193.81855469 311.62585937 194.63710937 310.91796875 195.48046875 C289.74598077 220.08575208 258.7009695 233.4816844 228.93017578 244.52929688 C221.94642295 247.13183759 215.00063051 249.83510899 208.04736328 252.51773071 C203.84394965 254.13857692 199.63866157 255.75454517 195.43359375 257.37109375 C189.71666897 259.56959706 184.0004533 261.76992492 178.28515625 263.97265625 C167.5531838 268.10802984 156.82167064 272.2414562 146.03808594 276.24072266 C143.66083291 277.12635477 141.28761895 278.0224786 138.9140625 278.91796875 C137.17196345 279.57054868 135.42977714 280.22289571 133.6875 280.875 C132.45785522 281.34135864 132.45785522 281.34135864 131.20336914 281.81713867 C130.43887451 282.10177979 129.67437988 282.3864209 128.88671875 282.6796875 C127.86904419 283.06229736 127.86904419 283.06229736 126.83081055 283.45263672 C125 284 125 284 122 284 C122 306.11 122 328.22 122 351 C81.74 351 41.48 351 0 351 C0 235.17 0 119.34 0 0 Z " transform="translate(1131,902)" style="fill: #000000;"/><path d="M0 0 C33.20625 -0.061875 66.4125 -0.12375 100.625 -0.1875 C116.26898193 -0.22846802 116.26898193 -0.22846802 132.22900391 -0.27026367 C145.10620117 -0.28381348 145.10620117 -0.28381348 151.16195679 -0.28633118 C155.33152193 -0.28909136 159.50096887 -0.30019187 163.67050171 -0.31672668 C215.29120992 -0.51229259 270.20939607 -0.1195706 309.6875 38.1875 C331.22722034 59.96510563 338.44754424 90.40486467 338.30004883 120.27124023 C337.6175789 152.51408415 326.48924981 180.15348993 303.4987793 202.92114258 C297.47764548 208.69229719 291.02576462 213.52503764 284 218 C283.36255859 218.40669922 282.72511719 218.81339844 282.06835938 219.23242188 C261.03035425 232.46633874 238.15853784 241.29421059 215 250 C213.37610985 250.61537838 211.75237653 251.23117104 210.12890625 251.84765625 C205.04678061 253.77113808 199.94941664 255.6527531 194.84765625 257.5234375 C183.03632177 261.85581529 171.26710098 266.29392612 159.5078125 270.765625 C147.00795137 275.51763832 134.50340834 280.25732787 122 285 C121.67 306.78 121.34 328.56 121 351 C81.07 351 41.14 351 0 351 C0 235.17 0 119.34 0 0 Z " transform="translate(1859,902)" style="fill: #000000;"/><path d="M0 0 C101.31 0 202.62 0 307 0 C307 29.7 307 59.4 307 90 C245.62 90 184.24 90 121 90 C121 103.53 121 117.06 121 131 C169.84 131 218.68 131 269 131 C269 159.71 269 188.42 269 218 C220.16 218 171.32 218 121 218 C121 232.19 121 246.38 121 261 C182.38 261 243.76 261 307 261 C307 290.7 307 320.4 307 351 C205.69 351 104.38 351 0 351 C0 235.17 0 119.34 0 0 Z " transform="translate(1502,902)" style="fill: #000000;"/><path d="M0 0 C3.45109706 -0.00964802 6.90158238 -0.04073204 10.35253906 -0.07226562 C54.99713517 -0.2826201 105.06156123 7.77459428 139.61816406 38.24023438 C140.29621094 38.81902344 140.97425781 39.3978125 141.67285156 39.99414062 C153.73869259 51.08692996 164.46030906 69.08912183 167.61816406 85.24023438 C167.61816406 86.23023438 167.61816406 87.22023438 167.61816406 88.24023438 C167.08489502 88.43955566 166.55162598 88.63887695 166.00219727 88.84423828 C153.26002621 93.60938627 140.52841833 98.40205006 127.80493164 103.21682739 C125.42313053 104.11808501 123.04115677 105.01888532 120.65917969 105.91967773 C113.15109536 108.76010303 105.64632507 111.60872192 98.14941406 114.47851562 C96.1927354 115.22605466 94.23595769 115.97333378 92.27914429 116.72052002 C90.49441694 117.40334301 88.71116875 118.09002831 86.92797852 118.77685547 C80.5582385 121.20904973 74.18432669 123.39912483 67.61816406 125.24023438 C67.09867188 124.29921875 66.57917969 123.35820313 66.04394531 122.38867188 C65.33984377 121.13067712 64.63539821 119.87287485 63.93066406 118.61523438 C63.59099609 117.99777344 63.25132812 117.3803125 62.90136719 116.74414062 C56.33026287 105.07582455 47.13024979 98.67729335 34.61816406 94.24023438 C33.84923828 93.91611572 33.0803125 93.59199707 32.28808594 93.25805664 C23.96040172 90.08339356 15.11237695 89.91080288 6.30566406 89.99023438 C4.65872559 90.00147339 4.65872559 90.00147339 2.97851562 90.01293945 C-11.52555976 90.20491147 -26.98325176 91.19200512 -38.38183594 101.24023438 C-41.20647362 104.74668115 -41.94332177 107.73016216 -41.71386719 112.25976562 C-40.99320565 116.55829976 -38.86044093 119.0536228 -35.52246094 121.73242188 C-15.59228445 134.99629795 12.77991072 137.32432134 35.86816406 141.86523438 C81.13396197 150.81250068 134.39972834 164.05302956 161.99316406 204.55273438 C176.31119948 226.56404256 179.32630717 254.35415038 174.23046875 279.87451172 C168.23585188 305.48309429 151.61642692 327.33057564 129.35009766 341.17529297 C128.49279053 341.70243896 128.49279053 341.70243896 127.61816406 342.24023438 C127.02729004 342.61100098 126.43641602 342.98176758 125.82763672 343.36376953 C103.73434645 357.07785371 78.11636428 364.1970415 52.61816406 368.24023438 C51.68472168 368.39266602 50.7512793 368.54509766 49.78955078 368.70214844 C14.75773966 374.17531481 -21.42643796 372.23593728 -56.38183594 367.24023438 C-58.13824375 367.01028262 -59.89473776 366.78098701 -61.65136719 366.55273438 C-98.80242044 361.38336085 -135.04726436 347.3412964 -162.38183594 321.24023438 C-162.99285156 320.69238281 -163.60386719 320.14453125 -164.23339844 319.58007812 C-172.12449009 312.24748839 -177.81860224 302.97678982 -182.38183594 293.30273438 C-182.67251953 292.68849609 -182.96320312 292.07425781 -183.26269531 291.44140625 C-184.94266976 287.71129348 -185.77791162 284.26698445 -186.38183594 280.24023438 C-175.38018067 275.4893565 -164.15974673 271.32777748 -152.94433594 267.11523438 C-149.92080068 265.97731772 -146.89749966 264.83878038 -143.8742218 263.70018005 C-141.86982814 262.94534677 -139.8653426 262.19075744 -137.86076355 261.43641663 C-132.03744468 259.24422909 -126.21844274 257.04122259 -120.40527344 254.82226562 C-119.40949532 254.44255615 -119.40949532 254.44255615 -118.39360046 254.05517578 C-115.41603122 252.91960301 -112.43931406 251.78189756 -109.46411133 250.64013672 C-102.49536388 247.98275128 -95.47560674 245.54307773 -88.38183594 243.24023438 C-87.94774414 243.90506836 -87.51365234 244.56990234 -87.06640625 245.25488281 C-73.57073453 265.68007915 -53.66822896 275.35082939 -30.45214844 280.47851562 C-20.92466991 282.34968012 -11.44630786 282.45729847 -1.77368164 282.48046875 C0.65091039 282.49011599 3.07463143 282.52118795 5.49902344 282.55273438 C18.40872676 282.64204131 31.73033754 282.01824792 43.36816406 275.86523438 C44.47675781 275.300625 45.58535156 274.73601562 46.72753906 274.15429688 C50.34463979 271.75918964 52.67998675 269.116589 54.61816406 265.24023438 C55.1407592 260.47690822 55.12260622 256.43255221 53.24316406 251.99023438 C41.11142435 239.28079277 21.05144346 236.70541273 4.61816406 233.24023438 C3.91044861 233.09094482 3.20273315 232.94165527 2.47357178 232.7878418 C0.09869751 232.28709586 -2.27630716 231.78697346 -4.65136719 231.28710938 C-5.47349701 231.11407791 -6.29562683 230.94104645 -7.14266968 230.76277161 C-11.2578014 229.89751153 -15.37364695 229.03598728 -19.49121094 228.18237305 C-58.89513711 219.99089506 -100.36488825 210.42620492 -131.38183594 183.24023438 C-132.29578125 182.43972656 -133.20972656 181.63921875 -134.15136719 180.81445312 C-150.68914778 165.2928188 -160.46889398 142.40945092 -161.48999023 119.85083008 C-162.17390636 90.93932275 -155.77196499 64.80838598 -135.48339844 43.40429688 C-134.78988281 42.69015625 -134.09636719 41.97601562 -133.38183594 41.24023438 C-132.83269531 40.62921875 -132.28355469 40.01820313 -131.71777344 39.38867188 C-99.76633474 4.91889318 -43.79474563 0.07366652 0 0 Z " transform="translate(2378.3818359375,893.759765625)" style="fill: #000000;"/><path d="M0 0 C0 117.81 0 235.62 0 357 C-39.93 357 -79.86 357 -121 357 C-121 254.37 -121 151.74 -121 46 C-92.08123259 34.21827994 -92.08123259 34.21827994 -81.38671875 30.546875 C-76.12628194 28.71947608 -70.94191698 26.6997979 -65.75 24.6875 C-50.90895845 18.93699757 -36.01521561 13.32753076 -21.12207031 7.71362305 C-20.16164322 7.35141159 -19.20121613 6.98920013 -18.21168518 6.61601257 C-16.39573464 5.93121626 -14.57961244 5.24687495 -12.76329041 4.56306458 C-9.48784945 3.32798817 -6.21968475 2.08876008 -2.97387695 0.77734375 C-1 0 -1 0 0 0 Z " transform="translate(2710,896)" style="fill: #000000;"/><path d="M0 0 C9.4875 -0.061875 18.975 -0.12375 28.75 -0.1875 C33.2064502 -0.22846802 33.2064502 -0.22846802 37.75292969 -0.27026367 C40.14257401 -0.27903634 42.53222286 -0.28667843 44.921875 -0.29296875 C46.13439941 -0.30831665 47.34692383 -0.32366455 48.59619141 -0.33947754 C61.11769931 -0.34327194 72.22211862 1.77489538 82 10 C89.76297719 18.69844387 91.68812014 27.41626921 91.37890625 38.91796875 C90.77406224 48.20308311 86.02207443 56.14111126 80 63 C79.51144531 63.58136719 79.02289062 64.16273437 78.51953125 64.76171875 C65.27437951 79.31503362 42.75186783 86.3683294 24.79248047 93.01220703 C22.07551867 94.0183234 19.36379736 95.03773704 16.65234375 96.05859375 C14.91695467 96.7065011 13.18128817 97.353666 11.4453125 98 C10.63917511 98.30301025 9.83303772 98.60602051 9.00247192 98.91821289 C3.3466804 101 3.3466804 101 0 101 C0 67.67 0 34.34 0 0 Z " transform="translate(1253,992)" style="fill: #FEFEFE;"/><path d="M0 0 C9.549375 -0.04125 19.09875 -0.0825 28.9375 -0.125 C33.43491821 -0.15231201 33.43491821 -0.15231201 38.02319336 -0.18017578 C40.42040834 -0.1860213 42.81762532 -0.19111672 45.21484375 -0.1953125 C47.05665222 -0.2106604 47.05665222 -0.2106604 48.93566895 -0.22631836 C61.2270238 -0.22880071 71.80373198 1.70627396 81.3359375 10.04296875 C87.86775361 16.90258976 91.1343235 23.81633849 91.5 33.3125 C90.97722438 47.21506411 85.41632886 58.22450595 75.3125 67.6875 C60.38636896 79.81317705 41.99327841 86.43850553 24.20800781 93.16210938 C21.97571312 94.00921634 19.74930848 94.87054596 17.5234375 95.734375 C16.09912922 96.2816949 14.67465688 96.82858812 13.25 97.375 C12.28489502 97.75132568 12.28489502 97.75132568 11.30029297 98.13525391 C7.42982306 99.60343374 4.17476186 100.30420636 0 101 C0 67.67 0 34.34 0 0 Z " transform="translate(1981,992)" style="fill: #FEFEFE;"/></svg>