<?xml version="1.0" encoding="UTF-8" standalone="no"?>
<!DOCTYPE svg PUBLIC "-//W3C//DTD SVG 1.1//EN" "http://www.w3.org/Graphics/SVG/1.1/DTD/svg11.dtd">
<svg xmlns="http://www.w3.org/2000/svg" version="1.1" viewBox="0.00 0.00 800.00 800.00">
<g stroke-width="2.00" fill="none" stroke-linecap="butt">
<path stroke="#b38927" vector-effect="non-scaling-stroke" d="
  M 311.12 356.58
  Q 315.67 346.48 315.72 338.50
  Q 315.83 319.04 315.75 299.57
  Q 315.71 290.75 314.75 286.01
  C 311.02 267.69 298.68 254.70 279.49 252.92
  C 259.22 251.04 241.78 258.71 234.63 278.74
  Q 231.59 287.28 231.57 295.25
  Q 231.54 312.52 231.56 329.81
  Q 231.57 339.59 232.34 344.16
  C 235.31 361.82 247.20 375.81 265.21 378.35
  C 284.19 381.02 302.77 375.13 311.12 356.58"
/>
<path stroke="#b38927" vector-effect="non-scaling-stroke" d="
  M 540.00 377.20
  C 557.99 372.01 568.38 354.45 568.43 336.50
  Q 568.48 318.81 568.44 301.12
  Q 568.42 291.91 567.65 287.42
  C 564.22 267.58 550.65 253.79 529.98 252.67
  C 510.74 251.62 495.64 258.93 487.96 276.99
  Q 484.49 285.15 484.28 293.50
  Q 484.06 301.64 484.25 331.07
  Q 484.32 341.65 485.56 346.81
  C 488.05 357.20 493.62 367.31 502.82 372.92
  C 513.32 379.32 528.25 380.59 540.00 377.20"
/>
<path stroke="#b38927" vector-effect="non-scaling-stroke" d="
  M 580.20 596.96
  C 603.61 572.41 622.22 541.40 629.06 507.92
  C 633.49 486.29 635.25 448.74 606.00 442.30
  Q 597.75 440.48 590.99 441.80
  Q 544.38 450.93 519.75 454.50
  Q 424.01 468.40 327.71 460.09
  C 289.19 456.77 251.23 449.83 213.27 442.67
  C 204.20 440.96 196.87 440.63 189.03 443.78
  C 162.40 454.46 167.28 494.10 172.56 515.35
  C 179.14 541.84 194.17 567.54 212.01 588.23
  C 307.38 698.85 479.94 702.08 580.20 596.96"
/>
<path stroke="#b3a280" vector-effect="non-scaling-stroke" d="
  M 210.86 484.90
  C 233.71 523.33 278.06 547.49 319.86 558.53
  C 362.12 569.68 407.36 571.03 450.49 564.71
  C 503.10 556.99 560.13 532.20 589.11 485.01
  Q 589.57 484.26 588.73 484.50
  C 554.82 493.90 519.61 498.82 484.50 501.73
  Q 402.20 508.55 319.87 502.12
  C 282.68 499.22 246.50 494.12 211.19 484.46
  Q 210.48 484.27 210.86 484.90"
/>
</g>
<path fill="#ffcc4d" d="
  M 778.95 399.96
  A 378.96 378.96 0.0 0 1 399.99 778.92
  A 378.96 378.96 0.0 0 1 21.03 399.96
  A 378.96 378.96 0.0 0 1 399.99 21.00
  A 378.96 378.96 0.0 0 1 778.95 399.96
  Z
  M 311.12 356.58
  Q 315.67 346.48 315.72 338.50
  Q 315.83 319.04 315.75 299.57
  Q 315.71 290.75 314.75 286.01
  C 311.02 267.69 298.68 254.70 279.49 252.92
  C 259.22 251.04 241.78 258.71 234.63 278.74
  Q 231.59 287.28 231.57 295.25
  Q 231.54 312.52 231.56 329.81
  Q 231.57 339.59 232.34 344.16
  C 235.31 361.82 247.20 375.81 265.21 378.35
  C 284.19 381.02 302.77 375.13 311.12 356.58
  Z
  M 540.00 377.20
  C 557.99 372.01 568.38 354.45 568.43 336.50
  Q 568.48 318.81 568.44 301.12
  Q 568.42 291.91 567.65 287.42
  C 564.22 267.58 550.65 253.79 529.98 252.67
  C 510.74 251.62 495.64 258.93 487.96 276.99
  Q 484.49 285.15 484.28 293.50
  Q 484.06 301.64 484.25 331.07
  Q 484.32 341.65 485.56 346.81
  C 488.05 357.20 493.62 367.31 502.82 372.92
  C 513.32 379.32 528.25 380.59 540.00 377.20
  Z
  M 580.20 596.96
  C 603.61 572.41 622.22 541.40 629.06 507.92
  C 633.49 486.29 635.25 448.74 606.00 442.30
  Q 597.75 440.48 590.99 441.80
  Q 544.38 450.93 519.75 454.50
  Q 424.01 468.40 327.71 460.09
  C 289.19 456.77 251.23 449.83 213.27 442.67
  C 204.20 440.96 196.87 440.63 189.03 443.78
  C 162.40 454.46 167.28 494.10 172.56 515.35
  C 179.14 541.84 194.17 567.54 212.01 588.23
  C 307.38 698.85 479.94 702.08 580.20 596.96
  Z"
/>
<path fill="#664500" d="
  M 311.12 356.58
  C 302.77 375.13 284.19 381.02 265.21 378.35
  C 247.20 375.81 235.31 361.82 232.34 344.16
  Q 231.57 339.59 231.56 329.81
  Q 231.54 312.52 231.57 295.25
  Q 231.59 287.28 234.63 278.74
  C 241.78 258.71 259.22 251.04 279.49 252.92
  C 298.68 254.70 311.02 267.69 314.75 286.01
  Q 315.71 290.75 315.75 299.57
  Q 315.83 319.04 315.72 338.50
  Q 315.67 346.48 311.12 356.58
  Z"
/>
<path fill="#664500" d="
  M 568.43 336.50
  C 568.38 354.45 557.99 372.01 540.00 377.20
  C 528.25 380.59 513.32 379.32 502.82 372.92
  C 493.62 367.31 488.05 357.20 485.56 346.81
  Q 484.32 341.65 484.25 331.07
  Q 484.06 301.64 484.28 293.50
  Q 484.49 285.15 487.96 276.99
  C 495.64 258.93 510.74 251.62 529.98 252.67
  C 550.65 253.79 564.22 267.58 567.65 287.42
  Q 568.42 291.91 568.44 301.12
  Q 568.48 318.81 568.43 336.50
  Z"
/>
<path fill="#664500" d="
  M 629.06 507.92
  C 622.22 541.40 603.61 572.41 580.20 596.96
  C 479.94 702.08 307.38 698.85 212.01 588.23
  C 194.17 567.54 179.14 541.84 172.56 515.35
  C 167.28 494.10 162.40 454.46 189.03 443.78
  C 196.87 440.63 204.20 440.96 213.27 442.67
  C 251.23 449.83 289.19 456.77 327.71 460.09
  Q 424.01 468.40 519.75 454.50
  Q 544.38 450.93 590.99 441.80
  Q 597.75 440.48 606.00 442.30
  C 635.25 448.74 633.49 486.29 629.06 507.92
  Z
  M 210.86 484.90
  C 233.71 523.33 278.06 547.49 319.86 558.53
  C 362.12 569.68 407.36 571.03 450.49 564.71
  C 503.10 556.99 560.13 532.20 589.11 485.01
  Q 589.57 484.26 588.73 484.50
  C 554.82 493.90 519.61 498.82 484.50 501.73
  Q 402.20 508.55 319.87 502.12
  C 282.68 499.22 246.50 494.12 211.19 484.46
  Q 210.48 484.27 210.86 484.90
  Z"
/>
<path fill="#ffffff" d="
  M 319.86 558.53
  C 278.06 547.49 233.71 523.33 210.86 484.90
  Q 210.48 484.27 211.19 484.46
  C 246.50 494.12 282.68 499.22 319.87 502.12
  Q 402.20 508.55 484.50 501.73
  C 519.61 498.82 554.82 493.90 588.73 484.50
  Q 589.57 484.26 589.11 485.01
  C 560.13 532.20 503.10 556.99 450.49 564.71
  C 407.36 571.03 362.12 569.68 319.86 558.53
  Z"
/>
</svg>
