<svg id="svg" version="1.1" xmlns="http://www.w3.org/2000/svg" style="display: block;" viewBox="0 0 800 800"><path d="M0 0 C264 0 528 0 800 0 C800 264 800 528 800 800 C536 800 272 800 0 800 C0 536 0 272 0 0 Z " transform="translate(0,0)" style="fill: #FECB4C;"/><path d="M0 0 C264 0 528 0 800 0 C800 264 800 528 800 800 C536 800 272 800 0 800 C0 536 0 272 0 0 Z M345 24 C343.31221436 24.24943359 343.31221436 24.24943359 341.59033203 24.50390625 C271.87445651 35.02999958 202.56292421 65.62551727 150.4765625 113.734375 C149.11798927 114.97723379 147.75163739 116.2124091 146.35229492 117.40917969 C140.51825875 122.40226694 135.06291552 127.75093697 129.63696289 133.17773438 C128.07391266 134.73860327 126.50302635 136.29127888 124.93164062 137.84375 C118.5026257 144.23693811 112.62542579 150.87602388 107 158 C105.99905678 159.21988518 104.99553714 160.4376657 103.98828125 161.65234375 C49.18902088 228.58909361 20.41991414 313.40511617 20.6875 399.5625 C20.68899048 400.75110626 20.69048096 401.93971252 20.6920166 403.16433716 C20.73142196 420.64840851 21.24524321 437.70855787 24 455 C24.13921875 455.95535645 24.2784375 456.91071289 24.421875 457.89501953 C30.01827972 496.23427829 42.12808607 533.21161932 59 568 C59.46374023 568.95793457 59.92748047 569.91586914 60.40527344 570.90283203 C73.19186216 596.97570451 89.39107631 621.37451307 108.50195312 643.23095703 C109.64999967 644.58668475 110.76833093 645.96762427 111.87304688 647.35888672 C117.56548553 654.50810279 123.70200346 661.01151805 130.18310547 667.44384766 C131.87313242 669.12314428 133.55217764 670.81288969 135.23046875 672.50390625 C141.84700085 679.1284909 148.66578355 685.17074238 156 691 C157.11379156 691.94622465 158.221829 692.89932755 159.3203125 693.86328125 C167.76964025 701.2417332 176.71885224 707.71019225 186 714 C186.66451172 714.45342773 187.32902344 714.90685547 188.01367188 715.37402344 C245.28810948 754.22868403 315.91021914 778.89231835 385.52734375 779.203125 C386.58658051 779.21009399 387.64581726 779.21706299 388.7371521 779.22424316 C392.13730901 779.24153552 395.53730095 779.24796315 398.9375 779.25 C400.09962006 779.25100708 401.26174011 779.25201416 402.45907593 779.25305176 C420.17857592 779.24266348 437.45798759 778.67219099 455 776 C455.97388672 775.86078125 456.94777344 775.7215625 457.95117188 775.578125 C491.9334768 770.64852267 525.36756997 760.52950681 556.52197266 746.14208984 C558.80180423 745.0913458 561.09144438 744.06722234 563.38671875 743.05078125 C581.13553713 735.08269026 598.11355561 725.21660668 614 714 C614.71494629 713.50000488 615.42989258 713.00000977 616.16650391 712.48486328 C625.56177347 705.89755959 634.58277973 699.07564592 643.21484375 691.51416016 C644.57698271 690.35880105 645.96474675 689.23358445 647.36328125 688.12255859 C654.5110641 682.43152497 661.01291133 676.2965927 667.44384766 669.81689453 C669.12314428 668.12686758 670.81288969 666.44782236 672.50390625 664.76953125 C679.1284909 658.15299915 685.17074238 651.33421645 691 644 C691.94622465 642.88620844 692.89932755 641.778171 693.86328125 640.6796875 C709.09244699 623.24022817 721.86381891 603.39327351 732.87744141 583.06005859 C734.00865019 580.98412564 735.16548321 578.92395149 736.32421875 576.86328125 C755.86226521 541.55901197 768.09209499 502.21821315 774.8125 462.5625 C775.00739014 461.41628174 775.20228027 460.27006348 775.40307617 459.08911133 C778.52882816 439.56452652 779.37385267 420.19185416 779.3125 400.4375 C779.31026428 398.65459061 779.31026428 398.65459061 779.3079834 396.83566284 C779.26857804 379.35159149 778.75475679 362.29144213 776 345 C775.86078125 344.04464355 775.7215625 343.08928711 775.578125 342.10498047 C765.67834555 274.28461638 736.21977144 209.28107491 692 157 C690.86111328 155.58460938 690.86111328 155.58460938 689.69921875 154.140625 C682.63840638 145.48622181 674.81062888 137.59418761 666.9375 129.6875 C666.38305206 129.12787567 665.82860413 128.56825134 665.25735474 127.9916687 C658.16141266 120.84360546 650.90110243 114.25967913 643 108 C641.97225274 107.13684652 640.94884552 106.26844173 639.93359375 105.390625 C589.68050534 62.2940797 525.15931561 35.44514027 460.25 24.75 C458.88862915 24.52328613 458.88862915 24.52328613 457.49975586 24.29199219 C438.54293562 21.35951855 419.59187592 20.62354695 400.4375 20.6875 C399.29869385 20.68932281 398.1598877 20.69114563 396.98657227 20.69302368 C379.46535171 20.74013199 362.34036165 21.31394916 345 24 Z " transform="translate(0,0)" style="fill: #000000;"/><path d="M0 0 C29.17358932 6.38094677 58.96640899 11.15394543 88.65148926 14.40808105 C89.47890625 14.49895996 90.30632324 14.58983887 91.15881348 14.68347168 C120.29486426 17.78388206 149.45727447 18.73452429 178.73321533 18.60369873 C181.82244229 18.59276356 184.91162678 18.59328065 188.00086975 18.59369755 C209.04801104 18.59306452 229.93848668 18.12165327 250.90148926 16.09558105 C251.56327179 16.03249756 252.22505432 15.96941406 252.90689087 15.90441895 C263.48595151 14.8916883 274.04174165 13.70960976 284.58898926 12.40808105 C285.84808105 12.25427979 287.10717285 12.10047852 288.40441895 11.9420166 C297.88311431 10.73816493 307.25849616 9.13966984 316.65148926 7.40808105 C317.49386139 7.25345398 318.33623352 7.0988269 319.20413208 6.93951416 C324.72300378 5.92561267 330.24006942 4.90222292 335.75622559 3.87365723 C338.60978016 3.34170527 341.46362646 2.81133939 344.31750488 2.28112793 C346.16713166 1.93682035 348.01674164 1.59242254 349.86633301 1.2479248 C350.70196274 1.0926683 351.53759247 0.9374118 352.39854431 0.77745056 C357.44156707 -0.16401081 362.47244617 -1.15288779 367.4974823 -2.18629456 C377.37429496 -4.04621246 387.52742285 -2.6035379 396.00695801 2.9510498 C404.03374329 9.53211016 407.67723281 17.35438212 409.65148926 27.40808105 C410.10745583 32.1864993 410.17678466 36.92247446 410.15148926 41.72058105 C410.14872986 42.37592834 410.14597046 43.03127563 410.14312744 43.70648193 C409.83597146 83.46451165 389.38023329 119.27299627 363.65148926 148.40808105 C363.20160645 148.92112793 362.75172363 149.4341748 362.28820801 149.96276855 C343.39932241 171.41009111 320.77145933 187.94719495 295.65148926 201.40808105 C295.03257812 201.74549316 294.41366699 202.08290527 293.77600098 202.43054199 C272.55787662 213.92860039 249.33695877 221.34076 225.73547363 225.99401855 C224.06396039 226.32612803 222.39610269 226.67661294 220.72961426 227.03308105 C160.25094885 239.35994279 94.05647805 223.90008458 42.72399902 190.65588379 C31.85232772 183.45926262 21.67810765 175.58667685 12.12805176 166.69714355 C10.03466743 164.76224889 7.90066718 162.922312 5.71398926 161.09558105 C-9.81584068 147.49119751 -22.32592364 130.35104993 -32.34851074 112.40808105 C-32.69220703 111.80818359 -33.03590332 111.20828613 -33.39001465 110.59020996 C-41.3572065 96.66351374 -47.25610667 82.18931732 -50.34851074 66.40808105 C-50.5147998 65.7969043 -50.68108887 65.18572754 -50.85241699 64.55603027 C-52.743435 57.30431391 -52.71609648 50.1168325 -52.72351074 42.65808105 C-52.74800293 41.37675293 -52.77249512 40.0954248 -52.79772949 38.77526855 C-52.83386766 26.89785705 -50.99803807 15.15748745 -42.34851074 6.40808105 C-29.81737039 -5.1958079 -15.66972074 -3.44493363 0 0 Z " transform="translate(221.3485107421875,443.5919189453125)" style="fill: #664500;"/><path d="M0 0 C1.08152344 0.30292969 2.16304687 0.60585938 3.27734375 0.91796875 C22.23811331 6.12609514 41.39969204 9.95414759 60.92749023 12.26879883 C64.82201634 12.73444334 68.7141365 13.21434363 72.60449219 13.71362305 C143.81641545 22.84656728 217.59941997 24.00582977 289 16 C290.49396036 15.83805459 291.9879374 15.67626291 293.48193359 15.51464844 C302.02649206 14.57283469 310.51426932 13.37027493 319 12 C320.42820191 11.77314409 321.85642564 11.5464255 323.28466797 11.31982422 C350.97812097 7.13512419 350.97812097 7.13512419 378 0 C369.88855931 23.07997559 343.1689987 41.41789901 323 53 C322.33419922 53.38639648 321.66839844 53.77279297 320.98242188 54.17089844 C310.15903335 60.384711 298.94526867 64.97233624 287.21582031 69.19238281 C285.45285591 69.8349441 283.70406949 70.51637334 281.9609375 71.2109375 C257.78411134 80.80491613 229.39300487 84.10235731 203.5546875 84.203125 C202.38656525 84.20882507 201.21844299 84.21452515 200.0149231 84.22039795 C197.54918303 84.22979562 195.08343071 84.23636095 192.61767578 84.24023438 C188.93368124 84.24984689 185.25026813 84.28088311 181.56640625 84.3125 C159.85098481 84.41203217 138.78131342 82.48882549 117.6875 77.25 C116.96885773 77.07537231 116.25021545 76.90074463 115.50979614 76.7208252 C82.83571527 68.76545934 52.50108952 55.2725862 27 33 C26.175 32.30777344 25.35 31.61554687 24.5 30.90234375 C15.17093297 22.87060011 5.90957202 12.89655262 0 2 C0 1.34 0 0.68 0 0 Z " transform="translate(211,484)" style="fill: #FEFDFD;"/><path d="M0 0 C0.90427734 -0.020625 1.80855469 -0.04125 2.74023438 -0.0625 C14.04430218 -0.12714085 23.31970119 3.11349565 31.65625 10.84375 C41.26990596 21.24219421 43.2473906 33.41201258 43.2734375 47.04296875 C43.2834227 48.87750359 43.2834227 48.87750359 43.29360962 50.74909973 C43.30370507 53.33019515 43.3084276 55.9113165 43.30810547 58.49243164 C43.31246659 62.40751017 43.34878913 66.32144956 43.38671875 70.23632812 C43.39259019 72.75520452 43.39655739 75.27408621 43.3984375 77.79296875 C43.41280853 78.94758102 43.42717957 80.1021933 43.44198608 81.29179382 C43.3695629 94.40791683 39.83340358 105.70760545 30.9375 115.4375 C25.55175194 120.66936955 20.12526217 123.24648204 12.9375 125.25 C12.03644531 125.53617188 12.03644531 125.53617188 11.1171875 125.828125 C-1.37870181 128.24668422 -13.00052928 126.07507968 -23.8125 119.5625 C-33.60835893 112.5304727 -38.60928486 101.88094231 -41.0625 90.25 C-41.16191198 88.54241241 -41.21060514 86.83152305 -41.22363281 85.12109375 C-41.23804413 83.58799561 -41.23804413 83.58799561 -41.25274658 82.02392578 C-41.25699646 80.92290527 -41.26124634 79.82188477 -41.265625 78.6875 C-41.27132507 77.54522949 -41.27702515 76.40295898 -41.28289795 75.22607422 C-41.29234552 72.80518519 -41.29888097 70.38428331 -41.30273438 67.96337891 C-41.31239018 64.2917574 -41.34339606 60.62070773 -41.375 56.94921875 C-41.38153549 54.59114914 -41.38678381 52.23307554 -41.390625 49.875 C-41.4029718 48.79017334 -41.4153186 47.70534668 -41.42803955 46.58764648 C-41.38976944 33.23266231 -38.03327198 20.55377323 -28.9375 10.4375 C-20.68687199 2.76034614 -10.88022837 0.06023656 0 0 Z " transform="translate(525.0625,252.75)" style="fill: #664500;"/><path d="M0 0 C9.36178971 7.80149142 14.10643033 17.81077354 16.0625 29.71875 C16.36552868 33.70121351 16.41350291 37.67113541 16.43359375 41.6640625 C16.44262222 42.79214325 16.4516507 43.920224 16.46095276 45.08248901 C16.47539874 47.46089042 16.48432785 49.83933105 16.48803711 52.21777344 C16.49989706 55.81254956 16.54911221 59.40558697 16.59960938 63 C16.71779974 79.70078473 15.82162967 94.68836307 4.0625 107.71875 C-6.0105791 117.21504747 -17.33296004 119.13853529 -30.69921875 118.9296875 C-42.00650247 118.52612285 -50.57301616 113.5373253 -58.25 105.40625 C-66.83411452 95.23501291 -68.24880193 83.81815245 -68.2734375 70.92578125 C-68.2834227 69.09124641 -68.2834227 69.09124641 -68.29360962 67.21965027 C-68.30370507 64.63855485 -68.3084276 62.0574335 -68.30810547 59.47631836 C-68.31246659 55.56123983 -68.34878913 51.64730044 -68.38671875 47.73242188 C-68.39259019 45.21354548 -68.39655739 42.69466379 -68.3984375 40.17578125 C-68.41280853 39.02116898 -68.42717957 37.8665567 -68.44198608 36.67695618 C-68.37357609 24.28763681 -65.3157156 13.08457452 -56.9375 3.71875 C-42.02908775 -10.23974572 -16.75642308 -12.2082511 0 0 Z " transform="translate(299.9375,260.28125)" style="fill: #664500;"/></svg>