<!DOCTYPE svg PUBLIC "-//W3C//DTD SVG 1.1//EN" "http://www.w3.org/Graphics/SVG/1.1/DTD/svg11.dtd">
<svg xmlns="http://www.w3.org/2000/svg" viewBox="0 0 256 256">
<path fill="#f3b82b" stroke="#f3b82b" d="M77 6.512c-9.459 1.874-13.409 3.241-16.091 5.567-1.31 1.136-3.658 2.321-5.217 2.633C47.901 16.27 29.961 39.077 22.821 56.5 16.075 72.963 14.02 79.571 11.471 93c-.888 4.675-2.071 10.3-2.63 12.5-1.349 5.311-2.32 62.994-1.136 67.5 1.423 5.415 5.52 7.548 17.408 9.063l10.161 1.295-4.403 2.071c-10.389 4.886-17.589 11.685-21.257 20.071-.962 2.2-2.172 4.9-2.688 6-1.327 2.826-2.835 10.598-3.966 20.438-.533 4.641-1.415 10.041-1.959 12-.545 1.959-.992 5.252-.995 7.317L0 255.009l104.75-.254 104.75-.255.544-15c.3-8.25.164-22.425-.301-31.5-1.49-29.09-1.683-30.633-4.327-34.528-4.245-6.256-4.97-5.857 16.542-9.117 5.127-.777 23.731-9.954 27.987-13.805 1.13-1.023 2.055-3.085 2.055-4.583 0-1.497.684-3.29 1.519-3.983 1.937-1.607 1.024-7.677-1.561-10.385-1.611-1.687-2.167-1.755-4.942-.606-2.348.973-3.412 1.011-4.272.151-1.958-1.958-5.477-1.279-12.853 2.48-5.267 2.684-8.814 3.761-13.681 4.151l-6.57.528 2.18-2.34c2.658-2.853 2.73-4.155.351-6.308-2.36-2.136-4.234-2.086-9.432.25-2.331 1.048-5.435 2.171-6.896 2.496-1.462.325-3.335.85-4.163 1.168-1.216.467-1.628-.735-2.146-6.246-2.608-27.78-5.15-40.35-11.648-57.594-10.522-27.921-27.78-49.13-47.933-58.903C118.76 5.397 93.154 3.312 77 6.512m9.5 2.115c-16.488 2.489-21.5 4.47-21.5 8.5 0 5.338 4.903 9.826 12.935 11.84 1.961.492 8.011 2.037 13.445 3.434 5.434 1.398 12.184 2.801 15 3.12 5.824.659 9.664 1.476 11.12 2.367 1.057.647 10.942 2.856 16 3.577 1.65.234 4.572.901 6.493 1.481 6.722 2.028 10.035 1.448 9.68-1.696-.318-2.814-2.132-6.772-4.081-8.903-11.464-12.535-19.81-18.308-31.378-21.707-5.419-1.593-22.351-2.822-27.714-2.013M46.067 27.26C40.946 32.157 34 42.457 34 45.155c0 4.031 9.033 1.552 14.272-3.917 2.306-2.406 2.819-4.012 3.371-10.538.755-8.938.402-9.156-5.576-3.44M61 99c0 1.111.667 2 1.5 2s1.5-.889 1.5-2-.667-2-1.5-2-1.5.889-1.5 2m65.5-1c-.729 1.18.217 3 1.559 3 .518 0 .941-.9.941-2 0-2.109-1.455-2.691-2.5-1m-74.453 3.599c-3.89 4.43-3.667 7.079.851 10.117 4.76 3.2 5.635 2.852 3.201-1.273-2.299-3.896-2.665-7.516-1.064-10.509 1.56-2.914.528-2.34-2.988 1.665m24.801 1.958c.255 3.21-.236 5.335-1.831 7.916-2.422 3.918-1.953 4.192 4.233 2.474 4.385-1.217 4.763-3.041 1.823-8.804-3.165-6.204-4.636-6.756-4.225-1.586m64.652.836c0 3.719-.524 5.774-1.798 7.047-3.889 3.89 1.048 3.051 5.583-.948 3.047-2.687 2.442-5.714-1.933-9.673-1.78-1.612-1.852-1.474-1.852 3.574m-25.416-1.028c-3.838 6.209-3.819 9.252.063 10.428 8.762 2.656 8.774 2.651 5.274-2.499-1.914-2.816-2.487-4.761-2.223-7.544.439-4.638-.42-4.744-3.114-.385m-17.445 24.329c-1.126 1.126-.685 2.306.861 2.306.825 0 1.5-.423 1.5-.941 0-1.261-1.562-2.164-2.361-1.365m-4.855 24.044c2.905.203 7.405.201 10-.004 2.594-.206.216-.371-5.284-.369-5.5.003-7.622.171-4.716.373M161 183.883c0 .486.787 1.11 1.75 1.387.963.277 2.537.827 3.5 1.224 1.341.552 1.75.227 1.75-1.387 0-1.741-.607-2.107-3.5-2.107-1.925 0-3.5.398-3.5.883" fill-rule="evenodd"/>
<path fill="#d18d15" stroke="#d18d15" d="M57.46 16.415c-1.787 1.316-1.936 2.506-1.687 13.511.509 22.544-8.04 43.356-21.159 51.509-1.713 1.065-2.785 1.56-2.382 1.102 1.497-1.706-3.461-4.645-6.677-3.958-5.735 1.224-7.509 4.97-12.519 26.421-4.331 18.545-6.419 47.473-3.031 41.992.522-.845.946-.881 1.417-.119.432.7 2.756.869 6.533.474 5.006-.523 6.306-.297 8.895 1.546 4.084 2.908 10.618 9.322 10.785 10.586.074.562.186 1.636.25 2.388.072.857.861 1.171 2.116.843 1.101-.288 1.75-.115 1.441.383-.308.499-.146.907.36.907.507 0 .693 1.192.414 2.649-.316 1.653-.123 2.412.513 2.018.561-.346 1.858.487 2.882 1.852 1.025 1.364 2.446 2.481 3.158 2.481.711 0 1.553.675 1.869 1.5.317.825 1.315 1.515 2.219 1.534 1.516.031-5.407 3.856-7.118 3.932-.814.036-6.82 2.6-15.732 6.714-16.141 7.453-23.205 19.685-26.46 45.82-.89 7.15-2.053 14.305-2.583 15.899-.53 1.595-.964 3.507-.964 4.25C0 253.775 17.401 254 104.45 254H208.9l.3-15.25c.696-35.394-1.158-61.611-4.652-65.75-4.081-4.835-1.146-8 7.419-8 5.578 0 17.336-3.4 22.723-6.571 2.646-1.557 6.835-3.9 9.31-5.207 2.475-1.308 5.148-3.007 5.94-3.776 3.043-2.953.136-2.209-7.99 2.047-9.122 4.778-11.843 5.481-31.117 8.033-11.308 1.498-17.274 1.464-22.965-.129-3.265-.914-2.855 2.612.771 6.625l3.594 3.978h-3.649c-9.342 0-12.584-3.573-12.584-13.869 0-8.884.767-10.799 6.59-16.459l4.749-4.616-1.073-6.278c-.589-3.453-1.521-8.078-2.071-10.278-1.331-5.334-3.356-16.366-3.595-19.589-.371-4.996-8.381-15.776-13.35-17.967-1.787-.788-3.25-1.675-3.25-1.972 0-1.955-6.531-.252-6.82 1.778-.218 1.536-1.001 2.25-2.467 2.25-2.359 0-18.023-3.675-21.213-4.977-1.1-.449-4.475-1.807-7.5-3.017-26.602-10.642-57.245-37.005-63.093-54.28-1.971-5.822-2.657-6.365-5.447-4.311m10.296 48.154c-1.51.819-3.641 3.246-4.737 5.394s-3.011 4.634-4.256 5.525c-2.159 1.546-1.986 1.592 3.737 1.006 4.824-.494 6.675-.242 9.447 1.286 5.715 3.151 4.789 3.9-4.236 3.426C54.877 80.533 49 84.674 49 94.391c0 .912-1.051 2.058-2.336 2.547-2.762 1.05-6.186 10.532-5.364 14.856 2.399 12.621 12.392 34.831 18.795 41.77C61.143 154.7 62 156.036 62 156.533c0 1.374 5.108 5.467 6.822 5.467.831 0 1.233.279.892.619-1.387 1.387 8.085 6.755 16.786 9.514 5.191 1.645 17.897 1.627 23-.034 6.45-2.099 11.5-4.422 11.5-5.291 0-.445.675-.808 1.5-.808s1.5-.45 1.5-1 .413-1 .917-1c1.472 0 13.327-12.769 16.344-17.604 8.622-13.82 13.366-34.782 8.489-37.515-.963-.539-1.75-1.598-1.75-2.354 0-1.681-4.549-7.215-7.016-8.535-1.629-.873-1.7-.699-.745 1.831 1.318 3.492.302 9.247-2.127 12.048-2.787 3.214-3.55 2.552-1.071-.929 2.972-4.174 2.238-4.249-2.869-.294-2.912 2.256-3.746 3.352-2.55 3.352 1.319 0 1.487.291.651 1.127-1.688 1.688-6.113.187-9.535-3.235-2.826-2.826-2.971-3.348-2.426-8.699l.581-5.693-4.447 4.692c-5.162 5.447-5.953 3.935-1.196-2.289 3.832-5.015 10.734-8.835 16.03-8.875l3.78-.028-2.218-3c-1.688-2.283-3.01-3-5.53-3-1.822 0-3.312-.486-3.312-1.079 0-.68-1.113-.836-3-.421s-3 .259-3-.421c0-.593-.562-1.089-1.25-1.102-.687-.012-7.1-2.971-14.25-6.574-12.985-6.545-27.497-12.439-30.441-12.363-.858.022-2.794.71-4.303 1.529M59.5 92.397c-10.302 3.98-18.46 12.655-14.312 15.219.689.426 1.635-.042 2.25-1.112C49.061 103.683 55.126 97 56.064 97c.458 0 .351 1.379-.236 3.065-1.293 3.707-.485 9.551 1.644 11.904 2.349 2.596 9.296 4.663 10.758 3.201.893-.893.591-1.179-1.28-1.21-2.384-.039-2.369-.084.55-1.659 1.65-.891 3.548-2.335 4.218-3.21.977-1.276 1.225-1.31 1.25-.17.018.782-.713 2.244-1.623 3.25-.91 1.006-1.205 1.829-.655 1.829 3.696 0 6.738-8.732 4.722-13.556-1.445-3.458-1.43-3.524.533-2.474 1.109.594 3.15 2.748 4.536 4.787 1.402 2.063 2.519 3.006 2.519 2.125 0-2.948-5.793-9.603-10.226-11.749-4.796-2.322-8.618-2.534-13.274-.736m1.5 6.676c0 2.563 3.31 2.272 3.812-.334.231-1.2-.308-1.739-1.739-1.739S61 97.642 61 99.073m64.446-.986c-.945 1.529 1.106 3.299 2.987 2.577.862-.331 1.567-1.29 1.567-2.133 0-1.747-3.535-2.092-4.554-.444m114.583 34.874c-.809.512-1.211 1.191-.893 1.509.319.318 1.148-.108 1.844-.946 1.443-1.738 1.166-1.902-.951-.563m-150.511 1.011c-1.697 2.745 4.409 8.971 8.831 9.006 3.338.026 8.651-5.034 8.651-8.239 0-1.922-.114-1.946-1.829-.394-2.39 2.163-11.422 2.261-13.536.147-.909-.909-1.75-1.115-2.117-.52m115.846 1.009c-4.801 2.136-6.164 3.775-3.871 4.655 2.036.781 10.507-3.486 10.507-5.293 0-1.758-1.595-1.604-6.636.638m30.449.702c.721.289 1.584.253 1.916-.079.332-.332-.258-.568-1.312-.525-1.165.048-1.402.285-.604.604m14.937 5.006c-.963.252-1.75.875-1.75 1.384 0 1.415 1.964 1.105 3.643-.573 1.52-1.52 1.255-1.633-1.893-.811m-169 5.1c-10.092.333-10.458.829-4.984 6.753 11.12 12.035 22.136 14.283 35.643 7.273 2.769-1.437 11.556-10.975 11.576-12.565.011-.896-2.461-1.287-8.735-1.379l-16.75-.25c-4.4-.067-11.937.009-16.75.168m6.485 3.919C82.652 150.781 88.112 152 98.5 152c10.525 0 14.742-.926 10.912-2.395-1.735-.666-17.578-.589-21.177.103m73.009 13.044c-.684.228-1.244 1.072-1.244 1.875 0 .803-.562 1.347-1.25 1.208-1.735-.352-5.75 2.376-5.75 3.906 0 .692-.338 1.17-.75 1.061-1.365-.361-5.25 1.316-5.25 2.265 0 .513-.482.933-1.071.933-.59 0-1.747.675-2.572 1.5-1.333 1.333-1.325 1.5.072 1.5.864 0 1.571.45 1.571 1s.417 1 .927 1 4.264 1.541 8.342 3.425 9.121 3.745 11.207 4.136l3.792.712-.7-4.67c-.716-4.772.762-11.603 2.51-11.603.507 0 .921-1.912.92-4.25l-.002-4.25-4.754-.081c-2.615-.045-5.314.105-5.998.333" fill-rule="evenodd"/>
<path fill="#8c4f0c" stroke="#8c4f0c" d="M57.176 20.671c-.844 1.577-.731 5.876.455 17.345l1.578 15.248-3.124 6.118c-3.46 6.777-14.263 18.586-23.585 25.779-11.096 8.563-13.466 12.242-17.432 27.071-3.188 11.917-2.667 13.271 5.508 14.317 6.985.895 10.096 3.488 19.184 15.99 2.814 3.872 6.099 7.922 7.3 9 1.201 1.079 5.357 6.399 9.236 11.824 7.909 11.059 7.995 10.134-1.296 13.984-7.846 3.251-8.4 3.464-13.5 5.192-26.168 8.865-33.893 19.918-38.052 54.441-.893 7.414-2.05 14.276-2.571 15.25-.904 1.688 3.891 1.77 103.725 1.77h104.672l-.561-32.75c-.584-34.111-1.507-43.619-4.665-48.09-4.872-6.896-4.493-7.285 8.952-9.183 9.564-1.35 11.506-1.804 10.787-2.523-.274-.275-4.951.234-10.393 1.13-5.442.896-11.584 1.854-13.65 2.128-4.359.579-5.887 2.176-2.845 2.972 6.005 1.57-1.887 3.951-9.937 2.998-6.908-.818-10.903-3.135-11.624-6.741-.872-4.36-3.329-1.858-3.37 3.431-.017 2.271-.692 5.002-1.5 6.069-.958 1.267-1.468 4.315-1.468 8.776v6.834l-2.95-1.525c-1.623-.839-3.608-1.526-4.412-1.526-3.016 0-28.638-11.652-28.638-13.024 0-2.124 6.233-13.851 8.838-16.627 1.626-1.733 7.39-6.168 12.809-9.856 5.419-3.688 11.927-9.009 14.461-11.824 4.373-4.858 4.745-5.057 7.297-3.894 3.138 1.43 4.596 1.511 6.416.357 1.667-1.057.083-10.849-2.705-16.727-1.019-2.148-2.642-5.6-3.606-7.671-.964-2.071-4.936-6.684-8.826-10.25-7.75-7.104-7.735-7.452.19-4.441 2.955 1.124 5.622 1.794 5.927 1.49 1.668-1.668-9.255-5.953-28.166-11.05-26.236-7.072-50.488-20.39-67.972-37.328-5.83-5.648-17.124-20.525-18.59-24.486l-.775-2.095-1.122 2.097m5.27 35.072c-4.113 9.342-6.321 13.214-11.638 20.409-12.779 17.294-16.472 33.382-11.207 48.824C49.534 154.112 73.676 175 97.417 175c6.519 0 16.074-1.972 19.93-4.113 2.855-1.585 3.249-.151.704 2.558-5.487 5.842-18.649 8.796-29.051 6.522l-7-1.531c-3.938-.863.513 2.057 6.105 4.004C99.779 186.506 121 179.473 121 171.538c0-1.495 1.888-3.355 6.449-6.354 18.274-12.014 31.419-35.004 30.662-53.628-.64-15.748-18.803-31.925-33.857-30.156-5.191.61-5.308.569-4.216-1.472.618-1.155.975-2.196.793-2.314-.182-.117-4.381-1.713-9.331-3.545-9.338-3.457-28.304-12.55-37.006-17.743-8.271-4.935-10.093-5.023-12.048-.583M55.75 79.206C53.138 80.33 51 81.692 51 82.232c0 .546.778.659 1.75.255 6.358-2.642 11.232-3.55 16.25-3.028l5.5.573-3.365-1.516c-4.489-2.022-9.616-1.792-15.385.69M61 92.615c-7.547 2.84-16 9.63-16 12.854 0 2.296 2.244.801 5.206-3.471 1.488-2.145 4.1-4.622 5.803-5.503l3.097-1.601-1.553 3.003c-2.212 4.279-1.981 10.29.52 13.468 2.275 2.893 4.494 3.556 3.535 1.056-.499-1.301-.078-1.464 2.393-.921 2.591.569 3.542.11 6.999-3.382 4.376-4.42 4.89-6.83 2.299-10.784-1.688-2.577-1.683-2.591.75-1.873l2.451.724-2.399-1.754c-2.418-1.767-10.32-2.862-13.101-1.816m65.191.177c-1.27.389-2.331 1.158-2.357 1.708-.027.55-.939 2.746-2.028 4.88-1.349 2.645-1.789 4.898-1.38 7.075.938 5.003 6.574 10.094 6.574 5.938 0-1.022.549-1.396 1.509-1.028 2.472.949 6.362-1.104 8.38-4.422 1.252-2.059 2.069-2.658 2.421-1.775.293.732.568-.255.611-2.195.043-1.941-.622-4.528-1.478-5.75-.856-1.223-1.193-2.206-.75-2.185 1.532.071 8.138 6.472 10.109 9.795 2.732 4.605 3.877 2.142 1.203-2.587-4.254-7.526-14.822-11.905-22.814-9.454M117.658 98c-3.404 3.82-2.187 3.798 2.304-.041 2.159-1.845 2.88-2.959 1.916-2.959-.851 0-2.75 1.35-4.22 3m-57.051-.418c-.92 2.396-.747 3.15.864 3.769 2.236.858 4.898-2.202 3.441-3.957-1.539-1.855-3.555-1.767-4.305.188m65.06-.915c-1.267 1.266-.661 4.121 1.011 4.763 2.542.975 5.021-1.883 3.364-3.88-1.351-1.627-3.249-2.01-4.375-.883M74 147.339c0 1.793 9.914 11.152 14 13.216 5.086 2.569 16.261 2.405 21.5-.316 4.849-2.518 13.986-11.644 13.098-13.081-.988-1.598-48.598-1.42-48.598.181m10.321 3.411c2.981 2.982 29.679 2.29 29.679-.769 0-.6-6.108-.981-15.714-.981-14.966 0-15.631.083-13.965 1.75" fill-rule="evenodd"/>
<path fill="#58106b" stroke="#58106b" d="M63 38.93c0 1.1.873 2.467 1.939 3.038 1.067.57 4.78 3.545 8.25 6.61 3.471 3.065 7.211 5.996 8.311 6.513 1.1.518 5.779 3.184 10.397 5.925 4.618 2.741 8.893 4.952 9.5 4.914.607-.039.424-.376-.405-.75C95.2 62.57 71.173 45.209 65.75 39.716 63.262 37.197 63 37.122 63 38.93m42.5 29.822c1.65 1.049 6.26 3.447 10.245 5.328 6.589 3.11 8.89 4.92 6.255 4.92-.55 0-1 .407-1 .905 0 .498 1.802.663 4.005.368 7.567-1.016 24.581 6.439 31.445 13.777 4.683 5.006 5.483 5.263 3.123 1-.747-1.347-1.195-2.922-.997-3.5.7-2.047-6.441-6.137-14.702-8.419-4.606-1.272-9.274-2.676-10.374-3.119-1.1-.443-4.475-1.796-7.5-3.007-3.025-1.211-8.425-3.671-12-5.466-8.123-4.078-13.096-5.708-8.5-2.787M42.004 81.496c-3.318 3.531-2.114 3.837 1.496.38 1.65-1.581 2.516-2.874 1.924-2.875-.591 0-2.131 1.122-3.42 2.495m-5.171 4.261c-.183.417-2.187 2.209-4.454 3.982-5.787 4.528-6.314 9.937-2.297 23.598 3.008 10.232 3.348 11.018 8.63 20.023 2.537 4.325 7.091 9.714 5.108 6.045-2.15-3.979-4.945-11.097-6.784-17.278-2.849-9.574-2.716-30.622.214-33.854.962-1.062 1.75-2.233 1.75-2.602 0-.92-1.754-.85-2.167.086m27.712 9.17c-.318.514-.12 1.217.439 1.563 1.768 1.093 1.099 4.349-1.032 5.025-2.403.763-5.269-1.246-4.529-3.175.944-2.46-1.085-1.378-2.262 1.207-1.726 3.786-1.41 7.933.806 10.592 1.092 1.311 1.981 1.785 2 1.066.024-.941 1.008-1.113 3.589-.629 4.046.76 8.444-2.309 8.444-5.89 0-1.081.674-2.465 1.498-3.076 1.301-.964 1.203-1.458-.75-3.755-2.365-2.783-7.221-4.516-8.203-2.928m64.705 1.153c2.206 1.285 2.278 4.78.114 5.611-2.114.811-4.904-1.007-4.725-3.079.228-2.645-1.306-1.83-2.646 1.405-.704 1.7-.991 4.607-.657 6.663.643 3.965 2.598 6.676 3.348 4.642.277-.751 1.693-.973 3.915-.612 3.911.634 8.401-2.517 8.401-5.898 0-1.011.543-2.708 1.206-3.77 1.898-3.039-1.413-6.05-6.611-6.012-3.268.025-3.741.237-2.345 1.05m13.58 2.17c2.225 1.787 4.738 4.6 5.585 6.25.958 1.867 1.548 2.358 1.562 1.301.027-2.023-8.006-10.801-9.884-10.801-.72 0 .511 1.463 2.737 3.25m17.313 21.516c-3.71 14.345-3.704 14.277-.959 10.804 3.095-3.916 4.651-8.221 4.725-13.07.115-7.608-1.458-6.661-3.766 2.266M75 147.777c0 .428 1.237 2.124 2.75 3.771 11.658 12.691 26.462 13.705 38.421 2.633 6.091-5.639 6.301-7.131 1.012-7.166-1.796-.012-2.187.398-1.735 1.82.874 2.756-6.059 4.665-16.948 4.665s-17.822-1.909-16.948-4.665c.491-1.546.021-1.835-2.985-1.835-1.962 0-3.567.35-3.567.777m15.269-.084c.973.254 2.323.237 3-.037.677-.274-.119-.481-1.769-.461-1.65.02-2.204.244-1.231.498m14 0c.973.254 2.323.237 3-.037.677-.274-.119-.481-1.769-.461-1.65.02-2.204.244-1.231.498m68.584 20.129c-.264 3.751.042 5.258 1.217 5.991 2.037 1.27 13.318 4.157 16.761 4.289 2.362.091 2.271.196-.782.915-5.834 1.374-5.756.815-5.397 38.65.254 26.844.047 34.906-.911 35.515-.683.433 4.427.794 11.355.803l12.596.015.611-13.75c1.019-22.93-1.423-61.569-4.121-65.218-1.2-1.623-2.182-3.472-2.182-4.108 0-.727-.837-.914-2.25-.504-10.084 2.928-21.425.808-24.727-4.622l-1.817-2.989-.353 5.013M71 170c1.142.738 1.179.973.154.985-.74.008-2.566.884-4.057 1.946-1.492 1.062-4.711 2.687-7.155 3.61-2.443.923-5.86 2.304-7.593 3.068-1.733.765-3.844 1.391-4.691 1.391s-1.818.45-2.158 1c-.34.55-1.498 1-2.573 1s-2.736.39-3.691.866c-.955.476-4.886 2.382-8.736 4.235-10.583 5.094-19.09 14.18-21.087 22.521-.379 1.583-1.015 3.328-1.414 3.878-.635.875-2.833 14.961-4.447 28.5-.295 2.475-.816 5.963-1.158 7.75-.563 2.945-.393 3.25 1.806 3.25 2.197 0 2.447-.449 2.646-4.75.122-2.613.618-6.1 1.103-7.75.485-1.65 1.163-4.8 1.505-7 2.553-16.409 4.732-20.91 14.546-30.06C36.372 192.906 42.722 189 49.102 189c1.741 0 4.869-.51 6.951-1.134 3.832-1.148 13.411.573 12.39 2.227-.236.381.761.992 2.216 1.358 2.609.654 8.341 5.915 8.341 7.655 0 .492.541.894 1.201.894.661 0 2.798 1.589 4.75 3.532 9.032 8.988 15.148 14.365 17.014 14.957 1.119.355 2.035 1.077 2.035 1.603 0 .775 3.811 2.897 6 3.342.275.056 2.608 1.132 5.185 2.392 7.139 3.489 9.278 7.671 9.299 18.174l.016 8.5-3.5.608c-1.925.335 9.325.637 25 .671 15.675.035 28.01-.14 27.41-.388-1.146-.474-1.086-34.751.09-51.391 1.552-21.976 1.589-24.187.429-25.585-2.752-3.316-3.929-1.607-3.929 5.702 0 8.74 1.42 8.796-22.468-.882-12.582-5.098-19.889-8.755-21.592-10.807-1.654-1.993-2.94-1.78-2.94.487 0 1.053-1.961 3.641-4.359 5.752-13.723 12.079-38.422 9.675-44.265-4.309-.835-1.998-2.106-3.352-3.139-3.343-1.487.013-1.521.155-.237.985m-39.359 61.852c-3.497 2.111-7.511 10.357-7.862 16.148-.15 2.475-.724 4.831-1.276 5.235-.551.404 5.072.696 12.497.65 8.293-.052 12.536-.393 11-.885-1.375-.44-2.21-.845-1.856-.9.884-.137-3.835-14.769-5.881-18.231-2.16-3.658-3.319-4.011-6.622-2.017" fill-rule="evenodd"/>
</svg>