<?xml version="1.0" standalone="no"?>
<!DOCTYPE svg PUBLIC "-//W3C//DTD SVG 20010904//EN"
 "http://www.w3.org/TR/2001/REC-SVG-20010904/DTD/svg10.dtd">
<svg version="1.0" xmlns="http://www.w3.org/2000/svg"
 width="167.000000pt" height="265.000000pt" viewBox="0 0 167.000000 265.000000"
 preserveAspectRatio="xMidYMid meet">
<metadata>
Created by potrace 1.16, written by Peter Selinger 2001-2019
</metadata>
<g transform="translate(0.000000,265.000000) scale(0.100000,-0.100000)"
fill="#000000" stroke="none">
<path d="M486 2087 c-282 -726 -316 -798 -395 -847 -37 -23 -40 -29 -41 -67
l0 -43 250 0 250 0 0 34 c0 33 -1 34 -61 45 -77 16 -118 50 -126 107 -4 32 5
71 42 180 26 76 51 147 56 156 9 17 33 18 287 18 l277 0 63 -165 c59 -156 70
-203 56 -240 -8 -21 -69 -51 -121 -60 -41 -6 -43 -9 -43 -41 l0 -34 310 0 310
0 0 33 c0 33 -2 34 -55 46 -69 16 -108 48 -144 120 -15 31 -135 329 -267 663
l-239 608 -105 0 -105 0 -199 -513z m373 8 c60 -159 113 -298 116 -307 7 -17
-8 -18 -233 -18 l-239 0 116 314 c64 173 119 312 123 308 4 -4 56 -137 117
-297z"/>
<path d="M735 1538 c-66 -10 -135 -21 -152 -24 -23 -3 -33 -10 -33 -23 0 -15
11 -19 61 -25 33 -3 65 -8 70 -12 22 -13 -1 -114 -151 -668 -88 -325 -160
-600 -160 -613 0 -50 157 -113 284 -113 91 0 173 21 256 67 155 85 291 229
365 388 52 110 65 162 65 257 -1 114 -45 193 -135 241 -58 31 -181 30 -249 -3
-61 -29 -152 -113 -213 -196 -26 -35 -48 -62 -50 -61 -1 2 19 84 46 183 80
293 161 601 161 613 0 14 -18 13 -165 -11z m356 -639 c56 -40 74 -151 44 -273
-35 -139 -163 -348 -261 -427 -115 -93 -292 -117 -310 -42 -24 95 57 366 164
547 114 191 259 269 363 195z"/>
</g>
</svg>
