<?xml version="1.0" standalone="no"?>
<!DOCTYPE svg PUBLIC "-//W3C//DTD SVG 20010904//EN"
 "http://www.w3.org/TR/2001/REC-SVG-20010904/DTD/svg10.dtd">
<svg version="1.0" xmlns="http://www.w3.org/2000/svg"
 width="230.000000pt" height="197.000000pt" viewBox="0 0 230.000000 197.000000"
 preserveAspectRatio="xMidYMid meet">
<metadata>
Created by potrace 1.16, written by Peter Selinger 2001-2019
</metadata>
<g transform="translate(0.000000,197.000000) scale(0.100000,-0.100000)"
fill="#000000" stroke="none">
<path d="M1 1839 l-2 -131 26 5 26 4 -26 -27 c-45 -47 -23 -56 23 -10 23 23
39 46 36 51 -3 5 0 9 6 9 6 0 15 11 20 25 5 14 17 25 28 25 36 0 80 -21 85
-42 4 -13 11 -18 20 -15 9 3 20 -7 31 -30 13 -28 21 -34 37 -30 15 4 23 0 26
-13 8 -28 78 -73 105 -67 13 3 57 13 98 22 41 9 79 20 83 25 5 4 41 6 80 4 75
-5 116 7 88 25 -12 8 -9 11 12 16 15 4 27 11 27 16 0 5 7 9 15 9 11 0 15 -11
15 -35 0 -22 6 -38 15 -41 8 -3 28 -27 44 -53 17 -26 42 -54 56 -61 14 -7 25
-21 25 -30 0 -10 17 -36 38 -59 32 -37 44 -43 94 -50 31 -4 64 -13 73 -21 12
-10 21 -10 41 -1 31 14 22 32 -16 29 -15 -1 -36 4 -45 12 -9 8 -34 13 -55 12
-31 -2 -44 3 -69 29 -27 27 -31 36 -27 70 4 34 2 39 -15 39 -10 0 -19 -5 -19
-10 0 -20 -42 16 -61 53 -16 30 -17 42 -8 58 8 17 8 23 -2 30 -7 4 -17 5 -21
3 -4 -3 -8 6 -8 19 0 25 42 78 70 90 13 5 13 8 -2 20 -18 15 -23 38 -11 51 4
3 8 14 9 24 2 9 8 18 13 20 6 2 11 10 11 18 0 7 12 20 28 28 l27 15 -33 1
c-18 0 -42 -6 -53 -12 -17 -10 -23 -10 -26 0 -3 8 -29 12 -79 12 -58 0 -73 -3
-68 -12 6 -10 5 -10 -7 -1 -11 9 -114 12 -396 13 l-381 0 -1 -131z m762 81
c18 -1 19 -2 6 -10 -18 -11 -59 -2 -59 12 0 6 7 7 16 4 9 -3 25 -6 37 -6z
m157 -59 c0 -5 -9 -7 -20 -4 -11 3 -20 7 -20 9 0 2 9 4 20 4 11 0 20 -4 20 -9z
m-50 -112 c0 -5 -4 -9 -10 -9 -5 0 -10 7 -10 16 0 8 5 12 10 9 6 -3 10 -10 10
-16z m-456 -87 c-6 -9 -44 20 -44 33 0 10 7 8 23 -8 13 -12 22 -23 21 -25z
m51 27 c11 -17 -1 -21 -15 -4 -8 9 -8 15 -2 15 6 0 14 -5 17 -11z m275 -5 c0
-2 -11 -4 -25 -4 -14 0 -25 4 -25 9 0 4 11 6 25 3 14 -2 25 -6 25 -8z m-120
-15 c0 -5 -4 -7 -10 -4 -5 3 -19 1 -31 -5 -11 -6 -28 -8 -37 -4 -13 6 -8 9 18
14 53 11 60 11 60 -1z"/>
<path d="M1792 1958 c-21 -21 -13 -49 22 -84 23 -23 43 -34 64 -34 16 0 41 -9
55 -20 28 -22 95 -27 128 -9 34 18 11 27 -55 22 -58 -5 -65 -4 -75 16 -9 16
-21 21 -56 21 -34 0 -47 5 -59 21 -13 19 -13 25 0 50 12 23 12 29 1 29 -7 0
-18 -5 -25 -12z"/>
<path d="M2260 1965 c0 -2 9 -9 20 -15 16 -9 20 -8 20 5 0 8 -9 15 -20 15 -11
0 -20 -2 -20 -5z"/>
<path d="M1619 1861 c-8 -17 -18 -27 -26 -24 -7 3 -13 0 -13 -6 0 -6 4 -11 10
-11 5 0 17 -11 26 -25 20 -30 13 -62 -20 -102 -16 -19 -21 -34 -16 -48 7 -19
7 -19 19 3 16 31 27 28 35 -10 11 -53 61 -90 81 -58 3 6 -3 10 -13 10 -30 0
-44 24 -40 72 4 59 28 62 53 7 18 -39 64 -79 93 -79 24 0 11 21 -22 35 -31 13
-56 49 -43 62 3 3 23 -9 44 -25 47 -38 103 -54 168 -50 36 2 50 7 50 18 0 12
-12 14 -60 12 -71 -4 -136 18 -160 54 -11 17 -25 24 -46 24 -16 0 -41 7 -54
16 -44 29 -70 105 -44 131 7 7 7 13 1 17 -6 3 -16 -7 -23 -23z"/>
<path d="M1081 1794 c-25 -31 -26 -43 -7 -88 15 -36 50 -66 78 -66 9 0 29 -11
44 -25 28 -26 63 -32 95 -15 35 19 22 33 -25 26 -38 -6 -48 -4 -67 15 -13 13
-36 24 -53 26 -39 4 -46 12 -53 61 -4 31 -1 44 15 60 19 19 19 32 1 32 -4 0
-17 -12 -28 -26z"/>
<path d="M2020 1650 c0 -40 135 -69 189 -41 13 7 22 8 26 1 10 -16 65 -12 65
5 0 10 -10 15 -28 15 -15 0 -33 5 -38 10 -8 8 -19 8 -38 0 -47 -17 -114 -13
-133 10 -22 26 -43 26 -43 0z"/>
<path d="M1540 1620 c0 -5 7 -10 15 -10 8 0 15 5 15 10 0 6 -7 10 -15 10 -8 0
-15 -4 -15 -10z"/>
<path d="M1517 1590 c-6 -28 -66 -80 -93 -80 -6 0 -14 -9 -17 -19 -8 -32 -66
-61 -121 -61 -48 0 -49 0 -31 -20 31 -35 104 -18 164 38 22 20 58 49 81 64 34
24 40 33 40 62 0 44 -16 55 -23 16z"/>
<path d="M1865 1420 c-51 -12 -125 -52 -125 -66 0 -19 5 -18 53 10 46 25 165
49 212 42 17 -3 47 -8 68 -12 46 -8 49 8 4 24 -36 13 -164 15 -212 2z"/>
<path d="M1940 1361 c-78 -25 -130 -57 -130 -80 0 -28 186 6 273 51 l42 21
-30 13 c-41 18 -90 16 -155 -5z m123 -10 c17 -6 16 -8 -7 -19 -23 -10 -26 -9
-26 8 0 21 4 23 33 11z m-83 -11 c0 -5 -5 -10 -11 -10 -5 0 -7 5 -4 10 3 6 8
10 11 10 2 0 4 -4 4 -10z m-40 -42 c0 -9 -89 -22 -97 -15 -3 3 9 15 27 26 26
16 36 17 51 8 11 -7 19 -15 19 -19z"/>
<path d="M1100 1334 c0 -22 -5 -85 -12 -141 -10 -91 -10 -103 5 -118 9 -9 17
-31 16 -48 l-1 -32 -8 27 c-23 77 -81 114 -208 133 -139 21 -182 20 -182 -4 0
-11 -9 -26 -20 -34 -25 -18 -50 -77 -50 -119 0 -18 9 -51 19 -73 10 -23 16
-54 14 -71 -3 -17 2 -48 11 -68 9 -21 16 -48 15 -60 0 -21 0 -21 -9 2 -13 32
-27 27 -27 -10 0 -46 -50 -88 -104 -88 -35 0 -47 6 -78 40 -20 22 -44 40 -53
40 -29 0 -67 22 -74 42 -4 14 3 29 22 49 26 27 22 37 -11 29 -5 -2 -27 -2 -49
-1 -24 1 -45 -4 -57 -15 -28 -25 -23 -37 9 -21 15 8 38 18 50 22 21 6 23 4 17
-14 -13 -42 4 -78 46 -100 22 -12 45 -21 52 -21 7 0 26 -16 42 -36 54 -64 125
-58 208 18 39 37 47 71 25 108 -17 27 -2 37 22 15 11 -10 20 -13 20 -7 0 15
-36 52 -50 52 -5 0 -10 9 -10 21 l0 21 38 -23 c32 -20 51 -23 148 -23 102 -1
113 1 147 24 21 14 46 43 57 65 20 40 20 40 20 10 0 -53 -23 -134 -40 -138
-11 -3 -20 -26 -28 -73 -17 -91 -67 -235 -105 -298 -39 -67 -150 -200 -190
-228 -18 -12 -34 -25 -37 -28 -29 -32 -201 -80 -285 -80 -62 0 -108 16 -158
54 -19 15 -38 26 -44 26 -18 0 -174 167 -201 215 -10 18 -11 17 -12 -10 0 -30
18 -64 53 -101 103 -107 135 -136 168 -144 20 -6 42 -17 48 -24 18 -22 99 -46
152 -46 59 0 168 24 234 52 66 27 112 65 195 158 38 43 71 76 74 72 14 -13 4
-91 -18 -137 -12 -27 -45 -75 -71 -105 -85 -96 -81 -90 -54 -90 18 0 40 20 86
76 35 41 66 87 69 102 4 15 11 33 16 39 13 16 12 122 -1 137 -8 9 -1 31 23 75
l33 62 17 -68 c33 -139 46 -227 46 -324 0 -84 2 -99 16 -99 14 0 15 17 12 142
-5 157 -36 316 -68 348 -12 12 -16 27 -13 44 6 30 7 30 113 -11 117 -45 196
-93 267 -161 107 -102 118 -126 153 -304 10 -52 14 -58 37 -58 24 0 24 2 18
43 -6 38 -31 123 -50 170 -4 9 -3 17 3 17 5 0 54 29 108 65 l99 65 6 -57 c9
-77 13 -85 62 -121 50 -36 143 -57 218 -50 l51 5 -7 -68 c-6 -60 -5 -69 9 -69
18 0 21 6 31 64 l7 40 47 -53 c33 -36 54 -52 67 -49 17 3 15 7 -12 31 -17 15
-45 47 -62 71 l-31 43 70 29 c65 25 90 46 76 60 -3 3 -34 -6 -69 -20 -169 -66
-254 -74 -346 -31 -67 31 -83 64 -75 154 8 83 -5 92 -69 45 -26 -19 -50 -34
-53 -34 -3 0 -26 -15 -52 -34 -92 -65 -85 -65 -161 11 -85 86 -145 134 -202
163 -25 12 -57 29 -71 36 -14 7 -56 23 -93 35 -64 21 -67 24 -62 48 4 14 11
54 18 89 6 37 16 62 23 62 16 0 21 21 36 155 7 61 16 113 21 116 16 10 28 80
35 200 l6 116 -24 5 c-13 3 -32 9 -41 13 -15 6 -18 1 -18 -31z m-186 -220 c33
-9 66 -20 72 -25 6 -5 18 -7 25 -4 22 7 51 -21 58 -57 9 -43 -5 -98 -33 -131
-30 -35 -124 -61 -192 -54 -114 12 -174 63 -174 149 0 33 1 34 42 35 31 2 45
-3 55 -17 20 -28 83 -28 90 0 8 29 37 25 78 -11 40 -36 56 -33 28 4 -21 29
-85 63 -134 72 -32 6 -91 -3 -132 -20 -17 -7 -18 -6 -5 16 7 13 14 26 15 27 4
10 82 31 112 32 18 0 61 -7 95 -16z m-94 -74 c0 -5 -7 -10 -15 -10 -8 0 -15 5
-15 10 0 6 7 10 15 10 8 0 15 -4 15 -10z"/>
<path d="M736 967 c6 -16 82 -37 132 -36 49 1 113 24 91 33 -8 4 -28 2 -43 -4
-39 -14 -116 -12 -146 5 -31 18 -41 19 -34 2z"/>
<path d="M971 939 c-27 -22 -20 -39 10 -21 10 7 30 10 44 6 33 -8 32 9 0 24
-31 14 -25 15 -54 -9z"/>
<path d="M1220 1304 c0 -11 4 -24 9 -29 15 -17 50 -140 61 -216 15 -98 44
-187 75 -224 61 -75 93 -111 137 -154 l47 -45 -21 -23 c-22 -24 -41 -22 -31 2
8 23 -31 19 -52 -5 -24 -26 -35 -25 -35 4 0 13 -7 26 -15 30 -8 3 -15 1 -15
-4 0 -6 -5 -10 -11 -10 -7 0 -23 -12 -38 -28 l-26 -27 -3 48 c-3 51 -22 63
-49 30 -13 -16 -13 -15 -9 12 14 73 12 147 -5 245 -9 58 -18 127 -18 153 -1
33 -6 49 -16 54 -9 3 -19 3 -22 -1 -3 -3 1 -59 10 -123 18 -127 21 -291 7
-363 -10 -55 -1 -67 35 -44 l27 17 -4 -33 c-4 -47 23 -51 72 -11 45 36 50 37
50 12 0 -11 4 -23 10 -26 12 -7 70 25 70 39 0 5 9 1 20 -9 17 -15 24 -16 45
-7 14 7 28 19 31 27 4 8 9 15 13 15 3 0 39 -32 80 -70 40 -39 79 -70 87 -70
15 0 76 -39 82 -52 8 -17 164 -68 210 -68 63 0 154 45 236 118 32 28 37 38 34
68 l-3 35 -50 -49 c-27 -27 -79 -68 -114 -93 -58 -40 -69 -44 -120 -43 -41 1
-74 10 -121 32 -62 30 -99 51 -110 62 -3 3 -22 16 -42 30 -21 14 -38 28 -38
33 0 4 -4 7 -10 7 -13 0 -270 254 -270 267 0 5 -11 20 -25 33 -32 30 -60 107
-80 217 -21 123 -95 307 -95 237z"/>
<path d="M2115 1300 c-34 -37 -160 -83 -227 -82 -33 1 -37 -15 -5 -20 65 -11
257 70 257 107 0 20 -3 19 -25 -5z"/>
<path d="M1348 1248 c-36 -21 -54 -45 -43 -57 3 -3 14 0 23 7 56 41 81 52 114
52 20 0 40 5 43 10 12 20 -98 11 -137 -12z"/>
<path d="M145 1212 c-22 -11 -51 -31 -64 -46 -15 -16 -35 -26 -53 -26 -18 0
-28 -5 -28 -15 0 -8 9 -15 20 -15 17 0 20 -7 20 -41 0 -101 62 -185 154 -208
57 -14 182 7 229 39 49 34 79 96 76 156 l-3 49 54 -3 c30 -2 67 -5 83 -8 19
-4 27 -2 27 9 0 11 -22 16 -92 21 -76 6 -97 11 -113 28 -11 11 -14 18 -7 14 7
-4 12 -1 12 8 0 9 -12 17 -32 20 -18 3 -58 11 -88 17 -102 21 -152 21 -195 1z
m-1 -47 c-8 -19 7 -19 70 0 81 25 132 18 223 -27 13 -6 26 -27 33 -54 11 -38
10 -48 -9 -87 -29 -59 -56 -82 -120 -101 -102 -30 -192 -11 -240 50 -22 28
-28 64 -11 64 6 0 10 -4 10 -10 0 -5 7 -10 15 -10 13 0 11 6 -6 30 -12 16 -26
27 -31 24 -4 -3 -8 11 -8 30 0 27 8 44 35 71 39 38 47 43 39 20z"/>
<path d="M163 1108 c-22 -10 -38 -36 -29 -46 3 -2 17 3 32 12 14 10 27 16 28
14 1 -2 10 -15 19 -30 13 -22 25 -28 51 -28 35 0 63 21 51 40 -12 19 9 10 36
-16 15 -14 33 -24 39 -22 15 5 -46 67 -78 79 -31 12 -122 10 -149 -3z m105
-19 c-2 -6 -8 -10 -13 -10 -5 0 -11 4 -13 10 -2 6 4 11 13 11 9 0 15 -5 13
-11z"/>
<path d="M360 1010 c-25 -16 -117 -23 -150 -12 -37 13 -42 -4 -4 -18 56 -22
184 -1 184 29 0 13 -10 14 -30 1z"/>
<path d="M1435 1196 c-16 -7 -39 -23 -50 -36 -19 -21 -19 -22 0 -36 10 -8 33
-14 49 -14 34 1 138 42 144 58 8 24 -102 46 -143 28z m55 -20 c0 -11 -19 -15
-25 -6 -3 5 1 10 9 10 9 0 16 -2 16 -4z m60 -10 c0 -3 -4 -8 -10 -11 -5 -3
-10 -1 -10 4 0 6 5 11 10 11 6 0 10 -2 10 -4z m-100 -21 c11 -13 8 -15 -18
-15 -17 0 -34 5 -38 12 -4 6 -3 8 4 4 6 -3 13 -2 17 4 9 14 20 12 35 -5z"/>
<path d="M1551 1098 c-26 -24 -77 -37 -140 -38 -38 0 -42 -2 -31 -15 25 -30
189 11 204 51 9 23 -10 24 -33 2z"/>
<path d="M1866 1063 c-12 -13 -5 -25 12 -21 10 3 24 -2 31 -10 20 -20 -6 -71
-53 -102 -20 -14 -36 -30 -36 -37 0 -23 -59 -56 -88 -48 -15 3 -45 9 -67 13
-32 6 -41 12 -43 30 -2 13 3 33 10 45 8 13 11 37 8 60 -6 44 -25 46 -25 2 0
-16 -6 -40 -12 -52 -15 -25 -17 -72 -4 -92 5 -7 26 -15 47 -17 22 -1 52 -7 68
-14 38 -14 78 1 127 49 20 20 48 46 63 59 34 30 43 68 23 100 -15 26 -50 46
-61 35z"/>
<path d="M2060 948 c0 -5 14 -11 30 -15 17 -3 32 -9 35 -13 7 -12 -59 -42
-240 -108 -60 -22 -136 -50 -167 -62 -79 -29 -102 -25 -106 20 -5 53 -18 56
-30 8 -11 -41 -10 -44 16 -65 28 -24 48 -30 37 -13 -14 23 24 7 84 -35 35 -24
79 -49 98 -56 71 -23 161 10 242 89 39 38 53 61 70 117 25 80 37 99 69 109 20
7 22 4 22 -33 0 -23 4 -41 9 -41 7 0 23 91 17 98 -7 7 -186 7 -186 0z m20
-127 c-12 -17 -28 -31 -36 -31 -8 0 -14 -7 -14 -15 0 -9 -11 -21 -25 -27 -14
-6 -25 -15 -25 -19 0 -12 -60 -39 -86 -39 -13 0 -25 -4 -28 -9 -11 -17 -78
-20 -117 -4 -21 8 -39 19 -39 23 0 9 36 20 66 20 12 0 27 7 34 15 7 8 23 15
36 15 12 0 26 5 29 10 3 6 17 10 31 10 13 0 24 5 24 10 0 6 9 10 20 10 18 0
70 19 80 30 9 9 65 37 69 34 2 -2 -7 -17 -19 -33z m-5 -68 c-58 -89 -186 -152
-255 -124 l-25 10 25 0 c36 1 134 37 179 65 20 13 48 37 61 54 30 37 40 34 15
-5z"/>
<path d="M150 645 c-13 -16 -4 -38 13 -32 7 2 50 -27 97 -63 123 -97 158 -113
262 -118 86 -4 87 -4 170 38 45 24 108 60 139 81 31 22 62 39 68 39 7 0 11 8
9 18 -4 22 -48 30 -48 8 0 -49 -227 -74 -386 -43 -43 8 -112 18 -152 22 -88 8
-144 28 -136 50 8 20 -20 20 -36 0z m141 -83 c-7 -2 -18 1 -23 6 -8 8 -4 9 13
5 13 -4 18 -8 10 -11z m91 -7 c18 -2 82 -12 142 -21 92 -15 119 -15 169 -5 68
14 88 9 25 -7 -103 -25 -142 -29 -231 -21 -99 8 -169 32 -160 55 3 8 9 11 14
9 4 -3 23 -8 41 -10z m185 -80 c55 0 75 -3 60 -8 -30 -12 -199 -3 -223 11 -15
9 -8 10 31 4 28 -4 87 -7 132 -7z"/>
<path d="M79 575 c-7 -25 65 -213 92 -240 26 -27 25 -4 -5 54 -38 75 -63 134
-73 171 -7 28 -10 31 -14 15z"/>
<path d="M920 557 c-16 -25 -18 -27 -90 -161 -51 -95 -55 -125 -6 -48 36 57
119 222 115 227 -3 2 -11 -6 -19 -18z"/>
<path d="M1965 562 c-16 -9 -32 -18 -34 -19 -2 -2 2 -9 9 -18 11 -13 16 -13
45 5 18 11 42 20 55 20 33 0 19 25 -16 27 -16 1 -42 -6 -59 -15z"/>
<path d="M445 379 c-10 -15 -8 -16 68 -23 74 -7 85 5 19 24 -48 13 -79 13 -87
-1z"/>
<path d="M2 122 c-2 -75 15 -122 44 -122 20 0 17 10 -9 38 -16 18 -23 40 -28
90 l-6 67 -1 -73z"/>
</g>
</svg>
