<svg id="svg" version="1.1" xmlns="http://www.w3.org/2000/svg" style="display: block;" viewBox="0 0 512 512"><path d="M0 0 C168.96 0 337.92 0 512 0 C512 168.96 512 337.92 512 512 C343.04 512 174.08 512 0 512 C0 343.04 0 174.08 0 0 Z " transform="translate(0,0)" style="fill: #E98525;"/><path d="M0 0 C168.96 0 337.92 0 512 0 C512 168.96 512 337.92 512 512 C343.04 512 174.08 512 0 512 C0 343.04 0 174.08 0 0 Z M222 42 C220.71996094 42.19464844 219.43992188 42.38929687 218.12109375 42.58984375 C182.80353249 48.61271747 150.25302776 63.01025293 122 85 C121.07316406 85.70253906 120.14632812 86.40507813 119.19140625 87.12890625 C106.81953729 96.81683335 95.45545426 108.46373915 86 121 C85.53062012 121.60408691 85.06124023 122.20817383 84.57763672 122.83056641 C50.88095492 166.33377859 35.97060413 220.6564257 41.875 275.24902344 C44.75995518 297.9310589 49.57394152 320.46207801 59.60546875 341.10546875 C60.60191622 343.17372527 61.53403675 345.27347224 62.421875 347.390625 C67.42482478 358.8330151 74.21809508 369.34657916 81.71728516 379.29541016 C82.56539099 380.42245144 83.40636875 381.55489581 84.23974609 382.69287109 C95.18272785 397.6323452 108.37564337 410.82308173 123.31591797 421.76464844 C125.00708542 423.00519748 126.67745885 424.27047188 128.34765625 425.5390625 C174.69623159 460.23026889 233.32274433 471.32516261 289.94091797 463.45751953 C333.64820446 456.92061172 374.52090986 437.99840933 406.52050781 407.41210938 C407.5016484 406.4756544 408.48795247 405.54457769 409.47949219 404.61914062 C446.48222512 370.03122019 468.80497678 318.19552582 471.10014343 267.80117798 C471.14661964 265.5583436 471.16441045 263.31752706 471.16796875 261.07421875 C471.17220352 260.25279892 471.17643829 259.43137909 471.18080139 258.58506775 C471.19060849 255.95249199 471.19073731 253.32009063 471.1875 250.6875 C471.18689575 249.78916443 471.1862915 248.89082886 471.18566895 247.965271 C471.16234285 235.23519748 471.13170484 222.58537161 469 210 C468.82259277 208.92709717 468.82259277 208.92709717 468.64160156 207.83251953 C465.29309318 188.60628753 458.35828347 170.07468122 449 153 C448.07960938 151.25396484 448.07960938 151.25396484 447.140625 149.47265625 C434.28625372 125.86204453 415.17695207 104.44155029 394 88 C392.93713548 87.15801202 391.87464955 86.31554596 390.8125 85.47265625 C384.13571837 80.21419687 377.27985927 75.39824831 370 71 C369.24460937 70.53722656 368.48921875 70.07445313 367.7109375 69.59765625 C341.31315276 54.04046034 312.68561067 43.40855456 282 41 C280.30423828 40.83564453 280.30423828 40.83564453 278.57421875 40.66796875 C259.82236659 39.07522933 240.61153856 39.08581888 222 42 Z " transform="translate(0,0)" style="fill: #F0F4FD;"/><path d="M0 0 C0.20625 1.27875 0.4125 2.5575 0.625 3.875 C2.96257215 14.19927699 9.26140349 21.3870981 17.8203125 27.24609375 C21.74465221 29.648212 25.57896113 30.9172966 30 32 C31.56505638 52.85607741 14.58352719 78.51274204 1.49072266 93.75732422 C-1.59494108 97.24734951 -4.76817865 100.64529571 -8 104 C-8.33 103.34 -8.66 102.68 -9 102 C-9.66 102 -10.32 102 -11 102 C-11.33 101.01 -11.66 100.02 -12 99 C-16.53991786 94.66644205 -19.28677635 93.78073932 -25.5625 93.6875 C-31.488467 93.43160597 -31.488467 93.43160597 -33.75 91.5234375 C-34.65759823 90.16744252 -35.52805237 88.78611475 -36.3671875 87.38671875 C-42.09272508 79.01757171 -52.04525087 73.2863965 -61 69 C-62.02287109 68.49146484 -62.02287109 68.49146484 -63.06640625 67.97265625 C-66.57316448 66.32910002 -69.16500604 65.42072818 -73 66 C-75.79630346 67.63014934 -78.28321508 69.61204135 -80.8125 71.625 C-82.17317708 72.6796875 -83.53385417 73.734375 -84.89453125 74.7890625 C-85.57322266 75.32217041 -86.25191406 75.85527832 -86.95117188 76.40454102 C-88.95491593 77.96489223 -90.98157389 79.48861039 -93.01953125 81.00390625 C-104.2951422 89.42854621 -115.79168929 98.33035741 -125.44140625 108.59765625 C-131.16297991 114.67738788 -136.22439909 118.04436223 -144 121 C-145.60864937 121.69809312 -147.21316047 122.4058339 -148.8125 123.125 C-149.53695312 123.44082031 -150.26140625 123.75664062 -151.0078125 124.08203125 C-152.78044784 124.89883381 -154.49084644 125.84773621 -156.1875 126.8125 C-159.74872215 128.31612713 -161.26367476 127.92961202 -165 127 C-167.47231137 125.80773988 -169.73186963 124.60831046 -172.0625 123.1875 C-173.03823975 122.59569946 -173.03823975 122.59569946 -174.03369141 121.99194336 C-181.15826128 117.50510913 -187.11619648 111.98318524 -193 106 C-193.81082031 105.18789063 -194.62164062 104.37578125 -195.45703125 103.5390625 C-202.74411181 95.85636111 -216 81.21653127 -216 70 C-213.98828125 68.53515625 -213.98828125 68.53515625 -211.3125 67.0625 C-202.84247757 62.18509944 -194.94264687 55.74311785 -192 46 C-191.7592756 43.34363423 -191.62003643 40.84114815 -191.625 38.1875 C-191.62371094 37.47770996 -191.62242187 36.76791992 -191.62109375 36.03662109 C-191.73741659 30.27996256 -192.93889652 26.78297419 -196 22 C-196 21.34 -196 20.68 -196 20 C-192.06503685 21.0299568 -188.32951744 22.22210632 -184.56640625 23.76953125 C-143.46654043 40.63958765 -98.09972579 39.77490904 -56 27 C-55.21141602 26.76216797 -54.42283203 26.52433594 -53.61035156 26.27929688 C-43.90054888 23.25930047 -35.10235926 19.23003428 -26.2434082 14.25146484 C-25.10778442 13.62038818 -25.10778442 13.62038818 -23.94921875 12.9765625 C-23.28237061 12.59580566 -22.61552246 12.21504883 -21.9284668 11.82275391 C-20 11 -20 11 -16 11 C-16 10.34 -16 9.68 -16 9 C-13.73701547 7.3633245 -11.48732888 5.85434489 -9.125 4.375 C-8.14853516 3.74464844 -8.14853516 3.74464844 -7.15234375 3.1015625 C-2.26838981 0 -2.26838981 0 0 0 Z " transform="translate(370,241)" style="fill: #0C0605;"/><path d="M0 0 C11.87274446 0.22401405 21.37080888 7.49696759 30 15 C30.84175781 15.69738281 31.68351562 16.39476562 32.55078125 17.11328125 C36.60546688 20.54715377 39.29292954 22.85211565 41 28 C41.845625 27.93039062 42.69125 27.86078125 43.5625 27.7890625 C50.7206752 27.44742232 55.1281101 27.73584452 60.70703125 32.39453125 C62 34 62 34 62 37 C62.66 37 63.32 37 64 37 C63.6166205 39.3995649 63.30395358 40.70090191 61.5480957 42.42871094 C60.62130005 43.07501465 60.62130005 43.07501465 59.67578125 43.734375 C58.63756226 44.46624023 58.63756226 44.46624023 57.57836914 45.21289062 C56.83063232 45.72013672 56.08289551 46.22738281 55.3125 46.75 C54.16479126 47.54180664 54.16479126 47.54180664 52.99389648 48.34960938 C43.17787253 55.03823323 33.2164694 60.96615592 22 65 C21.03707031 65.39832031 20.07414062 65.79664063 19.08203125 66.20703125 C8.07750188 70.55888217 -3.34008185 72.28120284 -15 74 C-15.69665771 74.10602539 -16.39331543 74.21205078 -17.11108398 74.32128906 C-40.9380666 77.6681629 -66.08251917 73.76633861 -88 64 C-85.42839099 61.42839099 -82.49726428 60.41016812 -79.1875 59.0625 C-74.91550472 57.31709754 -70.9422605 55.4088238 -67 53 C-66.40034424 52.73203613 -65.80068848 52.46407227 -65.18286133 52.18798828 C-59.39775355 49.60081588 -55.66958327 46.03302229 -51.375 41.4375 C-44.84995545 34.68146689 -38.06466352 28.82193514 -30.5625 23.1953125 C-28.20712445 21.3934502 -25.95413119 19.47411667 -23.6875 17.5625 C-16.93128921 11.98128239 -9.70368278 7.05121714 -2.49951172 2.07226562 C-1.02552498 1.08015253 -1.02552498 1.08015253 0 0 Z " transform="translate(297,306)" style="fill: #F1073D;"/><path d="M0 0 C19.61247659 9.9347247 19.61247659 9.9347247 26.890625 16.046875 C26.890625 16.706875 26.890625 17.366875 26.890625 18.046875 C27.60476563 18.28148438 28.31890625 18.51609375 29.0546875 18.7578125 C46.42215024 26.65211374 61.79724363 51.53556565 69.890625 68.046875 C70.53506318 69.32752592 71.18097958 70.60743373 71.828125 71.88671875 C72.51565294 73.2525901 73.20315252 74.61847573 73.890625 75.984375 C74.23351562 76.66177734 74.57640625 77.33917969 74.9296875 78.03710938 C80.890625 89.9021052 80.890625 89.9021052 80.890625 94.046875 C68.75072434 95.25549343 59.62733994 90.18746643 50.40405273 82.83789062 C38.73596644 73.26153733 30.62738635 61.211324 22.05200195 48.92236328 C21.56948975 48.23255371 21.08697754 47.54274414 20.58984375 46.83203125 C20.16533936 46.22238525 19.74083496 45.61273926 19.3034668 44.98461914 C18.837229 44.34516357 18.37099121 43.70570801 17.890625 43.046875 C17.32786865 42.2233252 16.7651123 41.39977539 16.18530273 40.55126953 C13.34670486 37.45324453 10.23297504 35.90785582 6.4765625 34.19140625 C5.75344376 33.8481279 5.03032501 33.50484955 4.28529358 33.15116882 C2.74486863 32.42081226 1.20192561 31.69574671 -0.34329224 30.97558594 C-4.34322805 29.1083264 -8.32073605 27.19434889 -12.30078125 25.28515625 C-13.4644648 24.72859848 -13.4644648 24.72859848 -14.6516571 24.16079712 C-46.03000285 9.1231465 -46.03000285 9.1231465 -50.06640625 -0.15234375 C-50.484375 -2.265625 -50.484375 -2.265625 -50.109375 -5.953125 C-39.60712287 -21.30257042 -12.02338328 -5.90876477 0 0 Z " transform="translate(365.109375,102.953125)" style="fill: #FAE5C6;"/><path d="M0 0 C3.55170428 2.71600915 5.19152901 5.67733794 7.125 9.6875 C7.48335937 10.42097656 7.84171875 11.15445312 8.2109375 11.91015625 C9.3912031 15.49634788 9.45483198 18.89169144 9.4375 22.625 C9.45361328 23.31529297 9.46972656 24.00558594 9.48632812 24.71679688 C9.49540927 34.29740808 3.52459808 41.08761643 -2.875 47.6875 C-12.03534483 54.6875 -12.03534483 54.6875 -15.875 54.6875 C-14.555 57.9875 -13.235 61.2875 -11.875 64.6875 C-12.865 64.3575 -13.855 64.0275 -14.875 63.6875 C-16.0625 60.125 -16.0625 60.125 -16.875 56.6875 C-17.83019531 56.88988281 -18.78539062 57.09226562 -19.76953125 57.30078125 C-28.79921527 58.91226025 -34.99224482 59.17279302 -42.875 53.6875 C-45.8109707 51.23306589 -48.53528809 48.72443265 -50.875 45.6875 C-50.875 45.0275 -50.875 44.3675 -50.875 43.6875 C-51.535 43.6875 -52.195 43.6875 -52.875 43.6875 C-56.81803509 35.63713669 -57.50424061 26.48035551 -55.06640625 17.8125 C-50.21071196 7.05940538 -40.42629178 -0.93771258 -29.5625 -5.125 C-18.75536055 -8.35600045 -9.31250414 -5.98377926 0 0 Z " transform="translate(169.875,256.3125)" style="fill: #E11757;"/><path d="M0 0 C6.23311137 5.08120167 9.86275025 10.38698743 11.6875 18.25 C12.73809406 29.54999426 11.57115201 38.52487296 4.625 47.625 C-1.36183 53.94372249 -10.02815607 55.86916631 -18.48828125 56.33984375 C-28.12046524 56.03342573 -35.48684779 53.02324797 -42.3125 46.25 C-49.81946804 38.09915946 -52.73373499 31.44185478 -52.41796875 20.375 C-52.38316406 19.67375 -52.34835937 18.9725 -52.3125 18.25 C-51.6525 18.25 -50.9925 18.25 -50.3125 18.25 C-50.37050781 17.36183594 -50.42851562 16.47367188 -50.48828125 15.55859375 C-50.1881491 9.9094398 -47.03705652 6.32896934 -43.3125 2.25 C-29.9237246 -8.5762353 -14.38203785 -10.04546919 0 0 Z " transform="translate(422.3125,216.75)" style="fill: #E81E66;"/><path d="M0 0 C-0.68578125 0.23332031 -1.3715625 0.46664063 -2.078125 0.70703125 C-5.63307695 2.28014501 -8.63164193 4.401639 -11.75 6.6875 C-12.37342285 7.13955811 -12.9968457 7.59161621 -13.63916016 8.05737305 C-18.50860803 11.6037797 -23.30207884 15.2286334 -28 19 C-28.58539551 19.46809082 -29.17079102 19.93618164 -29.77392578 20.41845703 C-43.66243999 31.39020542 -43.66243999 31.39020542 -56.44140625 43.59765625 C-62.16297991 49.67738788 -67.22439909 53.04436223 -75 56 C-76.60864937 56.69809312 -78.21316047 57.4058339 -79.8125 58.125 C-80.53695312 58.44082031 -81.26140625 58.75664062 -82.0078125 59.08203125 C-83.78044784 59.89883381 -85.49084644 60.84773621 -87.1875 61.8125 C-90.80156327 63.33843783 -92.25711111 63.17423965 -96 62 C-99.0784446 60.45825024 -102.05117172 58.77584992 -105 57 C-104.35474023 55.5414128 -103.7087728 54.08313863 -103.0625 52.625 C-102.52302734 51.40683594 -102.52302734 51.40683594 -101.97265625 50.1640625 C-101.3430097 48.76316215 -100.68687358 47.37374716 -100 46 C-99.34 46 -98.68 46 -98 46 C-97.73316406 45.44699219 -97.46632812 44.89398438 -97.19140625 44.32421875 C-92.72213938 35.60548501 -87.2716518 28.5386693 -80 22 C-79.14277344 21.21367187 -78.28554687 20.42734375 -77.40234375 19.6171875 C-71.97805832 14.88752279 -66.90287397 11.68771139 -60.1171875 9.265625 C-57.44651597 8.1812922 -55.17480501 6.98009261 -52.6953125 5.53515625 C-48.25191996 3.02689403 -43.93931146 1.42806414 -39 0.1875 C-37.74521851 -0.12876343 -37.74521851 -0.12876343 -36.46508789 -0.45141602 C-26.58795356 -2.67482851 -8.78342047 -5.85561365 0 0 Z " transform="translate(301,306)" style="fill: #790D18;"/><path d="M0 0 C1.37357666 0.00858032 1.37357666 0.00858032 2.77490234 0.01733398 C18.53174955 0.43008611 32.11650466 8.92900466 43.0625 19.875 C45.17733965 23.29127943 45.13437226 25.55262837 44.6875 29.5 C44.0275 30.16 43.3675 30.82 42.6875 31.5 C38.01215563 31.40052459 34.59620588 30.10406395 30.375 28.125 C17.72323065 22.24243878 4.66288543 20.12055027 -9.14453125 23.4140625 C-12.34108279 24.58954409 -15.29747506 25.91930731 -18.3125 27.5 C-19.19035156 27.94601563 -20.06820313 28.39203125 -20.97265625 28.8515625 C-28.14753335 32.82158724 -34.37524118 38.20655885 -39.91015625 44.2421875 C-41.3125 45.5 -41.3125 45.5 -44.3125 45.9375 C-47.3125 45.5 -47.3125 45.5 -49.1875 44 C-51.22345888 39.47564694 -51.06239268 35.65594145 -49.46875 31.07421875 C-43.39815338 17.88707813 -31.54820505 7.76655567 -18.03588867 2.63549805 C-11.94387602 0.70909297 -6.38001652 -0.04685084 0 0 Z " transform="translate(347.3125,168.5)" style="fill: #060402;"/><path d="M0 0 C4.12602684 3.40762771 8.02881771 6.9227123 10 12 C9.44444444 18.55555556 9.44444444 18.55555556 8 20 C1.10556419 20.91058586 -3.08495768 18.76798794 -9.0703125 15.41015625 C-18.701459 10.7743644 -33.81379777 11.68787079 -43.875 14.5625 C-54.40217265 18.38327586 -63.25172086 23.67354065 -71.46484375 31.27734375 C-74.53807835 33.36562797 -76.35893365 33.34449682 -80 33 C-82.41805568 28.76840256 -83.84256462 25.86815112 -83 21 C-76.23694255 6.53856864 -62.85710675 -2.85071914 -48.18359375 -8.34375 C-31.17890007 -13.45428406 -14.6037733 -9.37618056 0 0 Z " transform="translate(204,197)" style="fill: #070401;"/><path d="M0 0 C-0.31710937 0.75667969 -0.63421875 1.51335937 -0.9609375 2.29296875 C-2.07397823 5.19273275 -2.57177792 7.93107512 -3 11 C-3.66 11 -4.32 11 -5 11 C-4.85820312 11.88945312 -4.71640625 12.77890625 -4.5703125 13.6953125 C-5 17 -5 17 -7.9921875 19.5546875 C-9.27299572 20.35022056 -10.56810613 21.12308846 -11.875 21.875 C-12.85146484 22.47828125 -12.85146484 22.47828125 -13.84765625 23.09375 C-18.64198023 26 -18.64198023 26 -21 26 C-21 26.66 -21 27.32 -21 28 C-21.66 27.67 -22.32 27.34 -23 27 C-22.82920999 16.95444238 -21.49305407 9.34440264 -14.375 1.9375 C-9.59255735 -0.80797634 -5.38919423 -0.43151911 0 0 Z " transform="translate(375,224)" style="fill: #94360E;"/><path d="M0 0 C0.969375 0.144375 1.93875 0.28875 2.9375 0.4375 C3.58074219 0.52515625 4.22398437 0.6128125 4.88671875 0.703125 C6.28839843 0.90003379 7.68721394 1.11861854 9.08203125 1.359375 C15.35622951 2.30898338 20.84353874 1.39239591 27 0 C29.72124585 2.80370784 31 4.13630187 31 8.125 C29.85890661 11.4056435 28.99122737 12.32843176 26 14 C22.63849548 15.12050151 20.03713274 15.13296652 16.5 15.125 C15.3553125 15.12757813 14.210625 15.13015625 13.03125 15.1328125 C10 15 10 15 7 14 C7.66 10.37 8.32 6.74 9 3 C4.545 2.01 4.545 2.01 0 1 C0 0.67 0 0.34 0 0 Z " transform="translate(391,270)" style="fill: #B3450E;"/><path d="M0 0 C0.99 0.66 1.98 1.32 3 2 C3.7067076 6.50526093 3.18328892 9.20408246 0.625 12.875 C-0.89477222 14.85692517 -1.75134558 15.87567279 -4 17 C-7.5 17.1875 -7.5 17.1875 -11 17 C-13.3941161 14.6058839 -13.29598923 13.96213689 -13.3125 10.6875 C-13.22873735 6.68622284 -12.58422823 4.18058859 -10 1 C-6.87293041 -0.5635348 -3.42017557 -0.39958487 0 0 Z " transform="translate(158,259)" style="fill: #F8F4F8;"/><path d="M0 0 C3.11106131 0.10218815 5.17731575 0.59862278 7.75 2.375 C10.73690631 6.03396023 10.86900605 7.88359348 10.75390625 12.44921875 C10.25 14.4375 10.25 14.4375 7.25 16.4375 C2.76514988 16.35444722 0.79547306 15.9118244 -2.625 12.9375 C-3.32625 12.1125 -4.0275 11.2875 -4.75 10.4375 C-5.08 10.1075 -5.41 9.7775 -5.75 9.4375 C-5.9375 6 -5.9375 6 -5.75 2.4375 C-3.75 0.4375 -3.75 0.4375 0 0 Z " transform="translate(400.75,217.5625)" style="fill: #F8F1F7;"/><path d="M0 0 C0.66 0.33 1.32 0.66 2 1 C1.54882812 1.39832031 1.09765625 1.79664063 0.6328125 2.20703125 C-4.15113577 7.46021847 -5.49160256 15.13663454 -6 22 C-7.32 22.33 -8.64 22.66 -10 23 C-10.33 22.34 -10.66 21.68 -11 21 C-12.96877748 26.90633244 -11.53281218 33.4278132 -9 39 C-9 39.99 -9 40.98 -9 42 C-9.66 42 -10.32 42 -11 42 C-14.94303509 33.94963669 -15.62924061 24.79285551 -13.19140625 16.125 C-10.21281474 9.5288112 -5.31633737 4.79512782 0 0 Z " transform="translate(128,258)" style="fill: #C51749;"/><path d="M0 0 C3.65420325 1.32880118 6.7977448 3.0154274 10.05859375 5.09765625 C14.76811626 7.28658925 19.06713124 7.06606302 24.0625 6.125 C25.06410156 5.94195312 26.06570312 5.75890625 27.09765625 5.5703125 C29.73293361 5.05247872 32.36741388 4.53134766 35 4 C33.02 4.99 33.02 4.99 31 6 C32.32 9.3 33.64 12.6 35 16 C34.01 15.67 33.02 15.34 32 15 C30.8125 11.4375 30.8125 11.4375 30 8 C29.04480469 8.20238281 28.08960938 8.40476562 27.10546875 8.61328125 C18.1120333 10.21829117 11.88213245 10.46119177 4 5 C1.3125 2.1875 1.3125 2.1875 0 0 Z " transform="translate(123,305)" style="fill: #B52B21;"/><path d="M0 0 C0.928125 0.495 1.85625 0.99 2.8125 1.5 C-0.46596598 2.59282199 -1.02896245 2.35459517 -4.1875 1.5 C-12.05818075 0.85547181 -19.9927992 1.01087733 -26.30078125 6.2578125 C-28.01012312 7.9500267 -29.62803122 9.66975529 -31.1875 11.5 C-31.5175 10.51 -31.8475 9.52 -32.1875 8.5 C-24.62580753 -0.28132029 -11.01209721 -4.77416076 0 0 Z " transform="translate(160.1875,251.5)" style="fill: #F13A60;"/><path d="M0 0 C1 3 1 3 0 5 C-0.66 5 -1.32 5 -2 5 C-1.6596875 6.3921875 -1.6596875 6.3921875 -1.3125 7.8125 C-1.209375 8.864375 -1.10625 9.91625 -1 11 C-2 12 -3 13 -4 14 C-4.55811277 19.58112768 -3.35950544 24.63144201 -2 30 C-1.81308594 30.74894531 -1.62617187 31.49789063 -1.43359375 32.26953125 C-1.21896484 33.12611328 -1.21896484 33.12611328 -1 34 C-1.66 34 -2.32 34 -3 34 C-6.64267688 26.56286804 -6.95384105 19.18069079 -6 11 C-4.64322853 7.070712 -2.99076623 2.99076623 0 0 Z " transform="translate(120,266)" style="fill: #AD1835;"/><path d="M0 0 C0.66 0.33 1.32 0.66 2 1 C-0.78358481 3.84137242 -3.57815727 6.67168155 -6.375 9.5 C-7.1690625 10.31082031 -7.963125 11.12164062 -8.78125 11.95703125 C-9.92207031 13.10751953 -9.92207031 13.10751953 -11.0859375 14.28125 C-11.7876709 14.99345703 -12.4894043 15.70566406 -13.21240234 16.43945312 C-15 18 -15 18 -17 18 C-13.70998018 10.4847263 -6.1721195 5.14343291 0 0 Z " transform="translate(228,322)" style="fill: #5D0B18;"/><path d="M0 0 C0.66 0.33 1.32 0.66 2 1 C-2.62 5.62 -7.24 10.24 -12 15 C-12.66 14.67 -13.32 14.34 -14 14 C-12.60919892 12.41224451 -11.21211596 10.82999061 -9.8125 9.25 C-8.64654297 7.92742187 -8.64654297 7.92742187 -7.45703125 6.578125 C-5.11544754 4.12113732 -2.69841735 2.05137234 0 0 Z " transform="translate(138,198)" style="fill: #2B1603;"/><path d="M0 0 C-1.61694804 0.688063 -3.23400775 1.37586451 -4.8515625 2.0625 C-6.37692619 2.72811325 -7.89169147 3.41825267 -9.3984375 4.125 C-10.19507813 4.49625 -10.99171875 4.8675 -11.8125 5.25 C-12.56144531 5.60578125 -13.31039062 5.9615625 -14.08203125 6.328125 C-15.03142578 6.66070312 -15.03142578 6.66070312 -16 7 C-16.66 6.67 -17.32 6.34 -18 6 C-6.77083333 -2.70833333 -6.77083333 -2.70833333 0 0 Z " transform="translate(233,359)" style="fill: #B10A24;"/><path d="M0 0 C0.66 0.33 1.32 0.66 2 1 C-2.95 5.95 -7.9 10.9 -13 16 C-13 11.08924079 -9.30469813 8.39044878 -6 5 C-4.05397986 3.23549584 -2.07285289 1.6178364 0 0 Z " transform="translate(316,178)" style="fill: #251407;"/><path d="M0 0 C0.33 0.66 0.66 1.32 1 2 C3.34937742 2.9583369 5.66218055 3.81785446 8.0625 4.625 C8.72572266 4.85445313 9.38894531 5.08390625 10.07226562 5.3203125 C11.71259669 5.88675776 13.35602157 6.44422923 15 7 C11.86332092 8.02826931 10.16815258 7.99386675 7.109375 6.78515625 C6.40039062 6.51123047 5.69140625 6.23730469 4.9609375 5.95507812 C4.23132813 5.66052734 3.50171875 5.36597656 2.75 5.0625 C2.00492188 4.77181641 1.25984375 4.48113281 0.4921875 4.18164062 C-1.34241814 3.46426278 -3.17175065 2.73342561 -5 2 C-3 0 -3 0 0 0 Z " transform="translate(214,368)" style="fill: #E21C26;"/><path d="M0 0 C0.66 0.33 1.32 0.66 2 1 C-4.92938497 9.81548975 -4.92938497 9.81548975 -11 11 C-10.67 10.01 -10.34 9.02 -10 8 C-9.2575 7.731875 -8.515 7.46375 -7.75 7.1875 C-3.95853885 5.55027814 -2.48549361 3.26664874 0 0 Z " transform="translate(428,259)" style="fill: #D62445;"/><path d="M0 0 C0.66 0.33 1.32 0.66 2 1 C1.64950425 4.24208567 1.43778819 5.61527704 -1.0625 7.8125 C-1.701875 8.204375 -2.34125 8.59625 -3 9 C-2.25 2.25 -2.25 2.25 0 0 Z " transform="translate(375,225)" style="fill: #D42261;"/><path d="M0 0 C2 0 2 0 3.69140625 1.6796875 C4.30886719 2.40414062 4.92632812 3.12859375 5.5625 3.875 C6.18253906 4.59429687 6.80257813 5.31359375 7.44140625 6.0546875 C9 8 9 8 10 10 C5.95579349 8.22054913 2.53921513 5.60470327 -1 3 C-0.67 2.01 -0.34 1.02 0 0 Z " transform="translate(393,118)" style="fill: #F1B161;"/><path d="M0 0 C5.28 0.33 10.56 0.66 16 1 C12.12282516 2.93858742 10.96038221 3.21493963 6.875 3.0625 C3.29653194 2.86083205 3.29653194 2.86083205 0 4 C0 2.68 0 1.36 0 0 Z " transform="translate(398,284)" style="fill: #EE8D19;"/><path d="M0 0 C2.44839588 3.67259383 4 6.54648201 4 11 C3.34 11 2.68 11 2 11 C1.46770674 9.73392393 0.94955456 8.46189588 0.4375 7.1875 C0.14746094 6.47980469 -0.14257812 5.77210938 -0.44140625 5.04296875 C-1 3 -1 3 0 0 Z " transform="translate(115,289)" style="fill: #B2242B;"/><path d="M0 0 C0.99 0.33 1.98 0.66 3 1 C0.69 3.31 -1.62 5.62 -4 8 C-4.33 7.01 -4.66 6.02 -5 5 C-3.35 3.35 -1.7 1.7 0 0 Z " transform="translate(313,206)" style="fill: #E2952E;"/><path d="M0 0 C0.66 0.33 1.32 0.66 2 1 C-0.35380297 4.92300495 -2.64464931 5.83857315 -7 7 C-4.78071806 4.09197539 -3.07030857 2.04687238 0 0 Z " transform="translate(279,319)" style="fill: #C6072E;"/><path d="M0 0 C2 2 2 2 2.25 5 C2 8 2 8 0 10 C-1.231394 6.30581799 -0.64432764 3.7943739 0 0 Z " transform="translate(161,261)" style="fill: #E34081;"/></svg>