<!DOCTYPE svg PUBLIC "-//W3C//DTD SVG 1.1//EN" "http://www.w3.org/Graphics/SVG/1.1/DTD/svg11.dtd">
<svg xmlns="http://www.w3.org/2000/svg" viewBox="0 0 512 512">
<path fill="#f9a12e" stroke="#f9a12e" d="M239.5 40.703C127.77 48.346 41 140.378 41 251.24c0 113.128 82.791 203.686 195.5 213.839 82.008 7.387 161.447-31.315 203.661-99.222 43.242-69.562 41.482-170.861-4.045-232.857C388.185 67.73 319.021 35.262 239.5 40.703m80.9 52.662c-6.506 2.964-6.15 8.84.925 15.285 5.649 5.145 32.419 19.875 49.55 27.265 5.156 2.224 9.898 4.76 10.538 5.635.64.875 1.596 1.488 2.125 1.362 1.403-.335 5.722 1.33 15.917 6.136 7.266 3.426 15.184 10.514 21.229 19.004 2.478 3.48 4.217 4.777 7.834 5.845 2.557.756 5.964 2.479 7.57 3.83 3.378 2.843 3.202 1.77-.938-5.727-18.416-33.344-36.886-50.995-70.65-67.514-23.359-11.428-36.276-14.685-44.1-11.121m76.823 126.192c-5.926 4.15 2.714 15.752 10.311 13.845 3.087-.775 3.839-3.304 2.481-8.346-1.65-6.129-7.998-8.858-12.792-5.499m-247.924 40.946c-4.623 3.238-5.368 12.319-1.194 14.553 6.633 3.55 16.381-8.547 11.359-14.096-2.129-2.352-7.138-2.577-10.165-.457" fill-rule="evenodd"/>
<path fill="#d46119" stroke="#d46119" d="M106.846 99.85c-67.543 63.505-84.576 164.029-42.3 249.65 48.021 97.258 165.583 140.919 271.954 101 57.122-21.437 103.042-68.595 122.203-125.5 4.837-14.363 7.766-29.026 5.522-27.639-.591.365-1.22-.092-1.399-1.016-.377-1.945-4.826-2.636-4.826-.749 0 .693-.691 1.952-1.536 2.797-.844.844-1.49 1.664-1.435 1.821.118.336-.129 1.053-3.536 10.274-10.676 28.89-36.465 60.395-65.685 80.24C373.321 399.209 364 404.541 364 403.204c0-.543-1.012-1.244-2.25-1.557-2.642-.669-7.557-4.58-12.631-10.049-1.99-2.146-4.369-4.696-5.286-5.667-.916-.97-1.366-2.099-1-2.508.367-.409.185-.47-.405-.135-.589.336-2.364-.061-3.943-.88-2.674-1.387-3.669-1.25-14.429 1.986-28.834 8.675-41.735 10.877-63.556 10.849-39.619-.05-82.152-14.857-115.418-40.18-14.202-10.812-17.701-15.789-16.915-24.063l.333-3.5 9.217.364c8.772.346 9.482.215 14.675-2.716l5.458-3.08 2.642 4.509c8.207 14.004 25.738 30.698 41.801 39.805 27.808 15.767 73.825 19.017 108.559 7.666 40.492-13.232 72.386-43.742 85.215-81.518l2.707-7.971 3.863.284c2.125.157 4.538.327 5.363.378 10.53.658 16.948-5.792 12.508-12.569-1.427-2.178-1.3-2.413 2.888-5.366 10.066-7.095 14.315-25.428 8.757-37.786-9.027-20.071-36.814-25.331-52.817-9.997-4.028 3.859-4.855 4.237-8.267 3.779-10.004-1.341-20.729 12.823-18.498 24.433.603 3.137.444 3.254-14.571 10.802-50.225 25.247-127.109 24.562-167.5-1.492-12.494-8.059-22.674-8.908-35.194-2.933-8.647 4.127-17.544 12.987-19.992 19.909-1.423 4.023-2.932 5.974-7.003 9.05-2.854 2.157-8.323 7.106-12.153 10.997s-7.184 6.71-7.453 6.264c-2.018-3.35-3.202-22.852-3.177-52.312.028-32.027.069-32.675 2.829-44.5 7.893-33.815 24.002-66.759 44.74-91.5 3.458-4.125 5.337-6.676 4.176-5.668-2.071 1.797-2.165 1.771-4.942-1.362-1.557-1.756-3.843-3.582-5.081-4.057-1.237-.475-2.25-1.598-2.25-2.495 0-1.09-.535-1.427-1.611-1.014-1.153.443-1.447.189-1.032-.893.397-1.033-.043-1.511-1.388-1.511-1.083 0-1.969-.477-1.969-1.059s.52-.738 1.155-.346c.667.413.884.278.515-.32-2.011-3.254-4.762-1.945-13.824 6.575M335 169.583c-21.27 5.611-41.385 26.825-37.85 39.916 2.061 7.632 6.4 7.148 15.739-1.755 20.73-19.761 43.916-22.824 69.838-9.226 4.99 2.618 5.342 2.667 7.75 1.089 4.74-3.106 2.672-8.63-6.198-16.564-13.922-12.452-33.171-17.71-49.279-13.46m-173.707 17.925c-25.303 5.499-47.714 29.753-37.964 41.088 3.078 3.579 5.317 2.931 13.929-4.035 19.978-16.159 43.693-19.682 63.884-9.49 6.572 3.318 9.03 3.614 11.287 1.358 5.854-5.855-3.438-18.342-18.929-25.438-10.947-5.015-20.436-6.041-32.207-3.483m237.715 30.481c-8.343 2-2.77 16.011 6.369 16.011 4.196 0 5.623-1.554 5.623-6.123 0-6.649-5.745-11.386-11.992-9.888m-248.706 41.023c-4.611 1.857-7.081 12.066-3.731 15.417 4.655 4.654 14.429-1.743 14.429-9.443 0-5.826-4.637-8.415-10.698-5.974" fill-rule="evenodd"/>
<path fill="#f3f4fb" stroke="#f3f4fb" d="M337 169.499c-24.552 5.522-48.087 32.505-37.545 43.046 3.474 3.475 5.251 3.09 9.931-2.153 18.211-20.398 44.33-25.805 68.785-14.237 20.759 9.819 19.372-4.644-1.793-18.692-11.644-7.729-26.796-10.793-39.378-7.964m-181.507 20.272c-20.493 6.984-36.904 24.239-33.585 35.315 2.196 7.331 5.152 7.094 15.457-1.242 19.358-15.658 46.458-19.414 64.135-8.887 8.939 5.323 15.528.711 11.082-7.757-8.496-16.185-36.052-24.597-57.089-17.429m253.889 24.781c.341.89.173 1.291-.393.941-1.56-.964-1.154 4.125.433 5.442 1.974 1.639 2.977 8.45 1.618 10.99-1.281 2.394-8.421 2.906-11.063.793-4.951-3.958-7.754-11.502-4.924-13.251 2.78-1.718-.49-3.545-6.407-3.579-3.059-.017-9.951 4.024-11.729 6.877-.844 1.355-2.214 1.671-6.249 1.444-9.518-.537-16.788 7.946-17.288 20.169-.289 7.081-.4 7.2-12.09 13.063-53.746 26.953-127.316 26.917-172.087-.083-8.728-5.263-15.365-6.89-22.896-5.61-23.401 3.978-38.558 25.511-30.57 43.428 5.395 12.099 14.939 18.178 28.68 18.267 6.998.045 9.024.379 9.416 1.556.275.825 3.666 6.225 7.537 12 24.304 36.269 57.87 53.358 104.63 53.27 62.134-.117 113.772-36.909 131.607-93.769 3.117-9.938 3.168-10.059 3.921-9.305.29.29.083 1.699-.462 3.131-1.289 3.39-.524 3.787 7.501 3.894 10.123.136 15.764-5.857 10.758-11.427-1.778-1.978-1.761-2.073.634-3.662 19.637-13.027 18.418-43.289-2.158-53.543-5.987-2.983-9.324-3.394-8.419-1.036M47 232.167c0 .641-.304.863-.675.492-.371-.371-1.493.566-2.493 2.083-2.359 3.577-2.508 22.988-.32 41.692C54.927 374.019 124.069 445.95 222.5 462.643c14.337 2.431 50.785 2.414 66.5-.032 34.657-5.393 67.858-18.58 94.323-37.462 3.376-2.409 4.44-3.677 3.547-4.229-.701-.433-1.573-.603-1.939-.378-.365.226-1.459-.468-2.431-1.542s-2.187-1.693-2.7-1.376c-.513.317-1.564-.256-2.335-1.274-.771-1.017-1.416-1.524-1.433-1.125-.018.399-1.27.244-2.782-.344s-3.851-1.2-5.197-1.359c-1.346-.16-3.258-1.292-4.25-2.517-.992-1.225-1.803-1.7-1.803-1.057 0 .644-.472.878-1.049.522-.725-.448-.71-1.055.048-1.969.603-.726-3.763.846-9.702 3.493-20.852 9.295-48.07 17.164-58.417 16.89-2.409-.064-3.592-.322-2.63-.573 2.43-.635 2.186-2.04-.5-2.878-1.238-.387-2.475-.979-2.75-1.318-.885-1.089-4.933-3.115-6.236-3.121-.695-.004-2.471-.636-3.947-1.406-2.825-1.474-6.094-2.336-11.842-3.125-6.719-.921-13.508-2.254-16.725-3.283-1.925-.616-3.25-.661-3.25-.11 0 .511-.477.93-1.059.93s-.791-.433-.464-.963c.327-.529-.659-.957-2.191-.951-1.532.006-6.611-.457-11.286-1.028-4.675-.572-9.49-1.05-10.7-1.064-1.211-.013-2.463-.448-2.782-.966-.32-.517-1.221-.695-2.002-.396-.781.3-2.004.181-2.718-.265s-1.748-.897-2.298-1.002c-.55-.106-2.872-.872-5.16-1.702-2.287-.831-4.401-1.268-4.697-.972-.296.296-2.533-.427-4.97-1.607s-5.792-2.244-7.455-2.365c-1.663-.12-2.815-.556-2.562-.969.254-.413-.915-.75-2.597-.75s-3.059-.477-3.059-1.059-.414-.803-.919-.491c-.506.313-1.577-.089-2.381-.893-.804-.804-1.709-1.215-2.011-.913-.302.302-2.574-.845-5.049-2.548-2.475-1.703-4.877-3.096-5.338-3.096-.461 0-2.463-1.104-4.449-2.454-1.986-1.35-3.891-2.175-4.232-1.833-.342.341-.621.095-.621-.546 0-.642-.338-1.074-.75-.961-1.938.531-7.507-3.818-15.555-12.145-4.843-5.011-9.162-8.89-9.599-8.62-.437.27-1.388-.619-2.114-1.975S124.084 359 123.378 359c-1.719 0-10.378-8.854-10.378-10.612 0-.763-.704-1.388-1.565-1.388-.86 0-2.7-1.35-4.088-3-1.389-1.65-3.09-3-3.781-3-4.048 0-15.156-29.329-17.169-45.331-.386-3.071-1.481-6.082-2.698-7.419-1.126-1.238-1.727-2.25-1.334-2.25.392 0-.205-.985-1.326-2.189-1.121-1.203-2.039-2.745-2.039-3.426s-.737-1.384-1.638-1.562c-1.049-.207-2.138-2.284-3.033-5.785-.768-3.004-1.719-5.704-2.113-6-.394-.296-.871-2.563-1.061-5.038-.19-2.475-.865-4.831-1.5-5.235-.635-.404-.705-.756-.155-.781.55-.026.307-.596-.539-1.266-.847-.67-1.605-2.216-1.686-3.437-.128-1.939-7.275-10.448-7.275-8.661 0 .377-.788-.287-1.75-1.476-.962-1.19-2.635-3.25-3.716-4.579-1.081-1.329-2.296-2.212-2.699-1.963-.404.25-1.223-.459-1.82-1.574-1.181-2.208-3.015-2.731-3.015-.861m103.421 26.229c-4.256 1.885-7.202 9.421-5.467 13.984 3.347 8.803 17.046 1.823 17.046-8.685 0-4.792-6.258-7.655-11.579-5.299" fill-rule="evenodd"/>
<path fill="#840f1d" stroke="#840f1d" d="M334.112 170.519C316.354 175.498 297 194.472 297 206.903c0 2.694 3.836 7.097 6.183 7.097 1.157 0 5.41-3.172 9.835-7.335 20.043-18.855 41.392-22.216 66.303-10.437 9.814 4.641 11.939 4.469 12.487-1.011.565-5.641-14.181-18.532-26.675-23.319-7.421-2.844-23.282-3.549-31.021-1.379m-173.6 18.095c-23.52 5.686-44.69 28.121-36.955 39.163 2.347 3.351 4.936 2.728 11.749-2.828 11.874-9.683 30.047-16.883 42.734-16.932 6.022-.023 15.06 2.395 22.539 6.029 7.411 3.601 9.886 3.7 11.998.477 4.854-7.409-13.368-23.259-30.468-26.502-7.177-1.361-14.324-1.165-21.597.593M359 247.552c-48.334 32.663-119.034 39.972-173.442 17.932-6.018-2.438-11.065-4.31-11.215-4.16-.151.15.89 3.154 2.313 6.675 6.159 15.249-1.886 33.137-18.437 40.995l-5.157 2.449 4.089 7.528c11.112 20.463 28.619 37.9 47.636 47.447 5.576 2.798 5.7 2.781 11.213-1.523 1.925-1.503 5.75-3.388 8.5-4.19 9.748-2.843 12.891-4.828 22.901-14.462 9.935-9.562 13.19-12.228 33.169-27.168 5.462-4.084 11.591-8.696 13.621-10.25 4.869-3.726 6.051-3.608 16.457 1.634 9.221 4.645 18.56 12.024 24.417 19.291 3.386 4.2 3.501 4.25 9.823 4.25 6.348 0 6.436.039 11.425 5.027 5.95 5.951 4.879 6.165 12.6-2.527 14.792-16.655 27.579-41.407 30.527-59.094l.683-4.093-6.063-2.211c-10.846-3.955-21.645-16.044-23.589-26.407-.865-4.607-.17-4.78-11.471 2.857" fill-rule="evenodd"/>
</svg>