<svg id="svg" version="1.1" xmlns="http://www.w3.org/2000/svg" style="display: block;" viewBox="0 0 512 512"><path d="M0 0 C168.96 0 337.92 0 512 0 C512 168.96 512 337.92 512 512 C343.04 512 174.08 512 0 512 C0 343.04 0 174.08 0 0 Z " transform="translate(0,0)" style="fill: #F5962B;"/><path d="M0 0 C168.96 0 337.92 0 512 0 C512 168.96 512 337.92 512 512 C343.04 512 174.08 512 0 512 C0 343.04 0 174.08 0 0 Z M222 42 C221.12408203 42.1453418 220.24816406 42.29068359 219.34570312 42.44042969 C183.62694741 48.61541127 150.41987842 62.41194635 122 85 C121.14921875 85.64710937 120.2984375 86.29421875 119.421875 86.9609375 C105.5527734 97.79876839 93.30265413 110.75635361 83 125 C82.56026855 125.59538574 82.12053711 126.19077148 81.66748047 126.80419922 C64.77739098 149.7754492 53.2296995 175.48142048 46 203 C45.70480469 204.06605469 45.40960938 205.13210937 45.10546875 206.23046875 C32.07015401 256.89482011 43.89439277 317.22452271 70.07324219 361.82861328 C84.18186076 385.18317121 102.10791177 405.74177243 124 422 C124.57508301 422.43054688 125.15016602 422.86109375 125.74267578 423.3046875 C153.19249034 443.75840199 183.46411131 456.28903966 217 463 C217.89259521 463.18763916 218.78519043 463.37527832 219.70483398 463.56860352 C229.70540039 465.40794809 239.72035695 465.33737756 249.8527832 465.31567383 C252.90027512 465.3125383 255.94676973 465.33595595 258.99414062 465.36132812 C292.19469865 465.46766706 322.90270467 458.07797649 352.88134766 443.99414062 C354.260247 443.34711618 355.64260153 442.70738818 357.02880859 442.07617188 C374.93173597 433.91162583 390.66319252 422.40390536 405 409 C405.56944336 408.46906738 406.13888672 407.93813477 406.72558594 407.39111328 C414.48659138 400.07708839 421.34633855 392.2895754 427.70898438 383.73535156 C428.55007113 382.60478336 429.39744514 381.47885704 430.25195312 380.35839844 C442.16513335 364.73532928 451.50491336 347.68564551 458.19335938 329.22070312 C458.91031162 327.24691449 459.66356546 325.28639688 460.421875 323.328125 C468.85369943 300.32277686 471.41835205 274.92181077 471.3125 250.5625 C471.31067719 249.68903931 471.30885437 248.81557861 471.30697632 247.91564941 C471.22187308 223.60439763 468.88535157 199.81397923 460 177 C459.58621094 175.86820313 459.17242187 174.73640625 458.74609375 173.5703125 C451.49365353 154.47582809 440.6780827 137.36503876 427.6550293 121.69287109 C427.12562744 121.05559082 426.59622559 120.41831055 426.05078125 119.76171875 C425.27661865 118.83238525 425.27661865 118.83238525 424.48681641 117.88427734 C422.99302231 115.991157 421.68024891 114.0332578 420.35546875 112.01953125 C419.57816406 111.02308594 418.80085938 110.02664062 418 109 C416.68 109 415.36 109 414 109 C413.77828125 108.46503906 413.5565625 107.93007812 413.328125 107.37890625 C406.30075584 94.79164795 391.39810512 82.64601216 378.18359375 77.1953125 C376 76 376 76 373.609375 73.59375 C366.8322402 66.85719684 357.18146679 63.17619416 348 61 C348 60.34 348 59.68 348 59 C335.38094105 53.25876533 322.82018448 48.91830378 309.35864258 45.59228516 C307.32231357 45.08093704 305.30001818 44.51429091 303.28125 43.9375 C297.03489325 42.39060397 290.58031574 41.96326537 284.1875 41.375 C283.48735779 41.30963043 282.78721558 41.24426086 282.06585693 41.1769104 C262.09191075 39.34706515 241.85151977 38.67491169 222 42 Z " transform="translate(0,0)" style="fill: #F0F4FC;"/><path d="M0 0 C0.67756348 0.20383301 1.35512695 0.40766602 2.05322266 0.61767578 C11.32019772 3.42427126 20.17415419 7.04264849 29 11 C29 11.66 29 12.32 29 13 C29.54785156 13.12375 30.09570312 13.2475 30.66015625 13.375 C36.42999754 14.87609692 41.55964067 17.10959045 46.8125 19.875 C47.76298218 20.36613281 47.76298218 20.36613281 48.73266602 20.8671875 C51.79466865 22.52289216 53.98801818 23.98773154 56.44921875 26.5078125 C58.71420333 28.72076834 60.02412454 29.62119804 62.79296875 30.90625 C67.52796635 33.12560674 71.32092643 36.1530883 75.3125 39.5 C76.04654053 40.11004883 76.78058105 40.72009766 77.53686523 41.34863281 C83.88084687 46.71624308 89.89018809 52.42235876 95 59 C95 59.66 95 60.32 95 61 C96.32 61 97.64 61 99 61 C100.89941387 63.02381638 102.49503522 64.96204933 104.125 67.1875 C105.10413383 68.48439979 106.08330121 69.78127425 107.0625 71.078125 C107.55363281 71.73748047 108.04476563 72.39683594 108.55078125 73.07617188 C109.88060804 74.84150798 111.24082483 76.57401867 112.625 78.296875 C118.86942931 86.1036218 124.09727479 94.29488972 129 103 C129.35868164 103.63228516 129.71736328 104.26457031 130.08691406 104.91601562 C137.63927673 118.3226576 142.58944073 132.04653089 146.45654297 146.91503906 C146.92841215 148.72535477 147.41773662 150.53110332 147.91015625 152.3359375 C155.4424008 181.78360714 154.31076826 216.55557702 148.54248047 246.20019531 C148.0382327 248.80267658 147.59151941 251.40806957 147.16015625 254.0234375 C143.84648829 272.94807658 136.29775975 291.24776815 127 308 C126.6709668 308.60005859 126.34193359 309.20011719 126.00292969 309.81835938 C116.67458213 326.63642366 104.94101442 341.79933587 91.47900391 355.49462891 C90.21664384 356.77949391 88.97168269 358.08141458 87.73046875 359.38671875 C72.74514379 374.92140389 53.64995232 387.23412297 34 396 C33.17999512 396.36963867 32.35999023 396.73927734 31.51513672 397.12011719 C16.8284525 403.69996869 2.34969319 409.16669906 -13.375 412.6875 C-14.71957275 412.99155762 -14.71957275 412.99155762 -16.09130859 413.30175781 C-31.39450983 416.56331894 -46.54840261 417.37312238 -62.15454102 417.37060547 C-65.16675805 417.37496995 -68.17749395 417.41141892 -71.18945312 417.44921875 C-84.85564271 417.52841296 -97.67091252 415.98560029 -111 413 C-112.72198608 412.61473145 -112.72198608 412.61473145 -114.47875977 412.22167969 C-117.06765094 411.5973093 -119.62696888 410.9186707 -122.1875 410.1875 C-123.08782959 409.93379639 -123.98815918 409.68009277 -124.91577148 409.41870117 C-160.14658026 399.25947893 -190.70178295 380.41300357 -217 355 C-217.72316406 354.32839844 -218.44632813 353.65679687 -219.19140625 352.96484375 C-230.135702 342.55118052 -238.74339705 329.57293949 -247 317 C-247.93779297 315.57880859 -247.93779297 315.57880859 -248.89453125 314.12890625 C-276.58633893 269.44587231 -285.509381 207.94934727 -273.875 156.99780273 C-261.87761704 108.63335267 -233.11412365 61.88834108 -192 33 C-191.42991211 32.59620117 -190.85982422 32.19240234 -190.27246094 31.77636719 C-162.18230151 12.00693518 -130.99053992 -0.6518636 -97 -6 C-95.92854736 -6.17354004 -95.92854736 -6.17354004 -94.83544922 -6.35058594 C-64.42127007 -11.07063124 -29.44873667 -9.17143278 0 0 Z M-130 25 C-131.24227908 25.50947212 -132.48584729 26.01580853 -133.73046875 26.51953125 C-147.86506198 32.32719792 -160.33258374 40.122594 -172 50 C-172.89332031 50.69351563 -173.78664062 51.38703125 -174.70703125 52.1015625 C-177.06517632 53.79390153 -177.06517632 53.79390153 -178 56 C-178.99 56.33 -179.98 56.66 -181 57 C-181.391875 57.680625 -181.78375 58.36125 -182.1875 59.0625 C-183.91376679 61.86024273 -185.57702303 63.62380437 -187.9375 65.875 C-190.87571367 68.73855851 -192.99996797 71.36506921 -194.890625 75.046875 C-196.31271042 77.55054652 -198.01609714 79.76407063 -199.75 82.0625 C-202.90607512 86.34955138 -205.76194208 90.71685732 -208.4375 95.3125 C-209.42556641 97.00826172 -209.42556641 97.00826172 -210.43359375 98.73828125 C-211.9617586 101.92037015 -212.62506428 104.50940126 -213 108 C-213.66 108 -214.32 108 -215 108 C-217.0476823 112.64722225 -219.04437635 117.31345957 -221 122 C-221.26151855 122.62535645 -221.52303711 123.25071289 -221.79248047 123.89501953 C-226.49534402 135.30598291 -229.36210914 146.96489545 -232 159 C-232.16598694 159.61170044 -232.33197388 160.22340088 -232.50299072 160.8536377 C-234.2209234 167.57185508 -234.28948651 174.06912956 -234.265625 180.9765625 C-234.26753845 182.21884613 -234.2694519 183.46112976 -234.27142334 184.74105835 C-234.27312552 188.03661194 -234.26514522 191.33197422 -234.25390625 194.62750244 C-234.24750639 197.90013143 -234.26276683 201.17270129 -234.2734375 204.4453125 C-235.1047211 229.01391001 -235.1047211 229.01391001 -231 253 C-227.88175879 251.63746417 -225.95262649 250.14891747 -223.75 247.5625 C-222.96882813 246.66724609 -222.96882813 246.66724609 -222.171875 245.75390625 C-220.7222227 243.93582307 -220.7222227 243.93582307 -221 241 C-220.45859375 240.7628125 -219.9171875 240.525625 -219.359375 240.28125 C-216.36749863 238.65652243 -213.88840601 236.6498123 -211.25 234.5 C-209.77273437 233.30890625 -209.77273437 233.30890625 -208.265625 232.09375 C-207.51796875 231.4028125 -206.7703125 230.711875 -206 230 C-206 229.34 -206 228.68 -206 228 C-205.34 228 -204.68 228 -204 228 C-203.74347656 227.45472656 -203.48695313 226.90945313 -203.22265625 226.34765625 C-197.2302054 214.54434398 -188.61942524 208.12082638 -176.375 203.6875 C-165.82593069 201.53861551 -158.02267722 204.67006121 -148.84765625 209.71875 C-147 211 -147 211 -145 214 C-143.385202 214.50660329 -141.76435334 214.9993893 -140.12255859 215.41015625 C-137.71911677 216.07805543 -135.46059644 216.94875413 -133.14453125 217.875 C-120.7432138 222.89153493 -120.7432138 222.89153493 -107.69921875 225.640625 C-103.69991669 226.17309358 -99.87194502 227.25665905 -95.984375 228.31640625 C-63.93041366 235.65860944 -25.91292782 228.91179513 4.3125 217.8125 C5.10156738 217.5235083 5.89063477 217.2345166 6.70361328 216.93676758 C14.6234385 213.93228752 21.94531162 209.99237011 29.33032227 205.87597656 C31 205 31 205 33.48828125 204.05859375 C37.2429509 202.47614356 40.45723364 200.16749778 43.8125 197.875 C44.50537109 197.40707031 45.19824219 196.93914062 45.91210938 196.45703125 C47.61091105 195.30887563 49.30584864 194.15500633 51 193 C51.22786458 195.24609375 51.45572917 197.4921875 51.68359375 199.73828125 C51.95265693 202.16087179 51.95265693 202.16087179 53 205 C53.66 205 54.32 205 55 205 C55.185625 205.66 55.37125 206.32 55.5625 207 C59.34905475 214.90237512 65.99724243 220.55833789 74 224 C76.32246265 224.40214773 78.65626077 224.75011604 81 225 C75.46981896 249.46291848 65.96227443 269.36216538 49.6875 288.625 C49.15930664 289.2540625 48.63111328 289.883125 48.08691406 290.53125 C46.77022119 292.06129982 45.38997475 293.53620262 44 295 C42 295 42 295 39.6875 292.75 C38.800625 291.8425 37.91375 290.935 37 290 C34.13355319 287.24341701 32.66773501 286.07828077 28.66796875 285.609375 C27.51941406 285.65578125 26.37085938 285.7021875 25.1875 285.75 C24.02605469 285.78609375 22.86460937 285.8221875 21.66796875 285.859375 C20.78753906 285.90578125 19.90710938 285.9521875 19 286 C18.7525 285.443125 18.505 284.88625 18.25 284.3125 C13.15718613 274.89079434 3.18322778 268.13124686 -6 263 C-6.65613281 262.61972656 -7.31226563 262.23945313 -7.98828125 261.84765625 C-12.43711447 259.42023463 -16.81454284 257.5564447 -22 258 C-25.02478484 259.42959187 -27.44632222 261.4203035 -30 263.5625 C-31.33333333 264.62630208 -32.66666667 265.69010417 -34 266.75390625 C-34.65983887 267.29329834 -35.31967773 267.83269043 -35.99951172 268.38842773 C-37.97031578 269.97608671 -39.97627864 271.49889233 -42.0078125 273.0078125 C-54.47482113 282.28809796 -67.58633081 292.09757526 -77.33203125 304.2734375 C-81.01236285 308.08305476 -85.16535423 309.47285332 -90.1875 310.8125 C-95.67176084 312.41492276 -100.05993953 314.53711663 -104.78125 317.73046875 C-107.3693127 319.21131449 -109.00648848 319.87119906 -112 320 C-114.4102332 318.98234598 -116.41469709 317.97195585 -118.625 316.625 C-119.54478638 316.07960571 -119.54478638 316.07960571 -120.4831543 315.52319336 C-126.45121429 311.89089922 -131.8092154 307.67412797 -137 303 C-137.75667969 302.32582031 -138.51335937 301.65164063 -139.29296875 300.95703125 C-147.47538934 293.23803979 -154.38699777 283.73911645 -160 274 C-162.89764867 274.60367681 -164.98769884 275.52536837 -167.5 277.0625 C-174.30526364 280.57982727 -182.71351898 279.619218 -190 278 C-188.76760623 273.48122283 -187.33073243 271.21970801 -184 268 C-184 267.01 -184 266.02 -184 265 C-184.85464844 264.59007812 -185.70929688 264.18015625 -186.58984375 263.7578125 C-187.69457031 263.21898437 -188.79929688 262.68015625 -189.9375 262.125 C-191.03964844 261.59132813 -192.14179688 261.05765625 -193.27734375 260.5078125 C-196 259 -196 259 -197 257 C-197.66 257 -198.32 257 -199 257 C-199.43119141 256.12021484 -199.43119141 256.12021484 -199.87109375 255.22265625 C-200.55447935 253.87716696 -201.26811987 252.54571389 -202.03515625 251.24609375 C-205.22271388 245.63453791 -205.76517311 240.38729147 -206 234 C-215.63349679 237.39194074 -224.95015681 246.22058511 -230 255 C-231.23068728 261.51278746 -228.62039319 267.49871874 -226.08886719 273.41552734 C-225.03656782 275.91320473 -224.17313413 278.40670926 -223.3515625 280.98828125 C-218.41137549 296.18111085 -211.14721575 309.34140844 -200.48046875 321.23046875 C-198 324 -198 324 -195.80078125 326.86328125 C-195.20652344 327.56839844 -194.61226562 328.27351563 -194 329 C-193.34 329 -192.68 329 -192 329 C-191.75507813 329.5775 -191.51015625 330.155 -191.2578125 330.75 C-185.85698097 340.41111478 -172.79977551 347.58975519 -164 354 C-163.38809814 354.44980225 -162.77619629 354.89960449 -162.14575195 355.36303711 C-158.72711029 357.84944882 -155.30011457 360.06873532 -151.5625 362.0625 C-150.62277344 362.56394531 -149.68304688 363.06539063 -148.71484375 363.58203125 C-143.53956322 366.28509144 -138.4344631 368.85694536 -133 371 C-131.68128906 371.55107422 -131.68128906 371.55107422 -130.3359375 372.11328125 C-123.89838878 374.72057341 -117.4557653 376.8340918 -110.75 378.625 C-110.03763184 378.81876221 -109.32526367 379.01252441 -108.59130859 379.2121582 C-93.87784372 383.01525572 -79.8420149 384.48589939 -64.6875 384.3125 C-62.96012416 384.30249156 -61.23274785 384.2925638 -59.50537109 384.28271484 C-35.29502562 385.10006887 -35.29502562 385.10006887 -13 378 C-10.37033654 377.43203813 -7.77617694 376.93469748 -5.125 376.5 C-0.53053993 375.73844104 3.71251485 374.87238276 8 373 C9.85664791 372.33144565 11.71331692 371.6629494 13.5703125 370.99536133 C20.24411297 368.57436408 26.41379006 365.87958924 32.58203125 362.32421875 C35.94850229 360.48054559 39.37035417 359.2327099 43 358 C43 357.34 43 356.68 43 356 C44.65 355.67 46.3 355.34 48 355 C48 354.34 48 353.68 48 353 C48.54599854 352.84869629 49.09199707 352.69739258 49.65454102 352.54150391 C55.78711389 350.69132232 60.67996486 347.99489554 65.9375 344.375 C66.72237793 343.84302002 67.50725586 343.31104004 68.31591797 342.76293945 C74.3571501 338.59982677 79.71314005 334.08958905 85 329 C86.36854985 327.80507215 87.74333045 326.61723323 89.125 325.4375 C93.25276181 321.83202642 97.41213432 318.15085524 101 314 C101 313.34 101 312.68 101 312 C101.99 311.67 102.98 311.34 104 311 C105.47574036 309.51462188 105.47574036 309.51462188 106.85546875 307.640625 C107.39155762 306.94372559 107.92764648 306.24682617 108.47998047 305.52880859 C109.32520264 304.40079834 109.32520264 304.40079834 110.1875 303.25 C111.05979248 302.09298584 111.05979248 302.09298584 111.94970703 300.91259766 C131.71403893 274.39357606 140.22247534 245.56643412 140.25 212.5625 C140.25067474 211.83545868 140.25134949 211.10841736 140.25204468 210.35934448 C140.21396306 184.36739675 136.90264993 160.29335793 125 137 C124.67 136.34 124.34 135.68 124 135 C123.34 135 122.68 135 122 135 C121.5978125 133.4221875 121.5978125 133.4221875 121.1875 131.8125 C120.11874951 128.38124842 118.89711011 126.00375768 117 123 C116.5359375 121.7315625 116.5359375 121.7315625 116.0625 120.4375 C114.8191063 117.58500857 113.19498365 116.19095616 111 114 C109.92353168 112.54596443 108.88320455 111.06467411 107.875 109.5625 C99.07444918 96.75271162 99.07444918 96.75271162 88.375 85.5625 C87 84 87 84 86.2734375 81.78125 C84.31590166 77.50589565 80.99187783 74.72021459 77.625 71.5 C73.47839445 67.48843716 69.5519477 63.56102375 66 59 C62.52967066 55.36670709 62.52967066 55.36670709 58 54 C58 53.34 58 52.68 58 52 C56.09625645 50.55036041 54.12532841 49.18815677 52.125 47.875 C51.03445313 47.15054688 49.94390625 46.42609375 48.8203125 45.6796875 C46.26071182 43.82943565 46.26071182 43.82943565 44 44 C44 43.34 44 42.68 44 42 C21.58877724 28.56874324 -0.4707896 19.54588931 -26 14 C-26.97066406 13.78214844 -27.94132813 13.56429687 -28.94140625 13.33984375 C-62.25395488 6.79370974 -99.11634776 11.30445409 -130 25 Z " transform="translate(319,48)" style="fill: #D0611A;"/><path d="M0 0 C0.99 5.94 0.99 5.94 2 12 C2.66 12 3.32 12 4 12 C5.19140625 13.72265625 5.19140625 13.72265625 6.5625 16.0625 C12.37570403 24.99292939 19.97724205 28.98380555 30 32 C30.45420296 37.77216257 28.8358674 42.49040726 27 47.875 C26.68603271 48.80175537 26.37206543 49.72851074 26.04858398 50.68334961 C19.45737419 69.56623103 8.09688104 92.60207931 -9 104 C-9.350625 103.278125 -9.70125 102.55625 -10.0625 101.8125 C-12.53495485 98.22345264 -14.99150126 95.70036829 -19 94 C-21.18283909 93.82330692 -23.3728415 93.7249514 -25.5625 93.6875 C-31.48240718 93.43831164 -31.48240718 93.43831164 -33.78515625 91.48828125 C-34.70324938 90.12586317 -35.58071861 88.73543594 -36.421875 87.32421875 C-41.19133859 80.29988499 -49.65125962 75.10620339 -57 71 C-57.65613281 70.61972656 -58.31226563 70.23945313 -58.98828125 69.84765625 C-63.43711447 67.42023463 -67.81454284 65.5564447 -73 66 C-76.02478484 67.42959187 -78.44632222 69.4203035 -81 71.5625 C-82.33333333 72.62630208 -83.66666667 73.69010417 -85 74.75390625 C-85.65983887 75.29329834 -86.31967773 75.83269043 -86.99951172 76.38842773 C-88.97031578 77.97608671 -90.97627864 79.49889233 -93.0078125 81.0078125 C-105.47482113 90.28809796 -118.58633081 100.09757526 -128.33203125 112.2734375 C-132.01236285 116.08305476 -136.16535423 117.47285332 -141.1875 118.8125 C-146.67176084 120.41492276 -151.05993953 122.53711663 -155.78125 125.73046875 C-158.3693127 127.21131449 -160.00648848 127.87119906 -163 128 C-165.4102807 126.98232593 -167.41470967 125.97206749 -169.625 124.625 C-170.54587402 124.07851807 -170.54587402 124.07851807 -171.48535156 123.52099609 C-177.45359832 119.88646699 -182.81426021 115.68288017 -188 111 C-188.83015625 110.25234375 -189.6603125 109.5046875 -190.515625 108.734375 C-201.03616461 98.74317072 -210.15295131 86.33047279 -216 73 C-216 72.01 -216 71.02 -216 70 C-214.05859375 68.60546875 -214.05859375 68.60546875 -211.4375 67.1875 C-202.30125949 61.89877486 -195.86934492 56.17410106 -192 46 C-190.41966099 37.41799856 -191.25694399 29.41102501 -196 22 C-196 21.34 -196 20.68 -196 20 C-191.01404408 21.30600755 -186.31262495 23.01006793 -181.52709961 24.91918945 C-173.97324618 27.92673592 -166.82109779 30.66738985 -158.69921875 31.640625 C-154.69991669 32.17309358 -150.87194502 33.25665905 -146.984375 34.31640625 C-114.93041366 41.65860944 -76.91292782 34.91179513 -46.6875 23.8125 C-45.89843262 23.5235083 -45.10936523 23.2345166 -44.29638672 22.93676758 C-36.37824959 19.93292792 -29.05676102 15.99499398 -21.67407227 11.87792969 C-20 11 -20 11 -17.44140625 10.02734375 C-14.07367994 8.61020452 -11.25401363 6.50701441 -8.3125 4.375 C-2.26667945 0 -2.26667945 0 0 0 Z " transform="translate(370,241)" style="fill: #0C0605;"/><path d="M0 0 C10.75166248 2.26241546 19.25924182 9.12346093 27.3125 16.1875 C28.64581462 17.29168926 29.97914521 18.39585924 31.3125 19.5 C33.66008923 21.53232545 35.68609902 23.50872191 37.3125 26.1875 C37.3125 26.8475 37.3125 27.5075 37.3125 28.1875 C38.14652344 28.10628906 38.98054687 28.02507812 39.83984375 27.94140625 C47.47720357 27.51273428 51.79961357 28.22323928 57.703125 33.16796875 C59.57101704 35.51190123 59.96646524 37.24111578 60.3125 40.1875 C41.63259351 55.08823466 19.87493307 67.35488047 -3.6875 72.1875 C-4.32800293 72.32430176 -4.96850586 72.46110352 -5.62841797 72.60205078 C-25.19733675 76.66421576 -46.27924596 77.26883805 -65.6875 72.1875 C-66.58968262 71.96223633 -67.49186523 71.73697266 -68.42138672 71.50488281 C-71.43173663 70.75044622 -74.43555267 69.97468054 -77.4375 69.1875 C-78.86896362 68.81407471 -78.86896362 68.81407471 -80.3293457 68.43310547 C-81.67452271 68.06403076 -81.67452271 68.06403076 -83.046875 67.6875 C-83.84577148 67.4709375 -84.64466797 67.254375 -85.46777344 67.03125 C-87.92152501 66.09854373 -89.66818498 64.84815884 -91.6875 63.1875 C-84.8254969 58.02769922 -77.72969075 55.0760388 -69.6875 52.1875 C-63.29138842 49.76918219 -58.93509812 46.71046492 -54.5 41.5 C-42.72731336 27.80730438 -26.9889711 17.21259445 -12.52514648 6.54711914 C-11.2717052 5.61973579 -10.02669767 4.68087072 -8.78930664 3.73217773 C-5.60138761 1.3386005 -4.07651066 0.2072802 0 0 Z " transform="translate(300.6875,305.8125)" style="fill: #F1063E;"/><path d="M0 0 C7.35987864 4.30387367 13.43642026 10.74993428 16 19 C17.02230158 30.73269372 16.33124409 40.52613139 9.125 50.25 C3.74577025 55.96615774 -5.3768644 60.19369731 -13.25 60.5625 C-25.13880019 58.77917997 -34.13008967 53.94757062 -41.94140625 44.67578125 C-43.12189759 42.80703297 -43.58133033 41.15920651 -44 39 C-44.66 39 -45.32 39 -46 39 C-47.30492469 34.84055256 -48.12019705 31.34963091 -48 27 C-49.04800781 27.721875 -50.09601563 28.44375 -51.17578125 29.1875 C-52.55444039 30.12536336 -53.93336026 31.06284352 -55.3125 32 C-56.34793945 32.71542969 -56.34793945 32.71542969 -57.40429688 33.4453125 C-58.07138672 33.89648438 -58.73847656 34.34765625 -59.42578125 34.8125 C-60.34484253 35.44091797 -60.34484253 35.44091797 -61.2824707 36.08203125 C-63 37 -63 37 -66 37 C-65.70060583 27.17987137 -64.92970728 19.78464351 -58 12.5 C-53.28998703 8.68664158 -47.7390097 9.49112229 -42 10 C-41.61328125 9.1028125 -41.61328125 9.1028125 -41.21875 8.1875 C-37.92818569 2.28135893 -30.77140064 -1.07076704 -24.6328125 -3.3046875 C-15.8919514 -5.61310482 -8.00142741 -3.91559214 0 0 Z " transform="translate(418,214)" style="fill: #E91C66;"/><path d="M0 0 C3.36710014 2.54330476 5.23271659 5.74718931 7.01171875 9.51953125 C7.37136719 10.27234375 7.73101562 11.02515625 8.1015625 11.80078125 C10.51596795 19.01291083 10.36576065 27.20458412 7.50390625 34.2109375 C1.08634555 45.07045689 -5.83270872 51.13995503 -17.98828125 54.51953125 C-23.94559081 55.91418822 -29.90804611 56.10936351 -35.92578125 54.95703125 C-40.31481521 51.89800758 -41.1108389 46.4818668 -42.17578125 41.51953125 C-43.35407973 34.5373824 -43.15972964 27.57749011 -42.98828125 20.51953125 C-43.64828125 20.51953125 -44.30828125 20.51953125 -44.98828125 20.51953125 C-46.98828125 17.51953125 -46.98828125 17.51953125 -46.98828125 13.51953125 C-46.32828125 13.51953125 -45.66828125 13.51953125 -44.98828125 13.51953125 C-44.92640625 12.32328125 -44.86453125 11.12703125 -44.80078125 9.89453125 C-44.21219916 5.39267365 -42.48336071 2.41915273 -38.98828125 -0.48046875 C-25.76451647 -8.90819305 -13.09558433 -7.56481398 0 0 Z " transform="translate(169.98828125,256.48046875)" style="fill: #E5185B;"/><path d="M0 0 C0 0.66 0 1.32 0 2 C0.83313721 2.25414673 0.83313721 2.25414673 1.68310547 2.51342773 C7.12896553 4.24138566 12.10167731 6.35082658 17.125 9.0625 C18.21470093 9.64632446 18.21470093 9.64632446 19.32641602 10.24194336 C33.63974248 18.05387618 47.67450291 27.23966953 58 40 C58.75539063 40.91523438 59.51078125 41.83046875 60.2890625 42.7734375 C62.53817656 45.50607445 64.7745781 48.24804575 67 51 C67.73347656 51.86625 68.46695313 52.7325 69.22265625 53.625 C71.32198728 56.43025993 71.67904427 58.54972595 72 62 C68.98640263 63.19587197 66.25830702 63.98418298 63 64 C60.99569478 62.62145204 59.69304598 60.98522507 58.11328125 59.13671875 C49.16851222 50.09274711 34.41345649 45.39064374 22.625 41.578125 C17.89051428 40.01438165 13.3608869 38.09822303 8.8125 36.0625 C8.04486328 35.72798828 7.27722656 35.39347656 6.48632812 35.04882812 C2.00989287 33.05802273 -2.09789531 30.98103373 -6 28 C-6 27.34 -6 26.68 -6 26 C-6.77085937 25.82984375 -7.54171875 25.6596875 -8.3359375 25.484375 C-9.33882813 25.24203125 -10.34171875 24.9996875 -11.375 24.75 C-12.37273437 24.51796875 -13.37046875 24.2859375 -14.3984375 24.046875 C-17.52142575 22.79017703 -17.65100468 21.93259851 -19 19 C-20.86187174 18.4247687 -20.86187174 18.4247687 -23 18 C-24.70398291 16.91043401 -26.36892587 15.75845527 -28 14.5625 C-31.48817104 12.01359866 -31.48817104 12.01359866 -35.234375 9.88671875 C-37.67526829 8.6608719 -38.14266154 7.57201539 -39 5 C-39.34095977 1.72678622 -39.35443769 -0.29112461 -37.875 -3.25 C-28.00771049 -12.45947021 -10.24805426 -4.88002584 0 0 Z " transform="translate(354,98)" style="fill: #FBF7E8;"/><path d="M0 0 C1.40378906 -0.01836914 1.40378906 -0.01836914 2.8359375 -0.03710938 C3.733125 -0.03904297 4.6303125 -0.04097656 5.5546875 -0.04296875 C6.36147949 -0.04707764 7.16827148 -0.05118652 7.99951172 -0.05541992 C10.125 0.1875 10.125 0.1875 13.125 2.1875 C12.43921875 2.42082031 11.7534375 2.65414063 11.046875 2.89453125 C7.49192305 4.46764501 4.49335807 6.589139 1.375 8.875 C0.75157715 9.32705811 0.1281543 9.77911621 -0.51416016 10.24487305 C-5.38360803 13.7912797 -10.17707884 17.4161334 -14.875 21.1875 C-15.46039551 21.65559082 -16.04579102 22.12368164 -16.64892578 22.60595703 C-32.44290153 34.96997173 -32.44290153 34.96997173 -46.20703125 49.4609375 C-49.88736285 53.27055476 -54.04035423 54.66035332 -59.0625 56 C-64.54676084 57.60242276 -68.93493953 59.72461663 -73.65625 62.91796875 C-76.21334537 64.3810955 -77.92393781 65.02677649 -80.875 65.1875 C-83.76953125 63.97265625 -83.76953125 63.97265625 -86.6875 62.25 C-87.66332031 61.68410156 -88.63914063 61.11820312 -89.64453125 60.53515625 C-90.74861328 59.86806641 -90.74861328 59.86806641 -91.875 59.1875 C-83.97743205 42.04618774 -72.7760275 27.56670095 -56.875 17.1875 C-56.06289062 16.65511719 -55.25078125 16.12273437 -54.4140625 15.57421875 C-37.34482826 4.88523226 -19.97426877 0.01410612 0 0 Z " transform="translate(287.875,303.8125)" style="fill: #7A0D18;"/><path d="M0 0 C0.72960937 0.38414062 1.45921875 0.76828125 2.2109375 1.1640625 C8.9518944 5.08074497 16.85187917 10.30223802 21 17 C21.3125 20.625 21.3125 20.625 21 24 C20.34 24.66 19.68 25.32 19 26 C14.32465563 25.90052459 10.90870588 24.60406395 6.6875 22.625 C-5.96426935 16.74243878 -19.02461457 14.62055027 -32.83203125 17.9140625 C-36.02858279 19.08954409 -38.98497506 20.41930731 -42 22 C-42.87785156 22.44601563 -43.75570313 22.89203125 -44.66015625 23.3515625 C-52.09146596 27.4634773 -58.34209329 33.09375834 -64.12890625 39.2734375 C-66 41 -66 41 -68.5625 41 C-71.66208371 39.72837591 -72.55287366 39.04658176 -74 36 C-75.34682713 30.16786785 -73.79847762 26.00547223 -70.9375 20.875 C-63.16236912 8.60584347 -50.91550655 -0.69836764 -36.80078125 -4.609375 C-24.01953429 -6.39197569 -11.52737171 -6.15473239 0 0 Z " transform="translate(371,174)" style="fill: #070502;"/><path d="M0 0 C1.05574219 0.48726562 2.11148438 0.97453125 3.19921875 1.4765625 C11.08738818 5.41614997 19.64295054 10.35305442 23 19 C22.44444444 25.55555556 22.44444444 25.55555556 21 27 C15.45570467 27.4863417 12.05484925 26.96722244 7.25 24.16796875 C0.29221928 20.5562041 -5.42629014 19.47263187 -13.1875 19.5625 C-14.57678711 19.57494751 -14.57678711 19.57494751 -15.99414062 19.58764648 C-32.50993478 19.99247361 -46.45188979 27.15561357 -58.46484375 38.27734375 C-61.53807835 40.36562797 -63.35893365 40.34449682 -67 40 C-69.41805568 35.76840256 -70.84256462 32.86815112 -70 28 C-63.37951056 13.84342151 -50.75931548 5.25343217 -36.875 -1.0625 C-25.83602134 -4.97693538 -10.70350787 -5.0056206 0 0 Z " transform="translate(191,190)" style="fill: #070401;"/><path d="M0 0 C12.32303389 2.84377705 27.88076254 9.30160448 35.9375 19.4375 C38.54662899 21.41411287 39.56073853 21.09223801 42.75 20.75 C44.17020201 20.52093516 45.58845901 20.27748242 47 20 C46.505 18.02 46.505 18.02 46 16 C48.25365722 18.09823258 49.98067998 19.96754236 51.5625 22.625 C52.92617739 25.25743604 52.92617739 25.25743604 56 27 C56.76025252 28.91715852 57.51138006 30.83929086 58.18359375 32.7890625 C58.98554499 34.96085389 59.93304693 36.94723097 61 39 C66 48.75 66 48.75 66 54 C66.66 54 67.32 54 68 54 C68.495 56.475 68.495 56.475 69 59 C60.15568693 59.91703707 53.07905166 57.25955975 45 54 C45 53.34 45 52.68 45 52 C42.34771188 50.92474806 39.71631546 49.90543849 37 49 C35.63360658 47.3603279 34.3050581 45.68889872 33 44 C32.21753906 43.22011719 31.43507813 42.44023437 30.62890625 41.63671875 C23.69936439 34.6865839 17.95079301 26.72308533 12.36254883 18.68383789 C10.05467371 15.37908222 10.05467371 15.37908222 7.375 12.37890625 C5.59387431 10.59272055 4.56610178 8.65528767 3.375 6.4375 C2.94960938 5.65246094 2.52421875 4.86742187 2.0859375 4.05859375 C1.37623492 2.71322231 0.68025026 1.36050051 0 0 Z " transform="translate(379,140)" style="fill: #F8C488;"/><path d="M0 0 C0.66 0.33 1.32 0.66 2 1 C1.38125 1.495 0.7625 1.99 0.125 2.5 C-2.74988222 5.88221437 -3.13451417 8.67257085 -4 13 C-4.66 13 -5.32 13 -6 13 C-5.34 15.31 -4.68 17.62 -4 20 C-3.34 20 -2.68 20 -2 20 C-1.96261719 20.92039062 -1.92523438 21.84078125 -1.88671875 22.7890625 C-1.34531031 33.21382885 0.43544837 42.86508921 3 53 C11.66965222 55.31190726 20.39190899 53.83290151 29 52 C27.68 52.66 26.36 53.32 25 54 C25.28875 54.62648438 25.5775 55.25296875 25.875 55.8984375 C26.24625 56.71570313 26.6175 57.53296875 27 58.375 C27.37125 59.18710937 27.7425 59.99921875 28.125 60.8359375 C29 63 29 63 29 65 C27.35546875 66.25390625 27.35546875 66.25390625 25.1875 67.5625 C24.12595703 68.21412109 24.12595703 68.21412109 23.04296875 68.87890625 C16.00094359 72.74326805 6.66528822 71.39368877 -1 70 C-0.46968862 65.4923533 1.25221116 62.58045212 4 59 C4.66 59 5.32 59 6 59 C6 58.01 6 57.02 6 56 C5.01 55.9071875 5.01 55.9071875 4 55.8125 C-1.26896538 54.38548854 -5.79427634 51.96488301 -8.6875 47.25 C-9.120625 46.1775 -9.55375 45.105 -10 44 C-10.4228125 43.39929688 -10.845625 42.79859375 -11.28125 42.1796875 C-16.20247564 34.98923004 -16.02739286 27.33900538 -15 19 C-12.66804296 11.00138735 -5.92267089 5.50865894 0 0 Z " transform="translate(129,257)" style="fill: #B20D37;"/><path d="M0 0 C1.175625 0.433125 2.35125 0.86625 3.5625 1.3125 C4.29855469 1.58320313 5.03460938 1.85390625 5.79296875 2.1328125 C8 3 8 3 11.375 4.6875 C19.50331558 7.63051082 27.7519295 5.75624315 36 4 C34.02 4.99 34.02 4.99 32 6 C32.28875 6.62648438 32.5775 7.25296875 32.875 7.8984375 C33.24625 8.71570313 33.6175 9.53296875 34 10.375 C34.37125 11.18710937 34.7425 11.99921875 35.125 12.8359375 C36 15 36 15 36 17 C34.35546875 18.25390625 34.35546875 18.25390625 32.1875 19.5625 C31.12595703 20.21412109 31.12595703 20.21412109 30.04296875 20.87890625 C23.00094359 24.74326805 13.66528822 23.39368877 6 22 C6.53031138 17.4923533 8.25221116 14.58045212 11 11 C11.66 11 12.32 11 13 11 C13 10.01 13 9.02 13 8 C12.34 7.938125 11.68 7.87625 11 7.8125 C6.8783325 6.69621505 3.34249498 4.66238434 0 2 C0 1.34 0 0.68 0 0 Z " transform="translate(122,305)" style="fill: #C2520C;"/><path d="M0 0 C-0.31582031 0.70769531 -0.63164062 1.41539062 -0.95703125 2.14453125 C-2.09992608 4.93211066 -2.09992608 4.93211066 -2.32421875 7.76171875 C-2.99098588 13.13170348 -4.1366763 16.61588319 -8.42578125 20.00390625 C-18.37732054 27 -18.37732054 27 -23 27 C-22.70002357 17.16077307 -21.94970479 9.74762653 -14.9375 2.5 C-10.44377984 -1.13029794 -5.49364713 -0.53645017 0 0 Z " transform="translate(375,224)" style="fill: #94360D;"/><path d="M0 0 C31.64919941 -2.12252455 64.05966791 10.21699143 91.00244141 25.84179688 C92.68167508 26.81543224 94.3762913 27.76246888 96.07421875 28.703125 C96.70972656 29.13109375 97.34523438 29.5590625 98 30 C98 30.66 98 31.32 98 32 C98.72574219 32.268125 99.45148438 32.53625 100.19921875 32.8125 C102.96864024 33.98670381 105.30919434 35.3394324 107.8125 37 C108.60269531 37.515625 109.39289063 38.03125 110.20703125 38.5625 C110.79871094 39.036875 111.39039063 39.51125 112 40 C112 40.66 112 41.32 112 42 C112.59167969 42.27585938 113.18335938 42.55171875 113.79296875 42.8359375 C119.5862014 45.89148322 123.83966065 50.836792 128.0234375 55.765625 C131.80713829 60.04285198 135.92686142 64.00062047 140 68 C139.67 68.66 139.34 69.32 139 70 C138.154375 69.33613281 137.30875 68.67226562 136.4375 67.98828125 C130.46133366 63.32614883 124.54518229 58.85010723 118 55 C120.49092811 53.75453595 121.41080733 54.2232422 124 55 C122.35823109 53.30350546 120.69037926 51.64773207 119 50 C118.37609375 49.37996094 117.7521875 48.75992188 117.109375 48.12109375 C111.54504822 42.83887445 105.5725559 38.45521983 99.25 34.125 C98.4338623 33.56554687 97.61772461 33.00609375 96.77685547 32.4296875 C92.6300625 29.63291451 88.53852738 27.12802321 84 25 C82.97003906 24.46761719 81.94007813 23.93523437 80.87890625 23.38671875 C55.28909033 10.27532897 28.47576862 3.99559447 0 1 C0 0.67 0 0.34 0 0 Z " transform="translate(265,60)" style="fill: #F3AB51;"/><path d="M0 0 C1.6875 1.3125 1.6875 1.3125 3.6875 3.3125 C3.61295452 7.3379561 3.41056927 9.54601944 0.60546875 12.51953125 C-3.13711513 14.81919122 -5.57594978 14.74973862 -9.9375 14.625 C-11.90589844 14.58826172 -11.90589844 14.58826172 -13.9140625 14.55078125 C-17.3125 14.3125 -17.3125 14.3125 -20.3125 13.3125 C-19.6525 9.6825 -18.9925 6.0525 -18.3125 2.3125 C-16.971875 2.374375 -15.63125 2.43625 -14.25 2.5 C-10.86565657 2.52660647 -8.53443623 2.18492831 -5.5 0.6875 C-2.3125 -0.6875 -2.3125 -0.6875 0 0 Z " transform="translate(418.3125,270.6875)" style="fill: #B44A0B;"/><path d="M0 0 C0.99 0.66 1.98 1.32 3 2 C3.7067076 6.50526093 3.18328892 9.20408246 0.625 12.875 C-0.89477222 14.85692517 -1.75134558 15.87567279 -4 17 C-8.05142119 17.25860135 -9.54337669 17.30441554 -13 15 C-13.56113569 9.38864313 -13.09204188 5.87591219 -10 1 C-6.87293041 -0.5635348 -3.42017557 -0.39958487 0 0 Z " transform="translate(158,259)" style="fill: #F9F5F8;"/><path d="M0 0 C0.66 0.33 1.32 0.66 2 1 C1.38125 1.495 0.7625 1.99 0.125 2.5 C-2.74988222 5.88221437 -3.13451417 8.67257085 -4 13 C-4.66 13 -5.32 13 -6 13 C-5.34 15.31 -4.68 17.62 -4 20 C-3.34 20 -2.68 20 -2 20 C-1.8045616 22.89549503 -1.61838605 25.79108998 -1.4375 28.6875 C-1.35338867 29.91243164 -1.35338867 29.91243164 -1.26757812 31.16210938 C-1.01658429 35.29514123 -0.88872257 38.95824282 -2 43 C-2.99 42.34 -3.98 41.68 -5 41 C-5 39.68 -5 38.36 -5 37 C-5.99 36.67 -6.98 36.34 -8 36 C-10.7491995 31.87620075 -10.33087475 28.59358327 -10.3125 23.75 C-10.32861328 22.91597656 -10.34472656 22.08195312 -10.36132812 21.22265625 C-10.36643837 14.71220813 -9.42920765 9.94938059 -5.17578125 4.78515625 C-4.56089844 4.21667969 -3.94601563 3.64820313 -3.3125 3.0625 C-2.37857422 2.18271484 -2.37857422 2.18271484 -1.42578125 1.28515625 C-0.95527344 0.86105469 -0.48476562 0.43695313 0 0 Z " transform="translate(129,257)" style="fill: #BF0E3A;"/><path d="M0 0 C4.17196858 0.09102477 6.24612938 1.34449694 9.1875 4.375 C10.29397808 6.58795616 10.38338368 7.92172699 10.4375 10.375 C10.46328125 11.07625 10.4890625 11.7775 10.515625 12.5 C10.40734375 13.11875 10.2990625 13.7375 10.1875 14.375 C6.67496854 16.71668764 5.32280644 16.87123677 1.1875 16.375 C-1.98746188 14.28241149 -3.69710857 12.54808714 -5.8125 9.375 C-6.0625 5.8125 -6.0625 5.8125 -5.8125 2.375 C-3.8125 0.375 -3.8125 0.375 0 0 Z " transform="translate(400.8125,217.625)" style="fill: #F8F1F7;"/><path d="M0 0 C0.33 0 0.66 0 1 0 C1.05031527 4.42503487 1.08614055 8.84990794 1.10986328 13.27514648 C1.1197769 14.77322294 1.13331185 16.27128085 1.15087891 17.76928711 C1.53685541 51.58763987 -7.91537994 81.481594 -29 108 C-30.35503983 109.74932399 -31.70928642 111.49926291 -33.0625 113.25 C-34.04056672 114.50086084 -35.01927066 115.75122567 -36 117 C-36.33 116.01 -36.66 115.02 -37 114 C-35.6875 111.8125 -35.6875 111.8125 -34 110 C-33.34 110 -32.68 110 -32 110 C-32 109.01 -32 108.02 -32 107 C-31.34 107 -30.68 107 -30 107 C-29.71858154 106.41460449 -29.43716309 105.82920898 -29.1472168 105.22607422 C-28.08697073 103.16875912 -26.93672161 101.30019006 -25.64453125 99.3828125 C-7.99434771 72.88562316 -1.32445715 46.6543637 -0.4375 14.9375 C-0.39421245 13.4850161 -0.35059526 12.03254199 -0.30664062 10.58007812 C-0.20062746 7.05349009 -0.09907252 3.52679065 0 0 Z " transform="translate(458,243)" style="fill: #F58C0F;"/><path d="M0 0 C-0.66 1.65 -1.32 3.3 -2 5 C-1.26394531 5.19335938 -0.52789062 5.38671875 0.23046875 5.5859375 C1.20628906 5.84632813 2.18210938 6.10671875 3.1875 6.375 C4.15042969 6.63023437 5.11335937 6.88546875 6.10546875 7.1484375 C9 8 9 8 11.59375 9.0625 C15.05451885 10.4108515 18.31367547 10.62511954 22 11 C22 11.66 22 12.32 22 13 C28.34965542 13.0510999 34.69925696 13.08589991 41.04907227 13.10986328 C43.2050169 13.11986317 45.36094818 13.13346747 47.5168457 13.15087891 C50.63235796 13.17539347 53.74768946 13.18654353 56.86328125 13.1953125 C57.81270096 13.20563507 58.76212067 13.21595764 59.74031067 13.22659302 C65.50930903 13.22754015 70.85192201 12.63410258 76.49699402 11.43063354 C79.04793769 10.99175249 81.41701371 10.9268579 84 11 C68.28215367 20.43891555 39.10332244 17.90764017 22.05859375 14.0546875 C20.70500208 13.7059349 19.35222112 13.3540294 18 13 C16.64672607 12.66210449 16.64672607 12.66210449 15.26611328 12.31738281 C12.25576337 11.56294622 9.25194733 10.78718054 6.25 10 C5.29569092 9.7510498 4.34138184 9.50209961 3.3581543 9.24560547 C2.46136963 8.99955566 1.56458496 8.75350586 0.640625 8.5 C-0.55771973 8.17515625 -0.55771973 8.17515625 -1.78027344 7.84375 C-4.23402501 6.91104373 -5.98068498 5.66065884 -8 4 C-2.25 0 -2.25 0 0 0 Z " transform="translate(217,365)" style="fill: #EF2629;"/><path d="M0 0 C-7.14051257 2.75249288 -14.20727308 5.00758209 -21.6875 6.625 C-23.14724243 6.94355957 -23.14724243 6.94355957 -24.63647461 7.26855469 C-34.89936028 9.3819113 -45.20033196 10.15707692 -55.64111328 10.80664062 C-58.19086818 10.97855218 -58.19086818 10.97855218 -61.43359375 11.609375 C-64.11411765 12.01736951 -65.42364298 11.66615897 -68 11 C-71.60066764 10.77673025 -75.19573526 10.60789461 -78.80078125 10.48242188 C-82.73499471 10.29983579 -85.57031846 9.9112732 -89 8 C-87.7310791 8.01571045 -86.4621582 8.0314209 -85.15478516 8.04760742 C-80.35748883 8.10272207 -75.5602192 8.13664044 -70.76269531 8.16479492 C-68.70307682 8.17969879 -66.643489 8.20002892 -64.58398438 8.22631836 C-51.45760607 8.38943856 -38.83280398 7.99262631 -26 5 C-25.67 4.67 -25.34 4.34 -25 4 C-22.98435288 3.67441823 -20.96200606 3.38997553 -18.9375 3.125 C-14.87694493 2.54174044 -11.22945885 1.88530111 -7.4375 0.3125 C-3.94070449 -1.0226401 -3.31952274 -1.08229516 0 0 Z " transform="translate(323,386)" style="fill: #E67312;"/><path d="M0 0 C1.95754508 1.4350559 3.81903357 2.89628374 5.63671875 4.50390625 C6.20390625 4.99761719 6.77109375 5.49132812 7.35546875 6 C8.63671875 7.50390625 8.63671875 7.50390625 8.63671875 10.50390625 C5.63671875 9.50390625 5.63671875 9.50390625 4.32421875 7.19140625 C1.36267109 2.47486739 -3.2242586 0.29139239 -8.36328125 -1.49609375 C-19.81764945 -3.46944993 -27.69548528 -1.56216181 -37.36328125 4.50390625 C-38.71715414 5.47591756 -40.06183323 6.46274784 -41.36328125 7.50390625 C-41.15625 5.203125 -41.15625 5.203125 -40.36328125 2.50390625 C-28.36985016 -7.50191291 -13.12557843 -8.30925048 0 0 Z " transform="translate(420.36328125,215.49609375)" style="fill: #F14871;"/><path d="M0 0 C3.90689184 3.18929946 7.2491092 6.22706224 10.375 10.1875 C13.9460421 14.44183945 17.65977095 15.83750116 23 17 C23 18.32 23 19.64 23 21 C30.57482359 24.90670036 37.5356735 27.01027945 46 28 C46.495 26.515 46.495 26.515 47 25 C47.495 27.475 47.495 27.475 48 30 C39.15568693 30.91703707 32.07905166 28.25955975 24 25 C24 24.34 24 23.68 24 23 C21.34771188 21.92474806 18.71631546 20.90543849 16 20 C14.63360658 18.3603279 13.3050581 16.68889872 12 15 C11.236875 14.236875 10.47375 13.47375 9.6875 12.6875 C7.44556452 10.44556452 5.30130524 8.17348408 3.1875 5.8125 C2.58292969 5.13832031 1.97835938 4.46414062 1.35546875 3.76953125 C0 2 0 2 0 0 Z " transform="translate(400,169)" style="fill: #F7B872;"/><path d="M0 0 C20.7816021 -1.3936991 41.45214412 4.42612847 61 11 C61 11.33 61 11.66 61 12 C54.46603075 11.6838402 48.62218596 10.44236319 42.375 8.625 C28.42692481 4.59558822 14.41822233 2.51676844 0 1 C0 0.67 0 0.34 0 0 Z " transform="translate(265,60)" style="fill: #F6A947;"/><path d="M0 0 C3.25836697 3.02562647 5.81492325 6.11541911 8 10 C7.75 12.375 7.75 12.375 7 14 C6.29875 13.835 5.5975 13.67 4.875 13.5 C1.99618603 12.85384487 1.99618603 12.85384487 -0.9375 13.375 C-4.58515638 12.9283482 -5.06158379 12.21077947 -7.375 9.5 C-8.26747562 8.3466469 -9.14836635 7.18383117 -10 6 C-9.67 5.34 -9.34 4.68 -9 4 C-8.46375 4.185625 -7.9275 4.37125 -7.375 4.5625 C-4.38009386 5.11419324 -1.96254171 4.60597444 1 4 C0.67 2.68 0.34 1.36 0 0 Z " transform="translate(425,156)" style="fill: #FAD3A0;"/><path d="M0 0 C0.33 0 0.66 0 1 0 C1.01417969 1.05058594 1.02835938 2.10117187 1.04296875 3.18359375 C1.28622093 11.72897167 1.99072479 17.82159938 7 25 C7.68694285 26.32300104 8.35967096 27.65381987 9 29 C8.34 29 7.68 29 7 29 C5.52734375 26.8828125 5.52734375 26.8828125 3.9375 24.125 C3.41027344 23.22007812 2.88304688 22.31515625 2.33984375 21.3828125 C0.24930105 17.66493773 -0.11238334 15.66496753 -0.0625 11.375 C-0.05347656 10.37210937 -0.04445313 9.36921875 -0.03515625 8.3359375 C-0.02355469 7.56507813 -0.01195313 6.79421875 0 6 C-5.57702466 9.34269617 -9.84707713 13.61563409 -14.375 18.25 C-15.11105469 18.99507813 -15.84710938 19.74015625 -16.60546875 20.5078125 C-18.40830047 22.33405762 -20.20626978 24.16482205 -22 26 C-22.99 25.67 -23.98 25.34 -25 25 C-24.52949219 24.63648438 -24.05898437 24.27296875 -23.57421875 23.8984375 C-22.95160156 23.39570313 -22.32898438 22.89296875 -21.6875 22.375 C-21.07261719 21.88773437 -20.45773438 21.40046875 -19.82421875 20.8984375 C-17.8191064 19.02416713 -17.8191064 19.02416713 -16.71484375 16.1484375 C-14.47750588 12.04070556 -11.60297522 9.96878597 -7.875 7.25 C-3.30618242 4.19172266 -3.30618242 4.19172266 0 0 Z " transform="translate(113,276)" style="fill: #E57019;"/><path d="M0 0 C0.66 0.33 1.32 0.66 2 1 C1.38125 1.495 0.7625 1.99 0.125 2.5 C-2.74988222 5.88221437 -3.13451417 8.67257085 -4 13 C-4.66 13 -5.32 13 -6 13 C-5.34 15.31 -4.68 17.62 -4 20 C-3.34 20 -2.68 20 -2 20 C-1.67 25.94 -1.34 31.88 -1 38 C-5 35 -5 35 -5.6875 31.375 C-5.790625 30.26125 -5.89375 29.1475 -6 28 C-6.33 27.67 -6.66 27.34 -7 27 C-7.10002455 24.34346557 -7.13877463 21.71870728 -7.125 19.0625 C-7.12886719 18.32064453 -7.13273437 17.57878906 -7.13671875 16.81445312 C-7.12663501 11.25327002 -7.12663501 11.25327002 -6 9 C-6.66 8.67 -7.32 8.34 -8 8 C-5.36 5.36 -2.72 2.72 0 0 Z " transform="translate(129,257)" style="fill: #D51251;"/><path d="M0 0 C4.51838347 0.52539343 7.14980555 1.67840579 11 4 C14.11911669 5.55681811 17.27843778 7.02625735 20.4375 8.5 C22.10314563 9.28065062 23.76851656 10.06188767 25.43359375 10.84375 C26.21959961 11.21201904 27.00560547 11.58028809 27.81542969 11.9597168 C29.69750116 12.85595133 31.55988734 13.79331413 33.41796875 14.73828125 C35.97550136 15.98802865 38.1946381 16.58744678 41 17 C41 17.66 41 18.32 41 19 C42.65 19.33 44.3 19.66 46 20 C45.34 20.66 44.68 21.32 44 22 C41.6441678 21.06704875 39.29131371 20.1274944 36.94140625 19.1796875 C35.10071301 18.44145462 33.2550147 17.71544922 31.40234375 17.0078125 C24.30760071 14.21074834 17.57687104 10.8257868 10.8125 7.3125 C9.86656982 6.82450928 8.92063965 6.33651855 7.94604492 5.83374023 C7.06279541 5.36911377 6.1795459 4.9044873 5.26953125 4.42578125 C4.47135986 4.00723877 3.67318848 3.58869629 2.85083008 3.1574707 C1 2 1 2 0 0 Z " transform="translate(160,366)" style="fill: #EB7A13;"/><path d="M0 0 C0.33 0 0.66 0 1 0 C1.77987572 4.55278797 2.36908492 8.47861448 0.9375 12.9375 C-0.55539048 17.83141251 0.71290207 22.16843239 2 27 C2.66 27 3.32 27 4 27 C5.4375 28.86328125 5.4375 28.86328125 7 31.3125 C7.7734375 32.51326172 7.7734375 32.51326172 8.5625 33.73828125 C9.036875 34.48464844 9.51125 35.23101562 10 36 C10.66 36.99 11.32 37.98 12 39 C8.91140053 37.64664405 6.992036 36.19113751 4.8125 33.625 C4.04873047 32.74714844 4.04873047 32.74714844 3.26953125 31.8515625 C1.92440727 29.88975091 1.42485598 28.323911 1 26 C0.34 26 -0.32 26 -1 26 C-4.20469019 16.98680885 -3.94092717 8.70288083 0 0 Z " transform="translate(373,227)" style="fill: #C41D54;"/><path d="M0 0 C4.14963639 4.14963639 3.30948536 9.88205192 3.31469727 15.38061523 C3.14351357 24.95170865 0.17382492 31.31630327 -6.21875 38.40625 C-8.09194999 40.08227104 -9.63828167 41.13778537 -12 42 C-12.99 41.67 -13.98 41.34 -15 41 C-14.67 40.34 -14.34 39.68 -14 39 C-14.99 38.67 -15.98 38.34 -17 38 C-14.43356741 36.56279775 -12.34769729 35.85122921 -9.4375 35.1875 C-5.42121336 33.80005552 -4.84088871 32.68177743 -3 29 C-2.34 29 -1.68 29 -1 29 C1.44212755 19.34051334 1.83577539 9.81038368 0 0 Z " transform="translate(431,228)" style="fill: #E12B4C;"/><path d="M0 0 C1.175625 0.433125 2.35125 0.86625 3.5625 1.3125 C4.29855469 1.58320313 5.03460938 1.85390625 5.79296875 2.1328125 C8 3 8 3 11.375 4.6875 C19.50331558 7.63051082 27.7519295 5.75624315 36 4 C30.43109558 9.56890442 20.42269762 9.93243774 13 11 C13 10.01 13 9.02 13 8 C12.34 7.938125 11.68 7.87625 11 7.8125 C6.8783325 6.69621505 3.34249498 4.66238434 0 2 C0 1.34 0 0.68 0 0 Z " transform="translate(122,305)" style="fill: #C42D26;"/><path d="M0 0 C-3.47530988 1.15843663 -5.50767991 0.81113079 -9.125 0.375 C-15.19013711 -0.15181592 -19.5140148 0.42916175 -25 3 C-25.94875 3.4125 -26.8975 3.825 -27.875 4.25 C-30.91728662 6.75541251 -31.67780242 9.31176463 -33 13 C-33.33 13 -33.66 13 -34 13 C-34.22130713 9.12712525 -34.05499927 6.33937382 -32 3 C-21.746284 -3.96388206 -11.2001414 -4.35561054 0 0 Z " transform="translate(163,253)" style="fill: #F33C65;"/><path d="M0 0 C3 2 3 2 3.6875 5.125 C3.790625 6.07375 3.89375 7.0225 4 8 C1.03 8.66 -1.94 9.32 -5 10 C-6.65 8.02 -8.3 6.04 -10 4 C-8.906875 3.896875 -7.81375 3.79375 -6.6875 3.6875 C-3.14440371 3.02692273 -2.06756277 2.7972908 0 0 Z " transform="translate(422,152)" style="fill: #FBE7C2;"/><path d="M0 0 C-0.66 1.65 -1.32 3.3 -2 5 C-1.26394531 5.19335938 -0.52789062 5.38671875 0.23046875 5.5859375 C1.20628906 5.84632813 2.18210938 6.10671875 3.1875 6.375 C4.15042969 6.63023437 5.11335937 6.88546875 6.10546875 7.1484375 C9 8 9 8 11.59375 9.0625 C15.05451885 10.4108515 18.31367547 10.62511954 22 11 C22 11.66 22 12.32 22 13 C15.32750008 12.45571753 9.41530801 11.14024192 3.0625 9.0625 C1.78922852 8.66514648 1.78922852 8.66514648 0.49023438 8.25976562 C-5.7365797 6.2634203 -5.7365797 6.2634203 -8 4 C-2.25 0 -2.25 0 0 0 Z " transform="translate(217,365)" style="fill: #EB0D2E;"/><path d="M0 0 C1.875 0.125 1.875 0.125 4 1 C5.40666215 4.01427603 6.14845728 6.05977053 5.625 9.375 C5.41875 9.91125 5.2125 10.4475 5 11 C7.64 11 10.28 11 13 11 C11.8125 13 11.8125 13 10 15 C7.4375 15.25 7.4375 15.25 5 15 C2.57202689 15 0.37092995 15.50085685 -2 16 C-1.34 14.989375 -0.68 13.97875 0 12.9375 C2.14252911 9.19947049 2.50990264 6.33417246 2 2 C1.34 1.34 0.68 0.68 0 0 Z " transform="translate(158,259)" style="fill: #E83175;"/><path d="M0 0 C5.55105619 -0.1947739 9.65172159 0.33414279 15 2 C19.3241542 3.04043616 23.661475 4.02138534 28 5 C28 5.66 28 6.32 28 7 C21.66459622 6.69541328 15.64191077 5.57312284 9.5 4.0625 C8.79359375 3.89266602 8.0871875 3.72283203 7.359375 3.54785156 C2.24762427 2.24762427 2.24762427 2.24762427 0 0 Z " transform="translate(206,387)" style="fill: #F08513;"/><path d="M0 0 C0 0.66 0 1.32 0 2 C-0.66644531 2.35191406 -1.33289063 2.70382813 -2.01953125 3.06640625 C-12.94670548 8.91970377 -23.06160025 15.59906402 -33 23 C-33.66 22.67 -34.32 22.34 -35 22 C-26.96785938 14.95674102 -18.0973641 9.57360978 -8.93115234 4.14990234 C-7.30193217 3.17978515 -5.68986487 2.18094631 -4.08203125 1.17578125 C-2 0 -2 0 0 0 Z " transform="translate(156,64)" style="fill: #ED9C2E;"/><path d="M0 0 C0.97608915 3.1965057 0.9899507 5.86389638 0.8125 9.1875 C0.73754307 14.27094269 1.79251036 17.74395219 4.125 22.22265625 C5 24 5 24 5 26 C7.475 26.99 7.475 26.99 10 28 C10 28.66 10 29.32 10 30 C10.66 30 11.32 30 12 30 C12.33 30.99 12.66 31.98 13 33 C9.62823872 32.43803979 7.54904171 31.65859228 5.3359375 29.00390625 C3.80449015 26.70673522 2.36089103 24.40205466 1 22 C0.61714844 21.4121875 0.23429687 20.824375 -0.16015625 20.21875 C-1.44258475 16.83075286 -1.24815456 13.4440422 -1.1875 9.875 C-1.18685547 9.14667969 -1.18621094 8.41835938 -1.18554688 7.66796875 C-1.14074248 2.28148496 -1.14074248 2.28148496 0 0 Z " transform="translate(115,274)" style="fill: #AA162D;"/><path d="M0 0 C0.9075 0.33 1.815 0.66 2.75 1 C6.07045807 2.19605723 6.07045807 2.19605723 10 2 C12.23515016 3.94562294 14.22932551 5.85363762 16.25 8 C16.80429687 8.57234375 17.35859375 9.1446875 17.9296875 9.734375 C19.29564122 11.14743057 20.64905611 12.57258758 22 14 C21.67 14.66 21.34 15.32 21 16 C20.154375 15.33613281 19.30875 14.67226562 18.4375 13.98828125 C12.45142861 9.31930446 6.49483889 4.94784325 0 1 C0 0.67 0 0.34 0 0 Z " transform="translate(383,114)" style="fill: #F1B66E;"/><path d="M0 0 C7.64752869 1.70906582 13.93795921 6.04537714 19 12 C19 12.99 19 13.98 19 15 C16 14 16 14 14.6875 11.6875 C11.73509344 6.98551918 7.13982375 4.7552424 2 3 C-0.15816749 2.71687407 -2.32765859 2.51204023 -4.5 2.375 C-5.6034375 2.30023438 -6.706875 2.22546875 -7.84375 2.1484375 C-10.56963146 2.0202401 -13.27190913 1.96946167 -16 2 C-11.07854325 -1.28097117 -5.75001929 -0.51257315 0 0 Z " transform="translate(410,211)" style="fill: #F43A76;"/><path d="M0 0 C-16.19019994 8.71515018 -16.19019994 8.71515018 -22.2890625 7.5703125 C-22.85367187 7.38210938 -23.41828125 7.19390625 -24 7 C-21.0173094 5.47551369 -18.181798 4.06059933 -15 3 C-14.15566406 2.66742188 -13.31132812 2.33484375 -12.44140625 1.9921875 C-11.49136719 1.62351562 -10.54132813 1.25484375 -9.5625 0.875 C-8.61503906 0.50117188 -7.66757812 0.12734375 -6.69140625 -0.2578125 C-3.91753659 -1.02274027 -2.6526778 -0.99083473 0 0 Z " transform="translate(342,417)" style="fill: #C24A14;"/><path d="M0 0 C0.66 0 1.32 0 2 0 C2.33 5.94 2.66 11.88 3 18 C-1 15 -1 15 -1.6875 11.375 C-1.790625 10.26125 -1.89375 9.1475 -2 8 C-2.33 7.67 -2.66 7.34 -3 7 C-3.04063832 5.33382885 -3.042721 3.66611905 -3 2 C-2.01 2.495 -2.01 2.495 -1 3 C-0.67 2.01 -0.34 1.02 0 0 Z " transform="translate(125,277)" style="fill: #D51045;"/><path d="M0 0 C0.66 0.33 1.32 0.66 2 1 C-5.92 8.92 -13.84 16.84 -22 25 C-22 22 -22 22 -20.06640625 19.84375 C-19.24011719 19.0703125 -18.41382813 18.296875 -17.5625 17.5 C-14.0051262 14.26041979 -14.0051262 14.26041979 -12 10 C-11.01 9.67 -10.02 9.34 -9 9 C-7.29006566 7.3777546 -5.62652316 5.70586575 -4 4 C-2.66666667 2.66666667 -1.33333333 1.33333333 0 0 Z " transform="translate(150,95)" style="fill: #F59117;"/><path d="M0 0 C1.49080078 0.02707031 1.49080078 0.02707031 3.01171875 0.0546875 C3.77097656 0.07789063 4.53023438 0.10109375 5.3125 0.125 C0.61057991 3.25961339 -4.69943342 3.77738668 -10.1875 4.875 C-11.91806641 5.24431641 -11.91806641 5.24431641 -13.68359375 5.62109375 C-14.78832031 5.84410156 -15.89304687 6.06710937 -17.03125 6.296875 C-18.55008789 6.6077002 -18.55008789 6.6077002 -20.09960938 6.92480469 C-22.6875 7.125 -22.6875 7.125 -25.6875 5.125 C-24.49511719 4.93164062 -23.30273438 4.73828125 -22.07421875 4.5390625 C-20.50774888 4.27642084 -18.94134605 4.01337912 -17.375 3.75 C-16.58931641 3.62367188 -15.80363281 3.49734375 -14.99414062 3.3671875 C-14.23681641 3.23828125 -13.47949219 3.109375 -12.69921875 2.9765625 C-12.00272217 2.86135254 -11.30622559 2.74614258 -10.58862305 2.62744141 C-0.59409514 -0.01397871 -0.59409514 -0.01397871 0 0 Z " transform="translate(311.6875,424.875)" style="fill: #BE4516;"/><path d="M0 0 C0.66 0.33 1.32 0.66 2 1 C1.56429687 1.67804688 1.12859375 2.35609375 0.6796875 3.0546875 C-7.47571187 14.89049739 -7.47571187 14.89049739 -13 28 C-13.33 28 -13.66 28 -14 28 C-13.49202991 23.6822542 -12.80317221 19.96697886 -11 16 C-10.34 16 -9.68 16 -9 16 C-8.91878906 15.46890625 -8.83757812 14.9378125 -8.75390625 14.390625 C-7.71138796 11.0848157 -5.89191605 8.60406789 -3.9375 5.75 C-3.20402344 4.67234375 -2.47054687 3.5946875 -1.71484375 2.484375 C-1.14894531 1.66453125 -0.58304688 0.8446875 0 0 Z " transform="translate(119,128)" style="fill: #DC7216;"/><path d="M0 0 C3.30036426 0.67993615 5.99517461 1.93061584 9 3.4375 C14.87445374 6.18049729 20.59385738 7.25093969 27 8 C27.33 7.01 27.66 6.02 28 5 C28.33 6.65 28.66 8.3 29 10 C20.15568693 10.91703707 13.07905166 8.25955975 5 5 C5 4.34 5 3.68 5 3 C2.525 2.01 2.525 2.01 0 1 C0 0.67 0 0.34 0 0 Z " transform="translate(419,189)" style="fill: #F9B35E;"/><path d="M0 0 C2 1.75 2 1.75 4 4 C4 5.32 4 6.64 4 8 C1.04335481 9.4783226 -1.74229737 9.06032783 -5 9 C-5.33 8.01 -5.66 7.02 -6 6 C-3.35261084 4.5393715 -2.10551666 4 1 4 C0.67 2.68 0.34 1.36 0 0 Z " transform="translate(425,156)" style="fill: #FBDEB1;"/><path d="M0 0 C-0.99 0 -1.98 0 -3 0 C-3 0.66 -3 1.32 -3 2 C-3.65226562 2.24234375 -4.30453125 2.4846875 -4.9765625 2.734375 C-10.94905195 5.00208553 -10.94905195 5.00208553 -16.375 8.3125 C-19 10 -19 10 -21.1640625 9.60546875 C-22.07285156 9.30576172 -22.07285156 9.30576172 -23 9 C-20.77312024 7.70425129 -18.54366825 6.41332692 -16.3125 5.125 C-15.68666016 4.76019531 -15.06082031 4.39539063 -14.41601562 4.01953125 C-4.52599257 -1.67629355 -4.52599257 -1.67629355 0 0 Z " transform="translate(342,192)" style="fill: #D2913C;"/><path d="M0 0 C5.04955491 1.2917466 7.5594494 3.11835317 11 7 C11.70382812 7.78697266 11.70382812 7.78697266 12.421875 8.58984375 C16 12.70066713 16 12.70066713 16 15 C16.66 15.33 17.32 15.66 18 16 C18 17.65 18 19.3 18 21 C17.34 21.33 16.68 21.66 16 22 C15.773125 20.80375 15.54625 19.6075 15.3125 18.375 C13.34949876 10.72467324 7.89002734 6.92362543 1.79296875 2.41796875 C1.20128906 1.95003906 0.60960937 1.48210937 0 1 C0 0.67 0 0.34 0 0 Z " transform="translate(377,177)" style="fill: #E9A653;"/><path d="M0 0 C1 3 1 3 0 5 C-0.2322646 7.71262116 -0.41936235 10.40773126 -0.5625 13.125 C-0.60568359 13.87910156 -0.64886719 14.63320313 -0.69335938 15.41015625 C-0.7994832 17.27321888 -0.90025001 19.13658524 -1 21 C-1.66 20.67 -2.32 20.34 -3 20 C-3.97797523 14.80020213 -5.02864697 8.79618119 -3.16796875 3.73828125 C-2.0625 2.125 -2.0625 2.125 0 0 Z " transform="translate(120,266)" style="fill: #B30E43;"/><path d="M0 0 C0 3.25558265 -0.24293869 6.442101 -0.5 9.6875 C-0.5928125 10.86699219 -0.685625 12.04648437 -0.78125 13.26171875 C-0.8534375 14.16535156 -0.925625 15.06898438 -1 16 C-1.66 16 -2.32 16 -3 16 C-3.33 16.99 -3.66 17.98 -4 19 C-4.054348 16.9377952 -4.09294961 14.87517184 -4.125 12.8125 C-4.14820312 11.66394531 -4.17140625 10.51539063 -4.1953125 9.33203125 C-4.00313312 6.05345101 -3.51407144 3.89579398 -2 1 C-1.34 0.67 -0.68 0.34 0 0 Z " transform="translate(123,265)" style="fill: #C2114A;"/><path d="M0 0 C-4.47630908 3.03233841 -10.72352394 6.60696298 -16.27734375 5.578125 C-16.84582031 5.38734375 -17.41429687 5.1965625 -18 5 C-4.86101549 -1.86962134 -4.86101549 -1.86962134 0 0 Z " transform="translate(235,359)" style="fill: #CC072D;"/><path d="M0 0 C0.99 0.33 1.98 0.66 3 1 C3.33 2.65 3.66 4.3 4 6 C4.66 6 5.32 6 6 6 C7.4375 7.86328125 7.4375 7.86328125 9 10.3125 C9.515625 11.11300781 10.03125 11.91351563 10.5625 12.73828125 C11.036875 13.48464844 11.51125 14.23101562 12 15 C12.99 16.485 12.99 16.485 14 18 C10.91140053 16.64664405 8.992036 15.19113751 6.8125 12.625 C6.30332031 12.03976562 5.79414063 11.45453125 5.26953125 10.8515625 C3.92440727 8.88975091 3.42485598 7.323911 3 5 C2.34 5 1.68 5 1 5 C0.67 3.35 0.34 1.7 0 0 Z " transform="translate(371,248)" style="fill: #AD1244;"/><path d="M0 0 C0.33 0.99 0.66 1.98 1 3 C0.01 4.485 0.01 4.485 -1 6 C-1.24246783 9.20379124 -1.24246783 9.20379124 -1.125 12.6875 C-1.10695313 13.86699219 -1.08890625 15.04648438 -1.0703125 16.26171875 C-1.04710937 17.16535156 -1.02390625 18.06898438 -1 19 C-1.66 19 -2.32 19 -3 19 C-4.33652107 14.19721695 -5.27976132 8.74394239 -3.10546875 4.08203125 C-2 2.4375 -2 2.4375 0 0 Z " transform="translate(378,220)" style="fill: #E21C68;"/><path d="M0 0 C3.58936385 3.44984794 6.64752397 6.98910445 9.625 11 C10.38039063 12.010625 11.13578125 13.02125 11.9140625 14.0625 C13.75968362 16.66157694 15.53493515 19.16819679 17 22 C16.67 22.66 16.34 23.32 16 24 C15.54109375 23.32453125 15.0821875 22.6490625 14.609375 21.953125 C13.99578125 21.06109375 13.3821875 20.1690625 12.75 19.25 C12.14671875 18.36828125 11.5434375 17.4865625 10.921875 16.578125 C9.10574431 14.14185212 7.14756389 12.13874433 5 10 C2.86990404 6.85557263 1.20354556 3.61063669 0 0 Z " transform="translate(427,122)" style="fill: #EFAB4D;"/><path d="M0 0 C0.66 0.33 1.32 0.66 2 1 C0.58922306 2.7755291 -0.82886536 4.54525031 -2.25 6.3125 C-3.03890625 7.29863281 -3.8278125 8.28476562 -4.640625 9.30078125 C-6.65198298 11.6018547 -8.4793158 13.30605396 -11 15 C-11.66 13.35 -12.32 11.7 -13 10 C-12.34 10 -11.68 10 -11 10 C-11 10.66 -11 11.32 -11 12 C-10.34 12 -9.68 12 -9 12 C-8.34 10.68 -7.68 9.36 -7 8 C-6.34 8 -5.68 8 -5 8 C-4.9175 7.4225 -4.835 6.845 -4.75 6.25 C-3.79468987 3.3840696 -2.21530827 2.0009236 0 0 Z " transform="translate(372,330)" style="fill: #2E1207;"/><path d="M0 0 C-0.89203125 0.33773437 -1.7840625 0.67546875 -2.703125 1.0234375 C-3.87359375 1.46945313 -5.0440625 1.91546875 -6.25 2.375 C-7.41015625 2.81585938 -8.5703125 3.25671875 -9.765625 3.7109375 C-12.86758013 4.89107216 -12.86758013 4.89107216 -15.21875 6.125 C-17.72588766 7.3565764 -20.2510098 7.6251377 -23 8 C-19.87079239 5.42743028 -16.74388891 3.90063473 -13 2.375 C-11.453125 1.73691406 -11.453125 1.73691406 -9.875 1.0859375 C-3.71847134 -1.23949045 -3.71847134 -1.23949045 0 0 Z " transform="translate(183,54)" style="fill: #F1A537;"/><path d="M0 0 C0.33 0.66 0.66 1.32 1 2 C-3.06133537 7.59363406 -7.3791401 12.85963514 -12 18 C-12.66 17.67 -13.32 17.34 -14 17 C-4.58997722 5.47835991 -4.58997722 5.47835991 0 0 Z " transform="translate(97,108)" style="fill: #D87F34;"/><path d="M0 0 C0.33 0 0.66 0 1 0 C1.3383344 2.37438249 1.67079002 4.74934959 2 7.125 C2.14308594 8.12273437 2.14308594 8.12273437 2.2890625 9.140625 C2.83611453 13.12628981 3.10022182 16.97859938 3 21 C3.99 21.33 4.98 21.66 6 22 C4.02 22.99 4.02 22.99 2 24 C0.56205146 15.92437827 -0.29599372 8.2056037 0 0 Z " transform="translate(86,277)" style="fill: #F48C13;"/><path d="M0 0 C0.66 0.33 1.32 0.66 2 1 C-3.28 6.28 -8.56 11.56 -14 17 C-14.99 16.67 -15.98 16.34 -17 16 C-16.55269531 15.62488281 -16.10539062 15.24976563 -15.64453125 14.86328125 C-11.92837439 11.71762182 -8.40090377 8.49040124 -5 5 C-3.33333333 3.33333333 -1.66666667 1.66666667 0 0 Z " transform="translate(105,285)" style="fill: #DE6915;"/><path d="M0 0 C1.88937629 0.47066313 3.76319944 1.00298756 5.6328125 1.546875 C5.6328125 1.876875 5.6328125 2.206875 5.6328125 2.546875 C-1.13312769 2.66069455 -7.65555812 2.42708869 -14.3671875 1.546875 C-9.83183756 -1.47669162 -5.26631822 -1.00807411 0 0 Z " transform="translate(335.3671875,91.453125)" style="fill: #F4D3AD;"/><path d="M0 0 C0 0.33 0 0.66 0 1 C-1.65 1.33 -3.3 1.66 -5 2 C-5 6.29 -5 10.58 -5 15 C-7 14 -7 14 -8 11 C-8.0685495 9.10529184 -8.08480372 7.2083166 -8.0625 5.3125 C-8.05347656 4.31863281 -8.04445313 3.32476562 -8.03515625 2.30078125 C-8.02355469 1.54152344 -8.01195313 0.78226562 -8 0 C-5.13822943 -1.43088528 -3.06624227 -0.59991697 0 0 Z " transform="translate(135,327)" style="fill: #E87913;"/><path d="M0 0 C0.33 1.32 0.66 2.64 1 4 C2.3303125 3.938125 2.3303125 3.938125 3.6875 3.875 C6.97277013 3.99897246 9.05449295 4.61387904 12 6 C11.67 6.66 11.34 7.32 11 8 C7.37 7.67 3.74 7.34 0 7 C-1 3 -1 3 0 0 Z " transform="translate(129,267)" style="fill: #EF1864;"/><path d="M0 0 C0.66 0 1.32 0 2 0 C3.4606285 2.64738916 4 3.89448334 4 7 C4.66 7 5.32 7 6 7 C5.67 8.32 5.34 9.64 5 11 C3.0625 10.6875 3.0625 10.6875 1 10 C-0.1577506 6.52674819 -0.06866652 3.63932552 0 0 Z " transform="translate(375,239)" style="fill: #DB175B;"/><path d="M0 0 C0.99 0 1.98 0 3 0 C3.70180531 1.4096347 4.38593958 2.82807641 5.0625 4.25 C5.44535156 5.03890625 5.82820313 5.8278125 6.22265625 6.640625 C7.33849446 10.02739022 6.54747964 11.90504072 5 15 C3.68 14.67 2.36 14.34 1 14 C1.66 13.67 2.32 13.34 3 13 C3.27429625 7.60550707 3.36055646 4.48074195 0 0 Z " transform="translate(407,219)" style="fill: #EF3884;"/><path d="M0 0 C6.68898454 -0.43623812 12.98137957 0.99068978 19 4 C18.67 4.66 18.34 5.32 18 6 C5.33029613 2.92482916 5.33029613 2.92482916 0 1 C0 0.67 0 0.34 0 0 Z " transform="translate(355,190)" style="fill: #E8A650;"/><path d="M0 0 C0.66 0.33 1.32 0.66 2 1 C0.04761147 3.00612399 -1.91137822 5.00492433 -3.875 7 C-4.43058594 7.57234375 -4.98617188 8.1446875 -5.55859375 8.734375 C-7.00134404 10.19450782 -8.4974374 11.60149298 -10 13 C-10.66 13 -11.32 13 -12 13 C-10.44997253 9.11602311 -7.99523379 6.97020381 -4.875 4.25 C-3.96492188 3.45078125 -3.05484375 2.6515625 -2.1171875 1.828125 C-1.06917969 0.92320312 -1.06917969 0.92320312 0 0 Z " transform="translate(316,178)" style="fill: #2C1A09;"/><path d="M0 0 C-1.47721422 3.45201639 -3.43794001 5.64961936 -6.125 8.25 C-6.84945312 8.95640625 -7.57390625 9.6628125 -8.3203125 10.390625 C-8.87460938 10.92171875 -9.42890625 11.4528125 -10 12 C-10.66 11.67 -11.32 11.34 -12 11 C-10.52116808 9.35386588 -9.04192523 7.70810092 -7.5625 6.0625 C-6.73878906 5.14597656 -5.91507813 4.22945312 -5.06640625 3.28515625 C-2.0957265 0 -2.0957265 0 0 0 Z " transform="translate(136,201)" style="fill: #2B1603;"/><path d="M0 0 C6.0546875 -0.1953125 6.0546875 -0.1953125 8 0 C8.66 0.66 9.32 1.32 10 2 C11.96690374 2.67292501 11.96690374 2.67292501 14.125 3.125 C15.40375 3.41375 16.6825 3.7025 18 4 C18 4.33 18 4.66 18 5 C11.56318772 4.48914188 6.04057576 3.27057103 0 1 C0 0.67 0 0.34 0 0 Z " transform="translate(206,387)" style="fill: #E47014;"/><path d="M0 0 C-0.66 1.65 -1.32 3.3 -2 5 C-1.34 5 -0.68 5 0 5 C0 5.66 0 6.32 0 7 C-5.75 6.25 -5.75 6.25 -8 4 C-2.25 0 -2.25 0 0 0 Z " transform="translate(217,365)" style="fill: #D5102A;"/><path d="M0 0 C4.18423892 3.50897269 8.19588166 7.08060535 12 11 C11.67 11.66 11.34 12.32 11 13 C7.1295993 9.84967385 3.33599175 6.72846137 0 3 C0 2.01 0 1.02 0 0 Z " transform="translate(393,117)" style="fill: #F3AA4B;"/><path d="M0 0 C0.68835938 0.59748047 0.68835938 0.59748047 1.390625 1.20703125 C2.00421875 1.73683594 2.6178125 2.26664062 3.25 2.8125 C3.88550781 3.36164063 4.52101562 3.91078125 5.17578125 4.4765625 C7.05356752 6.09124587 7.05356752 6.09124587 9.4375 7.6875 C10.2109375 8.3371875 10.2109375 8.3371875 11 9 C11 9.99 11 10.98 11 12 C10.34 12 9.68 12 9 12 C7.66104368 10.33784732 6.32869858 8.67036393 5 7 C4.0925 6.29875 3.185 5.5975 2.25 4.875 C1.13625 3.946875 1.13625 3.946875 0 3 C0 2.01 0 1.02 0 0 Z " transform="translate(176,346)" style="fill: #EE9217;"/><path d="M0 0 C1 3 1 3 0.109375 5.19140625 C-0.33921875 5.97386719 -0.7878125 6.75632812 -1.25 7.5625 C-1.68828125 8.34753906 -2.1265625 9.13257813 -2.578125 9.94140625 C-4 12 -4 12 -7 14 C-6.45276317 10.62537285 -5.9451 8.91765 -4 6 C-3.34 6 -2.68 6 -2 6 C-1.34 4.02 -0.68 2.04 0 0 Z " transform="translate(432,251)" style="fill: #DD2549;"/><path d="M0 0 C0.66 0.33 1.32 0.66 2 1 C2 1.66 2 2.32 2 3 C-1.94444444 5.62962963 -1.94444444 5.62962963 -5 6 C-7.25 5.0625 -7.25 5.0625 -9 4 C-9 3.67 -9 3.34 -9 3 C-7.88625 2.87625 -6.7725 2.7525 -5.625 2.625 C-1.96896323 2.3534187 -1.96896323 2.3534187 0 0 Z " transform="translate(421,153)" style="fill: #FBEED0;"/><path d="M0 0 C1.32 0.33 2.64 0.66 4 1 C-5.71428571 7 -5.71428571 7 -10 7 C-10 6.34 -10 5.68 -10 5 C-5.05 3.515 -5.05 3.515 0 2 C0 1.34 0 0.68 0 0 Z " transform="translate(351,372)" style="fill: #F89113;"/><path d="M0 0 C0.66 0.33 1.32 0.66 2 1 C0.90653119 2.34212062 -0.2001575 3.67347975 -1.3125 5 C-2.23482422 6.11375 -2.23482422 6.11375 -3.17578125 7.25 C-5 9 -5 9 -8 9 C-6.85459775 7.68712379 -5.70866567 6.37470979 -4.5625 5.0625 C-3.92441406 4.33160156 -3.28632813 3.60070312 -2.62890625 2.84765625 C-1.77458541 1.87860647 -0.91348825 0.91348825 0 0 Z " transform="translate(220,329)" style="fill: #610C19;"/><path d="M0 0 C0.66 0 1.32 0 2 0 C1.4213888 3.35594497 0.35999139 4.64000861 -2 7 C-2 7.99 -2 8.98 -2 10 C-2.99 10.33 -3.98 10.66 -5 11 C-4.46968862 6.4923533 -2.74778884 3.58045212 0 0 Z " transform="translate(133,316)" style="fill: #CD5A0F;"/><path d="M0 0 C8.57142857 3 8.57142857 3 12 6 C6.73628638 6.50130606 4.0909066 5.31168629 0 2 C0 1.34 0 0.68 0 0 Z " transform="translate(122,305)" style="fill: #BF3023;"/><path d="M0 0 C0.66 0 1.32 0 2 0 C0.43358249 4.30764815 -1.68336156 8.06171464 -4 12 C-4.6875 10.3125 -4.6875 10.3125 -5 8 C-3.6875 5.25 -3.6875 5.25 -2 3 C-1.34 3 -0.68 3 0 3 C0 2.01 0 1.02 0 0 Z " transform="translate(387,307)" style="fill: #251606;"/><path d="M0 0 C0.66 0 1.32 0 2 0 C4.32590854 3.63423209 4.16265833 6.77088331 4 11 C0.85041169 7.57653445 0.43820891 4.55737263 0 0 Z " transform="translate(120,281)" style="fill: #C90F40;"/><path d="M0 0 C0 0.66 0 1.32 0 2 C-0.78375 2.144375 -1.5675 2.28875 -2.375 2.4375 C-4.96421018 2.87798925 -4.96421018 2.87798925 -7 4 C-7.33 4.66 -7.66 5.32 -8 6 C-8 5.34 -8 4.68 -8 4 C-8.99 3.67 -9.98 3.34 -11 3 C-6.98213116 0.99106558 -4.56087444 -0.12002301 0 0 Z " transform="translate(425,263)" style="fill: #DA1455;"/><path d="M0 0 C0.66 0.33 1.32 0.66 2 1 C1.360625 1.598125 0.72125 2.19625 0.0625 2.8125 C-2.20310389 4.90810337 -2.20310389 4.90810337 -3 8 C-4.65 8.33 -6.3 8.66 -8 9 C-7.04270084 7.87411986 -6.08412105 6.7493285 -5.125 5.625 C-4.59132813 4.99851562 -4.05765625 4.37203125 -3.5078125 3.7265625 C-2.38567993 2.44163349 -1.20628025 1.20628025 0 0 Z " transform="translate(129,257)" style="fill: #CF2D42;"/><path d="M0 0 C0.53625 0.2475 1.0725 0.495 1.625 0.75 C-3.79038462 4.81153846 -3.79038462 4.81153846 -6.75 4.5 C-7.28625 4.2525 -7.8225 4.005 -8.375 3.75 C-2.95961538 -0.31153846 -2.95961538 -0.31153846 0 0 Z " transform="translate(327.375,197.25)" style="fill: #E2993A;"/><path d="M0 0 C3.06393013 -0.25532751 4.63233212 -0.21861333 7.3125 1.375 C7.869375 1.91125 8.42625 2.4475 9 3 C9 3.66 9 4.32 9 5 C6.03 4.01 3.06 3.02 0 2 C0 1.34 0 0.68 0 0 Z " transform="translate(364,170)" style="fill: #D19C5B;"/><path d="M0 0 C0.66 0.33 1.32 0.66 2 1 C-0.97 4.96 -0.97 4.96 -4 9 C-4.33 7.68 -4.66 6.36 -5 5 C-2.5625 2.25 -2.5625 2.25 0 0 Z " transform="translate(372,330)" style="fill: #1B1106;"/><path d="M0 0 C2.1875 0.3125 2.1875 0.3125 4 1 C4.33 2.32 4.66 3.64 5 5 C2.36 4.34 -0.28 3.68 -3 3 C-1.75 1.4375 -1.75 1.4375 0 0 Z " transform="translate(156,322)" style="fill: #DD8317;"/><path d="M0 0 C1.32 0.33 2.64 0.66 4 1 C3.54625 1.556875 3.0925 2.11375 2.625 2.6875 C0.96266232 5.05313439 -0.02144543 7.29015658 -1 10 C-1.33 10 -1.66 10 -2 10 C-2.22036864 6.14354879 -1.60355101 3.50776784 0 0 Z " transform="translate(131,256)" style="fill: #EF226A;"/><path d="M0 0 C3.99455527 0.61454696 6.74466336 2.70646737 10 5 C9.67 5.99 9.34 6.98 9 8 C2.57142857 2.71428571 2.57142857 2.71428571 0 0 Z " transform="translate(163,254)" style="fill: #EF3361;"/><path d="M0 0 C1.39195915 4.17587745 -0.17676781 6.13474776 -2 10 C-2.66 10 -3.32 10 -4 10 C-3.5205537 5.78087253 -2.83374881 3.20336822 0 0 Z " transform="translate(378,220)" style="fill: #E03066;"/><path d="M0 0 C0.33 0 0.66 0 1 0 C1.25 3.25 1.25 3.25 1 7 C-0.32 8.32 -1.64 9.64 -3 11 C-2.01 7.37 -1.02 3.74 0 0 Z " transform="translate(397,286)" style="fill: #C2781B;"/><path d="M0 0 C0.33 0.66 0.66 1.32 1 2 C-0.98 4.31 -2.96 6.62 -5 9 C-5.66 8.67 -6.32 8.34 -7 8 C-4.69 5.36 -2.38 2.72 0 0 Z " transform="translate(423,389)" style="fill: #F0DED0;"/><path d="M0 0 C1 3 1 3 -0.3125 5.6875 C-0.869375 6.450625 -1.42625 7.21375 -2 8 C-2.66 8 -3.32 8 -4 8 C-2.25 2.25 -2.25 2.25 0 0 Z " transform="translate(120,266)" style="fill: #BB2634;"/><path d="M0 0 C2.0343459 1.41519715 2.90410393 2.54982123 3.421875 4.98046875 C3.66273952 6.98176954 3.83532741 8.9909944 4 11 C0 5 0 5 0 0 Z " transform="translate(442,183)" style="fill: #F4A33F;"/><path d="M0 0 C2.875 0.6875 2.875 0.6875 6 2 C7.375 4.625 7.375 4.625 8 7 C6.66382648 6.02471263 5.3311249 5.04466681 4 4.0625 C3.2575 3.51722656 2.515 2.97195312 1.75 2.41015625 C1.1725 1.94480469 0.595 1.47945312 0 1 C0 0.67 0 0.34 0 0 Z " transform="translate(377,177)" style="fill: #CE9857;"/></svg>